<svg width="395" height="395" viewBox="0 0 395 395" fill="none" xmlns="http://www.w3.org/2000/svg">
<mask id="mask0_385_62" style="mask-type:alpha" maskUnits="userSpaceOnUse" x="0" y="0" width="395" height="395">
<circle cx="197.5" cy="197.5" r="197.5" fill="#FF0000"/>
</mask>
<g mask="url(#mask0_385_62)">
<rect x="-20" y="-14" width="435" height="436" fill="#FF0000"/>
<path fill-rule="evenodd" clip-rule="evenodd" d="M279.209 445.695C281.467 445.374 282.474 442.909 285.902 440.293C286.69 439.692 287.618 438.111 288.197 437.32L289.544 435.599C290.249 434.679 290.595 433.877 291.225 432.927C292.406 431.148 293.224 429.1 294.355 427.364C295.642 429.586 295.137 437.272 294.62 439.709C293.718 443.963 292.148 446.449 291.031 450.335C289.648 455.141 293.457 469.316 293.299 475.378C278.981 482.073 243.85 487.638 227.156 488.684C215.013 489.444 201.269 490.167 188.804 489.296C181.85 488.81 170.85 488.196 164.35 487.093C160.474 486.435 156.597 485.899 152.721 485.38C147.531 484.685 112.048 477.213 109.757 475.235C109.837 471.791 111.521 466.11 112.078 462.265C112.59 458.723 112.389 458.808 111.922 455.288C111.018 448.465 112.634 441.33 113.531 434.624C114.134 430.112 114.641 425.08 115.484 420.688C138.303 420.796 141.408 420.659 163.6 415.045C167.725 414.001 166.877 414.274 169.997 416.071C171.086 416.699 171.783 417.135 172.833 417.874C176.217 420.259 183.315 424.268 187.296 425.969C191.538 427.781 196.052 429.684 200.475 431.048C208.574 433.545 220.633 439.318 229.009 438.79C237.585 438.249 244.657 434.132 251.287 429.449L263.076 419.918C263.288 419.731 263.531 419.611 263.828 419.429C265.614 418.332 264.645 418.324 265.973 417.26C270.08 413.969 269.023 414.184 270.711 412.709L275.188 408.206C277.7 405.474 276.636 407.761 279.613 403.655C280.439 402.517 279.891 403.325 280.702 402.622L282.861 400.122C283.845 399.363 284.53 398.216 285.464 397.17L287.053 395.349C287.344 394.956 287.302 394.909 287.546 394.596L291.219 390.239C291.462 389.932 291.373 390.003 291.609 389.692L299.815 378.74C300.43 377.767 300.948 376.806 301.907 376.147C302.713 375.593 307.46 373.623 308.529 373.268C307.942 377.644 298.09 408.684 296.7 412.371C295.506 415.539 294.652 418.4 293.281 421.631C290.994 427.023 288.012 433.625 284.562 438.29L279.751 444.66C279.278 445.255 279.272 444.748 279.211 445.695H279.209ZM146.08 132.179C146.008 136.483 146.087 140.599 145.859 144.895C145.734 147.255 145.092 154.814 144.288 156.266C141.313 152.085 139.645 141.214 141.821 136.283C142.911 133.809 143.989 133.795 145.582 132.238L146.08 132.179H146.08ZM171.474 160.408C170.507 163.153 155.88 161.892 152.407 161.209C148.965 160.531 148.301 159.818 147.321 159.114L171.474 160.409V160.408ZM147.32 159.113C147.738 154.78 148.721 150.444 149.1 145.823C149.487 141.117 149.498 136.07 149.51 131.273C154.169 130.522 158.98 130.484 163.739 130.584C166.163 130.635 168.48 130.627 170.875 130.889C173.398 131.164 176.083 132.152 177.662 134.066C181.277 138.451 177.722 157.179 171.474 160.408L147.32 159.113ZM239.987 145.828C239.257 152.889 236.64 161.793 229.644 164.101C226.988 164.977 224.163 165.283 221.27 165.355C208.455 165.671 198.912 164.301 197.32 150.847C196.788 146.349 196.774 137.45 199.673 134.745C204.975 129.796 225.957 132.123 233.138 133.952C240.432 135.81 240.792 138.045 239.987 145.828ZM182.924 178.801C186.644 178.77 188.794 178.318 191.575 176.756L191.877 174.653C185.651 173.303 182.626 175.217 176.479 171.811C171.421 170.997 179.424 160.008 180.172 158.561C182.324 154.395 183.4 145.797 182.932 140.547C185.581 139.391 191.49 139.023 193.582 141.187C193.947 142.064 191.419 159.972 202.306 165.417C207.46 167.994 213.943 168.453 219.723 168.548C236.187 168.82 241.771 160.997 244.241 145.64C244.41 144.591 244.605 143.732 244.677 142.688C244.793 141.008 244.402 140.363 245.704 139.842C246.39 139.989 249.205 141.273 249.902 141.609C250.725 142.006 251.142 142.244 251.994 142.586C252.575 142.82 252.553 142.766 253.101 143.06L254.015 143.661C253.716 146.599 252.839 155.414 253.702 157.611C255.761 158.458 256.778 157.405 257.659 155.939C260.442 151.306 260.397 151.951 263.129 149.023C268.306 143.473 279.073 146.105 277.276 160.67C276.234 169.119 270.153 179.345 262.444 183.01C256.181 185.988 255.153 182.031 252.818 182.076L249.768 192.853C248.625 196.104 246.924 199.4 245.073 201.78C244.305 202.768 244.184 202.981 243.435 203.855C242.896 204.484 242.529 205.223 241.941 205.787L234.877 212.326C233.538 213.403 232.318 214.179 230.863 215.139C215.996 224.95 197.185 232.134 177.004 226.007C174.967 225.389 173.966 224.824 172.236 223.968C170.625 223.172 169.501 222.152 168.224 221.143C164.778 218.422 158.385 210.019 155.915 205.922C153.162 201.356 148.49 193.275 146.95 187.333C144.35 177.308 145.299 172.758 146.695 162.752C147.271 162.625 150.852 164.136 152.298 164.386C156.485 165.109 163.491 165.334 167.715 164.892C171.224 164.526 171.61 163.4 173.858 162.759C171.636 167.076 170.406 169.391 173.293 174.012C175.388 177.366 182.373 180.109 182.924 178.8V178.801ZM238.786 131.422C235.852 128.879 210.475 126.465 201.836 129.184C200.079 129.736 198.578 130.744 197.528 131.676C196.42 132.657 195.132 133.668 194.814 135.797C189.269 133.819 187.609 134.146 182.052 135.415C181.588 132.925 179.137 130.821 177.332 129.748C174.479 128.051 173.538 127.569 169.694 127.182C163.116 126.52 156.125 126.659 149.543 127.343C149.252 118.819 150.329 111.405 153.158 104.329C154.548 100.854 158.378 94.8047 161.045 92.4091C162.484 91.1167 162.893 90.3423 164.358 89.2132C166.506 89.7224 168.914 90.9478 171.609 91.5347C174.139 92.0858 176.823 92.6056 179.528 92.8513C202.465 94.9298 209.149 87.626 231.181 91.6687C241.143 93.4971 251.842 97.9015 250.093 110.26C249.713 112.948 249.111 115.553 248.559 118.018C248.295 119.195 247.915 120.513 247.555 121.677C246.159 126.182 252.019 124.993 254.203 138.03C252.846 137.593 251.444 136.795 250.061 136.221C249.459 135.971 248.667 135.632 248.158 135.363C246.526 134.5 247.722 135.081 246.844 134.177C245.966 133.272 240.353 131.418 238.786 131.422ZM225.832 373.318C227.693 373.082 229.471 372.271 231.47 371.883C235.988 371.008 249.78 370.489 246.14 375.735C244.053 378.742 235.61 379.844 230.059 376.124C228.423 375.027 226.973 374.464 226.187 373.728L225.833 373.317L225.832 373.318ZM128.474 342.264C129.807 342.094 133.383 341.955 134.595 342.909L135.556 344.151C137.096 347.26 134.467 351.399 133.126 352.751C132.758 353.122 132.444 353.188 131.886 353.669C130.183 355.136 131.768 354.739 128.693 356.712L128.116 357.064C127.612 357.375 127.329 357.563 126.768 357.898C117.358 363.518 113.024 354.23 118.412 348.585C121.201 345.664 123.969 342.841 128.473 342.264H128.474ZM212.847 358.853C214.625 356.757 218.416 353.656 221.115 350.43C222.211 349.121 228.275 344.188 230.074 342.995C236.957 338.425 244.532 337.394 252.839 339.409C256.446 340.284 264.277 342.667 262.987 348.031C262.741 349.053 261.402 350.264 260.565 350.636C259.088 351.294 258.516 350.554 257.341 349.798C251.479 346.03 240.464 345.435 233.723 347.292C230.204 348.261 222.209 352.006 222.295 354.495C224.232 354.846 229.96 351.59 232.355 350.815C239.951 348.353 248.687 348.707 255.652 352.372C258.089 353.654 262.581 356.756 259.546 360.397C256.195 364.418 253.631 360.575 250.564 359.365C247.078 357.99 242.602 357.297 238.587 357.42C232.867 357.597 220.452 361.24 218.674 365.046C220.094 366.324 221.801 364.913 223.432 364.191C231.91 360.429 242.581 358.254 251.192 363.023C255.108 365.193 255.238 368.577 250.025 369.81C246.692 370.598 242.293 368.512 237.971 368.525C228.68 368.55 224.411 372.686 221.5 371.426C216.88 369.425 206.89 366.749 206.169 366.361L212.847 358.855V358.853ZM262.309 353.369C262.364 353.307 262.432 353.221 262.468 353.181L263.625 352.114C264.98 351.094 266.168 349.9 266.432 347.791C266.842 344.512 264.792 342.904 263.957 341.058C276.494 344.088 286.79 347.69 296.663 354.982C297.438 355.554 298.092 356.138 298.903 356.772L304.573 362.419C303.628 366.139 299.205 372.906 297.275 375.541L284.024 392.606C283.143 393.677 282.668 394.315 281.791 395.317C281.351 395.821 281.159 396.194 280.698 396.726L274.894 403.291C273.998 404.282 273.2 404.656 272.275 405.612C269.776 408.191 267.303 411.093 264.759 413.245L259.489 417.879C258.877 418.47 257.633 419.559 256.808 420.153C247.041 427.195 234.776 439.81 218.618 432.138C214.312 430.094 208.444 428.398 203.573 427.075C189.152 423.16 175.431 415.982 164.2 406.732L158.501 402.223C157.469 401.471 156.809 400.833 155.811 399.978C155.058 399.334 153.964 398.504 153.043 397.772L143.688 389.804C143.132 389.292 143.096 389.124 142.436 388.599L126.262 374.76C125.326 373.002 126.834 368.382 127.458 366.669C128.961 365.639 131.092 365.276 132.614 364.297C136.496 361.8 140.996 356.983 141.956 352.035C146 351.941 145.433 351.906 148.48 353.754C153.103 356.558 161.47 360.262 166.511 361.7C175.684 364.318 184.615 366.434 194.62 368.232C204.291 369.971 213.396 372.037 221.766 375.724C225.974 377.577 229.273 379.666 232.695 382.137C235.41 384.099 240.531 389.106 242.392 389.565C241.677 386.793 239.977 384.777 238.279 383.064C237.675 382.454 237.039 382.203 236.815 381.289C240.082 381.25 243.774 380.922 246.165 379.475C249.525 377.442 249.764 375.663 250.302 372.849C255.143 371.703 257.218 369.934 257.565 365.766L257.667 364.944C263.23 362.754 265.604 359.546 262.308 353.369H262.309ZM106.811 358.951C107.632 352.872 109.526 348.061 113.857 344.018C116.941 341.139 122.903 338.506 125.818 340.069C124.986 340.573 123.539 341.017 122.535 341.591C119.649 343.24 116.616 345.684 114.827 348.374C111.756 352.991 112.04 355.527 113.968 359.879C114.439 360.941 113.87 362.125 113.704 363.637C112.598 363.231 108.546 359.921 106.812 358.952L106.811 358.951ZM161.562 409.661C161.494 409.697 161.394 409.726 161.344 409.741L157.857 410.298C156.631 410.435 155.431 410.573 154.187 410.656C151.735 410.82 149.209 411.074 146.719 411.27C124.994 412.988 95.7525 409.038 76.4011 400.19C66.7491 395.776 64.3982 389.386 65.161 379.037C66.0569 366.877 75.3087 341.64 81.3701 330.098C82.4651 328.013 85.703 319.826 87.0125 319.307C90.9855 317.73 97.7239 319.614 101.099 321.029C104.821 322.589 108.624 325.233 111.203 327.351C111.982 327.991 112.617 328.631 113.33 329.236C117.424 332.709 116.081 332.244 116.137 338.564C114.97 338.984 112.379 341.047 111.594 341.757C104.552 348.133 104.785 356.29 104.019 357.052C103.07 357.522 96.8298 352.688 93.5311 356.152C94.1841 357.726 96.8628 357.931 98.6501 358.736C103.768 361.041 104.112 361.566 108.492 364.371C111.59 366.356 114.189 368.748 116.552 371.469L128.695 381.922C130.147 383.1 131.414 384.18 132.826 385.5C136.74 389.16 142.646 393.697 147.054 397.868L161.561 409.66L161.562 409.661ZM242.062 335.112C242.126 335.01 242.165 334.936 242.232 334.83C242.234 334.828 242.626 334.224 242.661 334.178C243.375 333.244 242.707 334.031 243.583 333.328C244.243 332.798 244.626 332.274 245.697 331.663C247.222 330.792 249.44 330.421 251.194 330.049C262.167 327.725 277.842 330.217 288.54 334.632C291.169 335.716 297.644 338.74 299.489 340.084L309.186 348.661C314.21 355.421 313.541 354.816 312.117 359.133L309.729 364.008C308.819 362.723 307.925 361.474 307.15 360.262C305.661 357.938 306.476 359.095 304.894 357.897L299.696 352.901C296.787 350.774 289.653 346.26 286.379 344.896C278.239 341.504 272.176 339.728 263.335 337.927C259.826 337.211 256.466 337.092 252.917 336.315C248.083 335.258 246.58 335.732 241.683 335.736L242.061 335.111L242.062 335.112ZM89.1356 309.157C97.5729 307.757 105.788 310.689 112.132 315.268C112.57 315.583 112.362 315.374 112.665 315.668C112.71 315.712 112.773 315.778 112.815 315.825L115.818 319.028C116.973 320.18 116.763 320.043 116.688 322.431C116.656 323.444 116.655 324.467 116.675 325.475C116.719 327.664 116.346 327.513 115.812 328.004L113.253 325.012C109.52 321.565 100.648 316.807 95.5337 316.11C90.3254 315.401 87.7387 316.374 85.7941 316.132C85.4297 314.714 88.3487 310.888 89.1347 309.157H89.1356ZM213.9 266.607C223.476 267.352 234.424 277.854 238.346 274.238C238.769 273.848 238.398 274.174 238.776 273.744L244.999 267.318C245.62 266.823 245.358 267.211 245.916 266.376C246.948 264.833 247.298 264.874 248.051 263.87L252.662 258.275C253.189 257.634 252.554 258.394 253.049 257.724L254.971 255.321C255.561 254.364 255.03 255.166 255.603 254.413C255.643 254.362 255.7 254.291 255.739 254.241C261.531 246.766 262.895 244.05 267.6 236.117C268.338 234.873 269.496 232.837 269.56 231.505C274.738 233.25 281.522 237.451 286.472 239.873L294.829 243.91C296.143 244.584 297.413 245.311 298.789 246.11C299.557 246.556 300.08 246.792 300.849 247.171C308.647 251.022 310.32 252.52 316.151 256.631C317.454 257.549 316.711 257.118 317.613 258.244C318.784 259.707 320.271 260.569 321.34 261.972L322.193 262.977C322.208 262.997 322.51 263.452 322.571 263.537L323.102 264.237C323.141 264.288 323.196 264.36 323.234 264.412C334.645 279.797 331.337 297.459 326.889 314.226C324.889 321.771 318.734 344.287 315.761 351.018L315.298 351.86C313.905 350.561 313.213 349.017 312.074 347.598L311.344 346.801C310.621 345.895 311.118 346.143 310.053 345.29C307.526 343.267 307.708 342.55 304.102 339.841L293.131 333.204C292.233 332.754 290.108 332.017 289.112 331.635C275.845 326.537 263.696 325.048 249.349 327.144C252.273 324.075 269.756 318.654 274.506 317.162C281.525 314.959 293.714 312.95 299.847 310.03L300.916 309.139C296.426 308.125 279.986 312.29 274.805 313.812C266.725 316.185 259.077 318.676 251.583 322.413C252.13 320.824 253.33 318.815 253.96 318.037C256.259 315.198 255.308 316.737 256.831 315.014L260.856 310.981C261.813 310.12 261.77 309.677 262.756 308.873C263.245 308.474 263.577 308.403 264.078 308.006L265.977 306.195C266.177 306.029 266.367 305.844 266.466 305.758C266.515 305.717 266.58 305.653 266.629 305.613L276.228 298.503C278.581 296.943 281.289 295.497 283.463 293.675C284.511 292.797 284.674 292.919 285.69 292.305C284.93 291.469 284.387 291.785 283.193 292.214C278.143 294.026 273.285 297.16 268.941 300.217L262.483 305.217C261.643 306.065 262.229 305.966 261.014 306.803C260.334 307.272 259.804 307.532 259.136 308.048C258.571 308.485 258.034 308.984 257.582 309.543C257.387 309.784 257.021 310.303 256.895 310.422C256.077 311.195 257.074 310.575 255.937 311.068C256.252 309.67 257.285 307.909 258.066 306.369C262.097 298.413 263.548 296.091 268.34 288.793L273.007 282.943C274.254 281.637 275.172 279.71 276.781 278.673C277.311 278.332 277.21 278.492 277.736 278.086L280.12 275.808C281.001 274.69 280.26 274.955 281.399 274.018L284.904 271.3C285.185 271.106 285.183 271.085 285.433 270.898L285.786 270.632C289.071 268.217 292.455 265.803 296.03 263.85C297.439 263.081 302.938 260.38 303.526 258.887C299.356 258.827 290.723 263.164 287.323 265.729C286.325 266.481 285.786 266.958 284.873 267.594L281.054 270.55C279.684 271.41 279.84 271.786 278.703 272.839L267.631 284.645C267.575 284.716 267.411 284.917 267.354 284.988L263.519 290.169C263.179 290.519 263.278 290.398 262.884 290.706C263.571 287.453 266.82 282.634 268.588 279.477C270.578 275.924 272.684 272.599 275.207 269.367L279.609 264.157C280.089 263.484 279.632 264.785 280.17 263.11C278.961 263.596 278.285 264.008 277.306 264.668C275.068 266.174 272.395 267.849 271.022 270.101L268.345 273.611C268.025 274.144 268.052 274.155 267.614 274.731C266.506 276.193 265.484 277.656 264.488 279.343C262.427 282.834 261.161 286.022 259.355 289.951C257.361 294.287 252.301 308.591 251.097 313.278C250.486 315.657 250.086 317.258 248.902 319.107C246.869 322.284 245.157 326.078 243.272 329.27C242.577 330.447 242.319 330.511 241.35 331.388C240.088 332.531 239.14 334.538 238.015 335.786C237.248 336.637 236.543 336.5 235.36 336.893C233.481 337.518 231.617 338.439 230.057 339.292C227.669 340.596 224.919 342.479 223.265 344.548C222.173 345.916 220.228 346.689 219.058 348.074L217.075 350.087C214.49 351.998 213.208 354.712 211.554 356.333L209.488 358.274C206.376 362.473 205.092 362.596 203.646 364.191C201.419 366.646 201.187 365.511 194.82 364.367C182.498 362.152 169.07 359.375 157.657 354.215C153.881 352.508 150.709 350.444 147.348 348.986C147.281 347.058 147.694 346.693 146.249 345.497C144.529 344.073 142.008 342.797 140.044 341.823C139.489 341.548 138.637 341.08 138.442 340.944C134.499 338.203 125.121 336.295 120.28 337.025C120.808 324.171 120.595 310.609 122.455 298.283C123.343 292.406 123.904 286.056 124.855 280.206C125.296 277.494 127.914 264.776 127.55 263.323L126.366 264.902C125.915 265.598 125.846 265.695 125.514 266.528C122.868 273.194 120.685 280.293 120.151 287.47C120.051 288.821 119.507 295.521 118.58 296.556C117.336 293.348 115.964 282.858 115.978 278.923C115.984 277.375 116.283 274.354 115.027 273.285C113.014 279.027 113.588 288.436 114.778 294.741C115.449 298.293 116.094 301.113 117.039 304.518C118.121 308.418 116.671 311.389 117.304 315.521L112.846 312.104C106.063 307.24 97.7471 305.626 89.1776 306.248C89.4733 304.567 94.3707 297.327 95.6427 295.183L103.815 281.723C104.465 280.545 104.685 280.097 105.441 279.02L108.541 273.448C110.252 269.704 112.824 266.013 115.004 262.587C115.041 262.53 115.087 262.451 115.124 262.394L116.308 260.794C116.347 260.743 116.403 260.671 116.442 260.619L118.712 257.601C119.592 256.482 119.934 257.072 121.045 255.606C122.709 253.409 123.413 253.369 125.722 251.599C126.65 250.887 127.303 250.5 128.327 249.877C130.049 248.828 132.235 247.93 134.321 247.219C138.828 245.683 156.025 238.254 159.495 237.445C158.714 241.12 153.432 252.172 151.705 256.546C150.329 260.033 148.503 264.321 156.268 262.685C158.561 262.202 164.512 260.401 165.287 258.411L167.358 259.768C167.444 259.849 167.995 260.444 168.084 260.562C169.305 262.197 170.749 263.086 172.248 264.416L175.875 267.279C176.462 267.694 176.735 267.943 177.552 268.047C177.128 271.792 176.367 275.254 176.011 278.911C175.849 280.576 173.342 285.177 172.57 287.317C170.697 292.505 168.27 301.315 167.953 306.662C170.33 309.287 186.547 310.554 186.937 310.316C187.972 309.104 190.297 299.094 191.16 296.698C192.676 292.49 194.478 287.925 195.887 283.783C196.612 281.652 197.723 279.619 198.558 277.475C198.855 276.714 199.337 275.375 199.77 274.366C200.495 272.68 200.249 272.806 202.172 272.398C211.796 270.356 213.761 272.503 213.9 266.605V266.607ZM154.779 258.941C154.839 257.345 164.742 233.181 166.878 230.047L169.137 226.601C169.162 226.484 169.244 226.47 169.307 226.413C170.364 226.82 171.357 227.512 172.541 227.869C171.277 234.155 171.089 247.052 173.996 252.531C174.443 253.375 174.946 254.16 175.353 254.858L181.136 262.679C181.318 262.916 181.427 263.094 181.525 263.226C182.347 264.326 185.108 267.576 185.275 268.634C183.713 268.327 184.129 268.079 182.904 267.103L182.368 266.71C180.008 264.944 172.247 258.393 171.233 256.799C170.581 255.774 170.557 255.63 169.672 254.928C169.015 254.406 169.45 254.825 168.851 254.228C165.501 250.887 162.902 258.281 154.778 258.942L154.779 258.941ZM171.957 304.904C171.362 302.706 175.357 289.867 176.577 287.06C177.106 285.844 177.836 284.489 178.508 283.129C179.284 281.557 179.746 281.012 180.618 279.653C180.904 279.208 180.683 279.524 180.988 279.088C181.026 279.035 181.08 278.961 181.118 278.909C182.347 277.219 183.96 275.681 185.55 274.326C189.585 270.884 196.051 267.946 200.697 265.341L222.635 251.722C222.688 251.684 222.762 251.631 222.814 251.593C222.867 251.554 222.941 251.501 222.994 251.463L223.718 250.947C223.775 250.909 223.851 250.861 223.908 250.824L232.248 244.036C232.369 243.924 232.818 243.619 232.974 243.517C233.624 243.09 234.038 242.923 234.557 242.291C235.296 241.392 234.802 241.665 235.812 240.802C237.336 239.499 238.886 238.368 240.222 236.848L245.613 230.809C245.977 230.349 245.849 230.371 246.253 229.884L248.871 226.65C249.042 226.426 249.162 226.256 249.388 225.931C252.138 221.97 254.496 217.672 256.458 213.209C256.701 212.657 257.057 211.807 257.249 211.236L258.077 209.023L259.17 210.035C259.706 210.62 259.502 210.335 259.871 210.854C261.141 212.642 261.901 215.365 262.587 217.432C265.623 226.581 269.457 225.003 263.726 235.258C260.917 240.285 258.022 244.781 254.772 249.522C254.735 249.577 254.683 249.651 254.645 249.703L249.806 256.002C249.764 256.05 249.7 256.114 249.658 256.161L244.416 262.696C243.501 263.989 243.787 263.243 242.846 264.187C241.05 265.988 239.221 269.51 236.749 270.394C235.291 270.213 234.546 269.121 233.373 268.298L229.904 266.191C226.295 263.867 219.053 259.271 214.449 259.8C210.746 260.226 210.936 264.081 210.721 266.992C200.717 269.345 193.892 269.918 185.767 276.124C184.575 277.034 182.439 278.359 182.436 279.973C184.444 280.543 186.296 279.414 187.901 278.216L189.393 277.237C191.041 276.281 194.116 274.095 196.184 273.872C195.955 274.995 193.482 280.681 192.906 281.988C191.674 284.78 190.856 287.141 189.838 290.047C189.103 292.147 184.611 306.757 184.445 307.048L171.958 304.903L171.957 304.904ZM176.638 230.482C180.114 231.964 184.263 238.85 197.776 238.278C204.92 237.975 212.959 232.616 217.619 229.684L226.162 223.701C229.037 221.616 231.442 219.801 234.197 217.523C237.55 214.75 240.448 212.259 243.49 208.862C244.111 208.169 244.579 207.881 245.164 207.163C245.646 206.571 247.714 203.808 248.374 203.45C248.165 205.527 248.212 208.696 248.434 210.785C248.634 212.658 249.566 216.275 249.562 217.584C249.557 219.684 243.345 227.655 241.72 229.379C240.766 230.391 240.575 230.531 239.807 231.48C236.993 234.958 229.604 241.82 225.808 244.719C219.911 249.221 216.939 251.793 209.748 255.886C208.024 256.868 206.488 257.9 204.751 258.92C203.139 259.867 201.382 260.653 199.718 261.631C196.442 263.554 192.975 265.343 189.721 267.134C188.485 266.113 184.84 260.954 183.832 259.644C182.902 258.436 181.916 257.244 180.981 256.007C178.374 252.559 175.874 250.135 177.061 247.323C179.577 241.366 177.889 238.002 176.638 230.482V230.482ZM146.085 127.852C144.043 127.818 136.857 129.402 134.964 130.036C133.955 136.202 136.52 136.126 136.686 137.792C137.005 140.998 137.047 143.726 137.549 146.946C138.453 152.737 140 158.501 143.633 160.684C142.138 176.403 139.958 181.978 147.729 198.342C150.586 204.357 156.579 213.559 160.939 218.529L166.447 224.389C165.88 225.4 164.955 226.09 164.151 227.281C163.361 228.451 162.848 229.551 162.194 230.886C161.299 232.715 161.109 232.598 159.358 233.31C158.003 233.862 156.676 234.344 155.356 234.87C150.296 236.885 144.834 238.991 139.689 240.867C126.883 245.537 120.303 249.489 113.5 258.29C110.039 262.766 93.8697 290.87 89.0034 298.743L82.9171 309.049C82.3044 311.118 83.3825 311.793 82.6295 313.699C82.1088 315.02 81.4442 315.943 81.1807 317.542C80.2419 323.234 84.1748 315.354 77.2747 329.393C71.0204 342.119 62.2045 364.022 61.1264 378.441C59.95 394.181 67.101 400.403 77.8517 404.927C84.6848 407.803 95.2175 410.666 102.811 412.424C104.826 412.89 110.949 413.637 112.135 414.3C112.147 424.774 107.608 441.611 107.75 450.803C107.796 453.769 108.877 457.213 108.544 459.927C106.292 478.263 101.519 477.159 113.5 480.625C124.151 483.708 135.428 486.121 146.727 488.234C184.485 495.292 222.51 494.305 259.833 488.141C271.053 486.287 282.665 483.414 292.546 479.703C298.62 477.423 297.489 478.087 296.15 465.315C295.833 462.3 295.362 459.326 294.98 456.279C294.266 450.587 294.377 452.121 296.159 447.751C302.603 431.945 296.507 425.793 297.193 422.502C297.545 420.814 299.246 416.911 299.922 415.011C305.802 398.487 309.129 383.031 314.377 367.904C316.192 362.673 317.694 357.652 319.495 352.608C323.141 342.391 326.424 331.873 329.34 321.319C336.611 295.015 339.244 275.854 322.54 257.658C312.904 247.162 285.236 235.426 270.523 227.408C270.99 223.273 268.664 223.044 267.38 220.329C266.202 217.837 265.797 215.192 264.732 212.485C262.721 207.381 259.095 204.151 252.496 203.658C252.189 197.484 251.82 199.756 253.388 194.943C254.283 192.194 254.592 189.643 255.351 186.784C265.951 190.789 281.94 172.444 280.731 156.018C280.321 150.445 277.298 145.432 273.852 143.759C275.809 133.901 278.215 117.851 276.036 107.767C273.986 98.2749 269.504 96.0811 268.92 95.1013C268.202 93.8963 268.664 91.2524 266.705 87.3822C265.76 85.5144 263.766 82.5436 261.828 82.1417L261.953 87.2312C261.381 86.7328 261.842 87.241 261.229 86.4121C259.681 84.3175 260.265 84.1862 256.938 80.7742C251.033 74.7164 244.356 71.1409 236.098 68.1978C230.208 66.0987 224.603 65.1546 217.747 64.3141L197.962 62.9966C196.616 63.0422 197.519 62.8046 196.854 63.3271C197.422 63.8291 199.257 65.2591 199.685 65.9889C191.926 65.0188 194.178 66.3372 185.347 63.3289C185.165 65.0778 185.445 65.1591 186.129 66.3345C182.658 65.8093 180.161 65.0376 177.571 63.6335C174.415 61.923 173.711 61.053 172.169 58C168.401 58.9513 165.038 64.3686 166.464 69.4724C165.18 68.9383 162.819 66.5623 161.989 65.6021C159.877 63.1583 160.276 62.9421 159.102 59.8909C157.195 60.6582 155.674 63.7148 154.839 66.1005C153.677 69.4188 154.008 72.0439 154.852 75.2979C151.972 73.8464 149.473 70.6264 149.37 65.8576C148.761 66.0175 138.864 77.5774 149.506 90.4789C150.318 91.4632 151.295 91.9875 151.988 92.9343C149.585 97.8443 147.381 102.181 146.835 108.188C146.547 111.358 146.041 114.371 146.032 117.678C146.022 120.996 146.294 124.586 146.087 127.85L146.085 127.852Z" fill="#040504"/>
<path fill-rule="evenodd" clip-rule="evenodd" d="M89.6391 85.2981C90.0553 83.9985 89.4417 74.2098 98.8874 72.6743C106.232 71.481 110.857 76.4678 109.412 83.7805C108.735 87.2042 106.229 90.1866 104.195 92.4581L100.502 97.1403C99.0204 99.2072 97.5466 101.64 97.0366 104.808C96.6829 107.005 96.9223 113.455 98.1138 114.645L98.7793 114.798C98.8427 114.801 98.9436 114.807 99.0151 114.805L102.437 114.249C103.946 114.036 105.511 113.793 107.057 113.601C109.243 113.33 110.113 113.445 109.835 111.386C109.116 106.04 108.626 104.068 112.579 99.2866L116.447 95.1162C120.489 90.7967 123.798 86.3851 123.532 78.3864C123.025 63.1277 104.751 57.6175 90.3786 63.4671C85.4088 65.4894 81.4501 69.1631 79.2358 73.7301C78.0309 76.2177 77.0207 78.9304 76.8268 82.1165C76.5258 87.0702 76.106 88.5538 81.008 87.5633C82.4308 87.2756 88.6681 86.3288 89.6373 85.2981H89.6391Z" fill="black"/>
<path fill-rule="evenodd" clip-rule="evenodd" d="M303.415 78.1218C304.13 76.7114 306.653 74.9098 308.039 74.2587C314.768 71.0931 323.387 79.9082 317.372 85.7364C312.826 90.1409 304.57 87.4282 299.357 94.0156C298.479 95.125 296.659 98.4718 296.744 100.367C298.148 101.293 303.158 103.801 305.198 103.861C310.276 93.5368 316.394 98.8139 324.235 92.9071C326.812 90.9662 329.01 87.6032 329.547 83.3408C331.033 71.554 315.646 60.9686 304.134 65.3623C300.216 66.8575 297.619 69.3353 295.77 72.1864C294.12 74.7312 295.158 75.0903 297.562 76.0514C299.454 76.807 301.24 78.0379 303.415 78.1218H303.415Z" fill="black"/>
<path fill-rule="evenodd" clip-rule="evenodd" d="M201.777 110.539C200.598 111.423 198.622 116.14 202.877 119.378C207.489 122.887 216.721 124.945 222.752 125.768C224.59 126.019 226.537 126.336 228.315 126.694C229.784 126.989 232.589 127.945 233.814 128.055C236.535 128.299 235.701 120.492 221.11 116.944C216.279 115.77 207.824 114.254 203.894 111.249C202.774 110.393 202.832 109.75 201.778 110.54L201.777 110.539Z" fill="#040504"/>
<path fill-rule="evenodd" clip-rule="evenodd" d="M152.212 125.8C152.819 125.973 175.823 125.575 181.075 119.247C183.251 116.624 182.379 112.107 180.132 110.711C175.586 115.009 171.386 115.269 164.724 116.839C160.168 117.912 150.708 120.964 152.212 125.8V125.8Z" fill="#040504"/>
<path fill-rule="evenodd" clip-rule="evenodd" d="M98.7055 122.845C98.5055 124.786 99.8953 134.216 100.538 135.66C102.768 136.242 111.602 135.019 113.746 134.25C114.038 133.086 112.567 122.6 112.061 121.117C109.767 120.731 100.246 122.071 98.7055 122.845Z" fill="black"/>
<path fill-rule="evenodd" clip-rule="evenodd" d="M210.741 194.185L211.832 193.533C214.892 194.291 213 198.317 212.723 198.495C211.54 198.807 211.745 197.836 210.98 197.143L203.275 192.72C195.488 189.137 186.281 187.836 178.124 190.144C176.247 190.676 174.805 191.209 173.129 192.049C170.801 193.218 169.749 194.368 168.184 193.915C168.309 192.313 169.74 191.405 171.541 190.411C176.581 187.635 181.007 186.558 187.265 186.497C193.108 186.441 200.585 188.361 205.761 191.251C207.353 192.14 209.162 193.533 210.742 194.183L210.741 194.185Z" fill="#040504"/>
<path fill-rule="evenodd" clip-rule="evenodd" d="M298.973 119.853C299.692 118.597 302.737 112.16 302.689 110.568C301.165 108.982 298.232 108.149 295.962 106.984C292.515 105.215 292.131 108.365 290.876 110.88C288.873 114.892 287.812 115.531 291.211 117.026C293.192 117.898 296.604 120.028 298.973 119.852V119.853Z" fill="black"/>
<path fill-rule="evenodd" clip-rule="evenodd" d="M213.918 143.593C206.308 145.921 207.935 157.196 216.229 155.629C218.92 155.121 221.373 151.713 221.079 148.294C220.783 144.851 217.652 142.451 213.918 143.593Z" fill="#040504"/>
<path fill-rule="evenodd" clip-rule="evenodd" d="M166.814 142.005C160.122 144.112 162.649 156.929 169.822 153.772C172.147 152.748 174.252 149.737 173.577 146.207C173.012 143.259 170.213 140.935 166.814 142.005Z" fill="#040504"/>
<path fill-rule="evenodd" clip-rule="evenodd" d="M264.458 164.813C265.99 168.027 261.535 171.582 261.26 172.884C260.896 174.608 262.215 174.742 263.239 173.892C264.78 172.612 265.906 170.917 266.678 168.996C267.233 167.617 267.762 165.729 267.408 164.089C267.267 163.434 266.771 162.573 266.376 162.266L264.286 161.293C265.121 159.601 268.306 155.24 270.139 155.583C272.113 156.538 272.18 158.237 273.48 159.7C275.334 149.655 266.191 150.356 260.96 161.063C260.411 162.186 259.843 163.893 260.775 164.798C262.18 166.162 262.363 164.229 264.457 164.813H264.458Z" fill="#040504"/>
<path fill-rule="evenodd" clip-rule="evenodd" d="M204.893 147.664C206.594 139.111 216.149 135.652 224.51 139.191C228.699 140.965 231.761 145.929 231.442 150.893C233.667 149.191 232.06 140.029 226.039 136.748C217.086 131.868 204.846 136.869 204.597 146.161L204.893 147.664Z" fill="#040504"/>
<path fill-rule="evenodd" clip-rule="evenodd" d="M187.784 290.891C189.456 284.273 181.348 281.546 178.936 288.114C177.796 291.218 179.705 293.48 182.06 294.2C184.446 294.929 187.309 292.778 187.785 290.891H187.784Z" fill="#040504"/>
<path fill-rule="evenodd" clip-rule="evenodd" d="M153.996 150.462C152.836 143.881 157.447 137.651 162.195 136.238C169.352 134.11 175.281 138.921 175.6 145.014L175.869 144.514C177.545 139.299 171.213 131.055 161.903 133.506C158.838 134.313 156.015 137.2 154.684 139.521C153.316 141.906 152.596 145.078 153.004 147.954L153.559 149.874C153.812 150.318 153.735 150.178 153.997 150.462H153.996Z" fill="#040504"/>
<path fill-rule="evenodd" clip-rule="evenodd" d="M181.094 202.419C183.709 202.652 185.96 200.725 190.001 201.207C192.704 201.528 196.181 203.66 197.673 202.74C195.819 197.925 182.578 197.164 181.094 202.419Z" fill="#040504"/>
</g>
</svg>
