<svg width="39" height="38" viewBox="0 0 39 38" fill="none" xmlns="http://www.w3.org/2000/svg">
<path d="M32.2776 10.0543H24.2501V12.2868H32.3092L32.2776 10.0543ZM30.5834 25.4127C29.9744 25.8162 29.2553 26.0209 28.5251 25.9985C28.0417 26.0489 27.5532 25.999 27.09 25.8519C26.6269 25.7047 26.1991 25.4636 25.8334 25.1435C25.1588 24.3761 24.807 23.3776 24.8517 22.3568H35.3334C35.4082 21.2937 35.3174 20.2254 35.0642 19.1902C34.8179 18.2056 34.3882 17.2764 33.7976 16.451C33.2012 15.6519 32.4328 14.9972 31.5492 14.5352C30.5645 14.0517 29.4795 13.8075 28.3826 13.8227C27.3508 13.816 26.3281 14.0151 25.3742 14.4085C24.5008 14.7763 23.7096 15.3145 23.0467 15.9918C22.3855 16.6824 21.8735 17.5016 21.5426 18.3985C21.1874 19.3668 21.0104 20.3914 21.0201 21.4227C21.0031 22.4687 21.1747 23.5092 21.5267 24.4943C21.8267 25.3859 22.3003 26.2092 22.9201 26.9168C23.5628 27.6106 24.3526 28.1516 25.2317 28.5002C26.212 28.8737 27.2546 29.0564 28.3034 29.0385C29.775 29.0844 31.2279 28.6992 32.4834 27.9302C33.7525 27.03 34.6657 25.7134 35.0642 24.2093H31.5651C31.3778 24.7067 31.033 25.1293 30.5834 25.4127ZM25.1526 18.8893C25.2758 18.4946 25.4804 18.13 25.7531 17.8191C26.0258 17.5083 26.3606 17.258 26.7359 17.0843C27.2333 16.8616 27.7744 16.7534 28.3192 16.7677C28.7129 16.7341 29.1091 16.786 29.4808 16.9199C29.8525 17.0538 30.1908 17.2666 30.4726 17.5435C31.0113 18.2016 31.3566 18.9965 31.4701 19.8393H24.8992C24.9249 19.5176 24.9832 19.1993 25.0734 18.8893H25.1526ZM16.7767 18.1293C17.5826 17.7938 18.2828 17.2467 18.8034 16.546C19.2838 15.8027 19.5217 14.9286 19.4842 14.0443C19.5141 13.2383 19.357 12.4362 19.0251 11.701C18.7453 11.0644 18.2962 10.5167 17.7267 10.1177C17.1239 9.70105 16.4378 9.42015 15.7159 9.29435C14.8623 9.11479 13.9915 9.02983 13.1192 9.04102H3.66675V28.9594H13.3251C14.2065 28.9591 15.0843 28.8474 15.9376 28.6268C16.7457 28.4161 17.5116 28.068 18.2017 27.5977C18.8708 27.1364 19.4149 26.5161 19.7851 25.7927C20.1973 24.9851 20.3988 24.0865 20.3709 23.1802C20.4009 22.0572 20.0859 20.952 19.4684 20.0135C18.8043 19.0697 17.8194 18.4 16.6976 18.1293H16.7767ZM8.05258 12.4452H12.1534C12.5302 12.4433 12.9064 12.4751 13.2776 12.5402C13.6199 12.5892 13.9486 12.7077 14.2434 12.8885C14.529 13.05 14.7603 13.2924 14.9084 13.5852C15.0932 13.9357 15.1807 14.3294 15.1617 14.7252C15.1912 15.066 15.1391 15.4089 15.0097 15.7255C14.8803 16.0422 14.6773 16.3234 14.4176 16.546C13.8509 16.9356 13.1729 17.1301 12.4859 17.1002H8.05258V12.4452ZM15.7159 24.2252C15.552 24.547 15.3063 24.82 15.0034 25.0168C14.6872 25.2135 14.3388 25.3529 13.9742 25.4285C13.5691 25.5197 13.1545 25.5622 12.7392 25.5552H7.98925V20.0927H12.7392C13.5544 20.057 14.3593 20.2846 15.0351 20.7418C15.3404 21.0158 15.5769 21.3578 15.7254 21.7402C15.8739 22.1225 15.9303 22.5345 15.8901 22.9427C15.9311 23.3779 15.8716 23.8167 15.7159 24.2252Z" fill="white"/>
</svg>
