<svg width="33" height="33" viewBox="0 0 33 33" fill="none" xmlns="http://www.w3.org/2000/svg">
<path d="M27.5962 8.73143H20.625V10.6702H27.6238L27.5962 8.73143ZM26.125 22.0689C25.5961 22.4194 24.9716 22.5971 24.3375 22.5777C23.9178 22.6214 23.4935 22.5781 23.0913 22.4503C22.6891 22.3226 22.3176 22.1131 22 21.8352C21.4142 21.1688 21.1087 20.3016 21.1475 19.4152H30.25C30.3149 18.4919 30.2361 17.5642 30.0163 16.6652C29.8023 15.8102 29.4291 15.0032 28.9163 14.2864C28.3984 13.5925 27.7311 13.0239 26.9638 12.6227C26.1086 12.2028 25.1663 11.9908 24.2138 12.0039C23.3178 11.9981 22.4296 12.1711 21.6012 12.5127C20.8428 12.832 20.1556 13.2995 19.58 13.8877C19.0058 14.4873 18.5611 15.1988 18.2738 15.9777C17.9653 16.8186 17.8116 17.7083 17.82 18.6039C17.8053 19.5123 17.9543 20.4159 18.26 21.2714C18.5205 22.0457 18.9317 22.7607 19.47 23.3752C20.0281 23.9776 20.7141 24.4475 21.4775 24.7502C22.3288 25.0745 23.2342 25.2332 24.145 25.2177C25.4229 25.2575 26.6847 24.923 27.775 24.2552C28.8771 23.4735 29.6702 22.33 30.0163 21.0239H26.9775C26.8148 21.4559 26.5155 21.8228 26.125 22.0689ZM21.4087 16.4039C21.5158 16.0611 21.6934 15.7445 21.9302 15.4745C22.1671 15.2046 22.4578 14.9872 22.7837 14.8364C23.2157 14.643 23.6856 14.5491 24.1587 14.5614C24.5006 14.5322 24.8447 14.5773 25.1675 14.6936C25.4903 14.8099 25.7841 14.9947 26.0288 15.2352C26.4966 15.8067 26.7965 16.497 26.895 17.2289H21.1887C21.211 16.9495 21.2617 16.6731 21.34 16.4039H21.4087ZM14.135 15.7439C14.8348 15.4525 15.4429 14.9774 15.895 14.3689C16.3122 13.7234 16.5188 12.9643 16.4862 12.1964C16.5122 11.4964 16.3757 10.7999 16.0875 10.1614C15.8446 9.60857 15.4546 9.13297 14.96 8.78643C14.4365 8.42462 13.8407 8.18068 13.2137 8.07143C12.4724 7.9155 11.7162 7.84172 10.9587 7.85143H2.75V25.1489H11.1375C11.9029 25.1487 12.6652 25.0517 13.4062 24.8602C14.1081 24.6772 14.7732 24.3749 15.3725 23.9664C15.9535 23.5658 16.426 23.0272 16.7475 22.3989C17.1054 21.6976 17.2804 20.9172 17.2563 20.1302C17.2823 19.1549 17.0088 18.1952 16.4725 17.3802C15.8958 16.5606 15.0405 15.9789 14.0662 15.7439H14.135ZM6.55875 10.8077H10.12C10.4472 10.8061 10.7739 10.8337 11.0962 10.8902C11.3935 10.9327 11.679 11.0357 11.935 11.1927C12.183 11.333 12.3839 11.5435 12.5125 11.7977C12.673 12.1021 12.749 12.444 12.7325 12.7877C12.7581 13.0836 12.7129 13.3814 12.6005 13.6564C12.4881 13.9314 12.3118 14.1756 12.0863 14.3689C11.5942 14.7072 11.0053 14.8762 10.4088 14.8502H6.55875V10.8077ZM13.2137 21.0377C13.0714 21.3172 12.858 21.5543 12.595 21.7252C12.3204 21.896 12.0179 22.017 11.7013 22.0827C11.3494 22.1618 10.9894 22.1988 10.6287 22.1927H6.50375V17.4489H10.6287C11.3366 17.4179 12.0357 17.6156 12.6225 18.0127C12.8876 18.2506 13.093 18.5476 13.222 18.8796C13.351 19.2117 13.4 19.5694 13.365 19.9239C13.4007 20.3019 13.3489 20.6829 13.2137 21.0377Z" fill="#FF0000"/>
</svg>
