<svg width="26" height="20" viewBox="0 0 26 20" fill="none" xmlns="http://www.w3.org/2000/svg">
<path d="M22.5711 4.17406H20.9066V3.34179C20.9066 2.67959 20.6435 2.04452 20.1753 1.57627C19.707 1.10803 19.072 0.844971 18.4098 0.844971H3.42886C2.76666 0.844971 2.13158 1.10803 1.66334 1.57627C1.19509 2.04452 0.932037 2.67959 0.932037 3.34179V13.3291C0.932037 13.9913 1.19509 14.6263 1.66334 15.0946C2.13158 15.5628 2.76666 15.8259 3.42886 15.8259H15.0807V16.6582C15.0807 17.3203 15.3437 17.9554 15.812 18.4237C16.2802 18.8919 16.9153 19.155 17.5775 19.155H22.5711C23.2333 19.155 23.8684 18.8919 24.3366 18.4237C24.8049 17.9554 25.0679 17.3203 25.0679 16.6582V6.67088C25.0679 6.00868 24.8049 5.37361 24.3366 4.90536C23.8684 4.43712 23.2333 4.17406 22.5711 4.17406ZM3.42886 14.1613C3.20812 14.1613 2.99643 14.0736 2.84035 13.9176C2.68427 13.7615 2.59658 13.5498 2.59658 13.3291V3.34179C2.59658 3.12106 2.68427 2.90936 2.84035 2.75328C2.99643 2.5972 3.20812 2.50952 3.42886 2.50952H18.4098C18.6305 2.50952 18.8422 2.5972 18.9983 2.75328C19.1544 2.90936 19.242 3.12106 19.242 3.34179V4.17406H17.5775C16.9153 4.17406 16.2802 4.43712 15.812 4.90536C15.3437 5.37361 15.0807 6.00868 15.0807 6.67088V14.1613H3.42886ZM23.4034 16.6582C23.4034 16.8789 23.3157 17.0906 23.1596 17.2467C23.0036 17.4027 22.7919 17.4904 22.5711 17.4904H17.5775C17.3568 17.4904 17.1451 17.4027 16.989 17.2467C16.8329 17.0906 16.7452 16.8789 16.7452 16.6582V6.67088C16.7452 6.45015 16.8329 6.23846 16.989 6.08237C17.1451 5.92629 17.3568 5.83861 17.5775 5.83861H22.5711C22.7919 5.83861 23.0036 5.92629 23.1596 6.08237C23.3157 6.23846 23.4034 6.45015 23.4034 6.67088V16.6582ZM13.4161 18.3227C13.4161 18.5434 13.3284 18.7551 13.1724 18.9112C13.0163 19.0673 12.8046 19.155 12.5839 19.155H8.42249C8.20176 19.155 7.99007 19.0673 7.83399 18.9112C7.6779 18.7551 7.59022 18.5434 7.59022 18.3227C7.59022 18.102 7.6779 17.8903 7.83399 17.7342C7.99007 17.5781 8.20176 17.4904 8.42249 17.4904H12.5839C12.8046 17.4904 13.0163 17.5781 13.1724 17.7342C13.3284 17.8903 13.4161 18.102 13.4161 18.3227ZM21.7389 8.33542C21.7389 8.55616 21.6512 8.76785 21.4951 8.92393C21.339 9.08001 21.1273 9.1677 20.9066 9.1677H19.242C19.0213 9.1677 18.8096 9.08001 18.6535 8.92393C18.4974 8.76785 18.4098 8.55616 18.4098 8.33542C18.4098 8.11469 18.4974 7.903 18.6535 7.74692C18.8096 7.59084 19.0213 7.50315 19.242 7.50315H20.9066C21.1273 7.50315 21.339 7.59084 21.4951 7.74692C21.6512 7.903 21.7389 8.11469 21.7389 8.33542Z" fill="#FF0000"/>
</svg>
