<svg width="54" height="44" viewBox="0 0 54 44" fill="none" xmlns="http://www.w3.org/2000/svg">
<path d="M22 29.5H7V7C7 5.67392 7.52678 4.40215 8.46447 3.46447C9.40215 2.52678 10.6739 2 12 2H42C43.3261 2 44.5979 2.52678 45.5355 3.46447C46.4732 4.40215 47 5.67392 47 7V12M2 37H32" stroke="#FF0000" stroke-width="3.55556" stroke-linecap="round" stroke-linejoin="round"/>
<path d="M42 34.5H42.025M32 15C32 13.3425 33.4925 12 35.3325 12H48.6675C50.5075 12 52 13.3425 52 15V39C52 40.6575 50.5075 42 48.6675 42H35.3325C33.4925 42 32 40.6575 32 39V15Z" stroke="#FF0000" stroke-width="3.55556" stroke-linecap="round" stroke-linejoin="round"/>
</svg>
