<svg width="45" height="45" viewBox="0 0 45 45" fill="none" xmlns="http://www.w3.org/2000/svg">
<path d="M22.5 45C19.5453 45 16.6194 44.418 13.8896 43.2873C11.1598 42.1566 8.67942 40.4992 6.5901 38.4099C2.37053 34.1903 0 28.4674 0 22.5C0 16.5326 2.37053 10.8097 6.5901 6.5901C10.8097 2.37053 16.5326 0 22.5 0C34.875 0 45 9 45 20.25C45 23.8304 43.5777 27.2642 41.0459 29.7959C38.5142 32.3277 35.0804 33.75 31.5 33.75H27.45C26.775 33.75 26.325 34.2 26.325 34.875C26.325 35.1 26.55 35.325 26.55 35.55C27.45 36.675 27.9 38.025 27.9 39.375C28.125 42.525 25.65 45 22.5 45ZM22.5 4.5C17.7261 4.5 13.1477 6.39642 9.77208 9.77208C6.39642 13.1477 4.5 17.7261 4.5 22.5C4.5 27.2739 6.39642 31.8523 9.77208 35.2279C13.1477 38.6036 17.7261 40.5 22.5 40.5C23.175 40.5 23.625 40.05 23.625 39.375C23.625 38.925 23.4 38.7 23.4 38.475C22.5 37.35 22.05 36.225 22.05 34.875C22.05 31.725 24.525 29.25 27.675 29.25H31.5C33.8869 29.25 36.1761 28.3018 37.864 26.614C39.5518 24.9261 40.5 22.6369 40.5 20.25C40.5 11.475 32.4 4.5 22.5 4.5ZM10.125 18C11.925 18 13.5 19.575 13.5 21.375C13.5 23.175 11.925 24.75 10.125 24.75C8.325 24.75 6.75 23.175 6.75 21.375C6.75 19.575 8.325 18 10.125 18ZM16.875 9C18.675 9 20.25 10.575 20.25 12.375C20.25 14.175 18.675 15.75 16.875 15.75C15.075 15.75 13.5 14.175 13.5 12.375C13.5 10.575 15.075 9 16.875 9ZM28.125 9C29.925 9 31.5 10.575 31.5 12.375C31.5 14.175 29.925 15.75 28.125 15.75C26.325 15.75 24.75 14.175 24.75 12.375C24.75 10.575 26.325 9 28.125 9ZM34.875 18C36.675 18 38.25 19.575 38.25 21.375C38.25 23.175 36.675 24.75 34.875 24.75C33.075 24.75 31.5 23.175 31.5 21.375C31.5 19.575 33.075 18 34.875 18Z" fill="#FF0000"/>
</svg>
