<svg width="31" height="30" viewBox="0 0 31 30" fill="none" xmlns="http://www.w3.org/2000/svg">
<path d="M17.4917 23.0499L25.5 14.9999L17.4917 6.94993C17.4193 6.85495 17.3275 6.77662 17.2222 6.72024C17.117 6.66386 17.0009 6.63075 16.8817 6.62315C16.7626 6.61555 16.6432 6.63363 16.5317 6.67618C16.4201 6.71873 16.319 6.78475 16.2352 6.86976C16.1514 6.95478 16.0869 7.05681 16.0459 7.16895C16.005 7.28108 15.9886 7.40071 15.9979 7.51973C16.0072 7.63875 16.0419 7.75438 16.0998 7.85879C16.1577 7.9632 16.2373 8.05396 16.3333 8.12493L22.325 14.1666L6.38333 14.1666C6.16232 14.1666 5.95036 14.2544 5.79407 14.4107C5.6378 14.5669 5.55 14.7789 5.55 14.9999C5.55 15.2209 5.6378 15.4329 5.79407 15.5892C5.95036 15.7455 6.16232 15.8333 6.38333 15.8333L22.325 15.8333L16.3333 21.8749C16.1775 22.0318 16.0904 22.2442 16.0912 22.4654C16.092 22.6865 16.1806 22.8983 16.3375 23.0541C16.4944 23.2099 16.7068 23.297 16.9279 23.2962C17.1491 23.2954 17.3609 23.2068 17.5167 23.0499L17.4917 23.0499Z" fill="white"/>
</svg>
