<svg width="20" height="20" viewBox="0 0 20 20" fill="none" xmlns="http://www.w3.org/2000/svg">
<path d="M1.23213 18.7542L7.59613 12.3902M15.6101 9.56018L13.7051 15.2752C13.6747 15.3668 13.6227 15.4497 13.5534 15.5169C13.4841 15.5841 13.3996 15.6336 13.3071 15.6612L1.62913 19.1322C1.52392 19.1634 1.41215 19.1652 1.306 19.1374C1.19984 19.1095 1.10336 19.0531 1.02705 18.9742C0.950749 18.8953 0.897541 18.797 0.873222 18.69C0.848903 18.5829 0.854405 18.4713 0.889128 18.3672L4.68113 6.99318C4.70831 6.91152 4.75273 6.83665 4.8114 6.77367C4.87006 6.7107 4.94159 6.66107 5.02113 6.62818L10.4081 4.41018C10.5176 4.36495 10.6381 4.35316 10.7543 4.37629C10.8705 4.39943 10.9773 4.45646 11.0611 4.54018L15.4651 8.94618C15.5439 9.02497 15.5992 9.12414 15.6248 9.23259C15.6505 9.34103 15.6454 9.45447 15.6101 9.56018Z" stroke="#FF0000" stroke-width="1.5" stroke-linecap="round" stroke-linejoin="round"/>
<path d="M15.7281 9.20815L18.5561 6.37915C18.9311 6.0041 19.1417 5.49548 19.1417 4.96515C19.1417 4.43482 18.9311 3.92621 18.5561 3.55115L16.4361 1.42915C16.2504 1.24335 16.0299 1.09596 15.7872 0.995397C15.5445 0.894837 15.2843 0.843079 15.0216 0.843079C14.7589 0.843079 14.4988 0.894837 14.2561 0.995397C14.0134 1.09596 13.7928 1.24335 13.6071 1.42915L10.7791 4.25815M9.71712 10.2682C9.57779 10.1289 9.41239 10.0184 9.23037 9.94308C9.04835 9.86773 8.85327 9.82898 8.65627 9.82903C8.45927 9.82907 8.26421 9.86792 8.08222 9.94335C7.90024 10.0188 7.73489 10.1293 7.59562 10.2687C7.45635 10.408 7.34589 10.5734 7.27055 10.7554C7.1952 10.9374 7.15645 11.1325 7.15649 11.3295C7.15654 11.5265 7.19539 11.7216 7.27082 11.9036C7.34625 12.0855 7.45679 12.2509 7.59612 12.3902C7.87752 12.6714 8.25912 12.8294 8.65697 12.8293C9.05483 12.8292 9.43636 12.671 9.71762 12.3897C9.99888 12.1083 10.1568 11.7267 10.1567 11.3288C10.1567 10.9309 9.99852 10.5494 9.71712 10.2682Z" stroke="#FF0000" stroke-width="1.5" stroke-linecap="round" stroke-linejoin="round"/>
</svg>
