<svg width="46" height="45" viewBox="0 0 46 45" fill="none" xmlns="http://www.w3.org/2000/svg">
<path d="M22.4696 13.4817C19.9979 13.4817 17.882 14.3618 16.1219 16.1219C14.3618 17.882 13.4817 19.9979 13.4817 22.4696C13.4817 24.1548 13.9034 25.7089 14.7468 27.132C15.5901 28.5551 16.7601 29.6598 18.2565 30.4463C18.8557 30.7459 19.2774 31.1855 19.5216 31.7652C19.7657 32.3449 19.756 32.9352 19.4924 33.5358C19.2302 34.0601 18.837 34.4533 18.3127 34.7155C17.7884 34.9776 17.2641 34.9776 16.7398 34.7155C14.3805 33.592 12.4991 31.9255 11.0955 29.716C9.69188 27.5065 8.98933 25.091 8.98783 22.4696C8.98783 18.7246 10.2986 15.5415 12.92 12.92C15.5415 10.2986 18.7246 8.98783 22.4696 8.98783C25.1285 8.98783 27.5724 9.69038 29.8014 11.0955C32.0304 12.5006 33.6871 14.4195 34.7717 16.8522C34.9964 17.3765 34.9874 17.9008 34.7447 18.425C34.502 18.9493 34.1178 19.3238 33.592 19.5485C32.9928 19.8107 32.3936 19.8107 31.7944 19.5485C31.1953 19.2864 30.7459 18.8557 30.4463 18.2565C29.6598 16.7586 28.5551 15.5886 27.132 14.7468C25.7089 13.9049 24.1548 13.4832 22.4696 13.4817ZM22.4696 4.49391C17.4514 4.49391 13.2009 6.23531 9.71809 9.71809C6.23531 13.2009 4.49392 17.4514 4.49392 22.4696C4.49392 27.1882 6.04806 31.2327 9.15635 34.6031C12.2646 37.9736 16.1594 39.8835 20.8405 40.3329C21.4772 40.4078 22.0292 40.6887 22.4965 41.1755C22.9639 41.6623 23.1796 42.2241 23.1437 42.8607C23.1077 43.4973 22.8733 44.0216 22.4404 44.4336C22.0075 44.8455 21.4742 45.0328 20.8405 44.9953C17.9195 44.8081 15.1947 44.0778 12.6661 42.8045C10.1375 41.5313 7.92802 39.8738 6.03758 37.832C4.14714 35.7903 2.66789 33.4497 1.59984 30.8103C0.531783 28.1709 -0.00149482 25.3906 3.147e-06 22.4696C3.147e-06 19.3613 0.590204 16.4402 1.77061 13.7064C2.95101 10.9726 4.55159 8.59461 6.57235 6.57235C8.59312 4.55009 10.9711 2.94951 13.7064 1.7706C16.4417 0.591699 19.3628 0.00149797 22.4696 0C28.3491 0 33.4707 2.00354 37.8343 6.01061C42.1979 10.0177 44.5849 14.961 44.9953 20.8405C45.0702 21.4397 44.8927 21.955 44.4628 22.3864C44.0329 22.8179 43.4989 23.0515 42.8607 23.0875C42.2226 23.1234 41.6519 22.9175 41.1485 22.4696C40.6452 22.0217 40.3546 21.4787 40.2767 20.8405C39.715 16.3466 37.7586 12.4991 34.4077 9.29791C31.0567 6.09674 27.0773 4.49541 22.4696 4.49391ZM39.4341 43.8157L32.0191 36.4569L30.3339 41.5687C30.1467 42.093 29.7909 42.3462 29.2666 42.3282C28.7423 42.3102 28.3866 42.0383 28.1993 41.5125L23.0875 24.4918C22.9377 24.0799 23.0313 23.7054 23.3684 23.3684C23.7054 23.0313 24.0799 22.9377 24.4918 23.0875L41.5125 28.1993C42.0368 28.3866 42.3087 28.7423 42.3282 29.2666C42.3477 29.7909 42.0945 30.1467 41.5687 30.3339L36.4569 32.0191L43.8718 39.4341C44.5085 40.0707 44.8268 40.801 44.8268 41.6249C44.8268 42.4488 44.5085 43.179 43.8718 43.8157C43.2352 44.4523 42.496 44.7706 41.6541 44.7706C40.8122 44.7706 40.0722 44.4523 39.4341 43.8157Z" fill="#FF0000"/>
</svg>
