<svg width="31" height="30" viewBox="0 0 31 30" fill="none" xmlns="http://www.w3.org/2000/svg">
<path d="M24.3125 6.13751C23.1663 4.98014 21.8013 4.06246 20.2969 3.43796C18.7925 2.81345 17.1789 2.49461 15.55 2.50001C8.725 2.50001 3.1625 8.06251 3.1625 14.8875C3.1625 17.075 3.7375 19.2 4.8125 21.075L3.0625 27.5L9.625 25.775C11.4375 26.7625 13.475 27.2875 15.55 27.2875C22.375 27.2875 27.9375 21.725 27.9375 14.9C27.9375 11.5875 26.65 8.47501 24.3125 6.13751ZM15.55 25.1875C13.7 25.1875 11.8875 24.6875 10.3 23.75L9.925 23.525L6.025 24.55L7.0625 20.75L6.8125 20.3625C5.78443 18.7213 5.23866 16.8241 5.2375 14.8875C5.2375 9.21251 9.8625 4.58751 15.5375 4.58751C18.2875 4.58751 20.875 5.66251 22.8125 7.61251C23.772 8.56734 24.5324 9.70318 25.0495 10.9542C25.5667 12.2051 25.8302 13.5464 25.825 14.9C25.85 20.575 21.225 25.1875 15.55 25.1875ZM21.2 17.4875C20.8875 17.3375 19.3625 16.5875 19.0875 16.475C18.8 16.375 18.6 16.325 18.3875 16.625C18.175 16.9375 17.5875 17.6375 17.4125 17.8375C17.2375 18.05 17.05 18.075 16.7375 17.9125C16.425 17.7625 15.425 17.425 14.25 16.375C13.325 15.55 12.7125 14.5375 12.525 14.225C12.35 13.9125 12.5 13.75 12.6625 13.5875C12.8 13.45 12.975 13.225 13.125 13.05C13.275 12.875 13.3375 12.7375 13.4375 12.5375C13.5375 12.325 13.4875 12.15 13.4125 12C13.3375 11.85 12.7125 10.325 12.4625 9.70001C12.2125 9.10001 11.95 9.17501 11.7625 9.16251H11.1625C10.95 9.16251 10.625 9.23751 10.3375 9.55001C10.0625 9.86251 9.2625 10.6125 9.2625 12.1375C9.2625 13.6625 10.375 15.1375 10.525 15.3375C10.675 15.55 12.7125 18.675 15.8125 20.0125C16.55 20.3375 17.125 20.525 17.575 20.6625C18.3125 20.9 18.9875 20.8625 19.525 20.7875C20.125 20.7 21.3625 20.0375 21.6125 19.3125C21.875 18.5875 21.875 17.975 21.7875 17.8375C21.7 17.7 21.5125 17.6375 21.2 17.4875Z" fill="white"/>
</svg>
