<svg width="42" height="42" viewBox="0 0 42 42" fill="none" xmlns="http://www.w3.org/2000/svg">
<path d="M41.9944 20.7487C41.9944 32.2087 32.7058 41.4973 21.2458 41.4973C9.78578 41.4973 0.497101 32.2087 0.497101 20.7487C0.497101 9.28868 9.78578 0 21.2458 0C32.7058 0 41.9944 9.28868 41.9944 20.7487Z" fill="#FF0000"/>
<path d="M18.718 23.4777C18.718 23.24 18.6769 23.016 18.5946 22.7966C18.5123 22.5772 18.4026 22.3898 18.27 22.2252C18.1329 22.0652 17.9683 21.9372 17.7855 21.8412C17.5981 21.7452 17.3924 21.6995 17.1684 21.6995H13.2051V25.1965H17.0358C17.2735 25.1965 17.4929 25.1508 17.6986 25.0639C17.9043 24.9771 18.0826 24.8536 18.2335 24.6982C18.3843 24.5428 18.5032 24.36 18.59 24.1451C18.6769 23.9348 18.7226 23.7108 18.7226 23.4731L18.718 23.4777ZM13.2051 16.3192V19.6653H16.6427C17.0769 19.6653 17.4518 19.5145 17.7535 19.2174C18.0598 18.9202 18.2106 18.5088 18.2106 17.9831C18.2106 17.4712 18.0689 17.0689 17.7901 16.7672C17.5112 16.4701 17.1638 16.3192 16.7524 16.3192H13.2006H13.2051ZM21.319 23.9623C21.319 24.5245 21.2047 25.0136 20.9808 25.4388C20.7568 25.8639 20.4459 26.2159 20.0574 26.5038C19.6642 26.7918 19.2117 27.0067 18.6952 27.1575C18.1786 27.3084 17.6255 27.3815 17.0404 27.3815H10.627V14.1113H17.7306C18.1923 14.1113 18.6083 14.2119 18.9831 14.4085C19.358 14.6096 19.6734 14.8656 19.9339 15.1856C20.1945 15.501 20.4002 15.8667 20.5419 16.2689C20.6836 16.6758 20.7568 17.0826 20.7568 17.494C20.7568 18.1431 20.5968 18.7511 20.2722 19.3179C19.9477 19.8848 19.4768 20.3053 18.8506 20.5796C19.6094 20.8036 20.2128 21.2058 20.6562 21.7864C21.0996 22.3669 21.319 23.0937 21.319 23.9623Z" fill="black"/>
<path d="M29.369 21.663C29.3095 20.9499 29.0444 20.3785 28.5827 19.9534C28.1165 19.5237 27.5542 19.3089 26.8914 19.3089C26.5668 19.3089 26.2606 19.3683 25.9771 19.4826C25.6937 19.5969 25.4423 19.7569 25.2275 19.9626C25.008 20.1683 24.8298 20.4151 24.6926 20.7031C24.5555 20.9911 24.4732 21.3156 24.4458 21.663H29.3735H29.369ZM26.9051 27.3862C26.1463 27.3862 25.456 27.2582 24.8389 26.9976C23.6184 26.4811 22.759 25.6034 22.2562 24.3829C22.0231 23.7932 21.9042 23.167 21.9042 22.5179C21.9042 21.8413 22.0185 21.2059 22.247 20.6071C22.7407 19.3683 23.6001 18.4815 24.8298 17.9558C25.4515 17.6907 26.1508 17.5581 26.9234 17.5581C27.6959 17.5581 28.3862 17.6907 28.9987 17.9558C31.0009 18.8289 31.9471 20.7717 31.8603 22.8836C31.8557 23.0298 31.8374 23.1487 31.8146 23.2447H24.4778C24.5144 23.6195 24.6058 23.9532 24.7475 24.2412C24.8938 24.5292 25.0812 24.7806 25.3097 24.9817C25.5383 25.1874 25.7989 25.3429 26.0869 25.4526C26.3748 25.5623 26.6765 25.6171 26.9919 25.6171C27.4765 25.6171 27.929 25.4983 28.3587 25.2651C28.7884 25.0274 29.081 24.7212 29.2364 24.3326L31.3209 24.9132C30.9689 25.64 30.4112 26.2342 29.6478 26.6959C28.8799 27.1622 27.9656 27.3953 26.9051 27.3953V27.3862Z" fill="black"/>
<path d="M23.7144 16.3193H30.0638V14.7422H23.7144V16.3193Z" fill="black"/>
</svg>
