<?xml version="1.0" encoding="UTF-8"?>
<!DOCTYPE svg PUBLIC "-//W3C//DTD SVG 1.1//EN" "http://www.w3.org/Graphics/SVG/1.1/DTD/svg11.dtd">
<!-- Creator: CorelDRAW 2021 (64-Bit) -->
<svg xmlns="http://www.w3.org/2000/svg" xml:space="preserve" width="105.778mm" height="105.778mm" version="1.1" style="shape-rendering:geometricPrecision; text-rendering:geometricPrecision; image-rendering:optimizeQuality; fill-rule:evenodd; clip-rule:evenodd"
viewBox="0 0 10927.85 10927.84"
 xmlns:xlink="http://www.w3.org/1999/xlink"
 xmlns:xodm="http://www.corel.com/coreldraw/odm/2003">
 <defs>
  <style type="text/css">
   <![CDATA[
    .fil1 {fill:black}
    .fil0 {fill:red}
   ]]>
  </style>
 </defs>
 <g id="Capa_x0020_1">
  <metadata id="CorelCorpID_0Corel-Layer"/>
  <g id="_2379726738160">
   <path class="fil0" d="M5463.94 0.01c3017.62,0 5463.91,2446.29 5463.91,5463.91 0,3017.63 -2446.29,5463.92 -5463.91,5463.92 -3017.66,0 -5463.95,-2446.29 -5463.95,-5463.92 0,-3017.62 2446.29,-5463.91 5463.95,-5463.91z"/>
   <path class="fil1" d="M3164.26 8702.96c-282.73,-17.83 -188.46,-355.95 -84.71,-421.16l287.31 -289.66 240.66 -203.12c54.12,-55.89 167.91,-136.16 169.13,-280.05l-19.61 -211.6c-7.18,-77.45 -55.75,-117.45 -104.85,-202.02l-95.8 -164.9 -217.19 -534.66c-26.54,-65.39 -22.24,-98.25 -30.73,-144.87 -15.85,-87.12 3.54,-97.6 4.41,-126.66l9.49 -316.99c3.1,-104.39 5.05,-229.01 115.44,-343.1l106.45 -92.87c46.93,-48.52 73.18,-52.28 79.22,-115.94l34.44 -537.39c43.88,-250.66 175.59,91.89 296.02,379.74 30.07,71.89 158.72,7.22 198.81,-69.18l49.39 -140.39 163.47 -376.54 95.18 -232.39 119.08 -393.07c31.78,-104.82 127.32,-146.38 87.06,-238.68l-42.9 -163.14 -33.94 -385.46c-0.22,-43.69 -36.25,-96.58 -64.45,-2.81 -22.64,66.47 -38.35,139.88 -39.64,227.73l6.1 367.57c-3.68,87.1 -41.95,91.5 -74.96,39.9l-84.63 -245.42c-36.97,-83.63 -153.79,-153.18 -234.88,-242.54l-205.82 -303.96c-38.89,-74.93 -40.58,-158.08 8.71,-267.99 102.76,-157.97 231.96,-299.56 387.22,-457.57l137.68 -253.55c39.32,-95.79 93.48,-205.85 352.59,-178.3 241.6,-153.57 542.49,-323.31 832.32,-428.74 122.51,-85.29 599.29,6.14 840.49,80.16l485.9 197.48c106.63,0.72 100.13,-57.38 191.77,-40.51 233.73,133.82 303.49,405.2 528,534.4 93.82,61.74 226.58,162.23 246.69,248.53 26.08,194.91 -3.82,373.29 -88.28,535.44l-210.73 265.55 -53.76 352.41c-15.79,22.43 -46.8,24.89 -68.68,-6.43l-102.37 -685.77c-10.68,-50.19 -42.57,-64.7 -68.64,-60.73 -21.85,3.32 -58.86,26.57 -68.39,73.37l-10.72 748.92c-2.63,53.72 -18.64,101.03 1.3,166.89 60.48,199.5 137.28,396.65 184.94,542.78l94.35 381.35c9.1,71.3 154.43,415.34 94.38,719.78l-126.19 481.65c-14.19,77.34 75.35,152.44 72.43,232.06 47.58,149.42 -45.5,567.12 -116.67,765.42l-48.46 243.26 -54.56 756.29 1.78 150.72c-0.33,65.1 21.19,128.47 99.11,187.58l320.38 226.04c87.52,73.69 132.3,158.11 147.65,249.86 -53.55,40.84 -50.84,102.4 9.9,185.38 65.43,144 56.86,190.51 -91.21,102.22l-155.09 165.09c-83.52,53.66 -200.76,54.17 -340.64,5.56 -80.99,-21.37 -86.05,-1.66 -142.66,21.16 -23.37,9.42 -60.7,5.31 -115.22,-40l-249.25 -304.47 -183.18 -244.52c-52.25,-44.81 -39.65,-190.29 16.35,-397.51 -64.24,-186.78 -79.4,-363.78 -23.36,-526.53 45.46,-243.51 5.34,-283.96 -139.38,-222.97l-377.29 137.82c-162.82,51.78 -319.28,144.47 -298.62,324.07l106.19 473.02c43.8,200.94 17.41,354.51 -126.78,380.29 -257.41,15.74 -443.33,-121.79 -433.29,-428.18l-116.02 -395.82 -70.08 -273.58c-9.82,-26.9 19.35,-84.89 50.15,-113.24l147.72 -92.8c164.36,-105.72 256.98,-202.63 150.72,-222.64l-251.42 -11.3c-440.38,-43 -426.3,33.59 -451.85,115.44l-94.74 347.51 24.62 520.06c-6.43,125.44 -12.88,250.95 -19.35,376.4l64.99 207.91c16.64,63.95 12.5,78.68 -72.94,83.84 24.56,114.97 -25.79,490.46 -103.48,587.37 -1.91,61.17 -148.11,62.04 -211.31,-4.95 -47.05,18.74 -76.66,107.68 -213.68,154.68 -79.43,-2.92 -154.36,-28.34 -215.78,-58.28 -27.29,-13.32 -60.69,31.88 -91.03,29.83 -29.22,-1.98 -51.63,0.51 -87.64,-42.07 -59.14,-34.15 -58.78,-200.47 -175.16,-248.06 -62.11,-54.17 -59.07,-189.79 -27.91,-295.81l127.58 -314.9 111.21 -238.49c24.2,-47.67 -14.77,-45.71 -42.47,-34.7 0,0 -512.84,297.5 -626.39,296.45z"/>
  </g>
 </g>
</svg>
