<svg width="42" height="42" viewBox="0 0 42 42" fill="none" xmlns="http://www.w3.org/2000/svg">
<path d="M41.9814 20.7467C41.9814 32.206 32.6939 41.4935 21.2347 41.4935C9.77536 41.4935 0.487915 32.206 0.487915 20.7467C0.487915 9.28745 9.77536 0 21.2347 0C32.6939 0 41.9814 9.29132 41.9814 20.7467Z" fill="#FF0000"/>
<path d="M21.4879 7C19.6494 7 17.8289 7.35786 16.1303 8.05314C14.4318 8.74842 12.8884 9.76751 11.5884 11.0522C8.96291 13.6468 7.48792 17.1659 7.48792 20.8352C7.48792 26.9503 11.5059 32.1385 17.0639 33.9786C17.7639 34.0893 17.9879 33.6604 17.9879 33.2868V30.9487C14.1099 31.7788 13.2839 29.0948 13.2839 29.0948C12.6399 27.4899 11.7299 27.061 11.7299 27.061C10.4559 26.2032 11.8279 26.2309 11.8279 26.2309C13.2279 26.3277 13.9699 27.6559 13.9699 27.6559C15.1879 29.7588 17.2459 29.1363 18.0439 28.8042C18.1699 27.9049 18.5339 27.2962 18.9259 26.9503C15.8179 26.6044 12.5559 25.4146 12.5559 20.1434C12.5559 18.6077 13.0879 17.3764 13.9979 16.3941C13.8579 16.0482 13.3679 14.6093 14.1379 12.7416C14.1379 12.7416 15.3139 12.368 17.9879 14.1528C19.0939 13.8484 20.2979 13.6962 21.4879 13.6962C22.6779 13.6962 23.8819 13.8484 24.9879 14.1528C27.6619 12.368 28.8379 12.7416 28.8379 12.7416C29.6079 14.6093 29.1179 16.0482 28.9779 16.3941C29.8879 17.3764 30.4199 18.6077 30.4199 20.1434C30.4199 25.4284 27.1439 26.5906 24.0219 26.9365C24.5259 27.3654 24.9879 28.2093 24.9879 29.496V33.2868C24.9879 33.6604 25.2119 34.1031 25.9259 33.9786C31.4839 32.1247 35.4879 26.9503 35.4879 20.8352C35.4879 19.0183 35.1258 17.2192 34.4222 15.5407C33.7187 13.8621 32.6874 12.3369 31.3874 11.0522C30.0874 9.76751 28.544 8.74842 26.8455 8.05314C25.1469 7.35786 23.3264 7 21.4879 7Z" fill="black"/>
</svg>
