<svg width="58" height="58" viewBox="0 0 58 58" fill="none" xmlns="http://www.w3.org/2000/svg">
<path fill-rule="evenodd" clip-rule="evenodd" d="M29.0001 0C45.0162 0 58 12.9838 58 28.9999C58 45.0161 45.0162 57.9998 29.0001 57.9998C12.9838 57.9998 0 45.0161 0 28.9999C0 12.9838 12.9838 0 29.0001 0ZM16.7944 46.1912C15.2938 46.0965 15.7942 44.302 16.3448 43.9559L17.8697 42.4185L19.1471 41.3405C19.4343 41.0438 20.0382 40.6178 20.0447 39.8541L19.9407 38.7311C19.9025 38.32 19.6448 38.1076 19.3841 37.6588L18.8757 36.7836L17.7229 33.9459C17.5821 33.5988 17.6049 33.4244 17.5599 33.177C17.4757 32.7146 17.5786 32.659 17.5832 32.5047L17.6336 30.8223C17.6501 30.2682 17.6605 29.6068 18.2463 29.0012L18.8113 28.5083C19.0604 28.2508 19.1998 28.2308 19.2318 27.893L19.4146 25.0407C19.6474 23.7103 20.3466 25.5285 20.9857 27.0562C21.1453 27.4378 21.8282 27.0946 22.0409 26.6891L22.3031 25.9439L23.1706 23.9455L23.6758 22.712L24.3079 20.6258C24.4765 20.0694 24.9836 19.8489 24.7699 19.359L24.5422 18.4932L24.3621 16.4474C24.3609 16.2155 24.1697 15.9347 24.02 16.4324C23.8999 16.7852 23.8165 17.1748 23.8096 17.6411L23.842 19.5921C23.8224 20.0543 23.6193 20.0777 23.4441 19.8038L22.9949 18.5012C22.7987 18.0574 22.1787 17.6883 21.7483 17.2139L20.6559 15.6007C20.4495 15.203 20.4405 14.7616 20.7021 14.1783C21.2475 13.3398 21.9332 12.5884 22.7573 11.7498L23.488 10.404C23.6967 9.89559 23.9842 9.31145 25.3594 9.45768C26.6417 8.64261 28.2387 7.74169 29.777 7.18209C30.4273 6.72942 32.9578 7.21467 34.2379 7.60754L36.8169 8.65564C37.3828 8.65948 37.3483 8.35112 37.8347 8.44062C39.0753 9.15086 39.4455 10.5913 40.6372 11.277C41.1351 11.6047 41.8397 12.138 41.9465 12.5961C42.0848 13.6306 41.9262 14.5773 41.4779 15.438L40.3595 16.8473L40.0741 18.7178C39.9904 18.8368 39.8257 18.8498 39.7096 18.6837L39.1663 15.0439C39.1096 14.7776 38.9403 14.7005 38.802 14.7216C38.686 14.7392 38.4896 14.8626 38.439 15.111L38.3821 19.0859C38.3681 19.3711 38.2832 19.6221 38.389 19.9717C38.71 21.0305 39.1176 22.0769 39.3706 22.8525L39.8713 24.8765C39.9196 25.255 40.691 27.081 40.3723 28.6967L39.7025 31.2531C39.6272 31.6636 40.1025 32.0622 40.0869 32.4848C40.3395 33.2778 39.8455 35.4948 39.4677 36.5473L39.2106 37.8384L38.921 41.8524L38.9304 42.6523C38.9286 42.9978 39.0429 43.3342 39.4564 43.6479L41.1569 44.8476C41.6215 45.2387 41.8591 45.6868 41.9405 46.1738C41.6563 46.3905 41.6707 46.7173 41.993 47.1577C42.3403 47.922 42.2949 48.1688 41.509 47.7002L40.6858 48.5764C40.2426 48.8612 39.6203 48.8639 38.8779 48.6059C38.448 48.4925 38.4212 48.5971 38.1207 48.7183C37.9967 48.7683 37.7985 48.7464 37.5091 48.5059L36.1862 46.89L35.214 45.5921C34.9367 45.3543 35.0036 44.5822 35.3008 43.4823C34.9599 42.4909 34.8794 41.5515 35.1768 40.6878C35.4181 39.3953 35.2052 39.1807 34.4371 39.5043L32.4346 40.2359C31.5704 40.5107 30.74 41.0026 30.8497 41.9559L31.4133 44.4664C31.6458 45.5329 31.5057 46.348 30.7404 46.4848C29.3742 46.5684 28.3874 45.8384 28.4407 44.2123L27.8249 42.1115L27.4529 40.6594C27.4008 40.5166 27.5557 40.2088 27.7191 40.0584L28.5032 39.5659C29.3755 39.0047 29.8671 38.4904 29.3031 38.3842L27.9687 38.3242C25.6314 38.096 25.7061 38.5024 25.5704 38.9369L25.0675 40.7813L25.1982 43.5415C25.1641 44.2073 25.1298 44.8735 25.0955 45.5392L25.4405 46.6427C25.5288 46.9821 25.5068 47.0603 25.0534 47.0877C25.1837 47.6979 24.9165 49.6909 24.5041 50.2052C24.4939 50.5299 23.718 50.5345 23.3826 50.179C23.1329 50.2784 22.9757 50.7505 22.2484 51C21.8268 50.9845 21.4292 50.8495 21.1032 50.6907C20.9583 50.6199 20.781 50.8599 20.62 50.849C20.465 50.8384 20.346 50.8516 20.1549 50.6257C19.841 50.4444 19.8429 49.5617 19.2252 49.3091C18.8956 49.0216 18.9117 48.3018 19.0771 47.7391L19.7542 46.0678L20.3445 44.802C20.4729 44.549 20.2661 44.5594 20.1191 44.6178C20.1191 44.6178 17.3971 46.1968 16.7944 46.1912Z" fill="#FF0000"/>
</svg>
