<svg width="42" height="42" viewBox="0 0 42 42" fill="none" xmlns="http://www.w3.org/2000/svg">
<path d="M41.4971 20.7486C41.4971 32.2096 32.2096 41.4971 20.7486 41.4971C9.28755 41.4971 0 32.2096 0 20.7486C0 9.28755 9.28755 0 20.7486 0C32.2096 0 41.4971 9.29285 41.4971 20.7486Z" fill="#FF0000"/>
<path d="M26.4684 13.8096C25.7687 13.8096 25.2014 14.3768 25.2014 15.0765C25.2014 15.7763 25.7687 16.3435 26.4684 16.3435C27.1682 16.3435 27.7354 15.7763 27.7354 15.0765C27.7354 14.3768 27.1682 13.8096 26.4684 13.8096Z" fill="black"/>
<path d="M20.8387 24.1573C18.9621 24.1573 17.43 22.6305 17.43 20.7487C17.43 18.8721 18.9568 17.34 20.8387 17.34C22.7152 17.34 24.2473 18.8668 24.2473 20.7487C24.2473 22.6252 22.7205 24.1573 20.8387 24.1573ZM20.8387 15.4316C17.9071 15.4316 15.5216 17.8171 15.5216 20.7487C15.5216 23.6802 17.9071 26.0657 20.8387 26.0657C23.7702 26.0657 26.1557 23.6802 26.1557 20.7487C26.1557 17.8171 23.7702 15.4316 20.8387 15.4316Z" fill="black"/>
<path d="M16.4388 11.9805C13.9843 11.9805 11.9858 13.979 11.9858 16.4335V25.0531C11.9858 27.5128 13.9843 29.506 16.4388 29.506H25.0637C27.5181 29.506 29.5166 27.5075 29.5166 25.0531V16.4335C29.5166 13.9737 27.5181 11.9805 25.0637 11.9805H16.4388ZM25.0637 31.5469H16.4388C12.8605 31.5469 9.9502 28.6366 9.9502 25.0584V16.4388C9.9502 12.8605 12.8605 9.9502 16.4388 9.9502H25.0637C28.6419 9.9502 31.5522 12.8605 31.5522 16.4388V25.0584C31.5522 28.6366 28.6419 31.5469 25.0637 31.5469Z" fill="black"/>
</svg>
