<svg width="42" height="42" viewBox="0 0 42 42" fill="none" xmlns="http://www.w3.org/2000/svg">
<path d="M41.4879 20.7467C41.4879 32.206 32.2005 41.4935 20.7412 41.4935C9.28189 41.4935 -0.0055542 32.206 -0.0055542 20.7467C-0.0055542 9.28745 9.28189 0 20.7412 0C32.2005 0 41.4879 9.29132 41.4879 20.7467Z" fill="#FF0000"/>
<path d="M14.2102 10.1934C15.3523 10.1934 16.2736 11.1186 16.2736 12.2568C16.2736 13.3989 15.3484 14.3241 14.2102 14.3241C13.0681 14.3241 12.1429 13.3989 12.1429 12.2568C12.1429 11.1186 13.0681 10.1934 14.2102 10.1934ZM12.4255 15.8882H15.991V27.3475H12.4255V15.8882Z" fill="black"/>
<path d="M18.2288 15.8881H21.6472V17.456H21.6936C22.1698 16.554 23.3312 15.6055 25.0656 15.6055C28.6699 15.6055 29.3358 17.9786 29.3358 21.0641V27.3474H25.778V21.7765C25.778 20.4486 25.7509 18.7374 23.9274 18.7374C22.073 18.7374 21.7904 20.1853 21.7904 21.6797V27.3474H18.2326V15.8881H18.2288Z" fill="black"/>
</svg>
