<svg width="42" height="42" viewBox="0 0 42 42" fill="none" xmlns="http://www.w3.org/2000/svg">
<path d="M41.4973 20.7487C41.4973 32.2078 32.2078 41.4973 20.7487 41.4973C9.28956 41.4973 0 32.2078 0 20.7487C0 9.28956 9.28956 0 20.7487 0C32.2078 0 41.4973 9.28956 41.4973 20.7487Z" fill="#FF0000"/>
<path d="M20.9998 20.4582C20.2815 20.4582 19.5927 20.1728 19.0848 19.6649C18.5768 19.157 18.2915 18.4681 18.2915 17.7498C18.2915 17.0315 18.5768 16.3427 19.0848 15.8348C19.5927 15.3268 20.2815 15.0415 20.9998 15.0415C21.7181 15.0415 22.407 15.3268 22.9149 15.8348C23.4228 16.3427 23.7082 17.0315 23.7082 17.7498C23.7082 18.1055 23.6381 18.4577 23.502 18.7863C23.3659 19.1149 23.1664 19.4134 22.9149 19.6649C22.6634 19.9164 22.3649 20.1159 22.0363 20.252C21.7077 20.3881 21.3555 20.4582 20.9998 20.4582ZM20.9998 10.1665C18.9886 10.1665 17.0598 10.9655 15.6376 12.3876C14.2155 13.8098 13.4165 15.7386 13.4165 17.7498C13.4165 23.4373 20.9998 31.8332 20.9998 31.8332C20.9998 31.8332 28.5832 23.4373 28.5832 17.7498C28.5832 15.7386 27.7842 13.8098 26.3621 12.3876C24.9399 10.9655 23.0111 10.1665 20.9998 10.1665Z" fill="black"/>
</svg>
