<svg width="275" height="65" viewBox="0 0 275 65" fill="none" xmlns="http://www.w3.org/2000/svg">
<g clip-path="url(#clip0_36_117)">
<path fill-rule="evenodd" clip-rule="evenodd" d="M32.3679 0C50.244 0 64.7356 14.4916 64.7356 32.3677C64.7356 50.2438 50.244 64.7354 32.3679 64.7354C14.4916 64.7354 0 50.2438 0 32.3677C0 14.4916 14.4916 0 32.3679 0ZM18.7448 51.5555C17.0699 51.4498 17.6284 49.4468 18.243 49.0605L19.945 47.3446L21.3706 46.1414C21.6913 45.8103 22.3653 45.3348 22.3725 44.4824L22.2564 43.2289C22.2138 42.7701 21.9261 42.5331 21.6352 42.0322L21.0677 41.0553L19.7811 37.8881C19.6239 37.5007 19.6494 37.306 19.5991 37.0299C19.5052 36.5137 19.6201 36.4517 19.6252 36.2795L19.6815 34.4017C19.6998 33.7833 19.7114 33.0451 20.3653 32.3692L20.9959 31.819C21.2739 31.5316 21.4294 31.5093 21.4652 31.1322L21.6692 27.9487C21.9291 26.4638 22.7094 28.4931 23.4228 30.1983C23.601 30.6242 24.3631 30.2411 24.6005 29.7885L24.8931 28.9568L25.8615 26.7263L26.4253 25.3496L27.1308 23.0211C27.319 22.4001 27.885 22.1539 27.6465 21.6072L27.3924 20.6408L27.1913 18.3574C27.19 18.0986 26.9765 17.7852 26.8095 18.3407C26.6754 18.7345 26.5823 19.1694 26.5746 19.6898L26.6108 21.8673C26.589 22.3832 26.3622 22.4093 26.1667 22.1037L25.6653 20.6498C25.4463 20.1544 24.7543 19.7424 24.2739 19.213L23.0547 17.4124C22.8243 16.9685 22.8142 16.4759 23.1062 15.8248C23.715 14.889 24.4803 14.0503 25.4001 13.1143L26.2157 11.6123C26.4486 11.0448 26.7695 10.3928 28.3044 10.556C29.7356 9.64629 31.5181 8.64074 33.2351 8.01615C33.9608 7.51092 36.7852 8.05251 38.214 8.49101L41.0925 9.66083C41.7242 9.66511 41.6856 9.32095 42.2285 9.42084C43.6131 10.2136 44.0264 11.8212 45.3564 12.5866C45.9121 12.9523 46.6986 13.5476 46.8178 14.0589C46.9722 15.2135 46.7951 16.2702 46.2948 17.2308L45.0465 18.8038L44.728 20.8915C44.6345 21.0243 44.4507 21.0389 44.3211 20.8534L43.7147 16.791C43.6514 16.4937 43.4625 16.4077 43.3081 16.4312C43.1787 16.4509 42.9594 16.5887 42.903 16.8659L42.8394 21.3024C42.8238 21.6207 42.7291 21.9009 42.8471 22.291C43.2054 23.4728 43.6604 24.6407 43.9427 25.5064L44.5017 27.7654C44.5556 28.1879 45.4165 30.2259 45.0608 32.0293L44.3132 34.8825C44.2291 35.3407 44.7596 35.7856 44.7423 36.2573C45.0242 37.1424 44.4728 39.6168 44.0512 40.7915L43.7641 42.2326L43.4409 46.7128L43.4514 47.6056C43.4495 47.9912 43.577 48.3666 44.0386 48.7168L45.9365 50.0558C46.455 50.4924 46.7202 50.9925 46.8111 51.536C46.4939 51.7779 46.51 52.1426 46.8698 52.6342C47.2573 53.4872 47.2066 53.7627 46.3294 53.2397L45.4107 54.2177C44.916 54.5355 44.2214 54.5385 43.3928 54.2506C42.913 54.124 42.8831 54.2408 42.5477 54.376C42.4093 54.4318 42.1881 54.4074 41.8651 54.139L40.3886 52.3354L39.3034 50.8868C38.9939 50.6214 39.0686 49.7596 39.4003 48.532C39.0198 47.4255 38.93 46.3769 39.2619 45.4129C39.5312 43.9703 39.2936 43.7308 38.4363 44.092L36.2012 44.9085C35.2368 45.2152 34.3099 45.7643 34.4323 46.8283L35.0614 49.6304C35.3208 50.8207 35.1645 51.7304 34.3103 51.8832C32.7854 51.9764 31.6841 51.1617 31.7435 49.3467L31.0563 47.0019L30.6411 45.3812C30.5829 45.2219 30.7557 44.8783 30.9382 44.7104L31.8133 44.1607C32.7869 43.5344 33.3356 42.9603 32.7061 42.8418L31.2167 42.7748C28.608 42.5201 28.6914 42.9738 28.5399 43.4587L27.9787 45.5173L28.1245 48.5981C28.0865 49.3412 28.0482 50.0847 28.0099 50.8278L28.3949 52.0594C28.4935 52.4382 28.4689 52.5255 27.9628 52.5561C28.1083 53.2372 27.8101 55.4615 27.3498 56.0356C27.3385 56.398 26.4724 56.4031 26.0981 56.0063C25.8193 56.1173 25.6439 56.6442 24.8322 56.9227C24.3616 56.9053 23.9178 56.7548 23.5539 56.5774C23.3922 56.4985 23.1943 56.7663 23.0147 56.7541C22.8416 56.7424 22.7088 56.7571 22.4955 56.5049C22.1452 56.3026 22.1473 55.3173 21.4579 55.0354C21.09 54.7146 21.108 53.9112 21.2926 53.2831L22.0483 51.4177L22.7071 50.0049C22.8504 49.7226 22.6196 49.7341 22.4555 49.7993C22.4555 49.7993 19.4175 51.5617 18.7448 51.5555Z" fill="#FF0000"/>
<path d="M81.5527 36.0704C80.4873 36.0704 79.4739 35.9794 78.5124 35.7975C77.551 35.6156 76.7974 35.3558 76.2517 35.018L78.3175 30.5355C78.8892 30.9513 79.7207 31.1591 80.8121 31.1591C81.7216 31.1591 82.4752 30.9383 83.0728 30.4965C83.6965 30.0288 84.0083 29.2622 84.0083 28.1968V8.35708H89.4652V28.3917C89.4652 30.1587 89.1144 31.6139 88.4128 32.7572C87.7372 33.8746 86.8017 34.7061 85.6064 35.2518C84.437 35.7975 83.0858 36.0704 81.5527 36.0704ZM100.291 36.1093C98.8358 36.1093 97.5236 35.7715 96.3542 35.0959C95.1849 34.4203 94.2624 33.4588 93.5868 32.2115C92.9112 30.9383 92.5734 29.4571 92.5734 27.7681V15.3731H97.8354V26.4818C97.8354 28.2228 98.1862 29.4961 98.8878 30.3016C99.5894 31.1072 100.59 31.5099 101.889 31.5099C103.006 31.5099 103.981 31.1072 104.812 30.3016C105.67 29.4961 106.099 28.2228 106.099 26.4818V15.3731H111.361V35.6416H106.255V32.6013C105.761 33.7707 105.033 34.6542 104.072 35.2518C103.136 35.8235 101.876 36.1093 100.291 36.1093ZM114.465 35.6416V7.18775H119.727V35.6416H114.465ZM125.451 13.6971C124.567 13.6971 123.814 13.3982 123.19 12.8006C122.592 12.1769 122.293 11.4363 122.293 10.5788C122.293 9.7473 122.592 9.0327 123.19 8.43504C123.814 7.81139 124.567 7.49957 125.451 7.49957C126.36 7.49957 127.114 7.81139 127.711 8.43504C128.309 9.0327 128.608 9.7473 128.608 10.5788C128.608 11.4623 128.309 12.2029 127.711 12.8006C127.114 13.3982 126.36 13.6971 125.451 13.6971ZM122.839 35.6416V15.3731H128.101V35.6416H122.839ZM140.451 36.1483C138.606 36.1483 136.917 35.6806 135.384 34.7451C133.877 33.7837 132.668 32.5104 131.759 30.9253C130.875 29.3142 130.434 27.5342 130.434 25.5853C130.434 24.1301 130.694 22.7659 131.213 21.4926C131.733 20.1934 132.448 19.063 133.357 18.1016C134.267 17.1141 135.319 16.3476 136.514 15.8019C137.736 15.2302 139.048 14.9443 140.451 14.9443C142.218 14.9443 143.595 15.2822 144.583 15.9578C145.57 16.6074 146.337 17.4779 146.882 18.5693V15.3731H152.105V35.6416H146.999V32.3285C146.454 33.4718 145.674 34.3943 144.661 35.0959C143.673 35.7975 142.27 36.1483 140.451 36.1483ZM141.309 31.393C142.478 31.393 143.478 31.1332 144.31 30.6135C145.167 30.0678 145.83 29.3532 146.298 28.4697C146.765 27.5862 146.999 26.6247 146.999 25.5853C146.999 24.5199 146.765 23.5455 146.298 22.662C145.83 21.7785 145.167 21.0639 144.31 20.5182C143.478 19.9725 142.478 19.6996 141.309 19.6996C140.191 19.6996 139.204 19.9725 138.346 20.5182C137.515 21.0379 136.865 21.7395 136.397 22.623C135.93 23.5065 135.696 24.4809 135.696 25.5463C135.696 26.5598 135.93 27.5212 136.397 28.4307C136.865 29.3142 137.515 30.0288 138.346 30.5745C139.204 31.1202 140.191 31.393 141.309 31.393ZM139.671 13.5801L141.386 6.79797H146.765L143.335 13.5801H139.671ZM155.232 35.6416V15.3731H160.416V18.3354C161.481 16.0487 163.547 14.9054 166.613 14.9054C168.069 14.9054 169.381 15.2432 170.55 15.9188C171.719 16.5944 172.642 17.5559 173.318 18.8032C173.993 20.0504 174.331 21.5316 174.331 23.2466V35.6416H169.069V24.5329C169.069 22.7659 168.666 21.4926 167.861 20.7131C167.055 19.9075 166.003 19.5048 164.703 19.5048C163.586 19.5048 162.599 19.9075 161.741 20.7131C160.91 21.4926 160.494 22.7659 160.494 24.5329V35.6416H155.232Z" fill="#FF0000"/>
<path d="M184.067 35.6416V8.35708H193.266C196.332 8.35708 198.736 9.08467 200.477 10.5398C202.244 11.969 203.127 14.1128 203.127 16.9712C203.127 19.8556 202.244 22.0383 200.477 23.5195C198.736 25.0006 196.332 25.7412 193.266 25.7412H189.524V35.6416H184.067ZM189.524 20.83H192.954C194.435 20.83 195.578 20.5182 196.384 19.8945C197.189 19.2709 197.592 18.3094 197.592 17.0102C197.592 15.7109 197.189 14.7625 196.384 14.1648C195.578 13.5411 194.435 13.2293 192.954 13.2293H189.524V20.83ZM214.173 36.1483C212.094 36.1483 210.236 35.6676 208.599 34.7061C206.962 33.7447 205.676 32.4714 204.74 30.8863C203.831 29.2752 203.376 27.4952 203.376 25.5463C203.376 23.5974 203.831 21.8174 204.74 20.2064C205.676 18.5953 206.962 17.309 208.599 16.3476C210.236 15.3861 212.094 14.9054 214.173 14.9054C216.278 14.9054 218.136 15.3861 219.747 16.3476C221.384 17.309 222.657 18.5953 223.567 20.2064C224.502 21.8174 224.97 23.5974 224.97 25.5463C224.97 27.4952 224.502 29.2752 223.567 30.8863C222.657 32.4714 221.384 33.7447 219.747 34.7061C218.136 35.6676 216.278 36.1483 214.173 36.1483ZM214.173 31.354C215.29 31.354 216.265 31.0942 217.096 30.5745C217.928 30.0288 218.565 29.3142 219.006 28.4307C219.474 27.5472 219.708 26.5857 219.708 25.5463C219.708 24.4809 219.474 23.5065 219.006 22.623C218.565 21.7395 217.928 21.0379 217.096 20.5182C216.265 19.9725 215.29 19.6996 214.173 19.6996C213.056 19.6996 212.081 19.9725 211.25 20.5182C210.418 21.0379 209.769 21.7395 209.301 22.623C208.859 23.5065 208.638 24.4809 208.638 25.5463C208.638 26.5857 208.859 27.5472 209.301 28.4307C209.769 29.3142 210.418 30.0288 211.25 30.5745C212.081 31.0942 213.056 31.354 214.173 31.354ZM233.874 35.6416C231.873 35.6416 230.34 35.1479 229.274 34.1604C228.209 33.173 227.676 31.5749 227.676 29.3662V19.8556H224.831V15.3731H227.676V11.2804L232.938 10.7347V15.3731H237.226V19.8556H232.938V29.0933C232.938 30.3406 233.484 30.9643 234.575 30.9643H236.758V35.6416H233.874ZM248.157 36.1483C246.078 36.1483 244.246 35.6676 242.661 34.7061C241.076 33.7447 239.842 32.4714 238.958 30.8863C238.101 29.2752 237.672 27.4952 237.672 25.5463C237.672 23.5974 238.127 21.8174 239.036 20.2064C239.946 18.5693 241.18 17.27 242.739 16.3086C244.324 15.3471 246.13 14.8664 248.157 14.8664C250.184 14.8664 251.964 15.3471 253.497 16.3086C255.056 17.27 256.265 18.5693 257.122 20.2064C258.006 21.8174 258.447 23.5974 258.447 25.5463C258.447 25.8322 258.434 26.131 258.408 26.4428C258.382 26.7546 258.343 27.0795 258.291 27.4173H243.129C243.415 28.6126 243.987 29.587 244.844 30.3406C245.728 31.0942 246.832 31.471 248.157 31.471C249.301 31.471 250.288 31.2111 251.12 30.6914C251.977 30.1717 252.64 29.5221 253.107 28.7425L257.2 31.8218C256.395 33.095 255.186 34.1345 253.575 34.94C251.964 35.7455 250.158 36.1483 248.157 36.1483ZM248.079 19.3878C246.832 19.3878 245.767 19.7646 244.883 20.5182C244 21.2718 243.415 22.2592 243.129 23.4805H253.146C252.861 22.3631 252.263 21.4017 251.353 20.5961C250.47 19.7906 249.379 19.3878 248.079 19.3878ZM267.125 36.1483C263.72 36.1483 260.914 34.966 258.705 32.6013L262.252 29.3662C263.733 31.0292 265.319 31.8607 267.008 31.8607C267.917 31.8607 268.606 31.6659 269.073 31.2761C269.567 30.8603 269.814 30.3536 269.814 29.7559C269.814 29.3921 269.723 29.0803 269.541 28.8205C269.385 28.5606 269.034 28.3138 268.489 28.0799C267.969 27.846 267.177 27.6122 266.111 27.3783C264.292 26.9365 262.941 26.3909 262.057 25.7412C261.174 25.0916 260.589 24.364 260.303 23.5585C260.018 22.7529 259.875 21.9214 259.875 21.0639C259.875 19.2969 260.537 17.8287 261.863 16.6594C263.214 15.4641 265.072 14.8664 267.436 14.8664C269.073 14.8664 270.477 15.1133 271.646 15.607C272.815 16.1007 273.92 17.0232 274.959 18.3744L271.139 21.2977C270.646 20.5182 270.087 19.9595 269.463 19.6217C268.866 19.2839 268.229 19.115 267.553 19.115C266.826 19.115 266.215 19.2579 265.721 19.5437C265.254 19.8296 265.02 20.2843 265.02 20.908C265.02 21.2458 265.176 21.5836 265.487 21.9214C265.799 22.2332 266.553 22.545 267.748 22.8569C269.723 23.3506 271.23 23.9352 272.27 24.6109C273.309 25.2605 274.024 26.0011 274.413 26.8326C274.803 27.6641 274.998 28.5866 274.998 29.6C274.998 30.8473 274.647 31.9647 273.946 32.9521C273.27 33.9396 272.335 34.7191 271.139 35.2908C269.97 35.8625 268.632 36.1483 267.125 36.1483Z" fill="#FF0000"/>
<path d="M84.4829 54.3568C84.0356 54.6092 83.5648 54.7979 83.0666 54.9252C82.5704 55.0522 82.0489 55.1138 81.502 55.1138C80.198 55.1138 79.161 54.7215 78.3936 53.935C77.6261 53.1483 77.2402 52.0458 77.2402 50.6294C77.2402 49.1834 77.6706 48.0363 78.5294 47.1862C79.3901 46.3338 80.4926 45.9097 81.8369 45.9097C82.3308 45.9097 82.7888 45.9584 83.2108 46.0603C83.6328 46.1621 84.0632 46.3253 84.5021 46.5479L84.0737 47.3939C83.7049 47.2031 83.3424 47.0654 82.986 46.9805C82.6299 46.8957 82.2461 46.8532 81.8305 46.8532C80.8128 46.8532 79.9754 47.1755 79.318 47.8222C78.6629 48.469 78.3343 49.3785 78.3343 50.5552C78.3343 51.7468 78.6226 52.6501 79.1972 53.2606C79.7739 53.8713 80.586 54.1767 81.6333 54.1767C81.9811 54.1767 82.3054 54.1427 82.6087 54.0749C82.9096 54.005 83.1875 53.901 83.4399 53.7611V51.2634H81.4891V50.3199H84.4829V54.3568Z" fill="#FF0000"/>
<path d="M89.5526 49.4743C89.4741 49.4488 89.4042 49.4319 89.3404 49.4212C89.279 49.4107 89.2005 49.4065 89.1051 49.4065C88.5879 49.4065 88.1785 49.627 87.8818 50.0681C87.5828 50.5089 87.4343 51.0601 87.4343 51.7239V54.9657H86.4145V48.605H87.4343V49.8666H87.4598C87.604 49.4191 87.8245 49.0777 88.1235 48.8445C88.4224 48.6093 88.7659 48.4927 89.1539 48.4927C89.2833 48.4927 89.3913 48.4989 89.4805 48.5117C89.5695 48.5243 89.6501 48.5436 89.7201 48.5669L89.5526 49.4743Z" fill="#FF0000"/>
<path d="M95.3407 54.9658H94.323V53.9713H94.2975C94.0791 54.3529 93.8079 54.6393 93.4877 54.8301C93.1653 55.0188 92.7923 55.1142 92.366 55.1142C91.7703 55.1142 91.2869 54.9403 90.9179 54.5925C90.5511 54.2449 90.3667 53.7827 90.3667 53.2081C90.3667 52.6653 90.5532 52.2158 90.9243 51.8595C91.2973 51.5033 91.8255 51.2766 92.508 51.1769L94.323 50.9352V50.7911C94.323 50.2567 94.1978 49.8771 93.9499 49.6525C93.7018 49.4255 93.3711 49.3132 92.9555 49.3132C92.6246 49.3132 92.3067 49.3746 91.9992 49.4997C91.6939 49.6227 91.4056 49.8135 91.1363 50.07L90.5406 49.4552C90.8967 49.1117 91.274 48.8593 91.677 48.6982C92.0777 48.5372 92.5251 48.4565 93.019 48.4565C93.7887 48.4565 94.3675 48.6538 94.7576 49.0482C95.1478 49.4445 95.3407 50.0383 95.3407 50.8291V54.9658ZM94.323 52.3812V51.7472L92.788 51.9592C92.3215 52.0251 91.9696 52.1438 91.732 52.3134C91.4967 52.483 91.378 52.7502 91.378 53.1149C91.378 53.4965 91.4881 53.787 91.7108 53.9882C91.9314 54.1876 92.2028 54.2894 92.5209 54.2894C93.0721 54.2894 93.511 54.1091 93.8353 53.7487C94.1598 53.3882 94.323 52.9324 94.323 52.3812Z" fill="#FF0000"/>
<path d="M98.3557 54.0456H98.3302V57.8917H97.3104V48.605H98.3302V49.7224H98.3557C98.6081 49.3004 98.9176 48.9844 99.2845 48.7725C99.6492 48.5605 100.073 48.4565 100.554 48.4565C101.373 48.4565 102.013 48.7406 102.473 49.3111C102.933 49.8792 103.162 50.6426 103.162 51.5987C103.162 52.6631 102.904 53.5155 102.386 54.1557C101.869 54.794 101.161 55.1142 100.262 55.1142C99.8526 55.1142 99.4879 55.0252 99.1679 54.847C98.8498 54.6689 98.5784 54.4017 98.3557 54.0456ZM98.3302 51.48V52.3684C98.3302 52.8943 98.4999 53.3416 98.8413 53.7084C99.1848 54.0753 99.6173 54.2575 100.143 54.2575C100.76 54.2575 101.244 54.0222 101.593 53.5495C101.943 53.0766 102.119 52.4214 102.119 51.5797C102.119 50.8715 101.956 50.3181 101.627 49.9153C101.301 49.5145 100.858 49.3132 100.3 49.3132C99.7063 49.3132 99.2314 49.5188 98.871 49.9301C98.5106 50.3436 98.3302 50.8589 98.3302 51.48Z" fill="#FF0000"/>
<path d="M110.07 54.9654H109.05V51.2996C109.05 50.638 108.927 50.1418 108.681 49.8089C108.436 49.4783 108.064 49.3129 107.572 49.3129C107.074 49.3129 106.657 49.5037 106.317 49.8874C105.978 50.2712 105.808 50.7632 105.808 51.3631V54.9654H104.789V45.5493H105.808V49.6605H105.834C106.078 49.2599 106.372 48.9587 106.72 48.7574C107.07 48.5559 107.469 48.4562 107.92 48.4562C108.637 48.4562 109.173 48.6703 109.532 49.1007C109.89 49.5313 110.07 50.1801 110.07 51.0451V54.9654Z" fill="#FF0000"/>
<path d="M112.511 47.0823C112.305 47.0823 112.131 47.0145 111.989 46.8746C111.849 46.7367 111.779 46.5649 111.779 46.3615C111.779 46.16 111.849 45.9882 111.989 45.8505C112.131 45.7106 112.305 45.6426 112.511 45.6426C112.718 45.6426 112.892 45.7106 113.034 45.8505C113.174 45.9882 113.244 46.16 113.244 46.3615C113.244 46.5649 113.174 46.7367 113.034 46.8746C112.892 47.0145 112.718 47.0823 112.511 47.0823ZM113.009 54.9654H111.989V48.6047H113.009V54.9654Z" fill="#FF0000"/>
<path d="M119.543 54.5863C119.249 54.7685 118.954 54.9022 118.661 54.9869C118.367 55.0719 118.047 55.1142 117.699 55.1142C116.804 55.1142 116.07 54.8363 115.496 54.283C114.923 53.7275 114.635 52.941 114.635 51.9211C114.635 50.8865 114.923 50.051 115.502 49.4129C116.079 48.7746 116.874 48.4565 117.883 48.4565C118.212 48.4565 118.524 48.4948 118.818 48.5731C119.115 48.6516 119.414 48.781 119.717 48.959L119.289 49.7055C119.052 49.5718 118.82 49.4743 118.592 49.4129C118.365 49.3513 118.116 49.3194 117.847 49.3194C117.147 49.3194 116.611 49.5528 116.238 50.0212C115.865 50.4899 115.678 51.0837 115.678 51.8045C115.678 52.5996 115.875 53.206 116.266 53.6235C116.658 54.0413 117.165 54.2513 117.786 54.2513C117.987 54.2513 118.199 54.2195 118.422 54.1557C118.642 54.0901 118.865 53.9904 119.09 53.8548L119.543 54.5863Z" fill="#FF0000"/>
<path d="M128.934 54.9658H127.916V53.9713H127.891C127.673 54.3529 127.401 54.6393 127.081 54.8301C126.759 55.0188 126.386 55.1142 125.959 55.1142C125.364 55.1142 124.88 54.9403 124.511 54.5925C124.144 54.2449 123.96 53.7827 123.96 53.2081C123.96 52.6653 124.147 52.2158 124.518 51.8595C124.891 51.5033 125.419 51.2766 126.101 51.1769L127.916 50.9352V50.7911C127.916 50.2567 127.791 49.8771 127.543 49.6525C127.295 49.4255 126.965 49.3132 126.549 49.3132C126.218 49.3132 125.9 49.3746 125.593 49.4997C125.287 49.6227 124.999 49.8135 124.73 50.07L124.134 49.4552C124.49 49.1117 124.867 48.8593 125.27 48.6982C125.671 48.5372 126.119 48.4565 126.612 48.4565C127.382 48.4565 127.961 48.6538 128.351 49.0482C128.741 49.4445 128.934 50.0383 128.934 50.8291V54.9658ZM127.916 52.3812V51.7472L126.381 51.9592C125.915 52.0251 125.563 52.1438 125.325 52.3134C125.09 52.483 124.971 52.7502 124.971 53.1149C124.971 53.4965 125.082 53.787 125.304 53.9882C125.525 54.1876 125.796 54.2894 126.114 54.2894C126.665 54.2894 127.104 54.1091 127.429 53.7487C127.753 53.3882 127.916 52.9324 127.916 52.3812Z" fill="#FF0000"/>
<path d="M136.185 54.9658H135.165V51.338C135.165 50.6638 135.042 50.1571 134.796 49.8199C134.551 49.4828 134.18 49.3132 133.688 49.3132C133.179 49.3132 132.757 49.504 132.424 49.8878C132.089 50.2715 131.924 50.7549 131.924 51.338V54.9658H130.904V48.605H131.924V49.6608H131.949C132.189 49.2602 132.481 48.959 132.831 48.7577C133.179 48.5562 133.58 48.4565 134.035 48.4565C134.731 48.4565 135.263 48.6813 135.632 49.1308C136.001 49.5782 136.185 50.2291 136.185 51.0773V54.9658Z" fill="#FF0000"/>
<path d="M142.491 53.8842C142.253 54.2955 141.954 54.6029 141.592 54.8065C141.229 55.0121 140.801 55.1139 140.303 55.1139C139.504 55.1139 138.865 54.8298 138.388 54.2594C137.909 53.6912 137.669 52.9152 137.669 51.9334C137.669 50.8819 137.934 50.0402 138.464 49.4062C138.995 48.7722 139.701 48.4562 140.583 48.4562C141.022 48.4562 141.401 48.5412 141.717 48.7129C142.033 48.8845 142.292 49.1433 142.491 49.4868H142.514V45.5493H143.534V54.9654H142.514V53.8842H142.491ZM138.713 51.8846C138.713 52.6183 138.884 53.1971 139.226 53.6213C139.567 54.0452 140.027 54.2572 140.602 54.2572C141.174 54.2572 141.634 54.0517 141.986 53.6425C142.338 53.2333 142.514 52.7137 142.514 52.0904V51.1512C142.514 50.638 142.345 50.2034 142.003 49.8472C141.662 49.4909 141.231 49.3129 140.714 49.3129C140.093 49.3129 139.603 49.5396 139.247 49.9955C138.891 50.4515 138.713 51.0812 138.713 51.8846Z" fill="#FF0000"/>
<path d="M157.095 48.605L155.187 54.9657H154.131L152.814 50.4009C152.78 50.2843 152.759 50.1868 152.749 50.1061C152.738 50.0234 152.73 49.9301 152.721 49.8221H152.696C152.689 49.9301 152.675 50.0234 152.653 50.1019C152.632 50.1804 152.602 50.28 152.566 50.4009L151.144 54.9657H150.126L148.199 48.605H149.267L150.584 53.3882C150.605 53.4582 150.622 53.541 150.637 53.6364C150.652 53.7318 150.662 53.84 150.671 53.9587H150.722C150.73 53.8674 150.743 53.7741 150.758 53.6766C150.775 53.579 150.8 53.4794 150.834 53.3756L152.299 48.605H153.23L154.547 53.4011C154.568 53.4794 154.587 53.5643 154.6 53.6575C154.615 53.7508 154.629 53.8569 154.64 53.9713H154.691C154.695 53.8888 154.706 53.7996 154.725 53.7042C154.744 53.6088 154.767 53.5069 154.797 53.4011L156.088 48.605H157.095Z" fill="#FF0000"/>
<path d="M163.386 52.0144H158.889C158.906 52.7309 159.097 53.2845 159.457 53.6704C159.82 54.0584 160.329 54.2513 160.984 54.2513C161.268 54.2513 161.556 54.2088 161.843 54.1241C162.131 54.0391 162.415 53.9035 162.697 53.717L163.17 54.4443C162.809 54.6753 162.449 54.8449 162.089 54.9531C161.728 55.0612 161.334 55.1142 160.903 55.1142C159.941 55.1142 159.192 54.8301 158.654 54.2575C158.115 53.6851 157.844 52.8901 157.839 51.8659C157.835 50.8439 158.107 50.0193 158.652 49.3936C159.194 48.7682 159.902 48.4565 160.772 48.4565C161.601 48.4565 162.243 48.7258 162.701 49.2666C163.159 49.8071 163.386 50.5555 163.386 51.5119V52.0144ZM162.343 51.1831C162.339 50.5938 162.197 50.1359 161.915 49.8071C161.633 49.4786 161.247 49.3132 160.753 49.3132C160.269 49.3132 159.858 49.4828 159.521 49.8199C159.184 50.1571 158.976 50.6107 158.902 51.1831H162.343Z" fill="#FF0000"/>
<path d="M165.973 54.1449H165.947V54.9654H164.927V45.5493H165.947V49.7221H165.973C166.225 49.3001 166.535 48.9841 166.902 48.7722C167.266 48.5602 167.69 48.4562 168.171 48.4562C168.986 48.4562 169.626 48.7403 170.086 49.3108C170.548 49.8789 170.779 50.6423 170.779 51.5984C170.779 52.6628 170.521 53.5152 170.004 54.1554C169.486 54.7937 168.778 55.1139 167.879 55.1139C167.461 55.1139 167.092 55.0333 166.772 54.8722C166.454 54.7111 166.187 54.4694 165.973 54.1449ZM165.947 51.4797V52.3681C165.947 52.894 166.117 53.3413 166.458 53.7081C166.802 54.075 167.234 54.2572 167.76 54.2572C168.377 54.2572 168.861 54.0219 169.21 53.5492C169.56 53.0763 169.736 52.4211 169.736 51.5794C169.736 50.8712 169.573 50.3178 169.244 49.915C168.918 49.5142 168.475 49.3129 167.917 49.3129C167.323 49.3129 166.848 49.5185 166.488 49.9298C166.128 50.3433 165.947 50.8586 165.947 51.4797Z" fill="#FF0000"/>
<path d="M180.278 53.8842C180.041 54.2955 179.742 54.6029 179.379 54.8065C179.017 55.0121 178.588 55.1139 178.09 55.1139C177.291 55.1139 176.653 54.8298 176.176 54.2594C175.696 53.6912 175.457 52.9152 175.457 51.9334C175.457 50.8819 175.722 50.0402 176.252 49.4062C176.782 48.7722 177.488 48.4562 178.37 48.4562C178.809 48.4562 179.188 48.5412 179.504 48.7129C179.82 48.8845 180.079 49.1433 180.278 49.4868H180.302V45.5493H181.321V54.9654H180.302V53.8842H180.278ZM176.5 51.8846C176.5 52.6183 176.672 53.1971 177.013 53.6213C177.354 54.0452 177.814 54.2572 178.389 54.2572C178.961 54.2572 179.422 54.0517 179.774 53.6425C180.125 53.2333 180.302 52.7137 180.302 52.0904V51.1512C180.302 50.638 180.132 50.2034 179.791 49.8472C179.449 49.4909 179.019 49.3129 178.501 49.3129C177.88 49.3129 177.39 49.5396 177.034 49.9955C176.678 50.4515 176.5 51.0812 176.5 51.8846Z" fill="#FF0000"/>
<path d="M188.494 52.0144H183.997C184.014 52.7309 184.205 53.2845 184.565 53.6704C184.928 54.0584 185.437 54.2513 186.092 54.2513C186.376 54.2513 186.664 54.2088 186.951 54.1241C187.239 54.0391 187.523 53.9035 187.805 53.717L188.278 54.4443C187.917 54.6753 187.557 54.8449 187.197 54.9531C186.836 55.0612 186.442 55.1142 186.011 55.1142C185.049 55.1142 184.3 54.8301 183.762 54.2575C183.223 53.6851 182.952 52.8901 182.947 51.8659C182.943 50.8439 183.215 50.0193 183.76 49.3936C184.302 48.7682 185.011 48.4565 185.88 48.4565C186.709 48.4565 187.351 48.7258 187.809 49.2666C188.267 49.8071 188.494 50.5555 188.494 51.5119V52.0144ZM187.451 51.1831C187.447 50.5938 187.305 50.1359 187.023 49.8071C186.741 49.4786 186.355 49.3132 185.861 49.3132C185.377 49.3132 184.966 49.4828 184.629 49.8199C184.292 50.1571 184.084 50.6107 184.01 51.1831H187.451Z" fill="#FF0000"/>
<path d="M189.44 54.4866L189.925 53.7042C190.201 53.8866 190.472 54.0244 190.737 54.1176C191.002 54.2109 191.289 54.2575 191.596 54.2575C192.031 54.2575 192.362 54.1771 192.586 54.0158C192.811 53.8548 192.926 53.6109 192.926 53.2886C192.926 53.0278 192.824 52.8073 192.624 52.6272C192.423 52.4469 192.109 52.3027 191.683 52.1947C190.888 51.9932 190.343 51.7367 190.048 51.4291C189.756 51.1196 189.607 50.7401 189.607 50.2884C189.607 49.7669 189.805 49.3301 190.199 48.9802C190.591 48.6304 191.14 48.4565 191.844 48.4565C192.184 48.4565 192.506 48.4989 192.813 48.5859C193.119 48.6728 193.432 48.8234 193.75 49.0332L193.297 49.8028C193.008 49.6206 192.747 49.4933 192.519 49.4212C192.287 49.3491 192.054 49.3132 191.819 49.3132C191.41 49.3132 191.096 49.3896 190.882 49.5399C190.665 49.6905 190.557 49.9089 190.557 50.1951C190.557 50.4813 190.67 50.6957 190.89 50.842C191.113 50.9861 191.469 51.1239 191.963 51.2512C192.608 51.4248 193.091 51.6687 193.413 51.9803C193.733 52.2941 193.895 52.7035 193.895 53.2081C193.895 53.7953 193.687 54.2597 193.269 54.6032C192.854 54.9446 192.283 55.1142 191.558 55.1142C191.17 55.1142 190.795 55.0612 190.436 54.9531C190.078 54.8449 189.747 54.69 189.44 54.4866Z" fill="#FF0000"/>
<path d="M195.955 47.0823C195.75 47.0823 195.576 47.0145 195.434 46.8746C195.294 46.7367 195.224 46.5649 195.224 46.3615C195.224 46.16 195.294 45.9882 195.434 45.8505C195.576 45.7106 195.75 45.6426 195.955 45.6426C196.163 45.6426 196.337 45.7106 196.479 45.8505C196.619 45.9882 196.689 46.16 196.689 46.3615C196.689 46.5649 196.619 46.7367 196.479 46.8746C196.337 47.0145 196.163 47.0823 195.955 47.0823ZM196.454 54.9654H195.434V48.6047H196.454V54.9654Z" fill="#FF0000"/>
<path d="M203.945 54.6244C203.945 55.7375 203.661 56.573 203.09 57.1285C202.52 57.6819 201.742 57.9595 200.752 57.9595C200.317 57.9595 199.912 57.9193 199.537 57.8365C199.164 57.7518 198.776 57.6181 198.379 57.4316L198.752 56.6492C199.083 56.8019 199.407 56.9142 199.723 56.9843C200.041 57.0543 200.378 57.0902 200.739 57.0902C201.417 57.0902 201.952 56.8973 202.342 56.5114C202.732 56.1277 202.925 55.5424 202.925 54.7602V53.8971H202.901C202.66 54.302 202.359 54.6075 201.994 54.8109C201.629 55.0124 201.203 55.1142 200.713 55.1142C199.922 55.1142 199.286 54.8323 198.805 54.2661C198.322 53.702 198.08 52.9431 198.08 51.991C198.08 50.9457 198.347 50.0976 198.879 49.4403C199.411 48.7832 200.115 48.4565 200.993 48.4565C201.424 48.4565 201.799 48.5415 202.115 48.7132C202.431 48.8848 202.694 49.1436 202.901 49.4871H202.925V48.605H203.945V54.6244ZM202.925 52.0907V51.1515C202.925 50.6469 202.755 50.2142 202.414 49.8537C202.072 49.4933 201.646 49.3132 201.137 49.3132C200.512 49.3132 200.02 49.5295 199.662 49.9598C199.303 50.3902 199.123 51.0432 199.123 51.9211C199.123 52.676 199.291 53.2526 199.621 53.6554C199.952 54.0563 200.41 54.2575 200.993 54.2575C201.566 54.2575 202.03 54.0541 202.388 53.649C202.747 53.2441 202.925 52.7226 202.925 52.0907Z" fill="#FF0000"/>
<path d="M211.287 54.9658H210.267V51.338C210.267 50.6638 210.144 50.1571 209.898 49.8199C209.652 49.4828 209.281 49.3132 208.789 49.3132C208.28 49.3132 207.859 49.504 207.526 49.8878C207.191 50.2715 207.025 50.7549 207.025 51.338V54.9658H206.005V48.605H207.025V49.6608H207.051C207.29 49.2602 207.583 48.959 207.933 48.7577C208.28 48.5562 208.681 48.4565 209.137 48.4565C209.833 48.4565 210.365 48.6813 210.734 49.1308C211.103 49.5782 211.287 50.2291 211.287 51.0773V54.9658Z" fill="#FF0000"/>
<path d="M218.318 52.0144H213.821C213.838 52.7309 214.028 53.2845 214.389 53.6704C214.751 54.0584 215.26 54.2513 215.915 54.2513C216.2 54.2513 216.488 54.2088 216.774 54.1241C217.063 54.0391 217.347 53.9035 217.629 53.717L218.102 54.4443C217.741 54.6753 217.381 54.8449 217.02 54.9531C216.66 55.0612 216.265 55.1142 215.835 55.1142C214.872 55.1142 214.124 54.8301 213.585 54.2575C213.047 53.6851 212.775 52.8901 212.771 51.8659C212.767 50.8439 213.038 50.0193 213.583 49.3936C214.126 48.7682 214.834 48.4565 215.703 48.4565C216.533 48.4565 217.175 48.7258 217.633 49.2666C218.091 49.8071 218.318 50.5555 218.318 51.5119V52.0144ZM217.275 51.1831C217.27 50.5938 217.128 50.1359 216.846 49.8071C216.564 49.4786 216.178 49.3132 215.684 49.3132C215.201 49.3132 214.79 49.4828 214.453 49.8199C214.116 50.1571 213.908 50.6107 213.833 51.1831H217.275Z" fill="#FF0000"/>
<path d="M222.997 49.4743C222.919 49.4488 222.849 49.4319 222.785 49.4212C222.724 49.4107 222.645 49.4065 222.55 49.4065C222.032 49.4065 221.623 49.627 221.326 50.0681C221.027 50.5089 220.879 51.0601 220.879 51.7239V54.9657H219.859V48.605H220.879V49.8666H220.904C221.049 49.4191 221.269 49.0777 221.568 48.8445C221.867 48.6093 222.21 48.4927 222.598 48.4927C222.728 48.4927 222.836 48.4989 222.925 48.5117C223.014 48.5243 223.095 48.5436 223.165 48.5669L222.997 49.4743Z" fill="#FF0000"/>
</g>
<defs>
<clipPath id="clip0_36_117">
<rect width="275" height="64.7355" fill="white"/>
</clipPath>
</defs>
</svg>
