<svg width="43" height="42" viewBox="0 0 43 42" fill="none" xmlns="http://www.w3.org/2000/svg">
<path d="M42.4787 20.7487C42.4787 32.2078 33.1892 41.4973 21.7301 41.4973C10.2709 41.4973 0.981384 32.2078 0.981384 20.7487C0.981384 9.28956 10.2709 0 21.7301 0C33.1892 0 42.4787 9.28956 42.4787 20.7487Z" fill="#FF0000"/>
<path d="M23.3886 22.9874C22.8933 23.3166 22.3195 23.4921 21.7301 23.4921C21.1376 23.4921 20.5638 23.3166 20.0716 22.9874L11.9327 17.5604C11.8888 17.529 11.8449 17.4977 11.801 17.4663V26.3577C11.801 27.3766 12.6287 28.1855 13.6288 28.1855H29.8346C30.8535 28.1855 31.6624 27.3578 31.6624 26.3577V17.4663C31.6185 17.4977 31.5746 17.529 31.5307 17.5604L23.3918 22.9874H23.3886Z" fill="black"/>
<path d="M12.5787 16.5916L20.7176 22.0186C21.0249 22.2224 21.3792 22.3259 21.7334 22.3259C22.0877 22.3259 22.4388 22.2224 22.7492 22.0186L30.8882 16.5916C31.3741 16.2656 31.6657 15.7232 31.6657 15.1369C31.6657 14.1305 30.8443 13.3091 29.8379 13.3091H13.6321C12.6257 13.3091 11.8043 14.1305 11.8043 15.1369C11.8043 15.7232 12.0959 16.2656 12.5818 16.5885L12.5787 16.5916Z" fill="black"/>
</svg>
