<svg width="42" height="42" viewBox="0 0 42 42" fill="none" xmlns="http://www.w3.org/2000/svg">
<path d="M41.4973 20.7487C41.4973 32.2078 32.2078 41.4973 20.7487 41.4973C9.28956 41.4973 0 32.2078 0 20.7487C0 9.28956 9.28956 0 20.7487 0C32.2078 0 41.4973 9.28956 41.4973 20.7487Z" fill="#FF0000"/>
<path d="M28.0498 13.9101C27.1329 12.9842 26.0408 12.25 24.8373 11.7504C23.6338 11.2508 22.3429 10.9957 21.0398 11.0001C15.5798 11.0001 11.1298 15.4501 11.1298 20.9101C11.1298 22.6601 11.5898 24.3601 12.4498 25.8601L11.0498 31.0001L16.2998 29.6201C17.7498 30.4101 19.3798 30.8301 21.0398 30.8301C26.4998 30.8301 30.9498 26.3801 30.9498 20.9201C30.9498 18.2701 29.9198 15.7801 28.0498 13.9101ZM21.0398 29.1501C19.5598 29.1501 18.1098 28.7501 16.8398 28.0001L16.5398 27.8201L13.4198 28.6401L14.2498 25.6001L14.0498 25.2901C13.2274 23.9771 12.7907 22.4593 12.7898 20.9101C12.7898 16.3701 16.4898 12.6701 21.0298 12.6701C23.2298 12.6701 25.2998 13.5301 26.8498 15.0901C27.6174 15.8539 28.2257 16.7626 28.6394 17.7634C29.0531 18.7642 29.264 19.8371 29.2598 20.9201C29.2798 25.4601 25.5798 29.1501 21.0398 29.1501ZM25.5598 22.9901C25.3098 22.8701 24.0898 22.2701 23.8698 22.1801C23.6398 22.1001 23.4798 22.0601 23.3098 22.3001C23.1398 22.5501 22.6698 23.1101 22.5298 23.2701C22.3898 23.4401 22.2398 23.4601 21.9898 23.3301C21.7398 23.2101 20.9398 22.9401 19.9998 22.1001C19.2598 21.4401 18.7698 20.6301 18.6198 20.3801C18.4798 20.1301 18.5998 20.0001 18.7298 19.8701C18.8398 19.7601 18.9798 19.5801 19.0998 19.4401C19.2198 19.3001 19.2698 19.1901 19.3498 19.0301C19.4298 18.8601 19.3898 18.7201 19.3298 18.6001C19.2698 18.4801 18.7698 17.2601 18.5698 16.7601C18.3698 16.2801 18.1598 16.3401 18.0098 16.3301H17.5298C17.3598 16.3301 17.0998 16.3901 16.8698 16.6401C16.6498 16.8901 16.0098 17.4901 16.0098 18.7101C16.0098 19.9301 16.8998 21.1101 17.0198 21.2701C17.1398 21.4401 18.7698 23.9401 21.2498 25.0101C21.8398 25.2701 22.2998 25.4201 22.6598 25.5301C23.2498 25.7201 23.7898 25.6901 24.2198 25.6301C24.6998 25.5601 25.6898 25.0301 25.8898 24.4501C26.0998 23.8701 26.0998 23.3801 26.0298 23.2701C25.9598 23.1601 25.8098 23.1101 25.5598 22.9901Z" fill="black"/>
</svg>
