<svg width="167" height="108" viewBox="0 0 167 108" fill="none" xmlns="http://www.w3.org/2000/svg">
<g clip-path="url(#clip0_145_122)">
<path d="M25.7944 107.376V101.808H27.8801C28.3524 101.808 28.7656 101.887 29.1001 102.044C29.4346 102.202 29.6904 102.418 29.8871 102.693C30.0642 102.969 30.1626 103.323 30.1626 103.717C30.1626 104.11 30.0642 104.445 29.8871 104.72C29.7101 104.996 29.4346 105.212 29.1001 105.369C28.7656 105.527 28.3524 105.586 27.8801 105.586H26.1289L26.3847 105.31V107.337H25.7944V107.376ZM29.592 107.376L28.1556 105.35H28.7853L30.2216 107.376H29.5723H29.592ZM26.3847 105.389L26.1289 105.114H27.8605C28.4114 105.114 28.8443 104.996 29.1198 104.74C29.4149 104.504 29.5526 104.15 29.5526 103.717C29.5526 103.264 29.4149 102.93 29.1198 102.693C28.8246 102.457 28.4114 102.32 27.8605 102.32H26.1289L26.3847 102.044V105.389ZM36.7346 104.307H39.6664V104.799H36.7346V104.307ZM36.7936 106.865H40.1386V107.376H36.2033V101.808H40.0205V102.32H36.7936V106.865ZM47.714 107.416C47.3008 107.416 46.9073 107.357 46.5334 107.219C46.1596 107.081 45.8644 106.904 45.648 106.707L45.8841 106.255C46.0809 106.452 46.3367 106.609 46.6712 106.727C47.0057 106.865 47.3599 106.924 47.714 106.924C48.0682 106.924 48.3437 106.885 48.5601 106.786C48.7766 106.708 48.934 106.589 49.052 106.432C49.1504 106.275 49.2095 106.117 49.2095 105.94C49.2095 105.724 49.1504 105.547 49.0324 105.409C48.9143 105.271 48.7372 105.173 48.5404 105.094C48.3437 105.015 48.1076 104.956 47.8714 104.897C47.6353 104.838 47.3795 104.779 47.1434 104.72C46.9073 104.661 46.6712 104.563 46.4744 104.445C46.2777 104.327 46.1006 104.189 45.9825 104.012C45.8644 103.835 45.8054 103.599 45.8054 103.284C45.8054 103.008 45.8841 102.753 46.0219 102.516C46.1596 102.28 46.3957 102.103 46.6909 101.965C46.986 101.828 47.3795 101.749 47.8518 101.749C48.1666 101.749 48.4814 101.788 48.7766 101.887C49.0914 101.965 49.3472 102.103 49.5636 102.241L49.3669 102.713C49.1307 102.556 48.8749 102.438 48.5995 102.359C48.324 102.28 48.0682 102.241 47.8321 102.241C47.4976 102.241 47.2221 102.28 47.0057 102.379C46.7892 102.477 46.6318 102.595 46.5334 102.733C46.4351 102.89 46.376 103.048 46.376 103.244C46.376 103.461 46.4351 103.638 46.5531 103.776C46.6712 103.913 46.8483 104.012 47.045 104.091C47.2418 104.169 47.4779 104.228 47.714 104.287C47.9502 104.346 48.2059 104.405 48.4421 104.484C48.6782 104.563 48.9143 104.641 49.1111 104.76C49.3078 104.878 49.4849 105.015 49.603 105.192C49.721 105.369 49.7801 105.606 49.7801 105.901C49.7801 106.176 49.7014 106.412 49.5636 106.648C49.4062 106.885 49.1898 107.062 48.875 107.199C48.5798 107.337 48.1863 107.416 47.6944 107.416H47.714ZM56.7259 107.376V102.32H54.7779V101.808H59.2641V102.32H57.3162V107.376H56.7259ZM63.711 107.376L66.2493 101.808H66.8199L69.3582 107.376H68.7285L66.387 102.162H66.6231L64.2816 107.376H63.6717H63.711ZM64.7145 105.901L64.8916 105.429H68.1186L68.2956 105.901H64.7145ZM77.091 107.436C76.3827 107.436 75.8317 107.239 75.4185 106.826C75.0053 106.412 74.8086 105.822 74.8086 105.015V101.828H75.3988V104.996C75.3988 105.645 75.5563 106.137 75.8514 106.452C76.1466 106.767 76.5598 106.924 77.1107 106.924C77.6616 106.924 78.0749 106.767 78.37 106.452C78.6651 106.137 78.8226 105.645 78.8226 104.996V101.828H79.3932V105.015C79.3932 105.822 79.1964 106.412 78.7832 106.826C78.37 107.239 77.8191 107.436 77.1107 107.436H77.091ZM85.8077 107.396V101.828H87.8934C88.3657 101.828 88.7789 101.906 89.1134 102.064C89.4479 102.221 89.7037 102.438 89.9004 102.713C90.0775 102.989 90.1759 103.343 90.1759 103.736C90.1759 104.13 90.0775 104.464 89.9004 104.74C89.7233 105.015 89.4479 105.232 89.1134 105.389C88.7789 105.547 88.3657 105.606 87.8934 105.606H86.1422L86.398 105.33V107.357H85.8077V107.396ZM89.6053 107.396L88.1689 105.369H88.7985L90.2349 107.396H89.5856H89.6053ZM86.398 105.409L86.1422 105.133H87.8737C88.4247 105.133 88.8576 105.015 89.133 104.76C89.4282 104.523 89.5659 104.169 89.5659 103.736C89.5659 103.284 89.4282 102.949 89.133 102.713C88.8379 102.477 88.4247 102.339 87.8737 102.339H86.1422L86.398 102.064V105.409ZM95.3311 107.396L97.8694 101.828H98.44L100.978 107.396H100.349L98.0071 102.182H98.2432L95.9017 107.396H95.2918H95.3311ZM96.3346 105.92L96.5117 105.448H99.7387L99.9158 105.92H96.3346ZM106.586 107.396V101.828H107.078L110.915 106.648H110.659V101.828H111.23V107.396H110.738L106.901 102.575H107.157V107.396H106.566H106.586ZM118.786 107.396V102.339H116.838V101.828H121.324V102.339H119.376V107.396H118.786ZM127.463 104.327H130.395V104.819H127.463V104.327ZM127.522 106.885H130.867V107.396H126.932V101.828H130.749V102.339H127.522V106.885Z" fill="#4E4E4E"/>
<path fill-rule="evenodd" clip-rule="evenodd" d="M134.31 104.248H144.995C145.191 104.248 145.349 104.405 145.349 104.602C145.349 104.799 145.191 104.956 144.995 104.956H134.31C134.113 104.956 133.956 104.799 133.956 104.602C133.956 104.405 134.113 104.248 134.31 104.248Z" fill="#4E4E4E"/>
<path fill-rule="evenodd" clip-rule="evenodd" d="M11.1159 104.248H21.8002C21.997 104.248 22.1544 104.405 22.1544 104.602C22.1544 104.799 21.997 104.956 21.8002 104.956H11.1159C10.9191 104.956 10.7617 104.799 10.7617 104.602C10.7617 104.405 10.9191 104.248 11.1159 104.248Z" fill="#4E4E4E"/>
<path d="M10.4466 83.5879H24.5743L24.9088 85.0243H9.69891L10.4269 83.5879H10.4466ZM36.4983 96.2399C36.6557 96.2399 36.7344 96.3382 36.7344 96.5547C36.7344 96.7514 36.6557 96.8695 36.4983 96.8695C35.849 96.8695 34.8258 96.8301 33.4484 96.7711C32.012 96.6924 30.9692 96.6727 30.3592 96.6727C29.5328 96.6727 28.549 96.7121 27.3684 96.7711C26.2468 96.8498 25.3811 96.8695 24.7121 96.8695C24.5743 96.8695 24.5153 96.7711 24.5153 96.5547C24.5153 96.3579 24.5743 96.2399 24.7121 96.2399C25.5582 96.2399 26.1681 96.1415 26.5617 95.9644C26.9355 95.7676 27.1323 95.4331 27.1323 94.9609C27.1323 94.3706 26.7978 93.3868 26.1484 92.0291L16.1921 71.3294L18.5927 66.8825L8.83314 89.5302C8.40026 90.5337 8.20349 91.4585 8.20349 92.3242C8.20349 93.5638 8.6167 94.528 9.46279 95.2167C10.2892 95.9053 11.4108 96.2399 12.8275 96.2399C12.9849 96.2399 13.0636 96.3382 13.0636 96.5547C13.0636 96.7514 12.9849 96.8695 12.8275 96.8695C12.2372 96.8695 11.3911 96.8301 10.2695 96.7711C9.02991 96.6924 7.9477 96.6727 7.0229 96.6727C6.13746 96.6727 5.07493 96.7121 3.83531 96.7711C2.71375 96.8498 1.82831 96.8695 1.13964 96.8695C1.0019 96.8695 0.942871 96.7711 0.942871 96.5547C0.942871 96.3579 1.0019 96.2399 1.13964 96.2399C2.06443 96.2399 2.83181 96.0431 3.44178 95.6496C4.07143 95.256 4.6814 94.5477 5.31105 93.5245C5.9407 92.5013 6.66873 91.0059 7.51482 89.0186L18.1598 64.4033C18.2188 64.3049 18.3762 64.2459 18.5927 64.2459C18.8485 64.2459 19.0059 64.3049 19.0256 64.4033L31.3037 89.786C32.4449 92.2259 33.3894 93.918 34.1568 94.8428C34.9045 95.7676 35.6915 96.2399 36.518 96.2399H36.4983ZM38.1708 96.8498C38.1118 96.8498 38.0724 96.7514 38.0724 96.535C38.0724 96.3382 38.1118 96.2202 38.1708 96.2202C39.194 96.2202 39.8826 95.9644 40.2565 95.4725C40.6303 94.9806 40.8271 94.0361 40.8271 92.6587L40.8665 66.4497C40.8665 65.2494 40.7681 64.3836 40.5516 63.872C40.3352 63.3604 39.9613 63.1047 39.4498 63.1047C39.0169 63.1047 38.4069 63.3014 37.5805 63.6753H37.5411C37.4428 63.6753 37.3444 63.5769 37.2657 63.3998C37.187 63.203 37.1673 63.1047 37.246 63.0653L44.4673 59.5039L44.664 59.4448C44.8214 59.4448 44.9985 59.5235 45.1953 59.6809C45.3921 59.8384 45.4904 59.9761 45.4904 60.1138V92.6784C45.4904 94.0558 45.6675 95.0002 46.0217 95.4921C46.3759 95.9841 47.0646 96.2399 48.0877 96.2399C48.2255 96.2399 48.2845 96.3382 48.2845 96.5547C48.2845 96.7514 48.2255 96.8695 48.0877 96.8695C47.2613 96.8695 46.612 96.8498 46.1201 96.8105L43.1293 96.7514L40.1778 96.8105C39.6859 96.8498 39.0169 96.8695 38.1708 96.8695V96.8498ZM62.7664 97.5188C61.3497 97.5188 59.992 97.2433 58.6343 96.7121C57.2963 96.1808 56.0764 95.3938 54.9942 94.3706L58.1424 88.3299C58.1424 90.2188 58.4572 91.7733 59.0672 92.9932C59.6969 94.2132 60.4446 95.0986 61.33 95.6496C62.2154 96.2005 63.0812 96.476 63.9273 96.476C65.344 96.476 66.4065 95.7283 67.1739 94.2132C67.9216 92.6981 68.2955 90.5927 68.2955 87.8577C68.2955 84.8668 67.8232 82.6434 66.8788 81.1677C65.9343 79.7116 64.5963 78.9836 62.9041 78.9836C61.1726 78.9836 59.3624 79.7313 57.5128 81.2464L57.0799 80.8332C58.4179 79.3968 59.6969 78.2555 60.9168 77.4488C62.1367 76.6421 63.5731 76.2289 65.226 76.2289C66.7017 76.2289 68.0594 76.583 69.299 77.3111C70.5386 78.0391 71.5421 79.1213 72.2701 80.5577C72.9982 81.9941 73.372 83.765 73.372 85.831C73.372 88.3102 72.8801 90.4156 71.8766 92.1865C70.8731 93.9377 69.5745 95.256 67.9413 96.1611C66.3278 97.0466 64.5963 97.4991 62.7664 97.4991V97.5188ZM51.2753 97.204C51.1376 97.204 51.0589 97.145 51.0392 97.0072C50.9998 96.8695 51.0589 96.7908 51.1769 96.7514C51.964 96.2792 52.5543 95.6102 52.9675 94.7641C53.3807 93.918 53.5775 92.8555 53.5775 91.5372V66.4497C53.5775 65.2494 53.4791 64.3836 53.2626 63.872C53.0462 63.3604 52.6724 63.1047 52.1017 63.1047C51.6688 63.1047 51.0786 63.3014 50.2915 63.6753H50.2325C50.0947 63.6753 49.9963 63.5769 49.9373 63.3998C49.8783 63.203 49.8783 63.1047 49.9373 63.0653L57.0996 59.5039L57.3357 59.4448C57.4931 59.4448 57.6702 59.5235 57.8473 59.6809C58.0244 59.8384 58.1227 59.9761 58.1227 60.1138V93.9771L51.354 97.2237H51.2556L51.2753 97.204ZM90.5889 97.145C90.4512 97.2237 90.2938 97.2433 90.097 97.2433C89.4477 97.2433 88.8377 96.8105 88.2868 95.925C87.7359 95.0396 87.4604 93.8787 87.4604 92.4423V83.6666C87.4604 81.4628 87.2833 79.869 86.9488 78.8655C86.6143 77.862 86.024 77.3701 85.1976 77.3701C83.4661 77.3701 82.4822 78.7868 82.2461 81.6005C82.1477 82.6237 81.8526 83.3714 81.3803 83.824C80.9081 84.2765 80.2391 84.493 79.393 84.493C78.5666 84.493 77.9763 84.3159 77.6025 83.942C77.2286 83.5879 77.0318 83.1156 77.0318 82.5253C77.0318 81.5022 77.6025 80.4987 78.7437 79.5542C79.8849 78.6097 81.2623 77.8423 82.8954 77.252C84.5089 76.6617 85.9453 76.3666 87.1849 76.3666C88.6213 76.3666 89.8019 76.8388 90.6873 77.7833C91.5924 78.7278 92.045 80.1642 92.045 82.0925V91.2223C92.045 92.2258 92.2221 92.9932 92.5566 93.5442C92.8911 94.0951 93.383 94.3706 94.0127 94.3706C94.4652 94.3706 94.9374 94.2525 95.4294 94.0164H95.4884C95.6261 94.0164 95.7048 94.0951 95.7639 94.2525C95.8229 94.4099 95.7639 94.528 95.6458 94.587L90.5889 97.1253V97.145ZM81.1639 97.204C79.7472 97.204 78.6847 96.8695 77.9763 96.2202C77.2483 95.5708 76.8941 94.6461 76.8941 93.4851C76.8941 92.5603 77.1105 91.8126 77.5238 91.242C77.9566 90.6714 78.4879 90.2188 79.1176 89.904C79.7472 89.5695 80.6523 89.2153 81.7935 88.8021L83.0135 88.3299L87.9129 86.4213L88.1097 87.1887L85.3156 88.5267C85.2173 88.566 84.8828 88.6841 84.3318 88.9202C83.7809 89.1366 83.289 89.5105 82.8758 90.0221C82.4626 90.5337 82.2658 91.1436 82.2658 91.8323C82.2658 92.6587 82.5216 93.3081 83.0332 93.7606C83.5448 94.2328 84.1154 94.4493 84.7844 94.4493C85.3156 94.4493 85.8469 94.2525 86.3978 93.8787L88.8574 92.1275L88.9164 92.9539L85.4731 95.5315C84.7254 96.1218 84.017 96.535 83.3677 96.7908C82.7183 97.0466 81.9706 97.1843 81.1639 97.1843V97.204ZM110.698 96.8498C110.6 96.8498 110.561 96.7514 110.561 96.535C110.561 96.3382 110.62 96.2202 110.698 96.2202C111.721 96.2202 112.39 95.9644 112.764 95.4725C113.119 94.9806 113.296 94.0361 113.296 92.6587V85.221C113.296 83.3714 112.981 81.9941 112.331 81.089C111.702 80.2035 110.679 79.751 109.321 79.751C108.298 79.751 107.275 80.0264 106.251 80.5577C105.228 81.089 104.402 81.7776 103.831 82.6434L103.595 82.0334C104.776 80.2429 106.094 78.8458 107.55 77.8227C109.006 76.7995 110.561 76.3076 112.194 76.3076C113.965 76.3076 115.362 76.8979 116.385 78.0785C117.408 79.259 117.939 80.8135 117.939 82.7418V92.6587C117.939 94.0361 118.136 94.9806 118.51 95.4725C118.884 95.9644 119.572 96.2202 120.596 96.2202C120.694 96.2202 120.733 96.3186 120.733 96.535C120.733 96.7318 120.674 96.8498 120.596 96.8498C119.749 96.8498 119.08 96.8301 118.589 96.7908L115.637 96.7318L112.784 96.7908C112.253 96.8301 111.564 96.8498 110.718 96.8498H110.698ZM97.4954 96.8498C97.397 96.8498 97.3576 96.7514 97.3576 96.535C97.3576 96.3382 97.397 96.2202 97.4954 96.2202C98.5186 96.2202 99.1876 95.9644 99.5614 95.4725C99.9156 94.9806 100.093 94.0361 100.093 92.6587V82.9582C100.093 81.8957 99.9746 81.1086 99.7188 80.6167C99.4827 80.1248 99.0892 79.869 98.5579 79.869C98.007 79.869 97.2199 80.1051 96.1967 80.597H96.0984C96 80.597 95.9213 80.5183 95.8819 80.3412C95.8229 80.1642 95.8426 80.0658 95.9016 80.0264L102.729 76.524C102.926 76.4453 103.044 76.4256 103.064 76.4256C103.457 76.4256 103.831 76.8585 104.166 77.744C104.5 78.6294 104.677 79.7903 104.677 81.2267V92.6784C104.677 94.0558 104.874 95.0002 105.248 95.4921C105.622 95.9841 106.31 96.2399 107.334 96.2399C107.432 96.2399 107.471 96.3382 107.471 96.5547C107.471 96.7514 107.412 96.8695 107.334 96.8695C106.488 96.8695 105.819 96.8498 105.327 96.8105L102.375 96.7514L99.4827 96.8105C98.9908 96.8498 98.3218 96.8695 97.4757 96.8695L97.4954 96.8498ZM123.311 96.8498C123.213 96.8498 123.173 96.7514 123.173 96.535C123.173 96.3382 123.213 96.2202 123.311 96.2202C124.334 96.2202 125.003 95.9644 125.377 95.4725C125.731 94.9806 125.908 94.0361 125.908 92.6587V83.4108C125.908 82.2499 125.79 81.4038 125.574 80.8725C125.338 80.3609 124.964 80.1051 124.452 80.1051C124.019 80.1051 123.429 80.3019 122.642 80.6758H122.583C122.445 80.6758 122.347 80.5774 122.288 80.4003C122.229 80.2035 122.248 80.1051 122.347 80.0658L129.765 76.4453L129.903 76.3863C130.06 76.3863 130.237 76.465 130.394 76.6421C130.552 76.8192 130.631 76.9766 130.631 77.1143V78.2555C130.572 79.6329 130.532 81.3251 130.532 83.3124V92.6587C130.532 94.0361 130.729 94.9806 131.103 95.4725C131.477 95.9644 132.165 96.2202 133.189 96.2202C133.287 96.2202 133.326 96.3186 133.326 96.535C133.326 96.7318 133.287 96.8498 133.189 96.8498C132.342 96.8498 131.673 96.8301 131.182 96.7908L128.23 96.7318L125.338 96.7908C124.846 96.8301 124.177 96.8498 123.331 96.8498H123.311ZM128.014 71.3097C127.069 71.3097 126.321 71.0343 125.81 70.4833C125.279 69.9324 125.023 69.165 125.023 68.1615C125.023 67.2761 125.298 66.548 125.83 66.0168C126.361 65.4855 127.089 65.21 128.014 65.21C128.938 65.21 129.627 65.4658 130.119 65.9774C130.611 66.489 130.847 67.217 130.847 68.1418C130.847 69.1453 130.611 69.9127 130.119 70.4637C129.627 71.0146 128.919 71.2901 128.014 71.2901V71.3097ZM149.953 97.1646C149.815 97.2434 149.658 97.263 149.461 97.263C148.812 97.263 148.202 96.8301 147.651 95.9447C147.1 95.0593 146.824 93.8983 146.824 92.462V83.6863C146.824 81.4825 146.647 79.8887 146.313 78.8852C145.978 77.8817 145.388 77.3898 144.562 77.3898C142.83 77.3898 141.846 78.8065 141.61 81.6202C141.512 82.6434 141.217 83.3911 140.744 83.8437C140.272 84.2962 139.603 84.5127 138.757 84.5127C137.931 84.5127 137.34 84.3356 136.966 83.9617C136.593 83.6075 136.396 83.1353 136.396 82.545C136.396 81.5218 136.966 80.5183 138.108 79.5739C139.249 78.6294 140.626 77.862 142.259 77.2717C143.873 76.6814 145.309 76.3863 146.549 76.3863C147.985 76.3863 149.166 76.8585 150.051 77.803C150.956 78.7475 151.409 80.1838 151.409 82.1121V91.242C151.409 92.2455 151.586 93.0129 151.921 93.5638C152.255 94.1148 152.747 94.3903 153.377 94.3903C153.829 94.3903 154.301 94.2722 154.793 94.0361H154.852C154.99 94.0361 155.069 94.1148 155.128 94.2722C155.187 94.4296 155.128 94.5477 155.01 94.6067L149.953 97.145V97.1646ZM140.528 97.2237C139.111 97.2237 138.049 96.8892 137.34 96.2399C136.612 95.5905 136.258 94.6657 136.258 93.5048C136.258 92.58 136.474 91.8323 136.888 91.2617C137.321 90.6911 137.852 90.2385 138.482 89.9237C139.111 89.5892 140.016 89.235 141.157 88.8218L142.377 88.3496L147.277 86.441L147.474 87.2083L144.68 88.5463C144.581 88.5857 144.247 88.7038 143.696 88.9399C143.145 89.1563 142.653 89.5302 142.24 90.0418C141.826 90.5533 141.63 91.1633 141.63 91.852C141.63 92.6784 141.886 93.3277 142.397 93.7803C142.909 94.2525 143.479 94.469 144.148 94.469C144.68 94.469 145.211 94.2722 145.762 93.8984L148.221 92.1471L148.28 92.9736L144.837 95.5512C144.089 96.1415 143.381 96.5547 142.732 96.8105C142.082 97.0663 141.335 97.204 140.528 97.204V97.2237Z" fill="#4E4E4E"/>
<path fill-rule="evenodd" clip-rule="evenodd" d="M67.9419 3.09131H69.9686V65.328H67.9419V3.09131Z" fill="#4E4E4E"/>
<path fill-rule="evenodd" clip-rule="evenodd" d="M84.5879 10.0173H99.8174C101.431 10.0173 102.749 11.3357 102.749 12.9491V69.9913C102.749 70.2471 102.533 70.4635 102.277 70.4635H82.0889C81.8331 70.4635 81.6167 70.2471 81.6167 69.9913V12.9491C81.6167 11.3357 82.935 10.0173 84.5485 10.0173H84.5879ZM83.8795 12.9098V17.8879H83.486V19.3243H100.9V17.8879H100.605V13.0278C100.545 12.9098 100.467 12.8114 100.368 12.713V17.8879H99.7781V12.2605C99.6994 12.2211 99.6207 12.1817 99.542 12.1621V17.9076H98.9517V12.044C98.9123 12.044 98.8533 12.044 98.8139 12.044H98.7156V17.9273H98.1253V12.044H97.8892V17.9273H97.2989V12.044H97.0627V17.9273H96.4724V12.044H96.2363V17.9273H95.646V12.044H95.4099V17.9273H94.8196V12.044H94.5835V17.9273H93.9932V12.044H93.7571V17.9273H93.1668V12.044H92.9307V17.9273H92.3404V12.044H92.1043V17.9273H91.514V12.044H91.2779V17.9273H90.6876V12.044H90.4514V17.9273H89.8612V12.044H89.625V17.9273H89.0347V12.044H88.7986V17.9273H88.2083V12.044H87.9722V17.9273H87.3819V12.044H87.1458V17.9273H86.5555V12.044H86.3194V17.9273H85.7291V12.044H85.5323H85.493V17.9076H84.9027V12.1227C84.824 12.1424 84.7453 12.1817 84.6666 12.2211V17.9076H84.0763V12.6343C83.9779 12.7327 83.8992 12.8114 83.8205 12.9295L83.8795 12.9098ZM83.486 41.8145H100.9V46.6156H83.486V41.8145ZM92.7536 47.8552H100.919V68.3778H92.7536V47.8552ZM83.486 47.8552H91.7894V68.3778H83.486V47.8552ZM92.7536 40.7914H100.919V20.2688H92.7536V40.7914ZM83.486 40.7914H91.7894V20.2688H83.486V40.7914Z" fill="#4E4E4E"/>
<path fill-rule="evenodd" clip-rule="evenodd" d="M113.139 3.09131H115.165V65.328H113.139V3.09131Z" fill="#4E4E4E"/>
<path fill-rule="evenodd" clip-rule="evenodd" d="M62.2744 3.24854H76.166V4.84233H62.2744V3.24854Z" fill="#4E4E4E"/>
<path fill-rule="evenodd" clip-rule="evenodd" d="M64.439 3.91772H74.474C74.7691 3.91772 75.0053 4.15384 75.0053 4.44899V4.99993C75.0053 5.29508 74.7691 5.5312 74.474 5.5312H64.439C64.1438 5.5312 63.9077 5.29508 63.9077 4.99993V4.44899C63.9077 4.15384 64.1438 3.91772 64.439 3.91772Z" fill="#4E4E4E"/>
<path fill-rule="evenodd" clip-rule="evenodd" d="M66.8002 5H72.0539C72.4867 5 72.8409 5.35418 72.8409 5.78706C72.8409 6.21994 72.4867 6.9283 72.0539 6.9283H66.8002C66.3674 6.9283 66.0132 6.21994 66.0132 5.78706C66.0132 5.35418 66.3674 5 66.8002 5Z" fill="#4E4E4E"/>
<path fill-rule="evenodd" clip-rule="evenodd" d="M107.137 3.24854H121.048V4.84233H107.137V3.24854Z" fill="#4E4E4E"/>
<path fill-rule="evenodd" clip-rule="evenodd" d="M109.301 3.91772H119.336C119.631 3.91772 119.868 4.15384 119.868 4.44899V4.99993C119.868 5.29508 119.631 5.5312 119.336 5.5312H109.301C109.006 5.5312 108.77 5.29508 108.77 4.99993V4.44899C108.77 4.15384 109.006 3.91772 109.301 3.91772Z" fill="#4E4E4E"/>
<path fill-rule="evenodd" clip-rule="evenodd" d="M111.663 5H116.916C117.349 5 117.703 5.35418 117.703 5.78706C117.703 6.21994 117.349 6.9283 116.916 6.9283H111.663C111.23 6.9283 110.875 6.21994 110.875 5.78706C110.875 5.35418 111.23 5 111.663 5Z" fill="#4E4E4E"/>
<path fill-rule="evenodd" clip-rule="evenodd" d="M103.576 49.8821H120.36C121.166 49.8821 121.835 50.5511 121.835 51.3578C121.835 52.1646 121.166 52.8336 120.36 52.8336H103.576V49.9018V49.8821Z" fill="#4E4E4E"/>
<path fill-rule="evenodd" clip-rule="evenodd" d="M63.2194 49.882H80.574V52.8138H63.2194C62.4127 52.8138 61.7437 52.1448 61.7437 51.338C61.7437 50.5313 62.4127 49.8623 63.2194 49.8623V49.882Z" fill="#4E4E4E"/>
<path fill-rule="evenodd" clip-rule="evenodd" d="M103.693 65.2886H120.379C121.186 65.2886 121.855 65.9576 121.855 66.7643C121.855 67.571 121.186 68.24 120.379 68.24H103.693V65.3082V65.2886Z" fill="#4E4E4E"/>
<path fill-rule="evenodd" clip-rule="evenodd" d="M63.2194 65.2885H80.5347V68.2203H63.2194C62.4127 68.2203 61.7437 67.5513 61.7437 66.7445C61.7437 65.9378 62.4127 65.2688 63.2194 65.2688V65.2885Z" fill="#4E4E4E"/>
<path fill-rule="evenodd" clip-rule="evenodd" d="M66.918 68.0237H71.5616V70.9752H66.918V68.0237Z" fill="#4E4E4E"/>
<path fill-rule="evenodd" clip-rule="evenodd" d="M111.978 68.0237H116.621V70.9752H111.978V68.0237Z" fill="#4E4E4E"/>
<path fill-rule="evenodd" clip-rule="evenodd" d="M61.7437 70.011H121.836V70.9751H61.7437V70.011Z" fill="#4E4E4E"/>
<path fill-rule="evenodd" clip-rule="evenodd" d="M80.2394 48.1702C80.5542 48.1702 80.7904 48.426 80.7904 48.7211V69.9914H79.6885V48.7211C79.6885 48.426 79.9443 48.1702 80.2394 48.1702Z" fill="#4E4E4E"/>
<path fill-rule="evenodd" clip-rule="evenodd" d="M104.107 48.1702C104.402 48.1702 104.658 48.426 104.658 48.7211V69.9914H103.556V48.7211C103.556 48.426 103.812 48.1702 104.107 48.1702Z" fill="#4E4E4E"/>
<path fill-rule="evenodd" clip-rule="evenodd" d="M70.4009 52.814H70.8534V65.2889H70.4009V52.814Z" fill="#4E4E4E"/>
<path fill-rule="evenodd" clip-rule="evenodd" d="M71.7979 52.814H72.2504V65.2889H71.7979V52.814Z" fill="#4E4E4E"/>
<path fill-rule="evenodd" clip-rule="evenodd" d="M73.1953 52.814H73.6479V65.2889H73.1953V52.814Z" fill="#4E4E4E"/>
<path fill-rule="evenodd" clip-rule="evenodd" d="M74.5923 52.814H75.0448V65.2889H74.5923V52.814Z" fill="#4E4E4E"/>
<path fill-rule="evenodd" clip-rule="evenodd" d="M75.9893 52.814H76.4418V65.2889H75.9893V52.814Z" fill="#4E4E4E"/>
<path fill-rule="evenodd" clip-rule="evenodd" d="M77.3862 52.814H77.8388V65.2889H77.3862V52.814Z" fill="#4E4E4E"/>
<path fill-rule="evenodd" clip-rule="evenodd" d="M78.7832 52.814H79.2358V65.2889H78.7832V52.814Z" fill="#4E4E4E"/>
<path fill-rule="evenodd" clip-rule="evenodd" d="M66.7808 52.814H67.2333V65.2889H66.7808V52.814Z" fill="#4E4E4E"/>
<path fill-rule="evenodd" clip-rule="evenodd" d="M65.3442 52.814H65.7968V65.2889H65.3442V52.814Z" fill="#4E4E4E"/>
<path fill-rule="evenodd" clip-rule="evenodd" d="M63.9077 52.814H64.3603V65.2889H63.9077V52.814Z" fill="#4E4E4E"/>
<path fill-rule="evenodd" clip-rule="evenodd" d="M112.529 52.814H112.076V65.2889H112.529V52.814Z" fill="#4E4E4E"/>
<path fill-rule="evenodd" clip-rule="evenodd" d="M111.131 52.814H110.679V65.2889H111.131V52.814Z" fill="#4E4E4E"/>
<path fill-rule="evenodd" clip-rule="evenodd" d="M109.734 52.814H109.282V65.2889H109.734V52.814Z" fill="#4E4E4E"/>
<path fill-rule="evenodd" clip-rule="evenodd" d="M108.337 52.814H107.885V65.2889H108.337V52.814Z" fill="#4E4E4E"/>
<path fill-rule="evenodd" clip-rule="evenodd" d="M106.94 52.814H106.488V65.2889H106.94V52.814Z" fill="#4E4E4E"/>
<path fill-rule="evenodd" clip-rule="evenodd" d="M105.543 52.814H105.091V65.2889H105.543V52.814Z" fill="#4E4E4E"/>
<path fill-rule="evenodd" clip-rule="evenodd" d="M120.438 52.814H120.005V65.2889H120.438V52.814Z" fill="#4E4E4E"/>
<path fill-rule="evenodd" clip-rule="evenodd" d="M116.149 52.814H115.696V65.2889H116.149V52.814Z" fill="#4E4E4E"/>
<path fill-rule="evenodd" clip-rule="evenodd" d="M117.585 52.814H117.133V65.2889H117.585V52.814Z" fill="#4E4E4E"/>
<path fill-rule="evenodd" clip-rule="evenodd" d="M119.021 52.814H118.569V65.2889H119.021V52.814Z" fill="#4E4E4E"/>
<path fill-rule="evenodd" clip-rule="evenodd" d="M61.7437 0.769531H121.049V3.70133H61.7437V0.769531Z" fill="#4E4E4E"/>
<path fill-rule="evenodd" clip-rule="evenodd" d="M162.388 92.4621C162.388 92.4621 162.369 92.4621 162.369 92.4818L162.329 92.5014C162.29 92.5211 162.251 92.5605 162.211 92.5802C162.192 92.5802 162.192 92.5998 162.172 92.5998C162.152 92.5998 162.152 92.6195 162.133 92.6195L162.113 92.6392C162.113 92.6392 162.093 92.6392 162.093 92.6589H162.074L162.054 92.6785H162.034C162.034 92.6785 162.015 92.6785 162.015 92.6982H161.995L161.975 92.7179H161.956C161.956 92.7179 161.936 92.7179 161.936 92.7376H161.916C161.916 92.7376 161.897 92.7376 161.897 92.7572H161.877L161.857 92.7769H161.837C161.837 92.7769 161.818 92.7769 161.818 92.7966H161.798C161.778 92.7966 161.778 92.8163 161.778 92.8163C161.759 92.8163 161.759 92.8359 161.739 92.8359C161.719 92.8359 161.719 92.8556 161.7 92.8556C161.641 92.8753 161.582 92.9147 161.542 92.9343C161.523 92.9343 161.523 92.954 161.503 92.954H161.483C161.464 92.954 161.464 92.954 161.464 92.9737C161.444 92.9737 161.444 92.9934 161.424 92.9934H161.405C161.405 92.9934 161.385 92.9934 161.385 93.013H161.365C161.346 93.013 161.346 93.0327 161.326 93.0327H161.306L161.287 93.0524H161.267V93.0721H161.247H161.228L161.188 93.0917H161.168L161.149 93.1114H161.129C161.109 93.1114 161.109 93.1311 161.09 93.1311H161.07L161.031 93.1508H161.011C160.991 93.1508 160.991 93.1508 160.972 93.1704C160.952 93.1704 160.932 93.1901 160.932 93.1901C160.873 93.2098 160.814 93.2295 160.775 93.2492C160.755 93.2492 160.736 93.2688 160.716 93.2688H160.696C160.677 93.2688 160.677 93.2688 160.657 93.2885H160.618L160.578 93.3082H160.559C160.539 93.3082 160.539 93.3082 160.519 93.3279H160.48C160.46 93.3279 160.46 93.3279 160.44 93.3475H160.401V93.3672H160.381H160.362C160.342 93.3672 160.322 93.3672 160.322 93.3869H160.303C160.283 93.3869 160.263 93.3869 160.263 93.4066H160.244C160.224 93.4066 160.204 93.4066 160.185 93.4262C160.126 93.4459 160.067 93.4459 160.027 93.4656C160.008 93.4656 159.968 93.4853 159.949 93.4853H159.929C159.909 93.4853 159.889 93.5049 159.85 93.5049H159.791V93.5246C159.771 93.5246 159.752 93.5246 159.752 93.5246H159.693V93.5443C159.673 93.5443 159.653 93.5443 159.634 93.5443H159.575C159.555 93.5443 159.535 93.5443 159.516 93.564H159.476C159.437 93.564 159.417 93.5836 159.378 93.5836H159.358C159.299 93.5836 159.26 93.6033 159.201 93.6033H159.142C159.083 93.6033 159.043 93.623 158.984 93.623H158.788V93.6427C158.571 93.6624 158.355 93.6624 158.158 93.6624V93.6427H157.981C157.942 93.6427 157.902 93.6427 157.863 93.6427H157.764C157.686 93.6427 157.587 93.623 157.509 93.623H157.469C157.45 93.623 157.43 93.623 157.391 93.623H157.332C157.312 93.623 157.312 93.623 157.292 93.623V93.6033H157.233C157.214 93.6033 157.194 93.6033 157.194 93.6033V93.5836H157.135C157.115 93.5836 157.095 93.5837 157.076 93.564H157.036C157.017 93.564 156.997 93.564 156.977 93.5443H156.958C156.879 93.5246 156.82 93.5049 156.741 93.5049H156.722C156.702 93.5049 156.702 93.5049 156.682 93.4853H156.663C156.643 93.4853 156.643 93.4853 156.623 93.4853V93.4656H156.584C156.564 93.4656 156.564 93.4656 156.544 93.4459H156.525C156.505 93.4459 156.505 93.4459 156.485 93.4459H156.446H156.426V93.4262H156.387H156.367V93.4066H156.328C156.308 93.4066 156.308 93.4066 156.289 93.3869H156.269C156.249 93.3869 156.249 93.3869 156.23 93.3672H156.21C156.19 93.3672 156.19 93.3672 156.171 93.3475H156.151C156.131 93.3475 156.112 93.3279 156.112 93.3279C156.092 93.3279 156.092 93.3279 156.072 93.3082V93.2885C156.072 93.2492 156.072 93.2295 156.092 93.1901V93.1704C156.112 93.0524 156.131 92.9343 156.151 92.8359C156.151 92.8163 156.171 92.7966 156.171 92.7769C156.171 92.7572 156.19 92.7376 156.19 92.6982C156.249 92.4424 156.328 92.2063 156.407 91.9702C156.426 91.9308 156.426 91.9112 156.446 91.8718C156.466 91.8324 156.485 91.7931 156.505 91.7341C156.545 91.6554 156.564 91.5767 156.604 91.4979C156.604 91.4783 156.623 91.4783 156.623 91.4586C156.643 91.4389 156.643 91.3996 156.663 91.3799C156.663 91.3602 156.682 91.3602 156.682 91.3405C156.722 91.2618 156.761 91.1831 156.8 91.1044C156.859 91.006 156.899 90.9077 156.958 90.8289C156.997 90.7502 157.036 90.6912 157.076 90.6322C157.115 90.5731 157.154 90.5141 157.194 90.4354C157.214 90.3961 157.253 90.3567 157.292 90.2977C157.332 90.2387 157.371 90.1796 157.41 90.1206C157.45 90.0616 157.509 90.0025 157.548 89.9238L157.568 89.9041C157.607 89.8648 157.646 89.8254 157.666 89.7664C157.725 89.7074 157.764 89.6484 157.823 89.5697L157.843 89.55L157.863 89.5303C157.863 89.5303 157.863 89.5106 157.882 89.5106C157.961 89.4122 158.04 89.3335 158.138 89.2548L158.158 89.2351L158.178 89.2155L158.197 89.1958C158.296 89.0974 158.394 88.999 158.512 88.9007C158.611 88.8219 158.709 88.7236 158.807 88.6449C158.827 88.6252 158.847 88.6055 158.886 88.5858C158.906 88.5662 158.925 88.5465 158.965 88.5268C159.004 88.4874 159.043 88.4678 159.083 88.4284C159.201 88.33 159.339 88.2513 159.457 88.1529C159.496 88.1136 159.555 88.0939 159.594 88.0546C159.634 88.0349 159.673 88.0152 159.712 87.9759C159.752 87.9562 159.811 87.9168 159.85 87.8971C159.87 87.8971 159.87 87.8775 159.89 87.8775L159.909 87.8578L159.929 87.8381H159.949C159.949 87.8381 159.968 87.8381 159.968 87.8184H159.988C159.988 87.8184 160.008 87.8184 160.008 87.7988H160.027L160.047 87.7791H160.067C160.067 87.7791 160.086 87.7791 160.086 87.7594H160.106C160.106 87.7594 160.126 87.7594 160.126 87.7397H160.145L160.165 87.7201H160.185C160.185 87.7201 160.204 87.7201 160.204 87.7004H160.224L160.244 87.6807H160.263C160.263 87.6807 160.283 87.6807 160.283 87.661H160.303C160.303 87.661 160.322 87.661 160.322 87.6414H160.342L160.362 87.6217H160.381L160.401 87.602C160.421 87.602 160.421 87.5823 160.44 87.5823C160.46 87.5823 160.46 87.5626 160.48 87.5626C160.499 87.543 160.539 87.543 160.559 87.5233C160.578 87.5233 160.578 87.5036 160.598 87.5036C160.618 87.5036 160.618 87.4839 160.637 87.4839H160.657L160.696 87.4643C160.716 87.4643 160.716 87.4446 160.736 87.4446H160.755C160.755 87.4446 160.775 87.4446 160.775 87.4249H160.795V87.4052H160.814H160.834C160.854 87.4052 160.854 87.4052 160.854 87.3856H160.873H160.893H160.913C160.932 87.3856 160.932 87.3856 160.952 87.3659H160.972C160.972 87.3659 160.991 87.3659 160.991 87.3462C161.011 87.3462 161.011 87.3265 161.031 87.3265H161.05C161.07 87.3265 161.07 87.3069 161.09 87.3069H161.109C161.208 87.2675 161.287 87.2478 161.365 87.2085H161.385C161.405 87.2085 161.424 87.1888 161.424 87.1888H161.444C161.464 87.1888 161.464 87.1888 161.483 87.1691H161.503C161.523 87.1691 161.542 87.1691 161.542 87.1494H161.582C161.601 87.1494 161.601 87.1494 161.621 87.1298H161.66V87.1101C161.68 87.1101 161.68 87.1101 161.7 87.1101H161.719C161.739 87.1101 161.759 87.1101 161.759 87.0904H161.778C161.798 87.0904 161.818 87.0904 161.818 87.0707H161.837C161.857 87.0707 161.877 87.0707 161.877 87.0511C161.897 87.0511 161.936 87.0314 161.956 87.0314C162.015 87.0117 162.074 87.0117 162.133 86.992H162.172C162.192 86.992 162.211 86.992 162.231 86.9724H162.27C162.29 86.9724 162.31 86.9724 162.329 86.9527H162.388C162.408 86.9527 162.428 86.9527 162.447 86.933H162.506C162.526 86.933 162.546 86.933 162.566 86.9133H162.605C162.625 86.9133 162.664 86.9133 162.703 86.8936H162.723C162.841 86.874 162.939 86.8543 163.057 86.8543H163.215V86.8346C163.274 86.8346 163.333 86.8346 163.392 86.8149H163.569C163.628 86.8149 163.707 86.8149 163.766 86.8149H163.923C163.982 86.8149 164.022 86.8149 164.081 86.8149V86.8346H164.238C164.297 86.8346 164.336 86.8346 164.395 86.8543H164.435C164.474 86.8543 164.513 86.8543 164.573 86.874H164.592C164.612 86.874 164.651 86.874 164.671 86.874H164.71C164.73 86.874 164.75 86.874 164.769 86.874V86.8936H164.828C164.848 86.8936 164.868 86.8936 164.868 86.8936V86.9133H164.927C164.946 86.9133 164.966 86.9133 164.986 86.9133H165.025C165.045 86.9133 165.064 86.9133 165.084 86.9133H165.123C165.143 86.9133 165.182 86.9133 165.202 86.933C165.242 86.933 165.301 86.9527 165.34 86.9724H165.36C165.379 86.9724 165.399 86.9724 165.419 86.992H165.438C165.458 86.992 165.478 86.992 165.478 87.0117H165.497H165.537H165.576H165.596V87.0314H165.635C165.655 87.0314 165.655 87.0314 165.674 87.0511H165.694H165.733H165.753H165.773H165.792H165.812H165.832C165.851 87.0511 165.871 87.0707 165.871 87.0707C165.891 87.0707 165.911 87.0904 165.93 87.0904C165.95 87.0904 165.97 87.1101 165.989 87.1101C165.989 87.1298 165.989 87.1494 165.97 87.1691C165.93 87.3856 165.891 87.602 165.832 87.8184C165.812 87.8775 165.792 87.9365 165.773 87.9955C165.773 88.0152 165.753 88.0349 165.753 88.0546C165.753 88.0742 165.733 88.0939 165.733 88.1136C165.733 88.1333 165.714 88.1529 165.714 88.1726C165.674 88.271 165.655 88.3694 165.615 88.4678C165.576 88.5465 165.556 88.6449 165.517 88.7236C165.517 88.7432 165.517 88.7432 165.497 88.7629C165.438 88.9203 165.36 89.0581 165.281 89.2155C165.281 89.2352 165.261 89.2352 165.261 89.2548C165.222 89.3335 165.182 89.4122 165.143 89.4909C165.123 89.5303 165.104 89.55 165.084 89.5893C165.005 89.7271 164.927 89.8648 164.828 89.9829C164.789 90.0222 164.769 90.0616 164.73 90.1206C164.71 90.1403 164.691 90.1796 164.671 90.1993C164.651 90.2387 164.632 90.2583 164.592 90.2977C164.553 90.3567 164.494 90.4157 164.454 90.4748C164.415 90.5141 164.376 90.5732 164.356 90.6125C164.317 90.6715 164.258 90.7306 164.218 90.7896L164.199 90.8093L164.179 90.8289C164.061 90.9667 163.923 91.1044 163.805 91.2225L163.785 91.2422L163.766 91.2618C163.707 91.3209 163.667 91.3602 163.608 91.4192C163.569 91.4586 163.53 91.4979 163.49 91.5373C163.451 91.5767 163.412 91.5963 163.372 91.6357C163.313 91.675 163.274 91.7341 163.215 91.7734C163.195 91.7931 163.175 91.8128 163.136 91.8324C163.077 91.8915 162.998 91.9308 162.939 91.9899C162.821 92.0882 162.684 92.1669 162.566 92.2653C162.546 92.285 162.506 92.3047 162.487 92.3244C162.428 92.3637 162.388 92.3834 162.329 92.4227L162.388 92.4621Z" fill="#4E4E4E"/>
<path fill-rule="evenodd" clip-rule="evenodd" d="M162.113 99.4865C162.073 99.4275 162.034 99.3685 161.995 99.3095V99.2898C161.955 99.2504 161.936 99.1914 161.896 99.152C161.798 99.034 161.719 98.9159 161.621 98.7979V98.7782C161.601 98.7585 161.601 98.7388 161.582 98.7192C161.463 98.5617 161.326 98.424 161.188 98.2666C161.09 98.1485 160.972 98.0305 160.873 97.9321C160.854 97.9124 160.854 97.9124 160.834 97.8927C160.814 97.8731 160.814 97.8731 160.794 97.8534C160.735 97.7944 160.676 97.7353 160.598 97.6763L160.558 97.6369C160.48 97.5779 160.421 97.4992 160.342 97.4402C160.303 97.4008 160.244 97.3615 160.204 97.3221C160.165 97.2828 160.125 97.2631 160.106 97.2237C160.066 97.2041 160.027 97.1647 160.007 97.145C159.85 97.0073 159.693 96.8892 159.516 96.7712C159.456 96.7318 159.397 96.6925 159.338 96.6531C159.299 96.6334 159.279 96.6138 159.24 96.5941C159.161 96.5351 159.083 96.4957 159.004 96.4367C158.945 96.3973 158.906 96.3777 158.847 96.3383C158.787 96.2989 158.748 96.2793 158.689 96.2399L158.669 96.2202C158.591 96.1809 158.532 96.1415 158.453 96.1022C158.433 96.1022 158.433 96.0825 158.433 96.0825C158.433 96.0825 158.414 96.0825 158.414 96.0628C158.217 95.9644 158 95.8661 157.804 95.7677L157.784 95.748C157.784 95.748 157.764 95.748 157.745 95.7283C157.646 95.689 157.568 95.6496 157.469 95.6103C157.41 95.5906 157.351 95.5709 157.292 95.5512C157.194 95.5119 157.095 95.4725 156.997 95.4529C156.958 95.4332 156.918 95.4332 156.879 95.4135C156.84 95.3938 156.8 95.3938 156.761 95.3742C156.662 95.3545 156.564 95.3151 156.485 95.2954C156.466 95.2954 156.426 95.2758 156.407 95.2758C156.308 95.2561 156.21 95.2167 156.092 95.1971C156.052 95.1971 155.993 95.1774 155.954 95.1774C155.934 95.1774 155.915 95.1774 155.915 95.1774C155.856 95.1577 155.797 95.1577 155.738 95.138C155.541 95.0987 155.324 95.079 155.128 95.0593C155.108 95.138 155.088 95.2167 155.069 95.2954C155.069 95.3151 155.049 95.3545 155.049 95.3742C155.01 95.4922 154.99 95.6103 154.97 95.7283C154.97 95.7677 154.951 95.8267 154.951 95.8661C154.931 95.9448 154.931 96.0235 154.911 96.1022C154.911 96.1219 154.911 96.1415 154.911 96.1415C154.911 96.1612 154.911 96.1809 154.911 96.1809C154.911 96.2006 154.911 96.2202 154.911 96.2202C154.892 96.3777 154.872 96.5547 154.852 96.7122C154.852 96.7318 154.852 96.7515 154.852 96.7712C154.852 96.9089 154.833 97.027 154.833 97.1647C154.833 97.2237 154.833 97.3024 154.833 97.3615C154.833 97.3812 154.833 97.4008 154.833 97.4402C154.833 97.5189 154.833 97.5976 154.833 97.6566C154.833 97.7353 154.833 97.814 154.852 97.9124C154.852 98.0108 154.872 98.0895 154.872 98.1879C154.872 98.2272 154.872 98.2469 154.872 98.2863C154.872 98.3256 154.872 98.3453 154.892 98.3847C154.892 98.4634 154.911 98.5224 154.911 98.6011C154.911 98.6405 154.931 98.6798 154.931 98.7192C154.951 98.7979 154.951 98.8962 154.97 98.9749C154.97 99.0143 154.99 99.0733 154.99 99.1127C154.99 99.1717 155.01 99.2111 155.029 99.2701C155.049 99.3291 155.049 99.3882 155.069 99.4472V99.4669C155.088 99.5456 155.108 99.6046 155.128 99.6833C155.147 99.7817 155.167 99.8801 155.206 99.9784V99.9981C155.324 100.431 155.482 100.864 155.659 101.297C155.698 101.375 155.738 101.474 155.777 101.553V101.572C155.816 101.631 155.836 101.71 155.875 101.769C155.895 101.828 155.934 101.887 155.954 101.946C155.974 101.985 156.013 102.044 156.033 102.084C156.072 102.163 156.131 102.261 156.171 102.34V102.359C156.21 102.438 156.249 102.517 156.308 102.576C156.407 102.733 156.505 102.891 156.603 103.028C156.623 103.068 156.662 103.107 156.682 103.146C156.702 103.186 156.721 103.225 156.761 103.245C156.8 103.284 156.82 103.343 156.859 103.382C156.879 103.402 156.879 103.422 156.899 103.442V103.461C157.017 103.619 157.135 103.776 157.272 103.933C157.351 104.012 157.41 104.111 157.489 104.189C157.509 104.229 157.548 104.248 157.568 104.288C157.666 104.386 157.764 104.504 157.843 104.602L157.882 104.642C157.902 104.661 157.902 104.661 157.922 104.681C158.04 104.799 158.158 104.898 158.256 105.016C158.276 105.035 158.276 105.035 158.296 105.055C158.453 105.212 158.63 105.35 158.807 105.488C158.866 105.527 158.925 105.586 158.984 105.626C159.004 105.645 159.024 105.665 159.043 105.685C159.063 105.704 159.083 105.724 159.102 105.744C159.24 105.842 159.397 105.96 159.535 106.058C159.575 106.078 159.594 106.098 159.634 106.118C159.712 106.177 159.811 106.236 159.889 106.275C159.948 106.314 159.988 106.334 160.047 106.373C160.381 106.57 160.735 106.747 161.09 106.905C161.188 106.944 161.267 106.983 161.365 107.023C161.424 107.042 161.483 107.062 161.542 107.082C161.7 107.141 161.857 107.2 162.034 107.239C162.073 107.259 162.113 107.259 162.152 107.278C162.231 107.298 162.31 107.318 162.408 107.337C162.428 107.337 162.467 107.357 162.487 107.357C162.506 107.357 162.546 107.377 162.565 107.377C162.664 107.396 162.742 107.416 162.841 107.436C162.9 107.456 162.959 107.456 163.018 107.475C163.234 107.515 163.47 107.534 163.687 107.554C163.707 107.475 163.726 107.396 163.746 107.318C163.785 107.18 163.825 107.023 163.844 106.885C163.844 106.846 163.864 106.787 163.864 106.747C163.884 106.649 163.903 106.55 163.923 106.452C163.923 106.432 163.923 106.413 163.923 106.413C163.923 106.393 163.923 106.373 163.923 106.373C163.923 106.354 163.923 106.334 163.923 106.334C163.923 106.314 163.923 106.295 163.923 106.295C163.923 106.275 163.923 106.255 163.923 106.255C163.923 106.236 163.923 106.216 163.923 106.196C163.923 106.177 163.923 106.157 163.923 106.137C163.923 106.058 163.943 105.98 163.943 105.901C163.943 105.842 163.943 105.783 163.962 105.724C163.962 105.645 163.962 105.547 163.982 105.468C163.982 105.449 163.982 105.429 163.982 105.409C163.982 105.311 163.982 105.232 163.982 105.134C163.982 105.114 163.982 105.075 163.982 105.055C163.982 104.976 163.982 104.898 163.982 104.819C163.962 104.484 163.923 104.13 163.884 103.796V103.776C163.864 103.638 163.825 103.481 163.805 103.343V103.323C163.785 103.264 163.785 103.205 163.766 103.146V103.127C163.746 103.048 163.726 102.989 163.726 102.93C163.707 102.832 163.667 102.733 163.648 102.635V102.615C163.53 102.202 163.392 101.769 163.215 101.356C163.175 101.257 163.136 101.179 163.097 101.08V101.061C163.038 100.943 162.979 100.805 162.92 100.687V100.667C162.841 100.529 162.782 100.392 162.703 100.254C162.683 100.215 162.664 100.175 162.644 100.156V100.136C162.585 100.037 162.526 99.9391 162.467 99.821C162.447 99.8014 162.428 99.762 162.408 99.7423V99.7227C162.349 99.6243 162.27 99.5259 162.211 99.4275L162.113 99.4865Z" fill="#4E4E4E"/>
<path fill-rule="evenodd" clip-rule="evenodd" d="M155.738 93.8197C155.738 93.8197 155.738 93.8393 155.757 93.8393L155.777 93.859C155.777 93.8787 155.797 93.8984 155.797 93.8984V93.918C155.797 93.9377 155.817 93.9377 155.817 93.9574V93.9771V93.9967V94.0164C155.817 94.0558 155.836 94.0754 155.836 94.1148C155.836 94.1148 155.836 94.1148 155.836 94.1345V94.1542C155.836 94.1738 155.836 94.2132 155.836 94.2329C155.836 94.2525 155.836 94.2722 155.836 94.2919C155.836 94.3116 155.817 94.3509 155.817 94.3706C155.817 94.41 155.797 94.4296 155.777 94.4493C155.777 94.4493 155.777 94.4493 155.777 94.469C155.777 94.469 155.777 94.469 155.777 94.4887C155.777 94.5083 155.757 94.528 155.738 94.5477C155.738 94.5477 155.738 94.5674 155.718 94.5674C155.718 94.5674 155.718 94.587 155.698 94.587L155.679 94.6067L155.659 94.6264C155.639 94.6461 155.639 94.6461 155.62 94.6657L155.6 94.6854C155.58 94.7051 155.561 94.7248 155.541 94.7444C155.521 94.7641 155.502 94.7641 155.482 94.7838L155.462 94.8035C155.443 94.8232 155.423 94.8232 155.384 94.8428H155.364H155.344C155.305 94.8625 155.266 94.8625 155.226 94.8625C155.226 94.8625 155.226 94.8625 155.207 94.8625C155.187 94.8625 155.167 94.8625 155.148 94.8625C155.128 94.8625 155.128 94.8625 155.108 94.8625C155.108 94.8625 155.108 94.8625 155.088 94.8625C155.069 94.8625 155.049 94.8625 155.029 94.8428C155.029 94.8428 155.029 94.8428 155.01 94.8428C154.99 94.8428 154.99 94.8428 154.97 94.8232C154.97 94.8232 154.97 94.8232 154.951 94.8232C154.931 94.8232 154.911 94.8035 154.892 94.8035H154.872C154.872 94.8035 154.872 94.8035 154.852 94.8035C154.852 94.8035 154.852 94.8035 154.833 94.8035C154.813 94.7838 154.793 94.7838 154.754 94.7641L154.734 94.7444C154.734 94.7444 154.715 94.7445 154.715 94.7248C154.695 94.7051 154.675 94.6854 154.656 94.6657L154.636 94.6461C154.616 94.6264 154.616 94.6067 154.597 94.6067C154.577 94.587 154.577 94.5674 154.557 94.5674L154.538 94.5477C154.518 94.528 154.518 94.4887 154.498 94.469V94.4493V94.4296V94.41V94.3903C154.498 94.3706 154.498 94.3509 154.479 94.3312C154.479 94.3312 154.479 94.3312 154.479 94.3116C154.479 94.3116 154.479 94.3116 154.479 94.2919V94.2722C154.479 94.2525 154.479 94.2329 154.479 94.2132C154.479 94.1935 154.479 94.1935 154.479 94.1738C154.479 94.1738 154.479 94.1738 154.479 94.1542C154.479 94.1345 154.479 94.1148 154.498 94.0951C154.498 94.0951 154.498 94.0951 154.498 94.0754C154.498 94.0754 154.498 94.0755 154.498 94.0558C154.498 94.0361 154.498 94.0361 154.518 94.0164C154.518 93.9967 154.538 93.9771 154.538 93.9574C154.538 93.9574 154.538 93.9574 154.538 93.9377C154.538 93.9377 154.538 93.918 154.557 93.918V93.8984C154.577 93.8787 154.577 93.859 154.597 93.8393L154.616 93.8197C154.616 93.8197 154.616 93.8 154.636 93.8C154.656 93.7803 154.675 93.7606 154.695 93.741L154.715 93.7213C154.734 93.7016 154.754 93.6819 154.774 93.6622C154.793 93.6426 154.833 93.6229 154.852 93.6229L154.872 93.6032C154.892 93.5835 154.911 93.5835 154.951 93.5639H154.97H154.99H155.01C155.029 93.5639 155.049 93.5639 155.069 93.5442C155.069 93.5442 155.069 93.5442 155.088 93.5442C155.088 93.5442 155.088 93.5442 155.108 93.5442C155.148 93.5442 155.167 93.5442 155.207 93.5442C155.226 93.5442 155.246 93.5442 155.266 93.5442C155.266 93.5442 155.266 93.5442 155.285 93.5442C155.285 93.5442 155.285 93.5442 155.305 93.5442C155.305 93.5442 155.305 93.5442 155.325 93.5442C155.344 93.5442 155.364 93.5442 155.384 93.5639C155.403 93.5639 155.423 93.5835 155.462 93.5835C155.462 93.5835 155.462 93.5835 155.482 93.5835C155.502 93.5835 155.521 93.6032 155.521 93.6032C155.541 93.6229 155.561 93.6229 155.58 93.6426C155.58 93.6426 155.6 93.6426 155.6 93.6622L155.62 93.6819L155.639 93.7016L155.659 93.7213V93.741C155.679 93.7606 155.679 93.7606 155.698 93.7803L155.718 93.8L155.738 93.8197Z" fill="#4E4E4E"/>
</g>
<defs>
<clipPath id="clip0_145_122">
<rect width="165.15" height="106.961" fill="white" transform="translate(0.920898 0.769531)"/>
</clipPath>
</defs>
</svg>
