<svg width="150" height="117" viewBox="0 0 150 117" fill="none" xmlns="http://www.w3.org/2000/svg">
<g clip-path="url(#clip0_118_137)">
<path d="M3.29616 84.3456H7.28509C8.27175 84.3456 9.04699 84.2611 9.63898 84.106C10.231 83.951 10.7807 83.655 11.2881 83.2462C12.5567 82.2596 13.2051 80.7796 13.2051 78.8062C13.2051 76.5933 12.458 74.9583 10.978 73.9011C10.2733 73.4078 9.55441 73.0836 8.80737 72.9145C8.07442 72.7453 7.00319 72.6608 5.62186 72.6608H3.29616V84.3456ZM3.29616 71.6177H5.63596C7.63747 71.6177 9.23022 71.2653 10.386 70.5747C11.9083 69.6726 12.6694 68.1221 12.6694 65.881C12.6694 62.5968 10.7525 60.9618 6.91862 60.9618H3.28207V71.6177H3.29616ZM0.759033 59.8201H7.46833C9.5826 59.8201 11.3163 60.2429 12.6694 61.0886C14.3186 62.1035 15.1502 63.7808 15.1502 66.0783C15.1502 67.5724 14.6991 68.841 13.783 69.884C12.9654 70.8284 11.5559 71.5754 9.56851 72.1392C10.6397 72.2943 11.5418 72.5339 12.2748 72.8581C13.2473 73.295 14.0226 73.9575 14.5864 74.8314C15.3193 75.9449 15.6858 77.1994 15.6858 78.6089C15.6858 81.0192 14.7414 82.8938 12.8668 84.2329C11.5559 85.1773 10.0196 85.6565 8.25766 85.6565H0.773128C0.857699 85.3182 0.899985 84.8954 0.899985 84.402V61.0182C0.899985 60.553 0.857699 60.1584 0.773128 59.8201H0.759033Z" fill="#1E1E1E"/>
<path d="M33.0652 60.7502C29.8093 60.7502 27.3708 61.9342 25.7499 64.3022C24.2981 66.4023 23.5792 69.1368 23.5792 72.5055C23.5792 76.128 24.2981 79.0034 25.7499 81.1318C27.3708 83.4857 29.8656 84.6697 33.2344 84.6697C36.3917 84.6697 38.802 83.5562 40.4652 81.3432C42.0157 79.2571 42.7909 76.3817 42.7909 72.7029C42.7909 68.9959 42.0157 66.1204 40.4652 64.0766C39.5772 62.9208 38.5624 62.0892 37.4206 61.5818C36.2085 61.0462 34.7567 60.7643 33.0652 60.7502ZM33.178 59.4675C37.0119 59.4675 40.0001 60.5951 42.1284 62.8504C44.3414 65.1761 45.4549 68.4461 45.4549 72.6888C45.4549 76.9455 44.3414 80.2297 42.1284 82.5836C40.0142 84.8388 37.0542 85.9664 33.2626 85.9664C29.2173 85.9664 26.1445 84.7824 24.0443 82.4144C21.9442 80.0324 20.9011 76.72 20.9011 72.4633C20.9011 68.4039 22.0146 65.2043 24.2276 62.8504C26.3137 60.6374 29.2877 59.4957 33.178 59.4675Z" fill="#1E1E1E"/>
<path d="M52.855 75.8042H62.6935L57.6756 62.3292L52.855 75.8042ZM52.5309 76.8472L49.7118 84.6418C49.6414 84.8532 49.585 85.1915 49.585 85.6285H48.105C48.3164 85.2056 48.4715 84.8673 48.556 84.6418L57.14 60.5955C57.1964 60.4263 57.2668 60.1726 57.3091 59.8062H59.508C59.5502 60.0599 59.5925 60.2713 59.663 60.4545L68.5711 84.6418C68.6557 84.8814 68.839 85.2056 69.1068 85.6285H66.1891C66.1609 85.3184 66.0904 84.9801 65.9776 84.6418L63.1445 76.8472H52.5309Z" fill="#1E1E1E"/>
<path d="M68.2324 59.8062H86.1051V61.258C85.4003 61.1452 84.8365 61.0888 84.4278 61.0888H78.4373V84.4163C78.4373 84.811 78.4796 85.2056 78.5642 85.6285H75.9002C75.9848 85.2056 76.027 84.811 76.027 84.4163V61.0888H69.8393C69.3318 61.0888 68.7962 61.1452 68.2324 61.258V59.8062Z" fill="#1E1E1E"/>
<path d="M90.1226 59.8062H92.7865C92.702 60.1022 92.6597 60.4968 92.6597 61.0183V84.4163C92.6597 84.9378 92.702 85.3325 92.7865 85.6285H90.1226C90.2071 85.2056 90.2494 84.811 90.2494 84.4163V61.0183C90.2494 60.6237 90.2071 60.229 90.1226 59.8062Z" fill="#1E1E1E"/>
<path d="M101.934 62.0896V84.4163C101.934 84.811 101.977 85.2056 102.061 85.6285H100.666C100.75 85.2056 100.793 84.811 100.793 84.4163V61.0183C100.793 60.6237 100.75 60.229 100.666 59.8062H103.316C103.372 60.0458 103.499 60.2854 103.668 60.525L119.159 82.598V61.0183C119.159 60.6237 119.116 60.229 119.032 59.8062H120.427C120.343 60.2149 120.3 60.6237 120.3 61.0183V84.5573C120.3 85.0506 120.357 85.403 120.469 85.6426H118.369C118.299 85.4452 118.13 85.1633 117.876 84.811L101.934 62.1037V62.0896Z" fill="#1E1E1E"/>
<path d="M146.278 60.9193V63.1746C143.769 61.6664 141.344 60.9052 138.99 60.9052C136.298 60.9052 134.085 61.8214 132.337 63.6679C131.308 64.7532 130.576 65.9513 130.167 67.2622C129.659 68.8831 129.406 70.7014 129.406 72.717C129.406 74.0983 129.547 75.4514 129.843 76.7905C130.139 78.1295 130.519 79.2289 131.012 80.0747C131.999 81.8084 133.437 83.0769 135.34 83.8381C136.552 84.3173 137.877 84.5569 139.315 84.5569C141.175 84.5569 142.923 84.0918 144.586 83.1756V72.7593C144.586 72.3787 144.544 71.984 144.473 71.5471H147.109C147.039 71.9699 146.996 72.3787 146.996 72.7593V82.7809C147.01 83.2883 147.095 83.7535 147.236 84.1763C145.22 84.8952 143.642 85.3744 142.5 85.6141C141.358 85.8537 140.104 85.9664 138.723 85.9664C135.072 85.9664 132.196 84.8247 130.139 82.5554C127.869 80.0465 126.728 76.7482 126.728 72.6465C126.728 68.1924 128.081 64.7673 130.801 62.357C132.972 60.426 135.833 59.4675 139.413 59.4675C140.597 59.4675 141.682 59.5662 142.655 59.7776C143.628 59.9891 144.84 60.3696 146.278 60.9193Z" fill="#1E1E1E"/>
<path d="M72.757 6.00482C71.8831 6.00482 71.7139 6.39948 71.6576 6.52634C71.3475 7.217 72.2214 7.83719 73.6732 8.75337C73.9269 8.92252 74.1947 9.09166 74.4625 9.2608C75.8861 10.2052 79.2267 12.4322 79.6918 16.844C80.016 19.8745 82.0457 24.3708 86.3165 24.3708C88.7691 24.3708 91.6727 22.9754 94.9709 20.2268C93.491 18.9583 86.6125 13.1511 81.6792 10.0078C77.5916 7.41433 74.4343 5.99072 72.757 5.99072V6.00482Z" fill="#1E1E1E"/>
<path d="M77.3523 6.82257C77.5214 6.90714 77.6765 6.97761 77.8456 7.06218C78.3248 7.20314 78.8041 7.11857 78.9168 6.86485C78.9873 6.69571 78.8886 6.48428 78.8323 6.38562C78.6913 6.17419 78.4517 5.97686 78.1698 5.8641C77.9584 5.77953 77.7469 5.72314 77.5355 5.72314C77.2254 5.72314 76.9999 5.83591 76.9153 6.00505C76.8448 6.17419 76.9435 6.38562 76.9999 6.48428C77.0845 6.61114 77.1972 6.7239 77.3382 6.82257H77.3523Z" fill="#1E1E1E"/>
<path d="M80.9041 22.0169C80.1993 21.0162 79.706 19.8745 79.3959 18.7751L77.5635 18.4368C76.8306 19.5362 72.9967 25.0192 67.8942 26.7106C64.2718 27.9228 58.972 31.2493 59.268 33.0675C59.3667 33.7018 60.3533 34.7731 65.7518 34.7731C66.3297 34.7731 66.9639 34.759 67.6123 34.7308C67.8097 34.6603 69.0218 34.0965 71.0797 31.1929L71.8409 30.1217L71.6576 31.4325C71.6435 31.503 71.5026 32.4896 71.1361 33.4199C72.2637 32.5883 73.8847 31.1506 74.829 29.1914L75.4492 27.9228V29.3323C75.4492 29.4028 75.4492 30.4599 75.1955 31.5312C76.4923 30.1639 78.4797 27.7114 79.0294 25.1602L79.6637 25.287C79.6355 25.4139 79.2831 27.5 78.7475 29.2196C79.706 27.8523 80.8336 25.5125 80.89 22.0451L80.9041 22.0169Z" fill="#1E1E1E"/>
<path d="M81.4115 7.72445C81.4115 7.72445 80.749 2.55153 73.3914 0.366778C66.0337 -1.80388 62.3689 6.04713 69.8817 11.065C77.4085 16.0829 76.9011 12.8974 76.3936 16.4071C76.3936 16.4071 67.8661 19.5785 61.8615 26.1045C55.8429 32.6165 44.299 46.0915 61.8474 36.5631C61.8474 36.5631 66.8653 37.4652 68.5426 37.2961C68.5426 37.2961 69.191 43.202 70.375 43.6389C70.8119 43.794 82.7083 43.9067 83.6808 43.6953C83.6808 43.6953 81.2001 43.1597 81.9471 42.9341C81.9471 42.9341 79.3536 42.7227 79.565 42.3985C79.6919 42.2012 79.7624 42.1448 79.8047 42.1307C79.4241 42.1589 75.9285 42.4408 76.5487 41.3132C76.5487 41.3132 74.7163 41.6374 73.8424 42.0743C72.9826 42.5113 69.4024 40.3406 70.8119 36.5631C70.8119 36.5631 80.6926 34.9422 85.4709 24.9769C83.8218 24.7655 82.525 23.9339 81.5243 22.8063C81.186 28.5712 77.9864 31.0801 77.8172 31.1929L75.6748 32.7997L77.3662 30.7277C77.6763 30.3472 77.9723 29.5438 78.2401 28.6558C76.7037 31.1647 74.6035 33.0253 74.4767 33.1239L74.0115 32.6729C74.3921 32.2077 74.5894 31.4043 74.6881 30.7137C72.9262 33.3213 70.3186 34.7167 70.1918 34.7872L69.8394 34.2515C70.1918 33.9696 70.4737 33.3776 70.671 32.7997C68.8668 35.0268 67.8661 35.3369 67.7392 35.3651L67.6687 35.3791C66.9922 35.4073 66.3297 35.4214 65.7236 35.4214C61.1709 35.4214 58.8452 34.6885 58.6055 33.1803C58.1968 30.6573 64.2859 27.2321 67.6687 26.1045C73.0108 24.3285 77.0843 17.9716 77.1266 17.9152L77.2393 17.732L79.2127 18.0844C79.1281 17.6897 79.0576 17.2951 79.0294 16.9286C78.5925 12.8128 75.4352 10.7126 74.0961 9.81053C73.8424 9.64139 73.5746 9.47225 73.3209 9.3172C71.8691 8.40102 70.5159 7.54121 71.0657 6.28674C71.2489 5.87798 71.6858 5.37056 72.7571 5.37056C73.7015 5.37056 74.9418 5.75113 76.2668 6.32903C76.2386 6.1317 76.2527 5.93436 76.3232 5.75113C76.5064 5.32827 76.9574 5.07456 77.5353 5.07456C77.8313 5.07456 78.1273 5.14504 78.4233 5.27189C78.8321 5.44103 79.1704 5.72294 79.3818 6.04713C79.6073 6.39951 79.6637 6.79417 79.5228 7.13245C79.41 7.37207 79.2268 7.55531 78.973 7.66807C80.0443 8.26007 81.0873 8.89435 82.0317 9.48634C87.6134 13.0242 95.6194 19.9309 95.6899 20.0013L95.8731 20.1564C96.6484 20.2269 97.3813 20.1282 97.7901 19.2543C97.7901 19.2543 82.0881 7.89359 81.4115 7.72445Z" fill="#1E1E1E"/>
<path d="M94.9851 94.1135C95.4502 93.9162 95.8731 93.7188 96.2678 93.5074C96.6624 93.3101 97.043 93.0845 97.3954 92.8308C97.7477 92.5771 98.1001 92.3093 98.4384 91.9992C98.7767 91.7032 99.115 91.3508 99.4955 90.9562C99.8338 90.6038 100.003 90.1809 100.031 89.7017C100.059 89.2225 99.9043 88.7855 99.5801 88.405C99.2559 88.0244 98.7344 87.7425 98.0297 87.5874C97.3249 87.4183 96.4087 87.4747 95.2952 87.7425C94.1394 88.0244 93.0118 88.405 91.9264 88.8701C90.8411 89.3352 89.8122 89.8427 88.8537 90.3924C87.8811 90.9421 86.9931 91.5059 86.1615 92.0838C85.344 92.6617 84.6252 93.1973 83.9909 93.6906C83.3707 94.184 82.8492 94.6068 82.4404 94.9733C82.0316 95.3398 81.7497 95.5794 81.6088 95.6921C81.0168 96.1996 80.4389 96.7775 79.861 97.4118C79.2831 98.046 78.7193 98.7226 78.1978 99.4415C77.6762 100.16 77.1829 100.893 76.746 101.654C76.2949 102.416 75.9284 103.163 75.6324 103.91C75.2237 104.868 74.9136 105.827 74.7304 106.771C74.5471 107.715 74.4907 108.589 74.5612 109.421C74.6317 110.238 74.829 110.985 75.1673 111.634C75.5056 112.296 75.9989 112.804 76.6473 113.184C76.9574 113.382 77.3239 113.565 77.7467 113.734C78.1696 113.903 78.6488 114.03 79.1703 114.115C79.6919 114.199 80.2838 114.213 80.9322 114.157C81.5806 114.115 82.2854 113.945 83.0606 113.678C83.9627 113.367 84.8507 112.945 85.7246 112.395C86.5985 111.845 87.4442 111.239 88.2758 110.577C89.1074 109.914 89.8967 109.224 90.672 108.505C91.4331 107.786 92.1661 107.109 92.8567 106.461L94.7314 106.179C94.224 106.616 93.6601 107.123 93.0259 107.715C92.4057 108.307 91.7432 108.913 91.0385 109.548C90.3337 110.182 89.5867 110.802 88.8114 111.436C88.0362 112.057 87.2328 112.635 86.4011 113.142C85.5836 113.663 84.7379 114.1 83.8922 114.467C83.0465 114.833 82.1867 115.073 81.341 115.172C80.8054 115.27 80.2838 115.313 79.7341 115.284C79.1985 115.256 78.677 115.172 78.1555 115.045C77.6481 114.904 77.1547 114.721 76.6755 114.495C76.2103 114.255 75.7875 113.988 75.4069 113.663C74.6881 113.057 74.1665 112.339 73.8705 111.521C73.5605 110.703 73.4054 109.844 73.3913 108.928C73.3772 108.011 73.49 107.081 73.7296 106.123C73.9692 105.164 74.2652 104.248 74.6317 103.36C75.0264 102.416 75.5056 101.485 76.0976 100.569C76.6896 99.6388 77.338 98.7508 78.0427 97.891C78.7475 97.0312 79.4945 96.2137 80.2697 95.4525C81.045 94.6914 81.8202 93.9866 82.5955 93.3664C84.2728 92.0133 86.0347 90.8152 87.867 89.7863C89.6994 88.7573 91.5177 87.9398 93.336 87.3196C93.5897 87.221 93.8575 87.1364 94.1112 87.0518C94.3649 86.9672 94.6327 86.8827 94.8864 86.8122C95.3798 86.6712 95.9013 86.5726 96.451 86.5021C97.0007 86.4316 97.5504 86.4175 98.0719 86.4598C98.5935 86.5021 99.0727 86.629 99.5096 86.8263C99.9466 87.0236 100.299 87.3196 100.567 87.7143C101.004 88.419 101.173 89.0956 101.088 89.744C101.004 90.3924 100.75 90.9844 100.341 91.5482C99.9325 92.112 99.4251 92.6194 98.7908 93.0986C98.1706 93.5638 97.5504 93.9725 96.9302 94.3249C96.31 94.6773 95.7462 94.9592 95.2388 95.1847C94.7314 95.4102 94.379 95.5371 94.1817 95.5935L94.9428 94.0712L94.9851 94.1135Z" fill="#1E1E1E"/>
<path d="M102.385 101.598C102.484 101.668 102.554 101.753 102.597 101.88C102.625 102.007 102.639 102.148 102.597 102.303C102.568 102.458 102.498 102.627 102.399 102.796C102.301 102.965 102.174 103.134 102.019 103.289C101.878 103.318 101.723 103.332 101.568 103.346C101.413 103.36 101.244 103.36 101.088 103.36C101.286 103.148 101.413 102.951 101.469 102.768C101.525 102.585 101.525 102.444 101.469 102.345C101.399 102.246 101.272 102.19 101.088 102.19C100.905 102.19 100.652 102.274 100.341 102.43C100.13 102.542 99.9468 102.641 99.7635 102.754C99.5803 102.866 99.4111 102.979 99.2279 103.106C98.9601 103.303 98.7064 103.501 98.4668 103.712C98.2271 103.924 97.9875 104.149 97.7338 104.389C97.6492 104.473 97.4801 104.671 97.2405 104.953C97.0009 105.234 96.7753 105.559 96.5498 105.897C96.3243 106.235 96.1552 106.559 96.0283 106.869C95.9014 107.18 95.9014 107.405 96.0424 107.546C96.127 107.631 96.2397 107.659 96.4089 107.602C96.578 107.546 96.7613 107.447 96.9727 107.321C97.1841 107.18 97.3955 107.01 97.6492 106.813C97.8889 106.616 98.1285 106.418 98.354 106.207C98.5795 105.996 98.8191 105.77 99.0447 105.545C99.2702 105.305 99.4957 105.079 99.693 104.854C99.8904 104.628 100.088 104.417 100.257 104.22C100.426 104.022 100.567 103.853 100.694 103.712L101.709 103.754C101.525 103.938 101.342 104.135 101.159 104.361C100.976 104.586 100.778 104.812 100.553 105.051C100.37 105.291 100.186 105.573 99.9749 105.925C99.7776 106.278 99.6085 106.573 99.4957 106.855C99.3689 107.123 99.3266 107.335 99.3548 107.461C99.3688 107.588 99.5239 107.56 99.8058 107.377C99.9749 107.264 100.2 107.095 100.482 106.898C100.764 106.7 101.06 106.489 101.37 106.278C101.68 106.066 101.976 105.869 102.258 105.671C102.54 105.474 102.752 105.319 102.907 105.206L103.02 106.066C102.822 106.207 102.568 106.404 102.23 106.644C101.892 106.884 101.54 107.137 101.187 107.377C100.821 107.617 100.454 107.856 100.102 108.068C99.7494 108.293 99.4534 108.434 99.2279 108.519C98.9601 108.631 98.7487 108.66 98.6218 108.603C98.4809 108.547 98.3963 108.448 98.3681 108.307C98.3399 108.152 98.3399 107.983 98.3822 107.757C98.4245 107.546 98.4809 107.321 98.5513 107.109C98.4104 107.222 98.2835 107.349 98.1567 107.447C98.0298 107.56 97.903 107.659 97.7761 107.757C97.6774 107.842 97.5083 107.955 97.2828 108.096C97.0573 108.237 96.8176 108.364 96.5639 108.476C96.3102 108.589 96.0565 108.645 95.8169 108.645C95.5773 108.66 95.3799 108.575 95.239 108.392C95.0698 108.166 94.9994 107.856 95.0557 107.476C95.098 107.095 95.239 106.686 95.4504 106.249C95.6618 105.812 95.9437 105.347 96.2961 104.882C96.6485 104.417 97.0291 103.966 97.4519 103.543C97.8607 103.148 98.2976 102.796 98.7487 102.472C99.1997 102.148 99.6508 101.894 100.088 101.697C100.525 101.499 100.948 101.386 101.342 101.358C101.737 101.33 102.089 101.401 102.399 101.584L102.385 101.598Z" fill="#1E1E1E"/>
<path d="M102.512 105.46C103.118 104.981 103.654 104.544 104.119 104.121C104.598 103.713 105.035 103.262 105.444 102.768C105.416 102.585 105.458 102.374 105.557 102.148C105.655 101.909 105.782 101.697 105.937 101.486C106.092 101.288 106.247 101.119 106.402 100.978C106.557 100.851 106.684 100.781 106.783 100.795C106.867 100.823 106.938 100.88 106.966 100.964C106.994 101.049 107.008 101.161 106.994 101.288C106.98 101.415 106.938 101.556 106.896 101.711C106.839 101.866 106.783 102.007 106.726 102.148C106.642 102.303 106.543 102.444 106.459 102.543C106.374 102.656 106.289 102.726 106.233 102.754C106.205 102.895 106.233 103.036 106.318 103.191C106.402 103.346 106.529 103.403 106.712 103.374C106.938 103.374 107.121 103.346 107.29 103.304C107.445 103.262 107.614 103.177 107.769 103.078C107.854 103.022 107.953 102.952 108.037 102.867C108.122 102.782 108.206 102.712 108.291 102.656C108.361 102.599 108.432 102.571 108.488 102.571C108.545 102.571 108.587 102.627 108.601 102.768C108.615 102.867 108.629 102.966 108.629 103.036C108.643 103.107 108.629 103.219 108.601 103.36C108.376 103.656 108.122 103.952 107.84 104.248C107.558 104.544 107.276 104.84 106.98 105.15C106.684 105.46 106.402 105.771 106.134 106.081C105.867 106.391 105.627 106.715 105.416 107.039C105.317 107.18 105.246 107.321 105.204 107.434C105.162 107.561 105.162 107.645 105.204 107.702C105.232 107.758 105.317 107.786 105.43 107.772C105.542 107.758 105.712 107.702 105.909 107.603C106.177 107.462 106.487 107.265 106.839 107.011C107.192 106.757 107.53 106.504 107.854 106.25C108.192 105.996 108.488 105.756 108.742 105.545C109.01 105.334 109.193 105.193 109.292 105.122L109.376 105.982C109.292 106.067 109.108 106.208 108.855 106.433C108.587 106.644 108.291 106.884 107.953 107.138C107.614 107.392 107.262 107.645 106.881 107.899C106.515 108.153 106.163 108.35 105.867 108.491C105.627 108.604 105.387 108.66 105.176 108.66C104.965 108.674 104.781 108.632 104.626 108.547C104.471 108.463 104.373 108.308 104.302 108.11C104.232 107.913 104.232 107.659 104.288 107.363C104.387 107.039 104.542 106.715 104.753 106.391C104.965 106.067 105.19 105.756 105.458 105.475C105.712 105.193 105.965 104.911 106.233 104.671C106.501 104.417 106.741 104.206 106.952 104.023C106.614 104.234 106.332 104.319 106.106 104.262C105.867 104.206 105.726 104.051 105.655 103.797C105.401 104.037 105.162 104.248 104.95 104.46C104.739 104.657 104.499 104.868 104.274 105.066C104.034 105.263 103.781 105.475 103.527 105.672C103.259 105.883 102.977 106.109 102.653 106.363L102.568 105.475L102.512 105.46Z" fill="#1E1E1E"/>
<path d="M112.942 96.4676L118.031 96.3972L117.594 97.2429L112.491 97.3133L112.942 96.4676ZM110.856 107.913C110.49 108.138 110.137 108.322 109.785 108.477C109.433 108.618 109.108 108.632 108.798 108.505C108.573 108.42 108.446 108.251 108.418 107.983C108.39 107.73 108.418 107.42 108.502 107.067C108.587 106.715 108.714 106.348 108.883 105.954C109.052 105.559 109.235 105.193 109.419 104.84C109.602 104.488 109.771 104.178 109.926 103.91C110.081 103.642 110.194 103.459 110.236 103.346C110.588 102.74 110.941 102.134 111.293 101.556C111.646 100.978 111.998 100.386 112.35 99.8082C112.985 98.8074 113.605 97.7926 114.211 96.7777C114.817 95.7629 115.494 94.7903 116.255 93.8318C116.311 93.7614 116.367 93.6909 116.452 93.5922C116.537 93.4936 116.607 93.4231 116.678 93.3667C116.917 93.1412 117.157 93.0002 117.396 92.9438C117.636 92.8875 117.749 92.9297 117.763 93.0707C117.735 93.1553 117.636 93.3526 117.453 93.6345C117.27 93.9164 117.086 94.2265 116.875 94.5507C116.663 94.8749 116.466 95.1709 116.283 95.4387C116.1 95.7065 115.987 95.8897 115.945 95.9461C115.226 96.9751 114.577 97.9617 113.985 98.9061C113.393 99.8505 112.773 100.809 112.139 101.81C111.688 102.543 111.251 103.261 110.842 103.98C110.433 104.699 110.053 105.46 109.715 106.264C109.419 107.011 109.334 107.448 109.447 107.603C109.545 107.744 109.856 107.659 110.349 107.307C110.546 107.208 110.786 107.053 111.082 106.856C111.378 106.658 111.674 106.447 111.984 106.221C112.294 105.996 112.576 105.785 112.858 105.573C113.14 105.376 113.351 105.207 113.506 105.094L113.591 105.954C113.464 106.052 113.295 106.193 113.083 106.334C112.872 106.489 112.646 106.644 112.393 106.828C112.139 107.011 111.885 107.194 111.617 107.377C111.35 107.575 111.096 107.744 110.842 107.927L110.856 107.913Z" fill="#1E1E1E"/>
<path d="M119.863 101.358C119.962 101.429 120.032 101.513 120.075 101.64C120.103 101.767 120.117 101.908 120.075 102.063C120.046 102.218 119.976 102.387 119.877 102.557C119.779 102.726 119.652 102.895 119.497 103.05C119.356 103.078 119.201 103.092 119.046 103.106C118.891 103.12 118.721 103.12 118.566 103.12C118.764 102.909 118.891 102.712 118.947 102.528C119.003 102.345 119.003 102.204 118.947 102.105C118.877 102.007 118.75 101.95 118.566 101.95C118.383 101.95 118.129 102.035 117.819 102.19C117.608 102.303 117.425 102.401 117.241 102.514C117.058 102.627 116.889 102.74 116.706 102.867C116.438 103.064 116.184 103.261 115.945 103.473C115.705 103.684 115.465 103.91 115.212 104.149C115.127 104.234 114.958 104.431 114.718 104.713C114.479 104.995 114.253 105.319 114.028 105.657C113.802 105.996 113.633 106.32 113.506 106.63C113.379 106.94 113.379 107.166 113.52 107.307C113.605 107.391 113.718 107.419 113.887 107.363C114.056 107.307 114.239 107.208 114.451 107.081C114.648 106.94 114.873 106.771 115.127 106.574C115.367 106.376 115.606 106.179 115.832 105.968C116.057 105.756 116.297 105.531 116.523 105.305C116.748 105.065 116.974 104.84 117.171 104.614C117.368 104.389 117.566 104.177 117.735 103.98C117.904 103.783 118.045 103.614 118.172 103.473L119.187 103.515C119.003 103.698 118.82 103.896 118.637 104.121C118.454 104.347 118.256 104.572 118.031 104.812C117.848 105.051 117.664 105.333 117.453 105.686C117.256 106.038 117.086 106.348 116.974 106.616C116.847 106.884 116.805 107.095 116.819 107.222C116.847 107.349 116.988 107.321 117.27 107.137C117.439 107.025 117.664 106.856 117.946 106.658C118.228 106.461 118.524 106.249 118.834 106.038C119.144 105.827 119.44 105.629 119.722 105.432C120.004 105.235 120.23 105.08 120.371 104.967L120.483 105.827C120.286 105.968 120.032 106.165 119.694 106.404C119.356 106.644 119.003 106.898 118.651 107.137C118.285 107.377 117.932 107.617 117.566 107.828C117.213 108.054 116.917 108.195 116.692 108.279C116.424 108.392 116.213 108.42 116.086 108.364C115.945 108.307 115.86 108.209 115.832 108.068C115.804 107.927 115.804 107.744 115.846 107.518C115.888 107.307 115.945 107.081 116.015 106.87C115.874 106.982 115.747 107.109 115.621 107.208C115.494 107.321 115.367 107.419 115.24 107.518C115.141 107.603 114.972 107.715 114.747 107.856C114.521 107.997 114.281 108.124 114.028 108.237C113.774 108.35 113.52 108.406 113.281 108.406C113.041 108.42 112.844 108.336 112.703 108.152C112.534 107.927 112.463 107.617 112.52 107.236C112.562 106.856 112.703 106.447 112.914 106.01C113.126 105.573 113.408 105.108 113.76 104.643C114.112 104.177 114.493 103.726 114.916 103.304C115.325 102.909 115.761 102.557 116.213 102.232C116.664 101.908 117.115 101.654 117.552 101.457C117.989 101.26 118.411 101.147 118.806 101.119C119.201 101.091 119.553 101.161 119.863 101.344V101.358Z" fill="#1E1E1E"/>
<path d="M118.482 112.888C118.679 112.607 118.862 112.311 119.06 112.043C119.257 111.761 119.44 111.479 119.609 111.197C119.017 111.62 118.468 112.043 117.974 112.48C117.481 112.917 117.044 113.354 116.678 113.805C116.565 113.946 116.438 114.143 116.311 114.397C116.184 114.65 116.1 114.862 116.043 115.045C116.001 115.228 116.043 115.299 116.142 115.27C116.241 115.242 116.382 115.158 116.551 115.017C116.72 114.876 116.917 114.678 117.129 114.453C117.34 114.227 117.537 114.002 117.735 113.791C117.932 113.579 118.101 113.382 118.228 113.227C118.355 113.058 118.44 112.959 118.468 112.917L118.482 112.888ZM126.742 101.274C126.84 101.344 126.911 101.429 126.953 101.556C126.981 101.683 126.995 101.824 126.953 101.979C126.925 102.134 126.854 102.303 126.756 102.472C126.657 102.641 126.53 102.81 126.375 102.965C126.234 102.994 126.079 103.008 125.924 103.022C125.769 103.036 125.6 103.036 125.445 103.036C125.642 102.824 125.769 102.627 125.825 102.444C125.882 102.261 125.882 102.12 125.825 102.021C125.755 101.922 125.628 101.866 125.445 101.866C125.262 101.866 125.008 101.951 124.698 102.106C124.204 102.373 123.753 102.669 123.331 102.994C122.908 103.318 122.485 103.67 122.076 104.065C121.992 104.149 121.822 104.347 121.583 104.629C121.343 104.911 121.118 105.235 120.892 105.573C120.667 105.911 120.497 106.235 120.371 106.546C120.244 106.856 120.244 107.081 120.385 107.222C120.469 107.307 120.582 107.335 120.751 107.279C120.92 107.222 121.104 107.123 121.315 106.983C121.526 106.842 121.738 106.672 121.992 106.475C122.231 106.278 122.471 106.08 122.696 105.869C122.922 105.658 123.161 105.432 123.387 105.207C123.612 104.967 123.838 104.741 124.035 104.516C124.233 104.29 124.43 104.079 124.599 103.882C124.768 103.684 124.909 103.515 125.036 103.374L126.051 103.416C125.741 103.755 125.403 104.135 125.036 104.558C124.67 104.981 124.275 105.404 123.866 105.813C123.584 106.193 123.302 106.602 123.035 107.053C122.767 107.504 122.527 107.871 122.344 108.152L122.147 108.448C123.133 107.814 124.092 107.18 125.008 106.56C125.924 105.939 126.699 105.333 127.348 104.727L127.376 105.742C126.995 106.08 126.558 106.433 126.079 106.771C125.6 107.109 125.092 107.462 124.557 107.828C124.021 108.181 123.486 108.547 122.922 108.914C122.358 109.28 121.808 109.647 121.259 110.013C120.963 110.535 120.667 111.056 120.371 111.563C120.075 112.071 119.75 112.564 119.412 113.058C119.074 113.537 118.693 114.002 118.299 114.453C117.89 114.904 117.439 115.313 116.931 115.693C116.706 115.877 116.466 116.032 116.241 116.144C116.015 116.257 115.818 116.314 115.649 116.314C115.48 116.314 115.339 116.229 115.24 116.074C115.141 115.919 115.085 115.665 115.071 115.313C115.071 114.932 115.155 114.552 115.353 114.171C115.536 113.79 115.804 113.41 116.114 113.043C116.438 112.677 116.79 112.311 117.199 111.958C117.608 111.606 118.017 111.267 118.425 110.957C118.848 110.647 119.243 110.351 119.652 110.083C120.046 109.816 120.399 109.576 120.709 109.379L121.808 107.673C121.653 107.772 121.47 107.885 121.273 107.997C121.061 108.11 120.864 108.195 120.638 108.265C120.427 108.322 120.23 108.35 120.032 108.336C119.849 108.322 119.694 108.237 119.567 108.082C119.398 107.856 119.328 107.546 119.384 107.166C119.426 106.785 119.567 106.376 119.779 105.94C119.99 105.503 120.272 105.037 120.624 104.572C120.977 104.107 121.357 103.656 121.78 103.233C122.189 102.839 122.626 102.486 123.077 102.162C123.528 101.838 123.979 101.584 124.416 101.387C124.853 101.189 125.276 101.077 125.67 101.048C126.065 101.02 126.417 101.091 126.728 101.274H126.742Z" fill="#1E1E1E"/>
<path d="M128.701 103.924C128.644 104.023 128.574 104.121 128.517 104.22C128.447 104.305 128.391 104.403 128.32 104.516C128.616 104.375 128.926 104.206 129.25 104.009C129.575 103.811 129.913 103.586 130.237 103.332C130.547 103.078 130.801 102.839 130.998 102.599C131.196 102.359 131.308 102.134 131.322 101.908C131.336 101.81 131.266 101.753 131.139 101.739C130.998 101.739 130.815 101.81 130.561 101.951C130.406 102.049 130.237 102.162 130.068 102.331C129.701 102.684 129.42 102.98 129.222 103.205C129.025 103.431 128.856 103.67 128.687 103.924H128.701ZM127.658 105.799C127.517 106.109 127.432 106.405 127.404 106.673C127.376 106.94 127.432 107.152 127.559 107.307C127.644 107.42 127.827 107.462 128.109 107.448C128.376 107.42 128.644 107.377 128.898 107.293C129.208 107.166 129.532 107.025 129.856 106.842C130.195 106.658 130.519 106.461 130.857 106.25C131.196 106.038 131.52 105.799 131.858 105.573C132.196 105.333 132.506 105.108 132.802 104.882L132.986 105.658C132.661 105.897 132.267 106.193 131.788 106.546C131.308 106.898 130.815 107.236 130.279 107.546C129.758 107.857 129.222 108.096 128.687 108.265C128.151 108.434 127.672 108.449 127.235 108.293C126.812 108.153 126.572 107.857 126.502 107.391C126.431 106.926 126.488 106.391 126.657 105.799C126.77 105.432 126.967 104.995 127.235 104.488C127.503 103.98 127.827 103.487 128.207 103.008C128.588 102.529 129.011 102.106 129.476 101.739C129.941 101.373 130.434 101.133 130.928 101.02C131.238 100.964 131.492 100.992 131.703 101.105C131.9 101.218 132.041 101.359 132.126 101.556C132.21 101.753 132.224 101.965 132.196 102.204C132.154 102.444 132.069 102.67 131.914 102.853C131.717 103.092 131.463 103.346 131.125 103.628C130.787 103.91 130.42 104.178 130.026 104.445C129.631 104.713 129.222 104.967 128.799 105.207C128.376 105.446 127.996 105.658 127.658 105.827V105.799Z" fill="#1E1E1E"/>
<path d="M137.792 107.659C137.736 107.307 137.806 106.912 137.99 106.447C138.173 105.996 138.412 105.531 138.694 105.08C138.976 104.629 139.272 104.192 139.582 103.783C139.892 103.374 140.132 103.036 140.329 102.768C140.456 102.585 140.527 102.458 140.513 102.387C140.513 102.317 140.456 102.331 140.343 102.416C139.892 102.782 139.399 103.233 138.849 103.741C138.3 104.262 137.75 104.798 137.186 105.362C136.622 105.925 136.044 106.475 135.481 107.011C134.917 107.546 134.367 108.026 133.86 108.434C133.733 108.505 133.606 108.491 133.465 108.42C133.338 108.35 133.268 108.223 133.268 108.068C133.423 107.715 133.592 107.335 133.803 106.94C134.015 106.546 134.226 106.137 134.452 105.728C134.677 105.319 134.889 104.911 135.1 104.53C135.311 104.135 135.495 103.769 135.678 103.416C135.537 103.543 135.41 103.67 135.297 103.783C135.185 103.896 135.044 104.037 134.846 104.206C134.649 104.375 134.395 104.6 134.057 104.868C133.719 105.136 133.254 105.503 132.647 105.939L132.436 105.108C133.55 104.29 134.438 103.529 135.086 102.824C135.734 102.12 136.256 101.528 136.65 101.077C136.791 100.893 136.932 100.752 137.087 100.668C137.242 100.583 137.383 100.541 137.51 100.541C137.637 100.541 137.722 100.597 137.792 100.668C137.863 100.752 137.863 100.865 137.82 101.006C137.778 101.119 137.736 101.246 137.665 101.373C137.609 101.499 137.538 101.64 137.482 101.767C137.271 102.162 137.073 102.514 136.918 102.839C136.749 103.163 136.594 103.473 136.439 103.783C136.284 104.079 136.129 104.403 135.974 104.727C135.819 105.051 135.636 105.418 135.438 105.799C135.72 105.517 136.073 105.15 136.495 104.741C136.918 104.319 137.369 103.896 137.834 103.459C138.3 103.022 138.737 102.627 139.174 102.247C139.596 101.866 139.963 101.598 140.259 101.401C140.47 101.274 140.696 101.175 140.907 101.133C141.119 101.091 141.302 101.091 141.443 101.147C141.584 101.203 141.682 101.33 141.725 101.514C141.767 101.697 141.739 101.951 141.626 102.289C141.443 102.669 141.189 103.064 140.893 103.487C140.597 103.91 140.301 104.333 140.019 104.727C139.737 105.136 139.484 105.517 139.258 105.897C139.033 106.264 138.906 106.602 138.849 106.884C138.849 107.025 138.948 107.053 139.145 106.983C139.188 106.983 139.357 106.884 139.653 106.701C139.949 106.503 140.287 106.278 140.668 106.024C141.048 105.756 141.415 105.503 141.781 105.249C142.148 104.995 142.401 104.812 142.556 104.699L142.669 105.559C142.472 105.7 142.218 105.897 141.88 106.151C141.542 106.405 141.203 106.658 140.837 106.912C140.47 107.166 140.118 107.405 139.78 107.631C139.427 107.856 139.145 108.011 138.906 108.082C138.722 108.124 138.511 108.11 138.271 108.068C138.018 108.011 137.863 107.87 137.778 107.659H137.792Z" fill="#1E1E1E"/>
<path d="M148.941 100.978C149.04 101.035 149.111 101.133 149.153 101.26C149.181 101.387 149.195 101.528 149.153 101.683C149.125 101.838 149.054 102.007 148.955 102.176C148.857 102.345 148.73 102.515 148.575 102.67C148.434 102.698 148.279 102.712 148.124 102.726C147.969 102.74 147.8 102.74 147.645 102.74C147.842 102.529 147.969 102.331 148.025 102.148C148.082 101.965 148.082 101.824 148.025 101.725C147.955 101.627 147.828 101.57 147.645 101.57C147.461 101.57 147.208 101.655 146.898 101.81C146.686 101.923 146.503 102.021 146.32 102.134C146.136 102.247 145.967 102.36 145.784 102.486C145.516 102.684 145.263 102.881 145.023 103.092C144.783 103.304 144.544 103.529 144.29 103.769C144.205 103.868 144.036 104.051 143.797 104.333C143.557 104.615 143.331 104.939 143.106 105.277C142.88 105.616 142.711 105.94 142.584 106.25C142.458 106.56 142.458 106.785 142.599 106.926C142.683 107.011 142.796 107.039 142.965 106.983C143.134 106.926 143.317 106.828 143.529 106.687C143.74 106.546 143.952 106.377 144.205 106.179C144.445 105.982 144.685 105.785 144.91 105.573C145.136 105.362 145.375 105.136 145.601 104.911C145.826 104.671 146.052 104.446 146.249 104.22C146.447 103.995 146.644 103.783 146.813 103.586C146.982 103.388 147.123 103.219 147.25 103.078L148.265 103.121C148.082 103.304 147.898 103.501 147.715 103.727C147.532 103.952 147.335 104.178 147.109 104.417C146.926 104.657 146.743 104.939 146.531 105.291C146.334 105.644 146.165 105.94 146.052 106.222C145.939 106.489 145.883 106.701 145.911 106.828C145.925 106.955 146.08 106.926 146.362 106.743C146.531 106.63 146.757 106.461 147.039 106.264C147.32 106.067 147.616 105.855 147.927 105.644C148.237 105.432 148.533 105.235 148.815 105.038C149.096 104.84 149.322 104.685 149.463 104.572L149.576 105.432C149.378 105.573 149.125 105.771 148.786 106.01C148.448 106.25 148.11 106.504 147.743 106.743C147.377 106.983 147.024 107.222 146.658 107.434C146.306 107.659 146.01 107.8 145.784 107.885C145.516 107.998 145.305 108.026 145.178 107.969C145.037 107.913 144.952 107.814 144.924 107.673C144.896 107.518 144.896 107.349 144.938 107.124C144.981 106.912 145.037 106.687 145.107 106.475C144.967 106.588 144.84 106.715 144.713 106.814C144.586 106.926 144.459 107.025 144.332 107.124C144.234 107.208 144.064 107.321 143.839 107.462C143.613 107.603 143.374 107.73 143.12 107.843C142.866 107.955 142.613 108.012 142.373 108.012C142.133 108.026 141.936 107.941 141.795 107.758C141.626 107.532 141.556 107.222 141.612 106.842C141.654 106.461 141.795 106.052 142.007 105.616C142.218 105.179 142.5 104.713 142.852 104.248C143.205 103.783 143.585 103.332 144.008 102.909C144.417 102.515 144.854 102.162 145.305 101.838C145.756 101.514 146.207 101.26 146.644 101.063C147.081 100.865 147.504 100.753 147.898 100.725C148.293 100.696 148.645 100.767 148.955 100.95L148.941 100.978Z" fill="#1E1E1E"/>
</g>
<defs>
<clipPath id="clip0_118_137">
<rect width="148.806" height="116.313" fill="white" transform="translate(0.75708)"/>
</clipPath>
</defs>
</svg>
