<svg width="220" height="93" viewBox="0 0 220 93" fill="none" xmlns="http://www.w3.org/2000/svg">
<g clip-path="url(#clip0_118_227)">
<path d="M190.773 1.97031C192.021 0.0626326 194.064 0.0626326 195.316 1.97031L216.646 34.568C217.894 36.4756 217.894 39.5987 216.646 41.5064L195.316 74.1051C194.068 76.0161 192.024 76.0162 190.773 74.1051L169.443 41.5064C168.195 39.5952 168.195 36.4755 169.443 34.568L190.773 1.97031ZM194.617 16.5641C183.852 16.5642 175.126 25.1151 175.126 35.6695C175.126 45.2007 182.247 53.1022 191.561 54.5357C191.561 54.5357 191.308 54.9638 191.308 55.4986C191.308 56.283 191.729 56.9212 191.986 57.3883C192.15 57.6628 192.189 57.9127 192.171 58.2584C192.136 58.943 192.47 59.5924 192.47 59.5924C192.67 60.0024 192.806 60.37 193.009 60.6695C193.348 61.1933 193.961 61.4103 194.474 61.2643C194.948 61.1288 195.259 60.7049 195.259 60.1881V60.1695C195.259 59.7835 195.295 57.7024 195.879 56.4654C196.068 56.0768 196.425 55.4312 196.885 54.6432C204.024 53.8336 209.982 49.2478 212.62 42.9615C209.918 45.7178 206.113 47.4332 201.902 47.4332C201.699 47.4332 201.567 47.4227 201.364 47.4156C202.69 44.7778 201.225 43.6361 200.904 43.5143C203.25 38.1801 197.441 38.3796 196.763 38.4117L196.778 38.4078C196.343 38.0547 195.454 37.2991 194.863 36.6217L194.824 36.5787L194.778 36.5396C194.15 35.9798 193.33 34.753 192.785 33.94C192.628 33.7118 192.51 33.5335 192.407 33.3873C192.271 33.1947 192.438 33.0808 192.495 33.0309C192.738 32.8526 192.948 32.5744 192.977 32.193V32.1148C192.977 31.7405 192.798 31.4301 192.535 31.1627C192.731 31.1056 192.998 31.0553 193.173 30.9127C193.601 30.5668 193.612 30.0961 193.644 29.8394C193.69 29.5616 193.779 29.3407 193.871 29.2906C194.096 29.1694 194.41 29.0661 194.51 28.8346C194.688 28.4317 194.389 28.1212 194.128 27.6578C194.082 27.5802 194.013 27.2716 194.011 27.2652C194.635 27.0049 195.305 26.47 195.305 25.6822C195.305 25.347 195.298 23.6137 193.319 22.9469C192.688 22.733 192.114 22.4762 191.718 22.273C194.335 19.8271 198.004 18.3014 201.909 18.3014C202.133 18.3014 202.358 18.3043 202.582 18.315C200.129 17.2276 197.48 16.5641 194.617 16.5641Z" fill="#1E1E1E"/>
<path d="M199.595 44.01C201.403 44.5876 200.982 46.3741 200.23 47.4367C199.499 48.4957 195.78 54.5682 194.999 56.1834C194.332 57.5777 194.286 59.7599 194.286 60.2876C194.289 60.5907 193.951 60.5764 193.769 60.2876C193.583 60.0202 193.466 59.6636 193.295 59.307C192.881 58.6331 193.309 57.9414 192.753 57.0036C192.688 56.8966 192.585 56.7326 192.507 56.6006C191.897 55.538 192.478 54.857 192.835 54.8463C193.191 54.8356 193.641 54.6858 193.747 54.5931C194.931 53.5662 195.68 49.462 195.68 49.462C194.689 49.9256 193.002 54.1011 193.002 54.1011C192.478 54.4576 192.425 53.1026 192.275 52.4929C192.129 51.876 192.671 51.4054 192.592 50.6922C192.599 50.3178 192.464 49.5583 192.475 49.0341C192.482 48.5028 192.799 48.5314 192.97 48.5028C193.138 48.4779 193.819 48.6098 193.961 48.6312C194.293 48.6419 194.339 48.3638 194.339 48.3638C194.596 47.5544 195.441 46.4989 195.441 46.4989C194.856 46.1958 193.755 46.4704 193.755 46.4704C185.054 51.1558 181.025 40.9577 181.025 40.9577C182.212 41.2359 183.068 41.382 184.569 40.9542C186.049 40.5298 187.169 39.2818 187.169 39.2818C186.916 37.6166 186.302 34.9958 186.566 33.7514C186.577 32.7066 187.4 31.7296 187.718 31.0236C187.95 30.5636 187.693 30.2462 187.693 30.2462C187.643 30.1749 187.625 30.125 187.646 30.0359C187.671 29.9467 187.714 29.8219 187.753 29.7363C187.803 29.608 187.835 29.5616 187.925 29.5973C187.95 29.6008 188.221 29.7007 188.221 29.7007C188.438 29.1444 187.957 28.5632 187.475 27.9891C187.005 27.4257 186.762 25.814 186.762 25.814C186.263 25.9067 186.195 25.5715 186.195 25.5715C185.803 26.1528 186.238 27.44 186.37 28.0426C186.416 28.2351 186.463 28.4883 186.466 28.7451C186.466 29.5331 185.86 30.1713 185.111 30.1713C184.359 30.1713 183.756 29.5331 183.756 28.7451C183.756 28.6595 183.756 28.5739 183.771 28.4919C184.013 28.8164 184.391 28.9661 184.705 28.8342C184.969 28.7201 185.115 28.442 185.115 28.121C185.115 27.5184 184.99 26.6306 184.919 25.8354C184.819 24.6195 186.17 24.8049 186.17 24.8049C186.313 24.1524 187.44 24.2522 187.44 24.2522C188.017 23.5105 188.773 22.8865 189.843 22.7867C190.888 22.6619 191.654 23.3109 191.654 23.3109C194.475 23.6995 194.482 25.1829 194.446 25.7855C194.421 26.3917 193.651 26.5699 193.651 26.5699C193.427 26.898 193.091 26.923 193.091 26.923C193.091 26.923 193.156 27.4115 193.166 27.4543C193.177 27.497 193.202 27.6575 193.245 27.7395C193.327 27.8928 193.594 28.2708 193.633 28.3065C193.705 28.3849 193.68 28.5561 193.519 28.5953C193.391 28.6274 193.355 28.6559 193.305 28.6595C193.263 28.6666 193.198 28.6951 193.213 28.7985C193.23 28.9055 193.238 28.959 193.245 28.9875C193.245 29.0196 193.27 29.0588 193.17 29.066C193.066 29.0802 192.828 29.0981 192.828 29.0981C192.828 29.0981 193.009 29.2799 193.034 29.312C193.074 29.3441 193.106 29.3441 193.045 29.3869C192.999 29.4154 192.924 29.4939 192.892 29.6436C192.852 29.8397 192.874 30.0858 192.681 30.2462C192.353 30.5137 191.665 30.2855 190.98 30.2248C190.474 30.1713 190.827 30.9023 190.827 30.9023C191.013 30.9986 191.908 31.4479 191.947 32.104C191.972 32.5925 191.547 32.4356 191.316 32.9633C191.212 33.1987 191.219 33.4697 191.316 33.6337C191.572 34.0152 193.027 36.3543 194.111 37.3207C194.985 38.3155 196.415 39.4351 196.415 39.4351C200.95 39.2176 200.43 41.5104 200.244 42.2735C200.055 43.0187 199.599 43.9886 199.599 43.9886L199.595 44.01ZM194.553 39.9415C194.311 39.6776 193.701 39.05 193.334 38.7398C192.849 38.3262 192.111 37.5774 192.111 37.5774C192.111 37.5774 191.915 38.8967 191.433 39.3567C191.433 39.3567 191.883 40.5227 191.858 41.029C191.858 41.029 192.207 40.726 193.509 40.2981C194.086 40.0806 194.635 40.0092 194.553 39.9379V39.9415Z" fill="#1E1E1E"/>
<path d="M166.929 32.8315C165.97 34.297 165.492 36.1369 165.492 37.9731C165.492 39.813 165.974 41.6528 166.929 43.1147C166.95 43.1461 174.807 55.1649 180.985 64.5981C90.5083 64.0847 24.2427 83.4179 -1.17407 92.8208L-1.27759 41.4458C24.0499 32.0893 90.0945 13.1128 179.89 13.02C173.914 22.1554 166.929 32.8315 166.929 32.8315ZM7.23022 77.9165C4.87696 77.9166 2.95202 79.7991 2.9519 82.1274C2.9519 84.4451 4.87689 86.3422 7.23022 86.3423C9.6264 86.3423 11.5378 84.4487 11.5378 82.1274C11.5377 79.7991 9.62277 77.9165 7.23022 77.9165ZM7.23022 78.3872C9.35177 78.3872 11.0563 80.0558 11.0564 82.1274C11.0564 84.1884 9.35184 85.8608 7.23022 85.8608C5.13719 85.8608 3.42944 84.1884 3.42944 82.1274C3.42956 80.0559 5.14082 78.3873 7.23022 78.3872ZM5.40503 84.6558H6.52417V82.5161H7.38062L8.37183 84.6558H9.55542L8.44995 82.3062C9.02047 82.0851 9.39136 81.5714 9.39136 81.0151H9.38745C9.38744 80.352 8.89213 79.4997 7.60522 79.4995H5.40503V84.6558ZM6.94116 80.3843C7.48672 80.3843 8.24292 80.3238 8.24292 81.0298C8.24264 81.664 7.50512 81.6431 7.02026 81.6431V81.646H6.52124V80.3843H6.94116ZM25.9792 44.8013C25.9698 44.7946 22.622 42.4167 18.9509 42.8511C10.3755 43.8602 8.1219 52.7243 8.12183 60.1089C8.12183 65.1936 9.57305 69.2378 11.4451 71.4165C13.2032 73.4632 20.0356 76.3542 26.0544 69.854L26.0505 69.8511C26.0505 69.8511 25.1484 67.7753 24.9666 65.8677C23.4547 67.4366 22.4129 68.3392 20.5623 68.6851C17.2144 69.3015 16.2519 66.1241 15.9167 63.8813C15.7385 62.6696 15.7316 63.382 15.5925 58.7437C15.4677 54.7179 16.116 52.0435 16.116 52.0435C16.1178 52.0312 16.5807 48.9211 18.8298 47.7183C22.1998 45.9144 25.9728 50.0874 26.0037 50.1216C25.8579 49.9982 25.9792 44.8013 25.9792 44.8013ZM39.9392 48.8589C38.759 47.34 36.7941 46.8984 34.0593 47.5474C31.492 48.1571 29.5698 49.5044 28.3396 51.5796C27.1094 53.6477 26.4958 56.5648 26.4958 60.3159C26.4959 63.9636 27.1415 66.5737 28.4109 68.1177C29.6874 69.6652 31.5741 70.1221 34.0916 69.5444C36.6695 68.9347 38.5917 67.6005 39.8503 65.5503C41.1018 63.5 41.7077 60.5512 41.7078 56.7183C41.7078 52.9959 41.1229 50.3679 39.9392 48.856V48.8589ZM34.1658 50.8843C34.9644 50.706 35.4533 51.0092 35.6423 51.8042C35.8384 52.5958 36.1163 54.7106 36.1199 58.1479C36.1377 61.4281 35.8387 63.5532 35.6248 64.5161C35.3894 65.4717 34.9185 66.0353 34.2019 66.1958C33.446 66.3598 32.9644 66.0426 32.7576 65.2368C32.5401 64.431 32.0763 62.3591 32.0798 59.0181C32.0656 55.5951 32.5185 53.4306 32.7253 52.5142C32.9214 51.605 33.3993 51.0591 34.1658 50.8843ZM42.7771 38.2222C42.7771 38.2222 43.8258 39.3279 43.8259 41.1997C43.8224 45.1113 43.8289 52.9672 43.8396 57.5063C43.8539 65.4114 48.8678 65.5754 49.0818 65.5933L53.3074 64.6587H53.3035C53.2785 64.649 49.4207 63.1489 49.4207 56.0015L49.3923 36.686L42.7771 38.2222ZM65.741 42.9653C64.5572 41.4428 62.5958 41.0004 59.8611 41.6528C57.2937 42.259 55.3712 43.6108 54.1375 45.686C52.9074 47.7541 52.2937 50.6744 52.2937 54.4253C52.2937 58.0729 52.943 60.6795 54.2087 62.2271C55.4853 63.7746 57.372 64.2379 59.8894 63.646C62.4673 63.0398 64.3895 61.7099 65.6482 59.6597C66.8996 57.6094 67.5056 54.6641 67.5056 50.8276C67.5056 47.1017 66.9175 44.4773 65.741 42.9653ZM92.4089 37.2925C89.831 36.016 85.9943 37.1421 84.1257 39.3989C83.8618 39.0636 83.0449 38.1442 81.366 38.144C79.0911 38.144 76.8301 39.0034 75.3503 40.2085L74.8542 39.1069L67.2205 40.4761C67.2392 40.4822 70.3968 41.5229 70.4041 48.1528C70.4183 51.3192 70.408 61.2681 70.408 61.2681L75.9988 60.2808L75.988 42.6333C76.9223 42.0984 78.2888 41.9028 78.9128 42.2095C79.497 42.4984 79.5651 43.2073 79.5652 43.603L79.5789 59.6958L85.1628 58.811L85.1736 41.2427L85.1775 41.2358C86.0975 40.5976 87.3208 40.4976 87.7986 40.6724C88.2798 40.8507 88.7146 41.3254 88.7146 42.1382L88.7322 58.2407L95.7781 57.2173C95.755 57.2086 94.3307 56.6525 94.3201 52.1323C94.3058 48.4987 94.2986 40.9429 94.2986 40.9429C94.2985 39.7698 94.0344 38.0983 92.4089 37.2925ZM59.9744 44.9829C60.7729 44.8082 61.2654 45.1116 61.4509 45.9028C61.6435 46.6944 61.9249 48.8095 61.9285 52.2505C61.9463 55.5269 61.6434 57.6518 61.4294 58.6147L61.4265 58.6187C61.1912 59.5743 60.7197 60.1414 60.0066 60.2983C59.251 60.4658 58.7701 60.1484 58.5632 59.3394C58.3457 58.5371 57.8855 56.4614 57.8855 53.1167C57.8712 49.6938 58.3242 47.5332 58.531 46.6167C58.7271 45.7076 59.2043 45.1613 59.9744 44.9829ZM96.1531 28.3667C96.1581 28.3712 97.6072 29.6695 97.6072 32.0864C97.6072 33.7613 97.5222 51.605 97.5222 51.605C97.622 52.7532 97.4792 55.442 100.246 56.2622C103.081 57.2535 108.187 56.3079 110.373 53.4624C112.312 50.7098 112.48 47.6935 112.463 43.479H112.467C112.463 38.0769 112.174 35.955 110.498 34.8032C107.442 32.6816 103.526 35.4346 103.141 35.7983L103.138 27.4644L96.1531 28.3667ZM113.849 33.7017C113.849 33.7017 115.547 34.6141 115.544 39.1353C115.544 40.0709 115.568 54.7957 115.568 54.8638L121.156 54.3149L121.124 32.9595L113.849 33.7017ZM136.257 31.647C134.264 31.2443 131.765 31.6182 129.469 33.0933L129.065 32.1499L124.551 32.6206L124.576 54.0005L130.171 53.5298L130.135 35.5942C131.582 35.0059 132.67 35.0876 133.205 35.3657C133.554 35.5476 133.922 35.9656 133.922 36.8071L133.965 53.2202L141.231 52.7456C141.231 52.7456 139.512 51.5972 139.509 47.9673C139.519 46.3574 139.509 36.1878 139.509 36.1118C139.509 33.6051 138.257 32.0499 136.257 31.647ZM103.067 39.0103C103.106 38.9784 105.102 37.3896 106.472 38.522C107.178 39.1104 107.392 40.4873 107.392 44.6626C107.396 47.8608 107.314 50.0892 106.205 51.8862C105.581 52.7919 104.318 53.2448 103.074 52.8169C103.074 52.7367 103.06 39.0209 103.067 39.0103ZM158.724 29.6821C158.71 29.6937 157.611 30.6076 156.385 30.9194C154.781 31.3259 154.42 30.317 151.832 30.4204C145.203 30.6845 142.522 36.5 142.522 43.2212C142.522 46.2949 143.489 48.8801 144.876 50.5952C146.106 52.1142 150.135 54.3787 153.287 49.9077C153.351 50.7917 153.462 51.5757 153.69 52.0962L160.497 51.8608C160.47 51.8426 158.665 50.6149 158.721 47.0972L158.718 47.1011V34.8638C158.718 31.2018 158.724 29.6821 158.724 29.6821ZM150.859 34.0972C151.697 33.5909 152.927 33.9259 153.209 34.3003V39.3921C153.209 40.2341 153.233 45.0112 153.233 46.8013C152.57 47.5857 151.525 48.3774 150.117 48.0493V48.0532C148.926 47.7714 148.171 45.1293 148.171 41.6851C148.171 38.1371 149.429 34.9601 150.859 34.0972ZM118.211 21.1499C118.2 21.176 117.103 23.9533 114.399 26.3169C117.036 27.8468 118.243 31.0049 118.254 31.0337C118.267 31.0005 119.576 27.8555 122.101 25.6636H122.104C119.565 24.0117 118.221 21.1714 118.211 21.1499Z" fill="#1E1E1E"/>
</g>
<defs>
<clipPath id="clip0_118_227">
<rect width="218.862" height="92.2852" fill="white" transform="translate(0.645508 0.539062)"/>
</clipPath>
</defs>
</svg>
