<svg width="164" height="110" viewBox="0 0 164 110" fill="none" xmlns="http://www.w3.org/2000/svg">
<g clip-path="url(#clip0_145_221)">
<path d="M0.588867 74.9638C0.588867 77.5769 1.44873 79.9331 3.05679 81.798C4.66484 83.6629 7.44544 84.8466 10.8067 84.8466C11.2087 84.8466 12.1579 84.7908 13.6767 84.6456C15.173 84.4781 16.2339 84.4111 16.8593 84.4111C17.2054 84.4111 17.5181 84.4446 17.8308 84.5004L17.976 84.3553L17.9201 81.9767C17.9201 81.463 17.9536 80.6255 18.0095 79.4529C18.0653 78.2804 18.0988 77.4429 18.0988 76.9292C18.0988 75.645 17.2613 74.9861 15.5974 74.9861C14.9385 74.9861 14.503 75.0419 14.2462 75.1313C14.5589 75.3658 14.704 76.9403 14.704 79.8884C14.704 80.8823 14.6482 81.7757 14.5589 82.5797C13.6097 82.87 12.5823 83.0152 11.4321 83.0152C9.91336 83.0152 8.56214 82.5574 7.44544 81.6082C5.14503 79.7656 4.11766 76.8398 4.11766 73.6572C4.11766 71.0776 4.72068 69.0676 5.96022 67.6605C7.16626 66.2535 8.62915 65.5611 10.3824 65.5611C12.5935 65.5611 14.838 66.8007 16.3232 69.0676H16.4908C17.0603 68.4645 17.641 67.292 17.641 66.622C17.641 65.7845 16.9263 65.1256 15.4634 64.6454C14.0005 64.1541 12.5376 63.8972 11.0077 63.8972C8.88599 63.8972 7.02109 64.4444 5.37953 65.5611C2.14109 67.7722 0.588867 71.2786 0.588867 74.9749V74.9638ZM22.3758 82.4904C22.3758 84.1878 23.0123 84.7014 24.1849 84.7014C24.33 84.7014 25.0224 84.6121 26.1949 84.4111C26.1391 84.3776 26.0833 84.2436 25.9939 83.9532C25.8264 83.4061 25.5361 81.0498 25.5361 77.6997C25.5361 74.0257 26.4853 72.1832 28.406 72.1832C28.8639 72.1832 29.6455 72.44 30.7064 72.9872L30.8516 72.9314C31.0861 72.3283 31.1978 71.636 31.1978 70.8878C31.1978 70.1396 30.7399 69.7711 29.7907 69.7711C28.9532 69.7711 28.1268 70.0279 27.2893 70.5751C26.4518 71.1223 25.8264 71.837 25.4467 72.6969L25.3351 72.6634L25.5361 71.6025C25.5361 70.4523 24.5869 69.7599 23.2133 69.7599C22.8671 69.7599 22.4093 69.8493 21.8063 70.0168C21.8621 70.0726 21.9514 70.2736 22.0408 70.6533C22.2418 71.368 22.5321 74.0146 22.5321 77.4875C22.5321 78.0012 22.4986 78.8052 22.4763 79.9331C22.4205 81.0498 22.387 81.8873 22.387 82.4904H22.3758ZM34.5479 82.803C35.8098 84.1543 37.4178 84.8466 39.3386 84.8466C41.1476 84.8466 42.6998 84.2436 43.4704 83.5847C43.8389 83.2721 44.1851 82.8924 44.4754 82.468C45.0449 81.6305 45.1119 81.4072 45.1343 81.2062L44.9891 81.061L44.3861 81.4965C43.582 82.0437 41.8623 82.7025 40.4776 82.7025C37.5742 82.7025 35.9103 80.4356 35.9103 76.9068L36.0219 76.851L36.4574 77.052C37.0046 77.3088 38.1772 77.655 39.1822 77.655C41.7618 77.7444 44.6652 76.5383 44.7211 73.7466C44.7211 71.5355 42.9678 69.6371 39.4391 69.6371C37.429 69.6371 35.7986 70.4411 34.5255 72.0492C33.2637 73.6572 32.6271 75.5221 32.6271 77.6215C32.6271 79.7209 33.2637 81.463 34.5255 82.8142L34.5479 82.803ZM35.9549 75.511C35.9549 75.0754 36.0666 74.5059 36.3011 73.8136C36.5021 73.1547 36.8706 72.4959 37.3955 71.8593C37.9092 71.2563 38.4899 70.9436 39.0929 70.9436C40.6116 70.9436 41.3375 72.1832 41.3375 73.7019C41.3375 75.3434 40.0979 76.2033 38.635 76.2033C37.429 76.2033 35.9661 75.712 35.9661 75.511H35.9549ZM49.3107 82.803C50.5726 84.1543 52.1807 84.8466 54.1014 84.8466C55.9105 84.8466 57.4627 84.2436 58.2332 83.5847C58.6017 83.2721 58.9479 82.8924 59.2382 82.468C59.8078 81.6305 59.8748 81.4072 59.8971 81.2062L59.7519 81.061L59.1489 81.4965C58.3449 82.0437 56.6251 82.7025 55.2404 82.7025C52.337 82.7025 50.6731 80.4356 50.6731 76.9068L50.7848 76.851L51.2203 77.052C51.7675 77.3088 52.94 77.655 53.9451 77.655C56.5246 77.7444 59.4281 76.5383 59.4839 73.7466C59.4839 71.5355 57.7307 69.6371 54.2019 69.6371C52.1918 69.6371 50.5503 70.4411 49.2884 72.0492C48.0265 73.6572 47.39 75.5221 47.39 77.6215C47.39 79.7209 48.0265 81.463 49.2884 82.8142L49.3107 82.803ZM50.7178 75.511C50.7178 75.0754 50.8295 74.5059 51.064 73.8136C51.265 73.1547 51.6335 72.4959 52.1583 71.8593C52.672 71.2563 53.2527 70.9436 53.8557 70.9436C55.3744 70.9436 56.1003 72.1832 56.1003 73.7019C56.1003 75.3434 54.8608 76.2033 53.3979 76.2033C52.1918 76.2033 50.7289 75.712 50.7289 75.511H50.7178ZM62.8899 84.4111C63.8056 84.6121 64.4979 84.7014 64.9334 84.7014C66.1395 84.7014 66.7425 84.0426 66.7425 82.7472C66.7425 81.8315 66.709 80.592 66.6867 79.0397C66.6532 77.521 66.6308 76.315 66.6308 75.4775C66.6308 74.2156 66.9993 73.2105 67.7252 72.4623C68.4399 71.7477 69.2216 71.368 70.0815 71.368C71.0307 71.368 71.6895 71.7142 72.0357 72.1385C72.2032 72.3395 72.3484 72.6522 72.4377 73.0319C72.6052 73.8359 72.6052 74.2379 72.6052 75.2429C72.6052 76.248 72.6052 77.5099 72.5717 78.9727C72.5382 80.4356 72.5159 81.5858 72.5159 82.3564C72.5159 83.9644 73.6884 84.6791 75.0955 84.6791C77.5969 84.6791 78.2781 82.9035 78.2781 82.9035L78.1664 82.8142L78.0212 82.9035C77.8202 83.0487 77.4182 83.2162 77.072 83.2162C76.4132 83.2162 76.0112 82.87 75.8325 82.1554C75.665 81.463 75.6315 81.0945 75.6315 80.2011C75.6315 79.3413 75.665 78.2245 75.6873 76.8175C75.7208 75.444 75.7432 74.4054 75.7432 73.7466C75.7432 72.507 75.6315 71.77 75.0843 70.899C74.5371 70.0391 73.3646 69.6036 71.5555 69.6036C70.4946 69.6036 69.4561 69.8381 68.4846 70.2959C67.513 70.7538 66.843 71.3568 66.5303 72.0715L66.4187 72.038L66.5303 71.3233C66.5303 70.4076 65.5811 69.7488 64.2858 69.7488C63.9396 69.7488 63.4817 69.8381 62.8787 70.0056L62.9904 70.1508C63.1355 70.3518 63.3589 71.4127 63.4482 73.0542C63.5376 74.8968 63.5599 76.3261 63.5599 77.3647C63.5599 78.9392 63.5264 80.2905 63.4482 81.4072C63.2807 83.6741 63.0127 84.3106 62.8787 84.3888L62.8899 84.4111ZM91.913 81.396C92.2816 82.6914 93.2084 83.6629 93.9231 84.0984C94.2916 84.3329 94.6936 84.5004 95.1292 84.6456C95.989 84.8801 96.1677 84.8466 96.3687 84.8466L97.2062 82.0325L99.4173 75.8906C99.5625 75.4886 99.6518 75.0866 99.7077 74.6511H99.8528L101.751 81.396C102.097 82.6355 102.991 83.6071 103.705 84.0426C104.074 84.2771 104.476 84.4446 104.911 84.5898C105.805 84.8466 106.006 84.8466 106.207 84.8466L107.044 82.0325L112.014 68.2524C112.706 66.3316 113.421 65.0921 114.135 64.5449V64.3997L114.024 64.3104C113.823 64.2211 113.387 64.0759 112.851 64.0759C111.991 64.0759 111.388 64.3886 111.042 64.9916C110.696 65.6281 110.071 67.3702 109.177 70.2513C107.971 74.2379 106.821 77.8337 105.704 81.0721H105.559C104.722 78.8611 103.862 76.1921 102.913 73.0877C101.963 70.0168 101.338 67.6382 100.958 65.9408C100.724 64.7906 99.6071 64.0759 98.5463 64.0759C97.3402 64.0759 96.6479 64.1876 96.4469 64.4444L96.9941 65.7398C97.3626 66.5996 97.7423 67.6382 98.1108 68.8442C98.4793 70.0503 98.6579 70.9995 98.6579 71.6583C98.6579 72.8644 97.7423 75.9911 95.8774 81.0721H95.7322C94.783 78.6936 93.8114 75.9911 92.7506 72.9202C91.6897 69.8716 90.975 67.5488 90.573 65.9408C90.3162 64.7682 89.2218 64.0759 88.1609 64.0759C86.8655 64.0759 85.9833 64.1876 85.5478 64.4444L85.7153 64.6789C85.9163 64.9916 86.43 65.9185 86.9214 66.9793C88.0381 69.4249 89.7355 74.2156 91.9465 81.396H91.913ZM114.225 80.994C114.225 83.1716 115.721 84.8466 118.044 84.8466C119.764 84.8466 121.26 83.8974 121.952 82.6355L122.064 82.6914C122.098 84.0984 123.158 84.7014 124.51 84.7014C127.011 84.7014 127.692 82.9259 127.692 82.9259L127.581 82.8365L127.435 82.9259C127.234 83.0711 126.832 83.2386 126.486 83.2386C125.537 83.2386 125.046 82.1777 125.046 80.0559V79.7098C125.046 79.1626 125.079 78.3362 125.102 77.1525C125.135 76.0023 125.135 75.1759 125.135 74.6846C125.135 73.1882 124.968 72.239 124.365 71.2116C123.761 70.1731 122.466 69.6371 120.512 69.6371C119.272 69.6371 118.156 69.9833 117.128 70.698C116.067 71.4126 115.431 72.2502 115.208 73.1435L115.319 73.2552C116.615 72.105 117.932 71.5355 119.283 71.5355C121.383 71.5355 122.042 72.7415 122.042 75.2988V75.5556C120.322 75.5891 118.625 75.9241 116.983 76.7058C115.342 77.5099 114.225 79.0621 114.225 81.0163V80.994ZM117.463 80.4468C117.463 79.2966 118.1 78.3474 118.703 77.8672C119.015 77.6327 119.418 77.4317 119.942 77.2307C120.981 76.8622 121.238 76.8287 122.042 76.6835C122.042 77.1972 122.042 77.923 122.008 78.8611C121.975 79.8103 121.952 80.4356 121.952 80.8153C121.952 81.329 121.662 81.7868 121.093 82.1889C120.49 82.5909 119.942 82.7919 119.395 82.7919C118.278 82.7919 117.474 82.0437 117.474 80.4356L117.463 80.4468ZM132.36 82.3452C132.617 83.2609 133.421 83.9532 134.058 84.2659C134.37 84.4111 134.716 84.5563 135.118 84.6344C135.889 84.8354 136.09 84.8354 136.235 84.8354L140.568 72.8309C141.082 71.3903 141.573 70.5081 142.064 70.1843V70.0391L141.953 69.9833C141.752 69.8939 141.294 69.8158 140.747 69.8158C139.708 69.8158 139.25 70.0168 138.993 71.1111C138.848 71.7142 138.446 73.177 138.1 74.7293C137.731 76.2815 136.86 79.1514 135.855 82.0549H135.71C133.901 77.4875 132.662 73.8136 131.98 71.033C131.779 70.2289 131.009 69.8269 129.714 69.8269C129.055 69.8269 128.34 69.9163 127.558 70.0614V70.2066C127.927 70.5193 128.306 71.1 128.708 71.9263C129.602 73.8247 130.808 77.2977 132.349 82.3452H132.36ZM145.135 82.803C146.397 84.1543 148.005 84.8466 149.926 84.8466C151.735 84.8466 153.287 84.2436 154.058 83.5847C154.426 83.2721 154.772 82.8924 155.063 82.468C155.632 81.6305 155.699 81.4072 155.722 81.2062L155.576 81.061L154.973 81.4965C154.169 82.0437 152.45 82.7025 151.065 82.7025C148.162 82.7025 146.498 80.4356 146.498 76.9068L146.609 76.851L147.045 77.052C147.592 77.3088 148.765 77.655 149.77 77.655C152.349 77.7444 155.253 76.5383 155.308 73.7466C155.308 71.5355 153.555 69.6371 150.026 69.6371C148.016 69.6371 146.386 70.4411 145.113 72.0492C143.851 73.6572 143.214 75.5221 143.214 77.6215C143.214 79.7209 143.851 81.463 145.113 82.8142L145.135 82.803ZM146.542 75.511C146.542 75.0754 146.654 74.5059 146.888 73.8136C147.089 73.1547 147.458 72.4959 147.983 71.8593C148.497 71.2563 149.077 70.9436 149.68 70.9436C151.199 70.9436 151.925 72.1832 151.925 73.7019C151.925 75.3434 150.685 76.2033 149.222 76.2033C148.016 76.2033 146.553 75.712 146.553 75.511H146.542Z" fill="#4E4E4E"/>
<path d="M2.43151 91.0669H3.91673C4.51975 91.0669 4.9776 91.134 5.30145 91.2791C5.62529 91.4243 5.88213 91.6365 6.06081 91.938C6.25065 92.2283 6.33998 92.5633 6.33998 92.9207C6.33998 93.2557 6.26181 93.5684 6.09431 93.8364C5.9268 94.1155 5.69229 94.3389 5.36845 94.5064C5.7593 94.6404 6.06081 94.7967 6.27298 94.9754C6.48515 95.1541 6.65266 95.3774 6.76433 95.6343C6.88717 95.8911 6.943 96.1703 6.943 96.4606C6.943 97.0637 6.71966 97.5773 6.27298 98.0017C5.8263 98.426 5.23444 98.627 4.48625 98.627H2.40918V91.0558L2.43151 91.0669ZM3.16854 91.804V94.2272H3.60405C4.12891 94.2272 4.51975 94.1826 4.76543 94.082C5.0111 93.9815 5.21211 93.8252 5.35728 93.6242C5.50245 93.412 5.56946 93.1775 5.56946 92.9207C5.56946 92.5745 5.44662 92.3065 5.20094 92.1055C4.95527 91.9045 4.57559 91.8151 4.03957 91.8151H3.15737L3.16854 91.804ZM3.16854 94.9866V97.89H4.10657C4.66492 97.89 5.06694 97.8342 5.32378 97.7337C5.58062 97.622 5.7928 97.4545 5.94914 97.22C6.10548 96.9855 6.18364 96.7398 6.18364 96.4718C6.18364 96.1368 6.07197 95.8353 5.84863 95.5896C5.62529 95.3439 5.32378 95.1653 4.9441 95.0759C4.68726 95.0089 4.24058 94.9866 3.59289 94.9866H3.16854ZM12.5712 92.8983C13.4311 92.8983 14.1458 93.211 14.7153 93.8364C15.229 94.4059 15.4858 95.0759 15.4858 95.8576C15.4858 96.6393 15.2178 97.3205 14.6706 97.9012C14.1234 98.4819 13.4199 98.7722 12.5712 98.7722C11.7113 98.7722 11.0078 98.4819 10.4606 97.9012C9.91344 97.3205 9.64543 96.6393 9.64543 95.8576C9.64543 95.0871 9.90227 94.4171 10.416 93.8475C10.9855 93.2222 11.7002 92.9095 12.5712 92.9095V92.8983ZM12.5712 93.6019C11.9682 93.6019 11.4545 93.8252 11.0301 94.2607C10.5946 94.7074 10.3825 95.2323 10.3825 95.8576C10.3825 96.2596 10.483 96.6393 10.6728 96.9855C10.8738 97.3317 11.1306 97.5997 11.4657 97.7895C11.8007 97.9794 12.1692 98.0687 12.56 98.0687C12.962 98.0687 13.3306 97.9794 13.6544 97.7895C13.9894 97.5997 14.2574 97.3317 14.4473 96.9855C14.6371 96.6393 14.7376 96.2596 14.7376 95.8576C14.7376 95.2323 14.5254 94.6962 14.0899 94.2607C13.6544 93.8252 13.1519 93.6019 12.5489 93.6019H12.5712ZM23.9839 90.8771V98.6382H23.2692V97.6778C22.9677 98.0464 22.6327 98.3255 22.253 98.5042C21.8734 98.6829 21.4713 98.7834 21.0247 98.7834C20.2318 98.7834 19.5618 98.493 18.9923 97.9235C18.4339 97.354 18.1547 96.6505 18.1547 95.8353C18.1547 95.0312 18.4339 94.3501 19.0034 93.7694C19.5618 93.1999 20.243 92.9095 21.047 92.9095C21.5048 92.9095 21.918 93.01 22.2865 93.1999C22.6551 93.3897 22.9789 93.6912 23.2692 94.082V90.8883H23.9839V90.8771ZM21.1028 93.5907C20.7008 93.5907 20.3323 93.6912 19.9973 93.881C19.6623 94.0709 19.3943 94.3501 19.1933 94.7074C18.9923 95.0648 18.8918 95.4333 18.8918 95.8353C18.8918 96.2261 18.9923 96.6058 19.1933 96.9632C19.3943 97.3205 19.6623 97.5997 20.0085 97.8007C20.3546 98.0017 20.712 98.1022 21.1028 98.1022C21.4937 98.1022 21.8734 98.0017 22.2195 97.8007C22.5769 97.5997 22.8449 97.3317 23.0347 96.9967C23.2246 96.6616 23.3251 96.282 23.3251 95.8576C23.3251 95.2099 23.1129 94.6739 22.6886 94.2384C22.2642 93.8029 21.7394 93.5907 21.114 93.5907H21.1028ZM26.597 93.0324H27.3452L29.2771 97.3205L31.1532 93.0324H31.9237L28.5848 100.671H27.8142L28.9086 98.1692L26.597 93.0324ZM39.9528 91.0669H40.7233L42.2756 96.5165L44.4755 91.0669H44.6095L46.7536 96.5165L48.3169 91.0669H49.0875L46.9099 98.6382H46.7871L44.5425 92.9207L42.2421 98.6382H42.1304L39.964 91.0669H39.9528ZM57.5186 93.0324V98.627H56.8039V97.6667C56.5024 98.0352 56.1674 98.3144 55.7877 98.493C55.408 98.6717 55.006 98.7722 54.5593 98.7722C53.7665 98.7722 53.0964 98.4819 52.5269 97.9123C51.9686 97.3428 51.6894 96.6393 51.6894 95.8241C51.6894 95.0201 51.9686 94.3389 52.5381 93.7582C53.1076 93.1887 53.7776 92.8983 54.5817 92.8983C55.0395 92.8983 55.4527 92.9989 55.8212 93.1887C56.1897 93.3785 56.5136 93.6689 56.8039 94.0597V93.0324H57.5186ZM54.6375 93.5907C54.2355 93.5907 53.867 93.6912 53.532 93.881C53.1969 94.0709 52.9289 94.3501 52.7279 94.7074C52.5269 95.0648 52.4264 95.4333 52.4264 95.8353C52.4264 96.2261 52.5269 96.6058 52.7279 96.9632C52.9289 97.3205 53.1969 97.5997 53.5431 97.8007C53.8893 98.0017 54.2467 98.1022 54.6375 98.1022C55.0283 98.1022 55.408 98.0017 55.7542 97.8007C56.1115 97.5997 56.3796 97.3317 56.5694 96.9967C56.7592 96.6616 56.8486 96.282 56.8486 95.8576C56.8486 95.2099 56.6364 94.6739 56.2121 94.2384C55.7877 93.8029 55.2629 93.5907 54.6375 93.5907ZM60.087 93.0324H60.9469L62.4321 95.0759L63.9062 93.0324H64.766L62.8676 95.6678L65.0117 98.627H64.1518L62.4321 96.2708L60.7347 98.627H59.8748L61.9966 95.6789L60.0759 93.0324H60.087ZM67.6024 90.7319C67.77 90.7319 67.904 90.7878 68.0156 90.9106C68.1273 91.0223 68.1943 91.1674 68.1943 91.335C68.1943 91.4913 68.1385 91.6365 68.0156 91.7481C67.904 91.871 67.7588 91.9268 67.6024 91.9268C67.4461 91.9268 67.3009 91.871 67.1893 91.7481C67.0776 91.6365 67.0106 91.4913 67.0106 91.335C67.0106 91.1674 67.0664 91.0334 67.1893 90.9106C67.3009 90.7878 67.4461 90.7319 67.6024 90.7319ZM67.2451 93.0324H67.9598V98.627H67.2451V93.0324ZM71.0307 93.0324H71.7454V94.0374C72.0358 93.6577 72.3596 93.3674 72.7058 93.1775C73.0631 92.9877 73.4428 92.8983 73.856 92.8983C74.2803 92.8983 74.6489 92.9988 74.9727 93.2222C75.2966 93.4344 75.5422 93.7247 75.6874 94.082C75.8437 94.4394 75.9219 94.9977 75.9219 95.7571V98.6382H75.2072V95.9693C75.2072 95.3216 75.1849 94.8972 75.129 94.6851C75.0397 94.3166 74.8834 94.0374 74.6377 93.8475C74.4032 93.6577 74.0905 93.5684 73.7108 93.5684C73.2753 93.5684 72.8845 93.7135 72.5383 94.0039C72.1921 94.2942 71.9688 94.6516 71.8571 95.0759C71.7901 95.3551 71.7566 95.8576 71.7566 96.5946V98.6494H71.0419V93.0547L71.0307 93.0324ZM83.8729 93.0324H84.5875V97.488C84.5875 98.2697 84.5205 98.8504 84.3865 99.2077C84.1967 99.7214 83.8729 100.112 83.4038 100.391C82.9348 100.671 82.3765 100.805 81.7288 100.805C81.2486 100.805 80.8242 100.738 80.4334 100.604C80.0537 100.47 79.741 100.28 79.4954 100.056C79.2609 99.8331 79.0375 99.4869 78.8365 99.0514H79.6182C79.8304 99.4199 80.1096 99.6991 80.4446 99.8778C80.7796 100.056 81.1928 100.146 81.6953 100.146C82.1866 100.146 82.5998 100.056 82.9348 99.8778C83.2698 99.6991 83.5155 99.4646 83.6607 99.1966C83.8058 98.9174 83.8729 98.4707 83.8729 97.8565V97.5662C83.6048 97.9124 83.2698 98.1692 82.879 98.359C82.4881 98.5489 82.075 98.6382 81.6394 98.6382C81.1258 98.6382 80.6456 98.5042 80.1877 98.2585C79.7299 98.0017 79.3837 97.6555 79.138 97.2312C78.8923 96.7956 78.7695 96.3266 78.7695 95.8129C78.7695 95.2993 78.8923 94.8191 79.1604 94.3612C79.4172 93.9145 79.7745 93.5572 80.2324 93.3004C80.6902 93.0435 81.1704 92.9095 81.6729 92.9095C82.0861 92.9095 82.4881 92.9988 82.8455 93.1664C83.2028 93.3339 83.5602 93.6242 83.8952 94.0151V93.0435L83.8729 93.0324ZM81.7511 93.5907C81.3379 93.5907 80.9694 93.6912 80.6121 93.881C80.2659 94.082 79.9867 94.3501 79.7857 94.6962C79.5847 95.0424 79.4842 95.4221 79.4842 95.8241C79.4842 96.4383 79.6852 96.9408 80.0984 97.3428C80.5116 97.7449 81.0476 97.9458 81.6953 97.9458C82.3541 97.9458 82.8901 97.7448 83.2922 97.354C83.6942 96.952 83.8952 96.4383 83.8952 95.7906C83.8952 95.3663 83.8058 94.9978 83.616 94.6627C83.4262 94.3277 83.1693 94.0709 82.8343 93.881C82.4993 93.6912 82.1308 93.5907 81.7399 93.5907H81.7511ZM92.8735 97.2088L93.5212 96.818C93.979 97.6555 94.4927 98.0687 95.0957 98.0687C95.3526 98.0687 95.5871 98.0129 95.8104 97.89C96.0338 97.7672 96.2013 97.6108 96.3241 97.4098C96.447 97.2088 96.5028 96.9967 96.5028 96.7733C96.5028 96.5165 96.4135 96.2708 96.246 96.0251C96.0114 95.6901 95.5759 95.2881 94.9506 94.8079C94.314 94.3277 93.9232 93.9815 93.7669 93.7694C93.4989 93.412 93.3649 93.0212 93.3649 92.608C93.3649 92.2842 93.443 91.9826 93.5994 91.7035C93.7557 91.4355 93.979 91.2233 94.2694 91.0669C94.5597 90.9106 94.8724 90.8324 95.2074 90.8324C95.5648 90.8324 95.8998 90.9218 96.2124 91.1004C96.5251 91.2791 96.849 91.603 97.2063 92.072L96.5921 92.541C96.3018 92.1613 96.0673 91.9156 95.8551 91.7928C95.6541 91.67 95.4308 91.6141 95.1962 91.6141C94.8836 91.6141 94.6379 91.7035 94.4481 91.8933C94.2582 92.0831 94.1577 92.3065 94.1577 92.5745C94.1577 92.742 94.1912 92.8983 94.2582 93.0547C94.3252 93.211 94.4481 93.3785 94.6379 93.5572C94.7384 93.6577 95.0622 93.9034 95.6206 94.3166C96.2794 94.7967 96.7261 95.2323 96.9718 95.6119C97.2175 95.9916 97.3403 96.3713 97.3403 96.751C97.3403 97.2982 97.1281 97.7784 96.715 98.1804C96.3018 98.5824 95.7881 98.7834 95.1962 98.7834C94.7384 98.7834 94.314 98.6605 93.9455 98.4149C93.5659 98.1692 93.2197 97.756 92.907 97.1753L92.8735 97.2088ZM100.367 93.0324H101.081V94.0597C101.36 93.6689 101.695 93.3785 102.064 93.1887C102.433 92.9989 102.846 92.8983 103.304 92.8983C104.096 92.8983 104.778 93.1887 105.347 93.7582C105.917 94.3277 106.196 95.0201 106.196 95.8241C106.196 96.6505 105.917 97.3428 105.358 97.9123C104.8 98.4819 104.119 98.7722 103.326 98.7722C102.879 98.7722 102.477 98.6829 102.097 98.493C101.718 98.3032 101.383 98.0352 101.081 97.6667V100.682H100.367V93.0435V93.0324ZM103.248 93.5907C102.622 93.5907 102.097 93.8029 101.673 94.2384C101.249 94.6739 101.037 95.2099 101.037 95.8576C101.037 96.282 101.126 96.6616 101.316 96.9967C101.506 97.3317 101.774 97.5997 102.131 97.8007C102.488 98.0017 102.857 98.1022 103.248 98.1022C103.639 98.1022 103.996 98.0017 104.342 97.8007C104.688 97.5997 104.956 97.3205 105.157 96.9632C105.358 96.6058 105.459 96.2261 105.459 95.8353C105.459 95.4333 105.358 95.0648 105.157 94.7074C104.956 94.3501 104.688 94.082 104.353 93.881C104.018 93.68 103.65 93.5907 103.248 93.5907ZM113.834 96.7733L114.437 97.0972C114.236 97.488 114.002 97.8007 113.745 98.0352C113.488 98.2697 113.186 98.4595 112.863 98.5824C112.539 98.7052 112.17 98.7722 111.757 98.7722C110.841 98.7722 110.127 98.4707 109.613 97.8788C109.099 97.2758 108.842 96.6058 108.842 95.8576C108.842 95.1541 109.066 94.5176 109.501 93.9592C110.06 93.2557 110.797 92.8983 111.723 92.8983C112.684 92.8983 113.443 93.2557 114.013 93.9816C114.415 94.4952 114.627 95.1318 114.638 95.8911H109.579C109.591 96.5388 109.803 97.0748 110.205 97.4768C110.607 97.89 111.109 98.1022 111.701 98.1022C111.991 98.1022 112.271 98.0575 112.539 97.957C112.807 97.8565 113.041 97.7337 113.231 97.5662C113.421 97.3987 113.622 97.1418 113.845 96.7733H113.834ZM113.845 95.2658C113.745 94.8861 113.611 94.5734 113.421 94.3501C113.231 94.1156 112.985 93.9369 112.684 93.7917C112.382 93.6465 112.058 93.5795 111.723 93.5795C111.165 93.5795 110.696 93.7582 110.294 94.1044C110.004 94.3612 109.78 94.7521 109.635 95.2658H113.834H113.845ZM122.969 94.1937L122.399 94.5511C121.908 93.9034 121.227 93.5684 120.367 93.5684C119.686 93.5684 119.116 93.7917 118.658 94.2272C118.212 94.6627 117.977 95.1988 117.977 95.8241C117.977 96.2373 118.078 96.617 118.29 96.9743C118.502 97.3317 118.781 97.6108 119.15 97.8119C119.507 98.0129 119.92 98.1134 120.367 98.1134C121.193 98.1134 121.863 97.7895 122.388 97.1307L122.958 97.5103C122.69 97.9123 122.332 98.225 121.874 98.4484C121.416 98.6717 120.903 98.7834 120.333 98.7834C119.44 98.7834 118.714 98.5042 118.122 97.9458C117.542 97.3875 117.251 96.7063 117.251 95.9023C117.251 95.3663 117.385 94.8637 117.664 94.3947C117.932 93.9257 118.312 93.5684 118.792 93.3115C119.272 93.0547 119.808 92.9207 120.4 92.9207C120.769 92.9207 121.126 92.9765 121.472 93.0882C121.819 93.1999 122.109 93.345 122.355 93.5349C122.6 93.7135 122.801 93.9481 122.969 94.2272V94.1937ZM126.174 90.7319C126.341 90.7319 126.475 90.7878 126.587 90.9106C126.699 91.0223 126.766 91.1674 126.766 91.335C126.766 91.4913 126.71 91.6365 126.587 91.7481C126.475 91.871 126.33 91.9268 126.174 91.9268C126.006 91.9268 125.872 91.871 125.76 91.7481C125.649 91.6365 125.582 91.4913 125.582 91.335C125.582 91.1674 125.638 91.0334 125.76 90.9106C125.872 90.7878 126.017 90.7319 126.174 90.7319ZM125.816 93.0324H126.531V98.627H125.816V93.0324ZM135.174 93.0324V98.627H134.46V97.6667C134.158 98.0352 133.823 98.3144 133.443 98.493C133.064 98.6717 132.662 98.7722 132.215 98.7722C131.422 98.7722 130.752 98.4819 130.194 97.9123C129.635 97.3428 129.356 96.6393 129.356 95.8241C129.356 95.0201 129.635 94.3389 130.205 93.7582C130.774 93.1887 131.445 92.8983 132.249 92.8983C132.706 92.8983 133.12 92.9989 133.499 93.1887C133.868 93.3785 134.192 93.6689 134.482 94.0597V93.0324H135.197H135.174ZM132.293 93.5907C131.891 93.5907 131.523 93.6912 131.188 93.881C130.853 94.0709 130.585 94.3501 130.384 94.7074C130.183 95.0648 130.082 95.4333 130.082 95.8353C130.082 96.2261 130.183 96.6058 130.384 96.9632C130.585 97.3205 130.853 97.5997 131.199 97.8007C131.545 98.0017 131.902 98.1022 132.293 98.1022C132.684 98.1022 133.064 98.0017 133.41 97.8007C133.767 97.5997 134.035 97.3317 134.225 96.9967C134.415 96.6616 134.504 96.282 134.504 95.8576C134.504 95.2099 134.292 94.6739 133.868 94.2384C133.443 93.8029 132.919 93.5907 132.293 93.5907ZM138.268 90.8771H138.982V98.6382H138.268V90.8771ZM142.31 90.7431C142.478 90.7431 142.612 90.7989 142.723 90.9218C142.835 91.0335 142.902 91.1786 142.902 91.3461C142.902 91.5025 142.846 91.6476 142.723 91.7593C142.612 91.8821 142.466 91.938 142.31 91.938C142.154 91.938 142.009 91.8821 141.897 91.7593C141.785 91.6476 141.718 91.5025 141.718 91.3461C141.718 91.1786 141.774 91.0446 141.897 90.9218C142.009 90.7989 142.154 90.7431 142.31 90.7431ZM141.953 93.0435H142.667V98.6382H141.953V93.0435ZM148.564 93.6465L148.095 94.1267C147.715 93.7582 147.335 93.5684 146.967 93.5684C146.732 93.5684 146.531 93.6465 146.364 93.8029C146.196 93.9592 146.107 94.1379 146.107 94.3389C146.107 94.5176 146.174 94.6962 146.308 94.8526C146.442 95.0201 146.732 95.2211 147.179 95.4444C147.715 95.7236 148.072 95.9916 148.273 96.2485C148.463 96.5053 148.552 96.8068 148.552 97.1307C148.552 97.5885 148.385 97.9794 148.072 98.3032C147.748 98.6159 147.346 98.7834 146.855 98.7834C146.531 98.7834 146.23 98.7164 145.928 98.5712C145.638 98.426 145.392 98.2362 145.202 97.9905L145.66 97.4768C146.029 97.89 146.42 98.1022 146.833 98.1022C147.123 98.1022 147.369 98.0129 147.57 97.823C147.771 97.6443 147.871 97.421 147.871 97.1753C147.871 96.9743 147.804 96.7845 147.67 96.6281C147.536 96.4718 147.235 96.2708 146.766 96.0363C146.263 95.7794 145.917 95.5226 145.738 95.2658C145.56 95.0089 145.459 94.7297 145.459 94.3947C145.459 93.9704 145.604 93.6242 145.895 93.3339C146.185 93.0547 146.554 92.9095 147 92.9095C147.514 92.9095 148.039 93.1552 148.564 93.6577V93.6465ZM152.025 90.9553H152.74V93.0435H153.879V93.6689H152.74V98.6382H152.025V93.6689H151.043V93.0435H152.025V90.9553Z" fill="#4E4E4E"/>
<path d="M157.787 70.5531V66.7117H159.418C159.831 66.7117 160.121 66.7452 160.311 66.8122C160.501 66.8792 160.646 67.002 160.758 67.1807C160.87 67.3594 160.925 67.5604 160.925 67.7837C160.925 68.074 160.847 68.3086 160.669 68.4984C160.501 68.6882 160.244 68.7999 159.909 68.8557C160.077 68.9563 160.211 69.0568 160.322 69.1796C160.434 69.2913 160.579 69.5034 160.758 69.8049L161.227 70.5531H160.3L159.742 69.7156C159.541 69.4141 159.407 69.2354 159.329 69.1573C159.25 69.0791 159.172 69.0232 159.094 69.0009C159.016 68.9674 158.882 68.9563 158.703 68.9563H158.547V70.5531H157.765H157.787ZM158.569 68.3421H159.139C159.507 68.3421 159.742 68.3309 159.831 68.2974C159.92 68.2639 159.999 68.2081 160.043 68.1299C160.099 68.0517 160.121 67.9624 160.121 67.8395C160.121 67.7055 160.088 67.605 160.021 67.5269C159.954 67.4487 159.853 67.3929 159.731 67.3817C159.664 67.3705 159.474 67.3705 159.161 67.3705H158.558V68.3421H158.569Z" fill="#4E4E4E"/>
<path d="M163.204 68.6321H162.712V68.4646L162.701 68.2971L162.679 68.1407L162.656 67.9844L162.623 67.8281L162.578 67.6717L162.522 67.5265L162.467 67.3814L162.4 67.2362L162.333 67.1022L162.254 66.9682L162.176 66.8342L162.087 66.7114L161.986 66.5885L161.886 66.4768L161.785 66.3652L161.674 66.2535L161.562 66.153L161.439 66.0637L161.316 65.9743L161.182 65.8962L161.048 65.818L160.914 65.751L160.769 65.684L160.624 65.6281L160.479 65.5723L160.323 65.5276L160.166 65.4941L160.01 65.4606L159.854 65.4383L159.686 65.4271H159.519V64.9358H159.708L159.898 64.947L160.088 64.9693L160.267 65.0028L160.445 65.0475L160.624 65.0921L160.792 65.148L160.959 65.215L161.127 65.2931L161.283 65.3713L161.439 65.4606L161.584 65.5611L161.73 65.6617L161.864 65.7733L161.998 65.885L162.12 66.0078L162.243 66.1307L162.355 66.2647L162.467 66.3987L162.567 66.5438L162.668 66.689L162.757 66.8454L162.835 67.0017L162.913 67.1692L162.98 67.3367L163.036 67.5042L163.081 67.6829L163.125 67.8616L163.159 68.0402L163.181 68.2301L163.192 68.4199V68.6098L163.204 68.6321ZM159.507 72.3284V71.837H159.675L159.842 71.8259L159.999 71.8035L160.155 71.77L160.311 71.7365L160.468 71.6919L160.613 71.636L160.758 71.5802L160.903 71.5132L161.037 71.4462L161.171 71.368L161.305 71.2898L161.428 71.2005L161.551 71.1L161.663 70.9995L161.774 70.899L161.875 70.7873L161.975 70.6757L162.076 70.5528L162.165 70.43L162.243 70.296L162.321 70.162L162.388 70.028L162.455 69.8828L162.511 69.7376L162.567 69.5925L162.612 69.4361L162.645 69.2798L162.668 69.1234L162.69 68.9671L162.701 68.7996V68.6321H163.192V68.8219L163.181 69.0118L163.159 69.1904L163.125 69.3691L163.081 69.5478L163.036 69.7265L162.98 69.894L162.913 70.0615L162.835 70.229L162.757 70.3853L162.668 70.5417L162.567 70.6868L162.467 70.832L162.355 70.966L162.243 71.1L162.12 71.2228L161.998 71.3457L161.864 71.4574L161.73 71.569L161.584 71.6695L161.439 71.77L161.283 71.8594L161.127 71.9375L160.959 72.0157L160.792 72.0827L160.624 72.1385L160.445 72.1832L160.267 72.2279L160.088 72.2614L159.898 72.2837L159.708 72.2949H159.519L159.507 72.3284ZM155.811 68.6321H156.302V68.7996L156.314 68.9671L156.336 69.1234L156.358 69.2798L156.392 69.4361L156.436 69.5925L156.492 69.7376L156.548 69.8828L156.615 70.028L156.682 70.162L156.76 70.296L156.838 70.43L156.928 70.5528L157.028 70.6757L157.129 70.7873L157.229 70.899L157.341 70.9995L157.453 71.1L157.575 71.2005L157.698 71.2898L157.832 71.368L157.966 71.4462L158.1 71.5132L158.245 71.5802L158.391 71.636L158.536 71.6919L158.692 71.7365L158.848 71.77L159.005 71.8035L159.161 71.8259L159.329 71.837H159.496V72.3284H159.306L159.116 72.3172L158.927 72.2949L158.748 72.2614L158.569 72.2167L158.391 72.172L158.223 72.1162L158.056 72.0492L157.888 71.971L157.732 71.8929L157.575 71.8035L157.43 71.703L157.285 71.6025L157.151 71.4909L157.017 71.3792L156.894 71.2563L156.771 71.1335L156.66 70.9995L156.548 70.8655L156.448 70.7203L156.347 70.5752L156.258 70.4188L156.18 70.2625L156.101 70.095L156.034 69.9275L155.979 69.76L155.934 69.5813L155.889 69.4026L155.856 69.2239L155.833 69.0453L155.822 68.8554V68.6656L155.811 68.6321ZM159.507 64.9358V65.4271H159.34L159.172 65.4383L159.016 65.4606L158.86 65.4941L158.703 65.5276L158.547 65.5723L158.402 65.6281L158.257 65.684L158.111 65.751L157.977 65.818L157.843 65.8962L157.709 65.9743L157.587 66.0637L157.464 66.153L157.352 66.2535L157.24 66.3652L157.14 66.4768L157.039 66.5885L156.939 66.7114L156.85 66.8342L156.771 66.9682L156.693 67.1022L156.626 67.2362L156.559 67.3814L156.503 67.5265L156.448 67.6717L156.403 67.8281L156.369 67.9844L156.347 68.1407L156.325 68.2971L156.314 68.4646V68.6321H155.822V68.4422L155.833 68.2524L155.856 68.0626L155.889 67.8839L155.934 67.7052L155.979 67.5265L156.034 67.359L156.101 67.1915L156.18 67.024L156.258 66.8677L156.347 66.7114L156.448 66.5662L156.548 66.421L156.66 66.287L156.771 66.153L156.894 66.0302L157.017 65.9073L157.151 65.7957L157.285 65.684L157.43 65.5835L157.575 65.483L157.732 65.3936L157.888 65.3155L158.056 65.2373L158.223 65.1703L158.391 65.1145L158.569 65.0698L158.748 65.0251L158.927 64.9916L159.116 64.9693L159.306 64.9581H159.496L159.507 64.9358Z" fill="#4E4E4E"/>
<path d="M101.505 104.076L104.174 109.794H103.56L102.667 107.918H100.188L99.3055 109.794H98.6689L101.371 104.076H101.517H101.505ZM101.438 105.271L100.456 107.348H102.421L101.438 105.271ZM106.162 105.562H106.698V106.321C106.921 106.031 107.156 105.818 107.424 105.673C107.692 105.528 107.982 105.461 108.284 105.461C108.596 105.461 108.887 105.539 109.132 105.696C109.378 105.852 109.557 106.075 109.68 106.343C109.791 106.611 109.858 107.036 109.858 107.616V109.794H109.322V107.784C109.322 107.304 109.3 106.969 109.255 106.812C109.188 106.533 109.065 106.321 108.887 106.187C108.708 106.042 108.474 105.975 108.183 105.975C107.848 105.975 107.558 106.086 107.301 106.299C107.044 106.511 106.866 106.779 106.787 107.103C106.732 107.315 106.709 107.694 106.709 108.253V109.805H106.173V105.584L106.162 105.562ZM116.425 103.931V109.794H115.889V109.068C115.665 109.347 115.408 109.548 115.118 109.693C114.839 109.827 114.526 109.906 114.191 109.906C113.599 109.906 113.086 109.693 112.661 109.258C112.237 108.822 112.025 108.297 112.025 107.672C112.025 107.069 112.237 106.544 112.661 106.12C113.086 105.684 113.599 105.472 114.202 105.472C114.548 105.472 114.861 105.55 115.14 105.696C115.42 105.841 115.665 106.064 115.877 106.366V103.953H116.413L116.425 103.931ZM114.247 105.986C113.945 105.986 113.666 106.064 113.409 106.209C113.153 106.354 112.952 106.567 112.795 106.835C112.639 107.103 112.572 107.382 112.572 107.683C112.572 107.974 112.65 108.264 112.795 108.532C112.952 108.8 113.153 109.012 113.409 109.157C113.666 109.314 113.945 109.381 114.236 109.381C114.526 109.381 114.817 109.303 115.085 109.157C115.353 109.012 115.554 108.8 115.699 108.554C115.844 108.297 115.911 108.007 115.911 107.694C115.911 107.203 115.755 106.801 115.431 106.477C115.107 106.153 114.716 105.986 114.247 105.986ZM121.048 105.562H121.584V106.287C121.774 106.019 121.963 105.818 122.164 105.696C122.444 105.528 122.734 105.45 123.035 105.45C123.236 105.45 123.437 105.495 123.616 105.573C123.795 105.651 123.951 105.763 124.063 105.897C124.174 106.031 124.275 106.22 124.364 106.466C124.543 106.131 124.766 105.885 125.046 105.707C125.314 105.539 125.604 105.45 125.917 105.45C126.207 105.45 126.464 105.528 126.687 105.673C126.91 105.818 127.078 106.031 127.19 106.287C127.301 106.555 127.357 106.946 127.357 107.471V109.772H126.799V107.471C126.799 107.013 126.765 106.712 126.698 106.533C126.631 106.366 126.52 106.232 126.363 106.12C126.207 106.019 126.017 105.964 125.805 105.964C125.548 105.964 125.302 106.042 125.079 106.198C124.856 106.354 124.699 106.555 124.599 106.823C124.498 107.08 124.443 107.516 124.443 108.119V109.772H123.906V107.605C123.906 107.091 123.873 106.745 123.806 106.567C123.739 106.388 123.627 106.243 123.471 106.131C123.315 106.019 123.125 105.964 122.901 105.964C122.645 105.964 122.41 106.042 122.198 106.187C121.975 106.343 121.818 106.544 121.718 106.801C121.617 107.058 121.561 107.449 121.561 107.974V109.76H121.025V105.539L121.048 105.562ZM131.701 105.461C132.349 105.461 132.896 105.696 133.32 106.165C133.711 106.589 133.901 107.103 133.901 107.683C133.901 108.275 133.7 108.789 133.287 109.224C132.874 109.66 132.349 109.883 131.701 109.883C131.053 109.883 130.517 109.66 130.104 109.224C129.691 108.789 129.49 108.275 129.49 107.683C129.49 107.103 129.691 106.589 130.071 106.165C130.495 105.696 131.042 105.45 131.701 105.45V105.461ZM131.701 105.997C131.243 105.997 130.864 106.165 130.54 106.5C130.216 106.835 130.048 107.237 130.048 107.706C130.048 108.007 130.127 108.297 130.272 108.554C130.417 108.822 130.618 109.023 130.875 109.169C131.12 109.314 131.4 109.381 131.701 109.381C132.003 109.381 132.282 109.314 132.527 109.169C132.784 109.023 132.974 108.822 133.13 108.554C133.276 108.286 133.354 108.007 133.354 107.706C133.354 107.237 133.186 106.835 132.862 106.5C132.539 106.165 132.148 105.997 131.701 105.997ZM135.889 105.573H136.447V106.187C136.615 105.941 136.793 105.763 136.972 105.64C137.162 105.517 137.352 105.461 137.553 105.461C137.709 105.461 137.865 105.506 138.033 105.606L137.754 106.064C137.642 106.019 137.541 105.986 137.463 105.986C137.285 105.986 137.106 106.064 136.938 106.209C136.771 106.354 136.637 106.589 136.548 106.902C136.481 107.136 136.447 107.627 136.447 108.364V109.794H135.889V105.573ZM143.248 108.398L143.706 108.644C143.549 108.934 143.382 109.18 143.181 109.358C142.98 109.537 142.756 109.671 142.511 109.772C142.265 109.861 141.986 109.917 141.673 109.917C140.981 109.917 140.445 109.693 140.054 109.236C139.663 108.789 139.473 108.275 139.473 107.706C139.473 107.17 139.641 106.689 139.965 106.276C140.378 105.74 140.947 105.483 141.64 105.483C142.366 105.483 142.946 105.751 143.371 106.299C143.672 106.678 143.829 107.158 143.84 107.739H140.021C140.032 108.23 140.188 108.632 140.49 108.945C140.791 109.258 141.171 109.414 141.617 109.414C141.83 109.414 142.042 109.381 142.254 109.303C142.455 109.224 142.634 109.135 142.779 109.012C142.924 108.889 143.08 108.688 143.248 108.42V108.398ZM143.259 107.259C143.181 106.969 143.08 106.734 142.935 106.567C142.79 106.388 142.611 106.254 142.377 106.142C142.142 106.031 141.908 105.986 141.651 105.986C141.238 105.986 140.88 106.12 140.579 106.388C140.356 106.578 140.199 106.868 140.076 107.259H143.248H143.259ZM146.643 108.934C146.777 108.934 146.888 108.979 146.978 109.068C147.067 109.157 147.112 109.28 147.112 109.414C147.112 109.548 147.067 109.66 146.978 109.749C146.888 109.839 146.777 109.894 146.643 109.894C146.509 109.894 146.397 109.85 146.308 109.749C146.218 109.66 146.174 109.537 146.174 109.414C146.174 109.28 146.218 109.169 146.308 109.068C146.397 108.979 146.52 108.934 146.643 108.934ZM150.037 108.934C150.171 108.934 150.283 108.979 150.372 109.068C150.462 109.157 150.506 109.28 150.506 109.414C150.506 109.548 150.462 109.66 150.372 109.749C150.283 109.839 150.171 109.894 150.037 109.894C149.903 109.894 149.792 109.85 149.702 109.749C149.613 109.66 149.568 109.537 149.568 109.414C149.568 109.28 149.613 109.169 149.702 109.068C149.792 108.979 149.903 108.934 150.037 108.934ZM153.432 108.934C153.566 108.934 153.678 108.979 153.767 109.068C153.857 109.157 153.901 109.28 153.901 109.414C153.901 109.548 153.857 109.66 153.767 109.749C153.678 109.839 153.566 109.894 153.432 109.894C153.298 109.894 153.187 109.85 153.097 109.749C153.008 109.66 152.963 109.537 152.963 109.414C152.963 109.28 153.008 109.169 153.097 109.068C153.187 108.979 153.298 108.934 153.432 108.934Z" fill="#4E4E4E"/>
<path fill-rule="evenodd" clip-rule="evenodd" d="M50.7959 24.3214C50.8182 25.4716 51.8791 27.7497 52.4486 28.7324C52.8283 29.3913 53.208 29.9943 53.5988 30.6085C53.6993 30.7537 54.682 32.2612 54.8942 32.3506C53.9673 30.7202 53.5542 29.8603 53.1856 27.8614C52.6943 25.293 53.0405 22.2555 54.1237 19.8881C54.6485 18.7267 55.1176 18.0009 55.8881 17.007C56.0109 16.8507 56.1226 16.739 56.2343 16.5827C56.4129 16.337 56.7703 15.9908 56.9824 15.7898C57.1276 15.6558 57.217 15.5553 57.3621 15.399L58.1885 14.6731C60.5112 12.7747 64.2075 11.8702 68.0043 12.2499C68.8754 12.3392 69.8022 12.4955 70.5951 12.7524C71.3879 13.0092 71.9575 13.3666 72.5605 13.8802C73.6437 14.7959 74.3249 16.538 73.8112 18.5369C73.5432 18.1796 72.9848 17.6547 72.6163 17.3867C71.0306 16.2588 69.1099 15.8456 67.0775 15.8121C63.8502 15.7675 61.3599 16.6943 59.6514 18.4811C57.9763 20.2231 57.1276 22.155 57.0159 24.7235C56.9601 26.2645 57.15 27.5599 57.6078 28.8776C57.7865 29.4136 58.1103 30.039 58.3783 30.4633C58.6128 30.8318 59.093 31.5242 59.4169 31.8145C59.5285 31.915 59.6179 32.0044 59.7072 32.1049C59.8747 32.2947 60.4777 32.7637 60.6787 32.8977C62.3203 34.0479 63.9842 34.5393 66.1394 34.5505C68.8642 34.5505 71.8346 33.5008 73.0407 31.9374C73.7777 30.977 74.135 29.7375 73.7889 28.2299C73.6325 27.5711 73.4874 26.9457 72.7392 26.901C70.3829 26.767 68.0378 27.4594 66.1394 25.1925C65.8156 24.8016 65.4582 24.2656 65.1344 23.8413C65.0227 23.6849 64.7212 23.3052 64.6319 23.1377C66.0613 23.1489 67.4795 23.1377 68.9089 23.1377C69.8357 23.1377 72.4488 23.1042 73.1858 23.1824C75.5756 23.4281 77.0273 25.2371 77.742 27.2137C78.1217 28.2634 78.4232 29.3689 78.8029 30.4298C79.3054 31.8815 80.4333 35.6783 81.0698 36.7615C82.3205 38.8833 83.3255 36.996 83.493 36.8397C83.6717 36.4265 83.8727 36.0245 84.0402 35.5667C84.2077 35.12 84.3641 34.6845 84.5092 34.2266C84.7996 33.3221 85.0564 32.2165 85.1234 31.2003C85.2686 30.642 85.1346 29.0228 84.9894 28.3751C84.6767 27.0239 84.0291 25.7955 83.0799 24.8575C82.5885 24.3661 81.684 23.7073 81.0363 23.3946C81.0028 23.3834 80.9469 23.3499 80.9134 23.3387C80.8353 23.2941 80.8353 23.2941 80.7794 23.2382C82.7002 22.9144 84.6321 23.4504 86.1396 24.1651C86.8878 24.5113 87.5467 24.9803 88.1162 25.4381C89.8918 26.834 91.3546 28.9334 92.3373 30.9435C93.052 32.4176 93.7444 33.8804 94.4368 35.3768C94.7941 36.1474 95.1291 36.9625 95.6428 37.4204C97.1727 38.7716 98.1554 35.3545 98.4681 34.4053C98.7584 33.5231 98.9706 32.7526 99.1158 31.7699C99.5959 28.3862 98.5797 25.628 95.8996 23.8524L94.9169 23.2717C94.8388 23.2047 94.9169 23.2941 94.8499 23.1936C97.463 22.8921 100.087 23.7296 101.896 25.1925C102.231 25.4716 102.488 25.7285 102.723 26.2087C104.23 29.1903 102.187 35.2093 101.014 38.1574L100.177 40.0893C100.076 40.3015 99.9644 40.5025 99.8751 40.7147C99.9979 40.6477 99.9868 40.6477 100.065 40.536L100.59 39.8771C100.813 39.5756 101.036 39.3188 101.282 38.9838C102.332 37.5656 103.627 35.8682 104.364 34.249C104.521 33.9139 104.699 33.5119 104.856 33.1769C106.196 25.3711 104.32 17.5877 99.6518 11.5798C98.8589 10.5636 97.7087 9.24591 96.7707 8.38605C95.922 7.60436 95.4306 7.16884 94.4368 6.40948C93.8002 5.91813 93.1302 5.47145 92.4043 5.0136C89.6238 3.2492 86.1508 1.83099 82.3652 1.22797C75.3634 0.111261 68.786 1.58531 62.9122 5.33744C61.9741 5.94046 59.9752 7.47035 59.0595 8.38605L57.7753 9.71493C57.6971 9.80427 57.6413 9.84893 57.5631 9.93827L56.9601 10.6306C56.8261 10.7981 56.7033 10.9321 56.5804 11.0996C56.0779 11.7138 55.5531 12.4285 55.1064 13.0985C53.878 14.9188 52.9958 16.7502 52.2029 18.8272C51.6334 20.3013 50.9857 22.6352 50.8071 24.3549L50.7959 24.3214Z" fill="#4E4E4E"/>
<path fill-rule="evenodd" clip-rule="evenodd" d="M60.0757 49.0338C60.098 49.0785 60.0757 49.045 60.1315 49.1008C60.1538 49.1231 60.1762 49.1455 60.2097 49.1678C61.8624 50.5749 63.6379 51.7474 65.6034 52.7413C70.2712 55.0975 75.7989 56.1137 81.0362 55.4772C86.2066 54.8518 90.2155 53.1433 94.2692 50.2287C95.2965 49.4917 96.4914 48.4308 97.3625 47.5374C97.5523 47.3476 97.7533 47.1466 97.9208 46.9567C98.267 46.5771 98.6243 46.1527 98.9705 45.7284C101.45 42.7244 103.951 37.7662 104.844 33.1877C104.677 33.5116 104.498 33.9136 104.353 34.2598C103.616 35.879 102.321 37.5764 101.271 38.9946C101.025 39.3296 100.802 39.5865 100.579 39.888L100.054 40.5468C99.9644 40.6585 99.9755 40.6697 99.8639 40.7255C99.1939 41.8534 97.9208 43.2493 96.5361 43.4726C94.794 43.763 93.521 42.0432 92.9068 41.0717C92.1251 39.8433 91.5444 38.3693 90.8856 37.0069L89.177 33.4111C89.1212 33.2771 88.9872 33.0426 88.9537 32.9309C88.8867 33.0426 88.6856 33.9918 88.6298 34.2263C88.239 35.6333 87.9486 36.4039 87.4014 37.7551C86.8654 39.084 85.9497 40.7367 85.0564 41.7975C84.2412 42.7579 82.6554 44.2208 80.7905 43.1599C79.8302 42.6127 79.0931 41.5407 78.546 40.6138L77.9653 39.5865C77.9653 39.4748 77.9206 39.4413 77.8759 39.3296C77.8648 39.2961 77.8424 39.2291 77.8201 39.1956C77.7531 39.0728 77.8089 39.151 77.7419 39.084C77.7196 38.9053 77.4516 38.3358 77.3623 38.1124C77.2283 37.7774 77.1166 37.4647 76.9937 37.1186C76.8597 36.7165 76.4466 35.3988 76.2232 35.1978C76.1339 34.9856 75.8882 34.8293 75.5644 34.874C75.1847 34.9186 74.4253 35.6445 73.8446 36.0354C71.3097 37.7327 67.7251 38.5479 64.5201 38.2129C61.2929 37.8667 58.7356 36.6272 56.6139 34.5166C56.223 34.1258 55.5977 33.3999 55.285 32.9309L54.9053 32.3614C54.6931 32.2721 53.7104 30.7757 53.6099 30.6193C53.2191 30.0051 52.8394 29.4021 52.4597 28.7433C51.8902 27.7606 50.8293 25.4825 50.807 24.3323H50.7847V30.9432V32.2832C50.8628 32.4061 50.8517 32.5066 50.874 32.6629C51.0415 34.0364 51.6892 36.2699 52.1135 37.4982C52.4932 38.5703 53.0627 39.888 53.5876 40.8819L54.7825 42.9589C56.2454 45.2705 57.6747 46.8674 59.6178 48.6653C59.7518 48.7881 59.9082 48.9668 60.0757 49.045V49.0338Z" fill="#4E4E4E"/>
</g>
<defs>
<clipPath id="clip0_145_221">
<rect width="162.615" height="109.05" fill="white" transform="translate(0.588867 0.846436)"/>
</clipPath>
</defs>
</svg>
