<svg width="149" height="93" viewBox="0 0 149 93" fill="none" xmlns="http://www.w3.org/2000/svg">
<g clip-path="url(#clip0_118_172)">
<path fill-rule="evenodd" clip-rule="evenodd" d="M74.5139 0.539062C115.504 0.539062 148.735 21.2316 148.735 46.7539C148.735 72.2762 115.504 92.9688 74.5139 92.9688C33.5233 92.9688 0.285156 72.2762 0.285156 46.7539C0.285156 21.2316 33.516 0.539062 74.5139 0.539062ZM103.448 53.8999C102.849 49.947 107.511 43.9701 108.848 46.3521C109.564 47.6307 106.795 55.3028 103.448 53.8999ZM72.8188 53.9364C72.0077 51.2183 75.1788 45.7968 77.7289 45.8698C79.0148 47.2362 78.2403 48.8436 77.0055 51.211C76.2237 52.7162 74.7843 54.6159 72.8188 53.9437V53.9364ZM76.4648 54.1118C76.5379 55.3831 76.6255 56.3842 77.6412 56.7422C81.0972 57.977 83.7642 53.4615 84.9698 52.3362C84.2976 54.3091 83.5158 56.1796 82.8728 58.1524C82.069 60.6001 81.8352 63.0844 85.1086 62.7191C86.7015 57.429 87.191 54.1775 90.2306 49.5743C91.7504 47.2727 94.0009 46.0379 93.9789 48.5514C93.9716 49.6693 93.1095 51.6421 92.5761 52.3436C92.0938 52.9792 88.7693 53.9949 90.574 56.1211C91.692 57.4436 94.5635 56.8664 95.9591 56.1503C97.5154 55.3539 98.7137 54.0606 99.6051 52.9792C99.6051 55.4489 100.051 57.1733 102.805 56.8518C105.209 56.5741 106.24 54.6525 107.219 54.0679C107.087 57.8309 109.966 57.166 111.457 56.3549C112.918 55.5585 114.255 54.0972 115.285 52.6139C115.015 55.0763 113.89 57.3559 117.645 56.7641C118.12 55.9604 120.422 46.5347 124.477 47.2362C124.66 48.924 123.491 50.7069 123.001 52.1755C120.393 60.0667 129 56.8226 130.359 52.0732C130.556 51.3864 130.571 50.9041 130.154 50.6411C128.795 50.2538 129.051 53.3957 126.633 53.4103C126.311 50.8238 129.65 47.6965 128.372 45.2926C127.407 43.4732 122.943 44.5473 121.372 47.1704C120.692 46.5055 120.933 46.0379 120.312 45.2853C120.005 44.9053 118.566 43.7143 117.938 45.0003C117.317 46.2717 117.813 46.5713 115.651 49.9323C114.693 51.4229 111.917 54.2068 111.033 53.235C110.214 51.4302 113.356 48.4052 112.114 45.8552C111.077 43.7143 106.941 44.2916 104.873 45.3145C102.703 46.3959 101.775 48.0545 100.314 50.0931C99.364 51.4156 97.2377 54.0387 94.8119 53.9729C94.9507 53.0669 98.7356 49.7351 97.5227 45.9867C96.6167 43.2029 92.145 44.3573 90.501 47.3165C89.4488 45.8844 89.9895 44.3208 87.4248 44.4596C86.4896 47.1777 84.9479 51.0722 82.3759 52.7673C82.2152 52.8769 81.2288 53.4103 81.0607 53.4323C77.7142 53.878 86.5553 43.9262 77.5243 44.4231C69.633 44.8615 66.3742 56.618 71.372 56.8883C73.7979 57.0198 75.3688 55.2151 76.4575 54.1191L76.4648 54.1118ZM28.3283 54.2287C27.9556 54.784 28.0141 54.7255 26.8742 55.2443C20.342 58.2108 19.1657 50.5973 28.3283 54.2287ZM39.734 43.0129C40.1578 41.7708 40.6108 40.7332 41.0419 39.4618C41.7653 37.3429 44.1034 28.6918 46.5219 31.1468C48.3925 33.0466 44.9072 38.7531 42.6129 41.0255C41.948 41.6904 40.7935 42.6403 39.7267 43.0056L39.734 43.0129ZM34.6413 43.8605C32.8292 43.8166 31.2217 42.2457 30.5714 43.8532C29.8188 45.7164 32.2081 46.0963 33.7425 46.1109C33.7718 47.0243 32.6977 48.7852 32.2081 49.7204C31.2363 51.569 30.7687 51.8029 30.0161 52.9865C28.3283 52.7016 27.0058 51.8613 24.8868 51.7006C17.982 51.1818 17.4632 55.5001 19.7721 57.071C22.5706 58.9707 27.5318 57.7359 30.2207 56.2234C31.1998 55.6754 31.3313 55.8435 32.3543 56.3769C33.063 56.7495 33.8448 57.1879 34.6924 57.4436C39.9532 59.0292 43.1682 56.238 42.9344 53.6515C42.0064 53.5857 39.5806 54.4333 38.1631 54.6232C37.0525 54.7767 34.2321 54.7182 33.1142 54.0825C33.7644 53.403 34.5463 52.4458 35.1819 51.6348C36.8113 49.5378 37.4982 47.4261 38.3896 45.921C39.113 44.7007 43.0732 44.087 46.0908 40.2437C47.7787 38.0955 50.5699 34.011 49.1231 30.6865C48.1586 28.4653 44.1253 27.5519 40.7643 31.9433C37.1401 36.678 35.6569 42.5964 34.6559 43.8532L34.6413 43.8605ZM47.0407 50.1662C47.1503 48.5441 50.2191 44.3427 51.7462 46.1109C52.455 46.9366 51.1763 48.6683 50.5918 49.2163C49.7223 50.0273 48.6555 50.305 47.0407 50.1589V50.1662ZM57.0509 51.6348C55.2754 59.0876 61.4568 57.3852 64.5476 54.689C65.9431 53.4761 67.0611 52.0001 67.9744 50.2611C68.3982 49.4501 68.7562 48.471 69.0339 47.4919C69.5088 45.7821 69.2092 45.7602 68.4932 44.5181C67.0684 44.3427 67.0026 44.3719 65.9651 45.0661C65.3002 48.9021 65.439 50.5242 62.5748 53.783C61.9391 54.499 61.2303 55.237 59.8494 55.1932C59.5352 53.3007 61.1061 50.7069 61.7345 49.1286C63.9265 43.6121 59.4986 44.54 59.484 44.5546C59.1845 44.7373 58.5561 47.1266 57.4089 48.8363C52.8642 55.6243 46.785 55.7923 46.7631 51.3425C50.9717 52.7381 56.4737 49.0263 54.4497 45.5483C53.4852 43.8824 48.0637 43.3782 44.6441 48.3906C42.306 51.8175 42.0429 57.0052 47.8152 56.9102C51.432 56.8518 55.1512 54.4406 57.0582 51.6494L57.0509 51.6348Z" fill="#1E1E1E"/>
</g>
<defs>
<clipPath id="clip0_118_172">
<rect width="148.45" height="92.4233" fill="white" transform="translate(0.285156 0.539062)"/>
</clipPath>
</defs>
</svg>
