<svg width="204" height="117" viewBox="0 0 204 117" fill="none" xmlns="http://www.w3.org/2000/svg">
<g clip-path="url(#clip0_145_236)">
<path fill-rule="evenodd" clip-rule="evenodd" d="M105.969 16.4135C108.954 13.3571 111.921 10.3007 115.085 7.44085C115.728 9.85381 117.14 11.8736 119.267 13.1247C119.16 13.2141 119.053 13.3035 118.927 13.3928L118.034 14.1614C114.209 17.5217 108.4 23.7775 106.738 25.4219C107.971 28.246 108.239 30.9806 107.613 33.626C106.577 36.4679 105.182 38.0765 103.967 39.6137C103.252 40.5252 103.091 41.4368 103.199 42.3305C103.377 43.7425 103.717 43.9928 104.646 44.9222C109.258 49.5694 113.851 54.2166 118.463 58.8638C119.196 59.5966 119.66 60.2222 120.643 60.6154C121.519 60.955 122.431 60.955 123.324 60.5975C125.559 59.7038 127.775 56.4866 125.934 54.3238C120.947 48.497 114.262 44.4396 113.994 36.2355C114.066 33.0361 114.709 29.9618 117.051 27.5131C119.678 24.7606 122.413 22.0974 125.094 19.3984C125.451 19.0409 125.666 18.8265 125.827 18.5941C128.436 19.3091 131.135 19.1124 133.727 18.0579C133.512 19.452 132.994 20.8105 132.136 22.0974C128.919 26.7982 124.29 28.8179 121.483 34.1622C119.321 38.291 123.95 42.0981 126.667 44.8328C129.687 47.8714 132.69 50.6418 133.209 54.1451C133.781 58.0952 133.209 61.2231 131.1 63.6539C126.72 68.6765 119.303 69.5702 114.37 65.0124C110.813 61.7236 107.47 58.2024 104.092 54.7528L97.4253 47.353L97.4789 47.3173C92.9032 37.3616 102.555 33.1612 100.893 29.5329C98.8552 22.3833 101.858 20.7211 106.005 16.4492L105.969 16.4135ZM96.0847 24.2422C92.2597 20.3279 88.2739 16.5744 84.3953 12.7136C83.7876 12.1059 82.876 11.9987 81.8751 12.0344C78.7471 12.1595 77.6569 14.3401 77.8713 16.9855C78.2646 22.008 91.795 26.2083 90.0613 38.148C89.6323 41.5798 88.2918 44.1179 86.3971 46.1555C83.8769 48.8544 80.9992 51.1959 78.4254 53.8234C77.7105 54.5562 77.4066 55.9861 77.8177 57.5947C78.3182 59.543 80.2485 60.8656 82.3219 60.6511C84.0378 60.4724 84.2165 60.0792 85.3783 58.9531L94.2974 50.3201L99.1412 55.7001C95.7988 59.1855 92.5279 62.7781 88.7565 65.7988C83.1441 70.3209 74.94 67.5504 71.7942 61.5627C69.6851 57.5232 70.3822 51.6428 73.7961 48.4433C76.3699 46.0125 78.9616 43.5817 81.321 40.9721C83.2692 38.8272 83.8591 34.9844 82.0359 32.7323C77.8177 27.531 70.6682 24.0277 70.5788 16.6459C70.4716 6.24331 82.7151 1.02416 90.1149 8.10218C93.0641 10.9262 95.8881 13.8933 98.7301 16.8425C96.1562 19.0409 95.6379 21.5969 96.0669 24.2601L96.0847 24.2422Z" fill="#4E4E4E"/>
<path fill-rule="evenodd" clip-rule="evenodd" d="M125.808 15.2876C128.918 16.789 131.939 16.0919 134.191 14.9123C136.944 13.4824 138.928 10.6583 139.464 7.40527C139.5 7.17291 139.535 6.9048 139.428 6.67244C139.285 6.38646 138.981 6.2256 138.695 6.11836C135.407 4.75995 131.653 4.81357 128.758 6.49371C127.471 7.22653 126.38 8.28108 125.558 9.55012C125.558 9.568 125.505 9.62162 125.451 9.71099L125.433 9.72886L125.415 9.76461C125.022 10.4081 124.7 11.123 124.45 11.8558C123.735 13.8935 123.646 14.2152 125.79 15.2697L125.808 15.2876Z" fill="#4E4E4E"/>
<path fill-rule="evenodd" clip-rule="evenodd" d="M123.341 9.97913C124.646 8.04876 124.468 5.95752 123.913 4.33101C123.216 2.34702 121.518 0.738375 119.409 0.0770441C119.248 0.0234227 119.07 -0.0123249 118.909 0.0234227C118.694 0.0949179 118.569 0.273656 118.462 0.452394C117.229 2.52575 116.907 5.02809 117.747 7.13719C118.122 8.06663 118.712 8.9067 119.481 9.56803C119.481 9.56803 119.516 9.60378 119.588 9.6574L119.606 9.67527L119.624 9.69315C120.017 10.0149 120.464 10.3009 120.928 10.5511C122.215 11.2303 122.43 11.3197 123.341 9.97913Z" fill="#4E4E4E"/>
<path d="M9.59293 91.823C11.8986 91.823 13.0604 92.8776 13.1856 95.0224V108.195H18.4047V95.0939C18.4405 92.9491 19.6201 91.8945 21.908 91.8945C24.2137 91.8945 25.3755 92.9491 25.5006 95.0939V105.693C25.5006 107.337 26.3586 108.142 28.0744 108.267H30.7734V96.1306C30.8091 90.2501 27.8957 87.3188 21.9973 87.3188C19.352 87.3188 17.3144 87.8729 15.8309 88.9989C14.3474 87.8371 12.3276 87.2473 9.66442 87.2473C3.78394 87.2473 0.816895 90.1786 0.816895 96.0591V108.195H6.08967V95.0224C6.12541 92.8776 7.30508 91.823 9.59293 91.823Z" fill="#4E4E4E"/>
<path d="M39.9427 104.37C38.2983 104.37 37.4403 103.584 37.3331 101.957C37.3331 100.438 38.3877 99.4551 40.461 99.0798C41.9803 98.7759 43.3923 98.3469 44.5899 97.8286V99.7411C44.5899 102.672 42.8382 104.388 39.9427 104.388V104.37ZM41.1581 91.5013C43.3029 91.5013 44.3933 92.0911 44.5184 93.2529C44.5184 94.379 43.3923 95.0403 41.1581 95.3263C35.9389 95.8267 32.3463 97.1673 32.2212 102.118C32.2212 106.676 35.653 108.982 40.604 108.589C46.1806 108.195 49.6124 105.657 49.6124 99.9735V92.9491C49.4873 89.1241 46.6096 87.2473 40.9079 87.2473C36.1534 87.2473 33.4545 89.1241 32.8289 92.9491H38.0123C38.2804 91.966 39.2992 91.5013 41.1223 91.5013H41.1581Z" fill="#4E4E4E"/>
<path d="M65.7168 85.7281C64.6623 85.7281 63.9294 86.1928 63.4468 87.0865L59.461 93.7892L55.9041 87.5512H49.9342L56.2437 97.6142L49.541 108.178H55.9041L59.604 101.618L63.2681 108.178H69.506L62.6425 97.6499L70.4355 85.7102H65.6811L65.7168 85.7281Z" fill="#4E4E4E"/>
<path d="M77.2278 113.736C77.2278 115.452 76.3699 116.31 74.654 116.31H72.0444V96.5773C72.3125 90.4109 75.5119 87.3723 81.7142 87.3723C88.113 87.3723 91.3124 90.8398 91.3124 97.7749C91.3124 104.799 88.5777 108.428 83.0904 108.624C80.5166 108.624 78.5684 107.57 77.2457 105.425V113.736H77.2278ZM81.6427 103.995C84.4489 103.995 85.8966 102.011 86.0039 98.0251C86.0039 93.8605 84.5203 91.7871 81.5533 91.7871C78.5862 91.7871 77.1921 93.8605 77.2278 98.0251C77.3887 102.011 78.8186 103.995 81.6427 103.995Z" fill="#4E4E4E"/>
<path d="M93.1709 108.249H98.4437V97.5246C98.4437 94.5218 99.8915 93.0026 102.769 93.0026H104.521V87.6226H103.788C96.8887 87.6226 93.3318 90.9292 93.1888 97.5961V108.249H93.1709Z" fill="#4E4E4E"/>
<path d="M114.852 87.3008C108.614 87.3008 105.486 90.8577 105.486 98.0251C105.486 105.121 108.614 108.714 114.852 108.714C121.09 108.714 124.254 105.121 124.254 98.0251C124.254 90.8577 121.09 87.3008 114.852 87.3008ZM114.852 91.8586C117.498 91.8586 118.838 93.8426 118.838 97.8642C118.802 101.957 117.48 104.066 114.816 104.066C112.171 104.066 110.795 102.047 110.759 98.0251C110.759 93.932 112.118 91.8586 114.852 91.8586Z" fill="#4E4E4E"/>
<path d="M134.96 91.9482C137.766 91.9482 139.214 93.8964 139.321 97.8823C139.321 102.047 137.838 104.156 134.871 104.156C131.904 104.156 130.509 102.047 130.545 97.8823C130.706 93.8964 132.136 91.9482 134.96 91.9482ZM141.895 81.7244H139.321V90.5004C137.999 88.3555 136.015 87.301 133.441 87.301C127.936 87.4976 125.219 91.0902 125.219 98.0968C125.219 104.96 128.418 108.428 134.817 108.553C141.252 108.589 144.487 105.514 144.487 99.3122V84.3339C144.487 82.9219 143.325 81.7244 141.913 81.7244H141.895Z" fill="#4E4E4E"/>
<path d="M163.29 87.6226H160.645C158.929 87.6226 158.107 88.4805 158.143 90.1964V101.082C158.143 103.387 156.981 104.513 154.639 104.513C152.298 104.513 151.136 103.387 151.136 101.082V87.6226H145.953V100.027C145.953 103.494 146.846 105.764 148.652 106.891C150.439 108.052 152.351 108.642 154.496 108.642C156.713 108.642 158.75 108.088 160.573 107.051C162.414 105.925 163.308 103.584 163.308 100.027V87.6226H163.29Z" fill="#4E4E4E"/>
<path d="M182.88 101.922H178.984C178.323 101.922 177.733 102.154 177.232 102.654C176.374 103.637 175.32 104.138 174.104 104.138C171.227 104.174 169.779 102.118 169.779 98.0072C169.779 93.9141 171.137 91.8408 173.872 91.8408C175.516 91.8408 176.607 92.5736 177.232 93.9856H182.88C181.987 89.4993 179.02 87.283 174.033 87.283C167.67 87.4081 164.524 90.9471 164.524 98.0072C164.685 105.103 167.884 108.696 174.122 108.696C178.912 108.821 181.951 106.122 182.898 101.904L182.88 101.922Z" fill="#4E4E4E"/>
<path d="M202.791 101.922H198.966C198.269 101.922 197.679 102.154 197.215 102.654C196.196 103.637 195.07 104.138 193.854 104.138C191.316 104.138 189.958 102.547 189.761 99.3835H203.095C203.488 91.3045 200.396 87.3008 193.854 87.3008C187.581 87.3365 184.417 90.8577 184.417 97.8642C184.417 104.889 187.545 108.517 193.783 108.696C198.859 108.696 201.665 106.283 202.791 101.904V101.922ZM193.783 91.5547C195.999 91.5547 197.286 92.9668 197.608 95.6836H189.851C190.244 92.9489 191.567 91.5547 193.783 91.5547Z" fill="#4E4E4E"/>
</g>
<defs>
<clipPath id="clip0_145_236">
<rect width="202.331" height="116.315" fill="white" transform="translate(0.816895)"/>
</clipPath>
</defs>
</svg>
