<svg width="167" height="107" viewBox="0 0 167 107" fill="none" xmlns="http://www.w3.org/2000/svg">
<g clip-path="url(#clip0_145_256)">
<path fill-rule="evenodd" clip-rule="evenodd" d="M166.851 71.5495C164.892 74.0631 163.419 75.7098 162.465 76.4726C161.512 77.2353 160.472 77.6167 159.362 77.634C156.571 77.6513 154.491 75.3632 153.087 70.7695C152.134 73.127 151.094 74.8778 149.984 76.0045C148.875 77.1313 147.523 77.7033 145.945 77.7207C144.402 77.738 142.86 77.062 141.317 75.7098C140.121 74.6698 139.185 73.4217 138.509 72.0002C131.973 83.3718 121.989 77.894 124.918 64.4596L122.162 64.2343C120.706 72.5029 119.839 77.8593 112.68 78.2754V70.9601C115.852 71.3935 117.378 70.9428 118.886 63.6796C116.251 62.7435 115.644 61.7381 116.632 58.4792C117.066 57.0404 118.106 56.3123 119.718 56.295C127.761 56.243 122.786 56.6243 130.673 56.2776L130.361 62.6221C130.24 65.2917 130.188 67.1118 130.223 68.0826C130.257 69.0533 130.379 69.9027 130.639 70.6481C130.881 71.3415 131.228 71.8789 131.713 72.2949C132.199 72.7109 132.736 72.9016 133.308 72.9016C133.932 72.9016 134.487 72.6936 134.92 72.2949C135.354 71.8962 136.22 70.8388 137.538 69.1227C137.157 67.2332 137.226 65.4304 137.763 63.6796C138.457 61.4261 139.705 59.6059 141.508 58.2018C143.31 56.7977 145.079 56.1043 146.829 56.087C149.031 56.0696 150.886 57.0057 152.411 58.8952L156.849 56.0696L158.322 56.0523L158.461 63.2982C158.496 66.9558 158.756 69.452 159.206 70.8041C159.692 72.2256 160.472 72.919 161.546 72.919C162.24 72.919 162.864 72.5549 163.471 71.8789C164.06 71.1855 164.875 70.1454 165.897 68.7413L166.868 71.5842L166.851 71.5495ZM7.54501 3.68417C10.7519 4.4989 13.9589 5.31363 17.1831 6.14569C20.0087 6.85642 18.7779 8.76323 18.5179 9.62997C5.65553 54.4228 35.5059 87.9135 61.1266 59.7099C60.6585 45.6688 60.2078 31.6277 59.7398 17.5693C59.8091 16.6852 60.2772 16.2518 61.3519 16.4945C63.8828 17.0146 66.4137 17.5346 68.9272 18.0546C69.8979 18.176 70.366 18.852 70.314 20.1001V70.9775C70.314 70.9775 70.1059 74.2711 72.3595 72.9363C74.613 71.6015 78.808 67.6145 79.1027 65.3957C79.1027 65.3957 75.0117 60.0219 75.0117 47.6276C75.0117 35.216 79.12 25.0058 85.0311 25.2659C97.5814 25.7859 92.7624 57.9244 86.6606 64.5116C84.0604 67.3199 92.0863 76.0219 101.256 70.9428V76.3686C98.5869 78.8474 90.3355 80.3555 82.6216 70.8561C82.6216 70.8561 73.6596 79.0728 69.2912 79.2461C63.1201 79.4715 63.0681 73.647 62.0973 65.205C17.9458 104.676 -10.6218 44.0914 4.09541 5.41764C4.47677 4.44689 4.91014 3.04278 7.51034 3.7015L7.54501 3.68417ZM83.0723 59.8486C85.8285 59.9006 90.4915 33.1532 84.9791 31.8704C80.2121 32.1824 78.5653 56.0696 83.0723 59.8486ZM101.482 34.956C99.3322 34.904 100.58 37.5562 100.459 37.0708C101.464 40.9711 102.383 44.4034 102.47 50.8172C100.806 51.8226 98.7602 52.88 96.9921 53.9028C96.472 54.2495 96.4547 54.5095 96.4374 55.2896C96.628 56.5203 96.7667 58.1845 96.8014 59.3459C96.8014 59.5366 96.8187 60.7153 98.2575 60.0219C100.494 58.9645 103.354 57.5778 103.354 57.5778C103.493 65.6037 103.77 73.6297 103.77 81.6557C103.77 83.2331 103.666 83.8572 104.879 84.0132C106.11 84.1692 107.705 84.4812 108.814 84.7066C110.288 85.0012 110.218 84.2212 110.27 82.7477C110.565 74.9818 109.976 54.6135 109.976 54.6135C113.079 53.0534 117.066 51.4066 117.135 50.4012C117.62 43.71 116.667 44.4207 109.82 47.905C109.82 46.1715 108.936 39.203 108.537 36.0307C108.346 34.5746 108.086 34.4359 107.324 34.4186L101.482 34.904V34.956ZM152.29 60.2473C144.298 57.8031 139.965 67.6492 144.333 71.3068C147.852 73.959 154.162 67.4932 152.29 60.2473Z" fill="#4E4E4E"/>
<path fill-rule="evenodd" clip-rule="evenodd" d="M118.261 26.6874L158.426 0.771973L128.593 30.8997L150.486 41.6645L158.426 0.771973L99.8345 19.6148L118.261 26.6874Z" fill="#4E4E4E"/>
<path fill-rule="evenodd" clip-rule="evenodd" d="M126.287 31.2117L123.878 44.9061L118.695 28.0047L157.074 1.84668L126.287 31.2117Z" fill="#4E4E4E"/>
<path fill-rule="evenodd" clip-rule="evenodd" d="M127.987 31.5413L125.508 45.2357L136.567 35.7709L127.987 31.5413Z" fill="#4E4E4E"/>
<path fill-rule="evenodd" clip-rule="evenodd" d="M30.8948 96.1302C30.8948 96.2169 30.8601 96.2862 30.8081 96.3555C30.7388 96.4075 30.6695 96.4422 30.5828 96.4422H27.4105C26.9425 96.4422 26.6131 96.5462 26.4398 96.7369C26.2665 96.9276 26.1798 97.2743 26.1798 97.777V99.4585H30.4094C30.4961 99.4585 30.5655 99.4931 30.6348 99.5451C30.7041 99.6145 30.7215 99.6838 30.7215 99.7705V100.897C30.7215 100.984 30.6868 101.053 30.6348 101.123C30.5828 101.175 30.4961 101.209 30.4094 101.209H26.1798V105.976C26.1798 106.063 26.1451 106.132 26.0931 106.202C26.0411 106.254 25.9544 106.288 25.8678 106.288H24.3423C24.2556 106.288 24.1863 106.254 24.1169 106.202C24.0649 106.132 24.0303 106.063 24.0303 105.976V97.777C24.0303 96.7022 24.3076 95.8875 24.845 95.3675C25.3824 94.8474 26.3185 94.5874 27.6359 94.5874C28.364 94.5874 29.0747 94.6221 29.7334 94.6914C30.4094 94.7608 30.7735 94.8301 30.8255 94.8821C30.8775 94.9341 30.9122 95.0208 30.9122 95.1421V96.1475L30.8948 96.1302ZM44.8146 101.539C44.8146 103.116 44.4332 104.33 43.6532 105.162C42.8731 105.994 41.781 106.41 40.3769 106.41C38.9728 106.41 37.8807 105.994 37.1006 105.162C36.3206 104.33 35.9392 103.133 35.9392 101.539V99.4411C35.9392 97.7943 36.3379 96.5809 37.1353 95.7835C37.9327 94.9861 39.0075 94.5874 40.3769 94.5874C41.7983 94.5874 42.8904 95.0034 43.6532 95.8355C44.4332 96.6676 44.8146 97.8637 44.8146 99.4411V101.539ZM42.6304 101.539V99.4411C42.6304 98.4357 42.4571 97.673 42.0757 97.1876C41.7117 96.7022 41.1396 96.4596 40.3596 96.4596C39.5968 96.4596 39.0248 96.7022 38.6434 97.1876C38.2794 97.673 38.0887 98.4184 38.0887 99.4411V101.539C38.0887 102.561 38.2794 103.307 38.6434 103.792C39.0075 104.278 39.5795 104.52 40.3596 104.52C41.1396 104.52 41.7117 104.278 42.0757 103.792C42.4397 103.307 42.6304 102.561 42.6304 101.539ZM56.6022 101.417L59.0464 105.976C59.081 106.011 59.081 106.046 59.081 106.098C59.081 106.219 59.0117 106.288 58.8904 106.288H56.9835C56.9142 106.288 56.8622 106.271 56.8275 106.219C56.7929 106.167 56.6542 105.942 56.4288 105.526L54.4353 101.816H54.2273C53.95 101.816 53.4819 101.799 52.8405 101.764V105.994C52.8405 106.08 52.8059 106.15 52.7539 106.219C52.7019 106.271 52.6325 106.306 52.5459 106.306H50.9857C50.8991 106.306 50.8297 106.271 50.7604 106.219C50.7084 106.15 50.6737 106.08 50.6737 105.994V95.2808C50.6737 95.1074 50.7257 94.9861 50.8471 94.9168C50.9684 94.8474 51.3844 94.7607 52.0952 94.7087C52.8059 94.6567 53.5166 94.6221 54.2273 94.6221C55.6661 94.6221 56.7755 94.9168 57.5556 95.5235C58.3356 96.1129 58.717 96.9969 58.717 98.1584V98.297C58.717 99.8572 58.0236 100.915 56.6195 101.469L56.6022 101.417ZM56.5502 98.245V98.1064C56.5502 97.5343 56.3595 97.1009 55.9781 96.8409C55.5968 96.5809 55.0074 96.4422 54.2273 96.4422C53.7246 96.4422 53.2739 96.4596 52.8405 96.4942V99.9958C53.4299 100.031 53.898 100.048 54.2273 100.048C55.0767 100.048 55.6834 99.9092 56.0475 99.6318C56.3942 99.3544 56.5675 98.8864 56.5675 98.245H56.5502ZM78.5306 96.2342C78.5306 96.4249 78.4266 96.5116 78.2186 96.5116H75.4797V105.976C75.4797 106.063 75.445 106.132 75.393 106.202C75.341 106.254 75.2543 106.288 75.1676 106.288H73.6249C73.5382 106.288 73.4688 106.254 73.3995 106.202C73.3475 106.132 73.3128 106.063 73.3128 105.976V96.5116H70.5913C70.3833 96.5116 70.2793 96.4249 70.2793 96.2342V95.0034C70.2793 94.9168 70.3139 94.8474 70.3659 94.7954C70.4179 94.7434 70.5046 94.7087 70.5913 94.7087H78.2186C78.3052 94.7087 78.3746 94.7434 78.4439 94.7954C78.5132 94.8474 78.5306 94.9168 78.5306 95.0034V96.2342ZM89.8501 101.417L92.2943 105.976C92.329 106.011 92.329 106.046 92.329 106.098C92.329 106.219 92.2597 106.288 92.1383 106.288H90.2315C90.1622 106.288 90.1102 106.271 90.0755 106.219C90.0408 106.167 89.9021 105.942 89.6768 105.526L87.6833 101.816H87.4753C87.1979 101.816 86.7299 101.799 86.0885 101.764V105.994C86.0885 106.08 86.0538 106.15 86.0018 106.219C85.9498 106.271 85.8805 106.306 85.7938 106.306H84.2337C84.147 106.306 84.0777 106.271 84.0083 106.219C83.9563 106.15 83.9217 106.08 83.9217 105.994V95.2808C83.9217 95.1074 83.9737 94.9861 84.095 94.9168C84.2164 94.8474 84.6324 94.7607 85.3431 94.7087C86.0538 94.6567 86.7646 94.6221 87.4753 94.6221C88.9141 94.6221 90.0235 94.9168 90.8035 95.5235C91.5836 96.1129 91.965 96.9969 91.965 98.1584V98.297C91.965 99.8572 91.2716 100.915 89.8675 101.469L89.8501 101.417ZM89.7981 98.245V98.1064C89.7981 97.5343 89.6074 97.1009 89.2261 96.8409C88.8447 96.5809 88.2553 96.4422 87.4753 96.4422C86.9726 96.4422 86.5219 96.4596 86.0885 96.4942V99.9958C86.6779 100.031 87.1459 100.048 87.4753 100.048C88.3247 100.048 88.9314 99.9092 89.2954 99.6318C89.6421 99.3544 89.8155 98.8864 89.8155 98.245H89.7981ZM99.9736 103.064L99.5056 104.971C99.3322 105.699 99.2455 106.08 99.2282 106.115C99.2109 106.15 99.1762 106.202 99.1242 106.236C99.0722 106.288 99.0202 106.306 98.9509 106.306H97.3041C97.1134 106.306 97.0267 106.219 97.0267 106.046C97.0267 106.046 97.0267 106.011 97.044 105.976L99.5922 96.1995C99.8696 95.1421 100.598 94.6047 101.759 94.6047C102.92 94.6047 103.649 95.1421 103.926 96.1995L106.491 106.046C106.491 106.219 106.405 106.306 106.214 106.306H104.567C104.411 106.306 104.307 106.219 104.273 106.046L103.562 103.081H99.9736V103.064ZM103.146 101.296L102.348 98.0023C102.106 97.0316 101.984 96.5116 101.95 96.4769C101.915 96.4422 101.863 96.4075 101.776 96.4075C101.655 96.4075 101.586 96.4596 101.551 96.5289L100.39 101.279H103.129L103.146 101.296ZM118.626 94.7087C118.816 94.7087 118.903 94.7954 118.903 94.9688C118.903 94.9861 118.903 95.0034 118.886 95.0381L116.338 104.815C116.06 105.872 115.349 106.41 114.171 106.41C113.009 106.41 112.281 105.872 112.004 104.815L109.438 94.9688C109.438 94.7954 109.525 94.7087 109.716 94.7087H111.362C111.519 94.7087 111.623 94.7954 111.657 94.9688L113.911 104.33C113.945 104.503 114.032 104.59 114.171 104.59C114.292 104.59 114.379 104.503 114.413 104.33L116.667 94.9688C116.702 94.7954 116.806 94.7087 116.962 94.7087H118.608H118.626ZM130.535 105.872C130.535 105.994 130.5 106.08 130.431 106.132C130.361 106.184 130.049 106.236 129.46 106.306C128.871 106.375 128.142 106.41 127.258 106.41C125.941 106.41 125.005 106.15 124.468 105.63C123.93 105.11 123.653 104.295 123.653 103.22V97.777C123.653 96.7022 123.93 95.8875 124.468 95.3675C125.005 94.8474 125.941 94.5874 127.258 94.5874C127.986 94.5874 128.697 94.6221 129.356 94.6914C130.032 94.7608 130.396 94.8301 130.448 94.8821C130.5 94.9341 130.535 95.0208 130.535 95.1421V96.1475C130.535 96.2342 130.5 96.3035 130.448 96.3729C130.379 96.4249 130.309 96.4596 130.223 96.4596H127.05C126.582 96.4596 126.253 96.5636 126.08 96.7542C125.906 96.9449 125.82 97.2916 125.82 97.7943V99.4758H130.049C130.136 99.4758 130.205 99.5105 130.275 99.5625C130.344 99.6318 130.361 99.7011 130.361 99.7878V100.915C130.361 101.001 130.327 101.071 130.275 101.14C130.223 101.192 130.136 101.227 130.049 101.227H125.82V103.237C125.82 103.74 125.906 104.087 126.08 104.278C126.253 104.468 126.582 104.572 127.05 104.572H130.223C130.309 104.572 130.379 104.607 130.448 104.659C130.5 104.728 130.535 104.798 130.535 104.884V105.89V105.872ZM143.033 105.872C143.033 106.011 142.981 106.115 142.86 106.15C142.756 106.202 142.392 106.254 141.785 106.306C141.178 106.358 140.606 106.392 140.069 106.392C138.751 106.392 137.815 106.132 137.278 105.612C136.741 105.092 136.463 104.278 136.463 103.203V95.0034C136.463 94.9168 136.498 94.8474 136.55 94.7781C136.619 94.7261 136.688 94.6914 136.775 94.6914H138.318C138.405 94.6914 138.474 94.7261 138.543 94.7781C138.613 94.8474 138.63 94.9168 138.63 95.0034V103.203C138.63 103.705 138.717 104.052 138.89 104.243C139.063 104.434 139.375 104.538 139.843 104.538H142.704C142.79 104.538 142.86 104.572 142.929 104.624C142.998 104.694 143.016 104.763 143.016 104.85V105.855L143.033 105.872Z" fill="#4E4E4E"/>
</g>
<defs>
<clipPath id="clip0_145_256">
<rect width="166.621" height="105.625" fill="white" transform="translate(0.22998 0.769531)"/>
</clipPath>
</defs>
</svg>
