<svg width="212" height="84" viewBox="0 0 212 84" fill="none" xmlns="http://www.w3.org/2000/svg">
<g clip-path="url(#clip0_145_264)">
<path d="M1.07977 82.9892V71.7113H5.98113C6.49268 71.7113 6.95664 71.8183 7.37302 72.0325C7.80129 72.2466 8.17008 72.5202 8.47939 72.8771C8.7887 73.2221 9.03853 73.6147 9.20508 74.0549C9.38353 74.4832 9.4668 74.9352 9.4668 75.3873C9.4668 75.8869 9.37163 76.3628 9.19318 76.8149C9.01473 77.2669 8.75301 77.6595 8.41991 77.9926C8.08681 78.3257 7.69422 78.5637 7.25405 78.7064L9.90697 82.9892H7.90836L5.45768 79.0633H2.84045V82.9892H1.06787H1.07977ZM2.85235 77.493H5.96923C6.30233 77.493 6.58785 77.3978 6.83767 77.2075C7.0875 77.0171 7.28974 76.7554 7.4444 76.4342C7.59905 76.113 7.67043 75.7561 7.67043 75.3754C7.67043 74.9828 7.58715 74.6259 7.4206 74.3166C7.25405 74.0073 7.02802 73.7575 6.7663 73.5671C6.49268 73.3768 6.20716 73.2816 5.88595 73.2816H2.86424V77.493H2.85235ZM39.6363 83.0724C38.8274 83.0724 38.0898 82.9178 37.4236 82.5966C36.7693 82.2754 36.1982 81.8471 35.7224 81.2999C35.2465 80.7526 34.8777 80.1459 34.616 79.4559C34.3543 78.7778 34.2234 78.0759 34.2234 77.3502C34.2234 76.6007 34.3662 75.8869 34.6398 75.1969C34.9134 74.5188 35.2941 73.9002 35.7819 73.3768C36.2696 72.8414 36.8407 72.4132 37.5069 72.1039C38.1731 71.7945 38.8868 71.6399 39.6601 71.6399C40.4691 71.6399 41.1948 71.8064 41.861 72.1276C42.5272 72.4608 43.0863 72.9009 43.5622 73.4482C44.038 73.9954 44.3949 74.614 44.6567 75.2921C44.9184 75.9702 45.0492 76.6602 45.0492 77.374C45.0492 78.1235 44.9184 78.8373 44.6448 79.5273C44.3711 80.2054 44.0023 80.824 43.5146 81.3593C43.0268 81.8947 42.4558 82.3111 41.7896 82.6204C41.1234 82.9297 40.4096 83.0843 39.6363 83.0843V83.0724ZM36.0436 77.3502C36.0436 77.8856 36.1269 78.3971 36.2934 78.8849C36.46 79.3845 36.6979 79.8247 37.0191 80.2173C37.3284 80.598 37.7091 80.9073 38.1493 81.1333C38.5894 81.3593 39.0891 81.4664 39.6363 81.4664C40.2074 81.4664 40.7189 81.3474 41.1591 81.1214C41.5993 80.8835 41.9799 80.5742 42.2774 80.1816C42.5748 79.789 42.8127 79.3369 42.9674 78.8492C43.122 78.3614 43.2053 77.8618 43.2053 77.3621C43.2053 76.8387 43.122 76.3271 42.9555 75.8275C42.7889 75.3397 42.551 74.8995 42.2298 74.5069C41.9086 74.1144 41.5398 73.817 41.0996 73.5909C40.6594 73.3649 40.1717 73.2578 39.6363 73.2578C39.0653 73.2578 38.5537 73.3768 38.1136 73.6028C37.6734 73.8407 37.2927 74.1501 36.9834 74.5426C36.6741 74.9352 36.4362 75.3754 36.2815 75.8631C36.115 76.3509 36.0317 76.8506 36.0317 77.3502H36.0436ZM74.9808 83.0724C74.16 83.0724 73.4343 82.9178 72.7681 82.5966C72.1138 82.2754 71.5427 81.8471 71.0669 81.2999C70.591 80.7526 70.2222 80.1459 69.9605 79.4559C69.6988 78.7778 69.5679 78.0759 69.5679 77.3502C69.5679 76.6007 69.7107 75.8869 69.9843 75.1969C70.2579 74.5188 70.6386 73.9002 71.1264 73.3768C71.6141 72.8414 72.1852 72.4132 72.8514 72.1039C73.5176 71.7945 74.2314 71.6399 75.0046 71.6399C75.8136 71.6399 76.5393 71.8064 77.2055 72.1276C77.8717 72.4608 78.4308 72.9009 78.9067 73.4482C79.3825 73.9954 79.7394 74.614 80.0012 75.2921C80.2629 75.9702 80.3937 76.6602 80.3937 77.374C80.3937 78.1235 80.2629 78.8373 79.9893 79.5273C79.7156 80.2054 79.3469 80.824 78.8591 81.3593C78.3713 81.8947 77.8003 82.3111 77.1341 82.6204C76.4679 82.9297 75.7541 83.0843 74.9808 83.0843V83.0724ZM71.3881 77.3502C71.3881 77.8856 71.4714 78.3971 71.6379 78.8849C71.8045 79.3845 72.0424 79.8247 72.3636 80.2173C72.6729 80.598 73.0536 80.9073 73.4938 81.1333C73.9339 81.3593 74.4336 81.4664 74.9927 81.4664C75.5638 81.4664 76.0753 81.3474 76.5155 81.1214C76.9557 80.8835 77.3363 80.5742 77.6338 80.1816C77.9312 79.789 78.1691 79.3369 78.3238 78.8492C78.4784 78.3614 78.5617 77.8618 78.5617 77.3621C78.5617 76.8387 78.4784 76.3271 78.3119 75.8275C78.1453 75.3397 77.9074 74.8995 77.5862 74.5069C77.265 74.1144 76.8843 73.817 76.456 73.5909C76.0158 73.3649 75.5281 73.2578 74.9927 73.2578C74.4217 73.2578 73.9102 73.3768 73.47 73.6028C73.0298 73.8407 72.6491 74.1501 72.3398 74.5426C72.0305 74.9352 71.7926 75.3754 71.6379 75.8631C71.4714 76.3509 71.3881 76.8506 71.3881 77.3502ZM105.638 82.9892V71.7113H113.145V73.2816H107.411V76.6483H112.205V78.1235H107.411V82.9773H105.626L105.638 82.9892ZM138.246 82.9892V71.7113H140.019V82.9892H138.246ZM167.75 75.0185V82.9892H165.965V71.7113H167.429L173.817 79.8604V71.7232H175.613V82.9773H174.055L167.75 75.0066V75.0185ZM206.164 83.0724C205.426 83.0724 204.724 82.9178 204.082 82.6085C203.439 82.2992 202.868 81.8828 202.392 81.3355C201.905 80.8002 201.536 80.1816 201.262 79.4916C200.989 78.8016 200.858 78.0759 200.858 77.3026C200.858 76.5294 200.989 75.8037 201.262 75.1256C201.536 74.4475 201.905 73.8407 202.392 73.3173C202.868 72.782 203.439 72.3775 204.094 72.0801C204.748 71.7827 205.462 71.6399 206.235 71.6399C207.306 71.6399 208.21 71.8659 208.947 72.318C209.685 72.7701 210.232 73.3649 210.613 74.1025L209.245 75.0899C208.947 74.4713 208.531 74.0192 207.984 73.7099C207.436 73.4006 206.842 73.2459 206.199 73.2459C205.676 73.2459 205.188 73.353 204.76 73.579C204.332 73.8051 203.951 74.1025 203.642 74.4951C203.332 74.8876 203.094 75.3159 202.94 75.8156C202.785 76.3033 202.702 76.8268 202.702 77.3621C202.702 77.9331 202.797 78.4685 202.975 78.9681C203.154 79.4678 203.404 79.908 203.737 80.2768C204.07 80.6574 204.45 80.943 204.891 81.1571C205.331 81.3712 205.819 81.4783 206.33 81.4783C206.949 81.4783 207.532 81.3236 208.091 81.0143C208.65 80.705 209.173 80.2292 209.661 79.6106V81.4188C208.674 82.5252 207.52 83.0843 206.199 83.0843L206.164 83.0724ZM209.447 78.6112H207.08V77.2907H210.934V82.9892H209.435V78.6112H209.447Z" fill="#4E4E4E"/>
<path d="M112.943 20.0089L97.263 56.2575H85.2237L70.3174 20.0089H81.8689L91.5288 45.3365L101.534 20.0089H112.943ZM147.764 56.2575H121.591C118.653 56.2575 116.143 55.2701 114.073 53.2953C112.003 51.3086 110.956 48.8222 110.956 45.8005C110.956 42.636 111.896 40.0307 113.775 37.9488C115.667 35.8788 118.022 34.8438 120.866 34.8438H137.759V32.8809C137.759 32.2742 137.652 31.7507 137.449 31.3106C137.235 30.8704 136.902 30.3469 136.438 29.7402C135.784 28.9907 135.118 28.5149 134.416 28.3007C133.714 28.0866 132.738 27.9914 131.489 27.9914H113.407V20.0208H128.943H131.953C135.356 20.0208 137.901 20.3182 139.579 20.9011C141.256 21.4841 142.708 22.3644 143.921 23.5184C145.456 25.053 146.491 26.7423 147.002 28.5625C147.514 30.3707 147.776 32.7025 147.776 35.5338V56.2813L147.764 56.2575ZM137.759 48.8341V41.7676H125.446C124.28 41.7676 123.293 42.1007 122.472 42.7669C121.651 43.445 121.246 44.3253 121.246 45.4317C121.246 46.3953 121.639 47.2043 122.436 47.8586C123.233 48.501 124.137 48.8222 125.16 48.8222H137.759V48.8341ZM186.225 45.1938C186.225 48.275 185.238 50.9041 183.251 53.105C181.264 55.2939 178.766 56.3884 175.732 56.3884H151.725V49.8096H171.402C172.806 49.8096 173.983 49.4646 174.923 48.7627C175.875 48.0608 176.363 47.0615 176.363 45.7529C176.363 42.7193 174.305 41.2085 170.212 41.2085H160.172C158.03 41.2085 155.96 40.1854 153.95 38.1273C151.951 36.0692 150.952 33.8564 150.952 31.4771C150.952 28.1223 151.701 25.4099 153.188 23.3637C154.913 21.032 157.459 19.8661 160.814 19.8661H183.905V26.7185H163.336C162.539 26.7185 161.849 27.0992 161.266 27.8725C160.683 28.6457 160.386 29.5142 160.386 30.5016C160.386 31.5723 160.766 32.5002 161.54 33.2616C162.313 34.0349 163.229 34.4155 164.3 34.4155H175.149C178.552 34.4155 181.252 35.4268 183.227 37.4611C185.214 39.4954 186.201 42.065 186.201 45.1938H186.225ZM211.112 27.5632H201.667V44.0041C201.667 45.4912 202.178 46.7284 203.201 47.7158C204.367 48.6913 205.902 49.191 207.817 49.191H210.684V56.2575H201.655C198.954 56.2575 196.634 55.282 194.731 53.3191C193.613 52.1532 192.887 50.8684 192.566 49.4646C192.245 48.0608 192.078 46.4072 192.078 44.4919V27.5632H185.916V20.0089H192.078V7.33911H201.667V20.0089H211.112V27.5632Z" fill="#4E4E4E"/>
<path fill-rule="evenodd" clip-rule="evenodd" d="M32.4629 0.308594C25.3607 0.308594 18.8057 2.65221 13.5356 6.61374L31.4041 16.6187L31.4279 16.6306L32.0346 16.9756C32.2845 17.1421 32.4629 17.3563 32.4629 17.6894C32.4629 19.7713 32.4629 21.8651 32.4629 23.9469C32.4629 24.5299 31.9157 25.2913 31.4041 25.0057L10.4425 13.2758L4.9939 16.3332C3.6139 18.772 2.54322 21.413 1.84132 24.2087L10.4425 19.3906L31.4041 31.1205L31.4279 31.1324L32.0346 31.4774C32.2845 31.644 32.4629 31.8581 32.4629 32.1912C32.4629 34.2731 32.4629 36.3669 32.4629 38.4488C32.4629 39.0317 31.9157 39.7931 31.4041 39.5076L10.4425 27.7776L0.925293 33.1073C0.996672 35.0821 1.2584 37.0093 1.67477 38.8652L10.4306 33.9638L31.3922 45.6938L31.416 45.7056L32.0228 46.0506C32.2726 46.2172 32.451 46.4194 32.451 46.7644C32.451 48.8463 32.451 50.9401 32.451 53.022C32.451 53.6049 31.9038 54.3663 31.3922 54.0808L10.4306 42.3508L4.16114 45.8603C9.31233 56.2697 20.043 63.4314 32.451 63.4314C39.5532 63.4314 46.1082 61.0878 51.3784 57.1263L33.5098 47.1213L33.486 47.1094L32.8793 46.7644C32.6295 46.5979 32.451 46.3956 32.451 46.0506C32.451 43.9688 32.451 41.875 32.451 39.7931C32.451 39.2102 32.9983 38.4488 33.5098 38.7343L54.4715 50.4643L59.9201 47.4068C61.3 44.9681 62.3707 42.327 63.0607 39.5314L54.4596 44.3494L33.4979 32.6195L33.4741 32.6076L32.8674 32.2626C32.6176 32.0961 32.4391 31.8819 32.4391 31.5488C32.4391 29.4669 32.4391 27.3731 32.4391 25.2912C32.4391 24.7083 32.9864 23.9469 33.4979 24.2325L54.4596 35.9624L63.9768 30.6328C63.9054 28.658 63.6437 26.7307 63.2273 24.8749L54.4715 29.7762L33.5098 18.0463L33.486 18.0344L32.8793 17.6894C32.6295 17.5228 32.451 17.3087 32.451 16.9756C32.451 14.8937 32.451 12.7999 32.451 10.718C32.451 10.1351 32.9983 9.37373 33.5098 9.65925L54.4715 21.3892L60.7409 17.8797C55.5897 7.47029 44.8472 0.308594 32.451 0.308594L32.4629 0.308594Z" fill="#4E4E4E"/>
</g>
<defs>
<clipPath id="clip0_145_264">
<rect width="210.172" height="82.764" fill="white" transform="translate(0.932617 0.308594)"/>
</clipPath>
</defs>
</svg>
