<svg width="231" height="68" viewBox="0 0 231 68" fill="none" xmlns="http://www.w3.org/2000/svg">
<g clip-path="url(#clip0_118_210)">
<path d="M71.2656 47.5178H63.9575L75.3597 33.3168L65.4611 20.6702H72.7692L79.0919 28.7554L85.5708 20.6702H92.6705L82.6157 33.2648L93.8109 47.5178H86.5549L78.9356 37.8783L71.2656 47.5178Z" fill="#1E1E1E"/>
<path d="M100.411 47.5178H95.1245V20.6702H100.411V31.3994C101.311 30.9517 102.364 30.725 103.573 30.725C104.678 30.725 105.966 30.8545 107.435 31.115C108.902 31.374 110.311 31.5035 111.658 31.5035C112.245 31.5035 112.815 31.4613 113.369 31.374C113.921 31.2881 114.474 31.1065 115.027 30.8292V20.6702H120.314V47.5178H115.027V36.2719C114.508 36.5478 113.991 36.7295 113.473 36.8153C112.953 36.9026 112.418 36.9463 111.865 36.9463C110.414 36.9463 109.033 36.8252 107.719 36.583C106.406 36.3423 105.093 36.2198 103.781 36.2198C103.193 36.2198 102.623 36.2635 102.071 36.3493C101.518 36.4352 100.964 36.5999 100.411 36.8421V47.5178Z" fill="#1E1E1E"/>
<path d="M128.23 42.1286H145.075V47.5178H122.944V20.6702H144.089V26.0087H128.23V32.5397C129.404 31.8471 130.709 31.4163 132.142 31.2431C133.576 31.0699 135.071 30.984 136.626 30.984H140.566V36.3226H136.626C135.383 36.3226 134.354 36.3479 133.543 36.4C132.731 36.4521 132.031 36.5295 131.443 36.6323C130.856 36.7351 130.319 36.8914 129.836 37.0983C129.354 37.3053 128.817 37.5643 128.23 37.8754V42.1257V42.1286Z" fill="#1E1E1E"/>
<path d="M168.953 39.4267C169.263 39.98 169.608 40.4136 169.989 40.7261C170.369 41.0373 170.767 41.2724 171.182 41.4273C171.597 41.5835 172.003 41.6863 172.4 41.7384C172.795 41.7905 173.151 41.8158 173.463 41.8158H175.328V47.5176H172.997C172.305 47.5176 171.622 47.4838 170.95 47.4148C170.275 47.3458 169.609 47.1741 168.955 46.8953C168.297 46.6194 167.658 46.1956 167.036 45.6269C166.413 45.0567 165.791 44.2711 165.17 43.2687L161.024 36.5308H160.661C159.625 36.5308 158.752 36.5561 158.044 36.6082C157.336 36.6603 156.713 36.756 156.177 36.894C155.641 37.032 155.141 37.1967 154.675 37.3867C154.207 37.5768 153.699 37.8091 153.146 38.0864V47.519H147.705V20.6714H165.015C166.26 20.6714 167.39 20.8699 168.411 21.2697C169.429 21.6681 170.32 22.2313 171.079 22.9577C171.839 23.6856 172.428 24.543 172.842 25.5299C173.256 26.5168 173.464 27.5994 173.464 28.7764C173.464 30.8543 172.928 32.5353 171.858 33.8164C170.785 35.0976 169.266 36.0338 167.296 36.6209L168.956 39.4267H168.953ZM165.014 31.1922C165.809 31.1922 166.509 30.9768 167.113 30.5432C167.719 30.111 168.02 29.4634 168.02 28.599C168.02 28.0119 167.899 27.5459 167.658 27.1996C167.416 26.8546 167.113 26.5956 166.75 26.4224C166.388 26.2507 165.964 26.1381 165.481 26.086C164.997 26.0339 164.53 26.0085 164.082 26.0085H153.146V32.7465C154.183 32.1594 155.332 31.7539 156.592 31.5273C157.854 31.3034 159.211 31.1908 160.661 31.1908H165.015L165.014 31.1922Z" fill="#1E1E1E"/>
<path d="M177.923 47.5178V20.6702H194.974C196.253 20.6702 197.437 20.8687 198.525 21.2657C199.613 21.6627 200.537 22.2329 201.298 22.9762C202.059 23.7196 202.654 24.6178 203.086 25.6708C203.519 26.7253 203.734 27.8924 203.734 29.1693C203.734 31.8654 202.88 33.9813 201.169 35.5187C199.458 37.0547 197.082 37.8248 194.042 37.8248H191.659C190.414 37.8248 189.387 37.8515 188.574 37.9022C187.762 37.9543 187.054 38.0317 186.45 38.1359C185.845 38.2387 185.301 38.3949 184.817 38.6019C184.333 38.8088 183.798 39.0679 183.209 39.379V47.5164H177.923V47.5178ZM183.209 34.0419C184.385 33.3506 185.698 32.9184 187.148 32.7467C188.6 32.5735 190.103 32.4876 191.658 32.4876H194.041C195.319 32.4876 196.347 32.2891 197.126 31.8921C197.903 31.4951 198.293 30.5701 198.293 29.1186C198.293 28.4626 198.172 27.9262 197.93 27.5123C197.689 27.097 197.368 26.7788 196.971 26.5536C196.574 26.3283 196.125 26.1819 195.623 26.1129C195.122 26.0425 194.596 26.0087 194.042 26.0087H183.21V34.0419H183.209Z" fill="#1E1E1E"/>
<path d="M210.562 20.0475H216.315L230.827 47.516H224.97L222.844 43.4741H219.63C217.972 43.4741 216.329 43.6121 214.707 43.888C213.082 44.1654 211.604 44.5018 210.276 44.8988C208.944 45.2973 207.821 45.7112 206.906 46.1434C205.989 46.5756 205.429 46.9304 205.222 47.2049L205.067 47.516H199.468L212.322 23.4151L210.559 20.0461L210.562 20.0475ZM220.306 38.603L215.071 28.6509L208.697 40.9343C209.56 40.4867 210.89 39.9855 212.687 39.4322C214.483 38.8803 216.781 38.603 219.581 38.603H220.306Z" fill="#1E1E1E"/>
<path d="M6.46243 19.4057L0.577637 25.2891L8.99374 33.7038L17.4084 25.2891L11.525 19.4057C10.1271 18.0077 7.85901 18.0077 6.46243 19.4057Z" fill="#1E1E1E"/>
<path d="M51.156 25.2904L45.2727 19.4056C43.8747 18.009 41.608 18.009 40.2115 19.4056L34.3267 25.2904L42.7428 33.7051L51.1575 25.2904H51.156Z" fill="#1E1E1E"/>
<path d="M17.4521 59.0365L25.8668 67.4526L34.2829 59.0365L25.8668 50.6218L17.4521 59.0365Z" fill="#1E1E1E"/>
<path d="M0.579102 42.1634L6.46249 48.0468C7.85907 49.4448 10.1271 49.4448 11.5251 48.0468L17.4085 42.1634L8.9938 33.7473L0.579102 42.1634Z" fill="#1E1E1E"/>
<path d="M34.3251 42.1634L40.2099 48.0468C41.6079 49.4448 43.8746 49.4448 45.2711 48.0468L51.1545 42.1634L42.7398 33.7473L34.3237 42.1634H34.3251Z" fill="#1E1E1E"/>
<path d="M17.4521 8.41591L25.8668 16.832L34.2829 8.41591L25.8668 0.0012207L17.4521 8.41591Z" fill="#1E1E1E"/>
<path d="M17.4521 25.2906L23.3355 31.174C24.7335 32.572 27.0001 32.572 28.3967 31.174L34.2815 25.2906L25.8654 16.8745L17.4507 25.2906H17.4521Z" fill="#1E1E1E"/>
<path d="M23.3355 36.279L17.4521 42.1638L25.8668 50.5785L34.2829 42.1638L28.3981 36.279C27.0002 34.881 24.7335 34.881 23.3369 36.279H23.3355Z" fill="#1E1E1E"/>
</g>
<defs>
<clipPath id="clip0_118_210">
<rect width="230.25" height="67.4503" fill="white" transform="translate(0.577637 0.0012207)"/>
</clipPath>
</defs>
</svg>
