<svg width="215" height="117" viewBox="0 0 215 117" fill="none" xmlns="http://www.w3.org/2000/svg">
<g clip-path="url(#clip0_118_71)">
<path fill-rule="evenodd" clip-rule="evenodd" d="M82.9953 0H131.916C137.259 0 141.628 4.3694 141.628 9.71886V58.633C141.628 63.9757 137.259 68.3451 131.916 68.3451H82.9953C77.6526 68.3451 73.2832 63.9757 73.2832 58.633V9.71886C73.2832 4.37621 77.6526 0 82.9953 0ZM110.621 26.4818C111.478 28.4624 111.675 30.3748 111.226 32.2124C110.505 34.2066 109.532 35.3295 108.674 36.3981C108.17 37.031 108.055 37.6708 108.136 38.2901C108.266 39.2702 108.504 39.4471 109.15 40.1005C112.37 43.3537 115.589 46.6002 118.808 49.8534C119.312 50.3638 119.645 50.8062 120.333 51.0717C120.945 51.3099 121.578 51.3099 122.204 51.058C123.776 50.4319 125.314 48.1791 124.028 46.675C120.537 42.5983 115.868 39.7602 115.677 34.0228C115.732 31.7769 116.174 29.6398 117.821 27.9179C119.659 25.9918 121.571 24.1338 123.443 22.2418C124.042 21.636 124.083 21.602 124.239 20.724C124.505 19.1859 124.035 17.8587 122.306 17.1782C121.782 16.9672 121.211 17.008 120.666 17.1101C119.101 17.4164 112.193 24.9233 110.621 26.475V26.4818ZM103.168 25.6583C100.493 22.9224 97.7097 20.2885 94.9941 17.5865C94.5721 17.1645 93.9256 17.0897 93.2382 17.1101C91.0467 17.2054 90.2912 18.7163 90.4409 20.5675C90.72 24.0794 100.18 27.0195 98.9619 35.3636C98.6625 37.7593 97.7233 39.5424 96.4029 40.9649C94.647 42.8501 92.6324 44.4835 90.8289 46.3279C90.332 46.8384 90.1074 47.8388 90.4069 48.9686C90.7608 50.3298 92.1016 51.2486 93.558 51.1057C94.7627 50.9832 94.8852 50.7041 95.6951 49.9214L101.936 43.8778L105.325 47.6415C102.984 50.0848 100.697 52.5894 98.0636 54.6992C94.1366 57.8572 88.3924 55.9311 86.2008 51.7454C84.724 48.921 85.2208 44.8102 87.6029 42.5642C89.4064 40.8696 91.21 39.1681 92.8707 37.3373C94.2318 35.8332 94.647 33.1448 93.3743 31.5795C90.4273 27.9383 85.4182 25.495 85.3705 20.3225C85.2957 13.0402 93.8575 9.39217 99.03 14.3537C101.092 16.3342 103.073 18.4032 105.053 20.4722C103.256 22.0104 102.896 23.8003 103.188 25.6583H103.168ZM110.076 20.1796H110.083C112.329 17.8792 114.568 15.5651 116.977 13.4417C119.278 11.4135 123.633 11.8899 125.954 13.6118C129.35 16.13 130.752 20.6219 128.357 24.127C126.111 27.4211 122.871 28.8367 120.911 32.5663C119.393 35.4521 122.64 38.12 124.539 40.0324C126.648 42.1491 128.751 44.0888 129.112 46.5457C129.514 49.3021 129.112 51.4936 127.635 53.2019C124.579 56.7206 119.387 57.3399 115.936 54.1547C113.445 51.8611 111.111 49.3974 108.742 46.9745L104.08 41.7952L104.114 41.7611C100.915 34.7987 107.66 31.8585 106.496 29.3267C105.074 24.3244 107.17 23.1606 110.076 20.1796Z" fill="#1E1E1E"/>
<path d="M20.9183 77.7986C19.6592 77.7986 18.7881 78.3226 18.2708 79.3163L13.1051 88.1776L7.1159 77.7986H0.126221L9.37547 92.2135L0.126221 107.323H7.1159L13.1051 97.073L19.142 107.323H26.1793L16.93 92.2135L26.1793 77.7986H20.9251H20.9183ZM37.2185 89.0896C39.7775 89.0896 41.0843 90.2602 41.2136 92.6491V107.323H47.0326V92.7308C47.0735 90.3419 48.3802 89.1713 50.9392 89.1713C53.4983 89.1713 54.805 90.3419 54.9343 92.7308V104.539C54.9343 106.363 55.8872 107.275 57.7996 107.404H60.7942V93.9014C60.8351 87.3473 57.5818 84.0873 51.0209 84.0873C48.0671 84.0873 45.8076 84.693 44.1605 85.9521C42.5135 84.6522 40.2539 83.9988 37.3002 83.9988C30.7461 83.9988 27.4452 87.252 27.4452 93.8129V107.316H33.3051V92.6423C33.3459 90.2534 34.6527 89.0828 37.2117 89.0828L37.2185 89.0896ZM70.9759 103.069C69.1519 103.069 68.1991 102.198 68.0629 100.374C68.0629 98.6792 69.2336 97.597 71.534 97.1614C73.2286 96.8143 74.794 96.3379 76.1348 95.773V97.9033C76.1348 101.163 74.1815 103.069 70.9691 103.069H70.9759ZM72.3235 88.7425C74.7123 88.7425 75.9306 89.3959 76.0599 90.6958C76.0599 91.9549 74.8008 92.6899 72.3235 92.9962C66.5044 93.5611 62.5093 95.038 62.38 100.551C62.38 105.635 66.1981 108.194 71.7177 107.758C77.9247 107.323 81.7497 104.505 81.7497 98.1619V90.3487C81.6203 86.095 78.408 84.0124 72.0648 84.0124C66.7698 84.0124 63.7684 86.095 63.0742 90.3487H68.8524C69.1587 89.2598 70.2885 88.7425 72.3235 88.7425ZM83.2878 107.329H89.1477V95.3919C89.1477 92.0502 90.7539 90.3555 93.9663 90.3555H95.9196V84.3663H95.0961C87.4122 84.3663 83.4579 88.0551 83.2878 95.4804V107.336V107.329ZM107.054 85.6186V84.3595H103.583V80.7115C103.583 79.1938 102.324 77.7986 100.806 77.7986H97.8116V102.899C97.7708 105.458 98.8121 106.805 100.983 107.023C103.154 107.241 105.196 107.241 107.061 107.064V102.681H105.278C104.148 102.681 103.583 102.157 103.583 101.204V88.4839H104.189C105.795 88.4839 107.054 87.2656 107.054 85.6186Z" fill="#1E1E1E"/>
<path d="M107.98 92.5606C107.98 101.204 113.105 107.758 121.571 107.758C125.825 107.758 127.955 106.281 130.038 103.593L130.296 105.022C130.426 106.37 131.814 107.323 133.25 107.323H134.768V91.3832H122.742V93.248C122.742 94.9427 124.089 96.2902 125.784 96.2902H129.343C128.69 99.8497 126.301 102.586 122.224 102.586C116.793 102.198 114.146 98.7199 114.193 92.2543C114.234 85.7819 116.841 82.5695 121.925 82.5695C124.79 82.5695 126.832 83.7401 128.003 86.129C128.697 87.1295 129.568 87.6467 130.65 87.6467H134.387C134.169 84.305 132.91 81.7392 130.65 79.9152C128.173 78.1797 125.178 77.3085 121.748 77.3085C113.023 76.9614 107.85 83.8218 107.98 92.547V92.5606ZM136.394 107.323H142.254V95.385C142.254 92.0433 143.86 90.3487 147.073 90.3487H149.026V84.3594H148.203C140.519 84.3594 136.565 88.0483 136.394 95.4735V107.329V107.323ZM160.726 84.0055C153.777 84.0055 150.306 87.9598 150.306 95.9431C150.306 103.845 153.777 107.84 160.726 107.84C167.674 107.84 171.193 103.845 171.193 95.9431C171.193 87.953 167.674 84.0055 160.726 84.0055ZM160.726 89.0828C163.679 89.0828 165.156 91.2947 165.156 95.773C165.115 100.333 163.639 102.674 160.685 102.674C157.731 102.674 156.213 100.415 156.166 95.9431C156.166 91.3832 157.683 89.0828 160.726 89.0828ZM192.053 84.3526H189.099C187.187 84.3526 186.275 85.3055 186.323 87.2179V99.3325C186.323 101.892 185.023 103.151 182.416 103.151C179.809 103.151 178.509 101.892 178.509 99.3325V84.3526H172.731V98.1619C172.731 102.028 173.732 104.546 175.726 105.805C177.72 107.105 179.85 107.758 182.239 107.758C184.716 107.758 186.969 107.152 189.011 105.975C191.053 104.716 192.053 102.109 192.053 98.1619V84.3526ZM199.104 113.448C199.104 115.36 198.151 116.313 196.239 116.313H193.333V94.3437C193.639 87.4834 197.199 84.094 204.1 84.094C211.219 84.094 214.778 87.9598 214.778 95.6913C214.778 103.505 211.736 107.547 205.617 107.765C202.752 107.765 200.581 106.594 199.104 104.206V113.455V113.448ZM204.011 102.593C207.135 102.593 208.741 100.381 208.871 95.9499C208.871 91.3015 207.224 89.0011 203.923 89.0011C200.622 89.0011 199.057 91.3015 199.104 95.9499C199.281 100.381 200.887 102.593 204.011 102.593Z" fill="#1E1E1E"/>
</g>
<defs>
<clipPath id="clip0_118_71">
<rect width="214.67" height="116.313" fill="white" transform="translate(0.117188)"/>
</clipPath>
</defs>
</svg>
