<svg width="128" height="116" viewBox="0 0 128 116" fill="none" xmlns="http://www.w3.org/2000/svg">
<g clip-path="url(#clip0_145_94)">
<path fill-rule="evenodd" clip-rule="evenodd" d="M67.3183 22.6294H67.3213C70.1133 19.7689 72.8962 16.8903 75.8942 14.2507C76.9811 13.2922 78.4382 12.7846 79.985 12.6383C82.5052 12.4024 85.2643 13.1339 87.0559 14.4627C91.2781 17.595 93.0159 23.1789 90.0449 27.5355C87.2529 31.6293 83.2218 33.385 80.7882 38.0253C78.9011 41.6115 82.9381 44.9319 85.3001 47.3028C87.9218 49.9365 90.5375 52.3462 90.9825 55.4009C91.4871 58.8318 90.9854 61.555 89.1431 63.6751C85.3419 68.0496 78.8891 68.814 74.5952 64.8576C71.4988 62.0029 68.5993 58.9423 65.6522 55.9354L59.8563 49.4975L59.8951 49.4587C55.9148 40.7993 64.3055 37.1474 62.8602 34.0031H62.8632C61.0955 27.7833 63.6963 26.3411 67.3154 22.6324L67.3183 22.6294ZM58.7306 29.4346C55.4042 26.0305 51.9434 22.7608 48.5722 19.4046C48.0467 18.882 47.2464 18.7865 46.3864 18.8133C43.6602 18.9268 42.7226 20.811 42.9048 23.1162C43.2511 27.4787 55.01 31.1366 53.4961 41.507C53.1199 44.484 51.9583 46.6996 50.313 48.4674C48.1273 50.8114 45.628 52.8419 43.3825 55.1351C42.7644 55.7681 42.4927 57.0133 42.857 58.4197C43.2989 60.1128 44.9651 61.2564 46.7716 61.0743C48.2646 60.925 48.4229 60.5756 49.4262 59.6022L57.1809 52.0894L61.3911 56.7655C58.4798 59.7993 55.6431 62.9137 52.3674 65.5413C47.4883 69.4679 40.3487 67.0702 37.6255 61.8656C35.7861 58.351 36.4042 53.242 39.3663 50.4531C41.6058 48.3449 43.8513 46.2308 45.9147 43.9525C47.6077 42.0833 48.1183 38.7449 46.5417 36.7921C42.8779 32.2653 36.655 29.2285 36.5894 22.8026C36.4968 13.752 47.1419 9.2163 53.5678 15.3824C56.1358 17.8429 58.5932 20.4168 61.0537 22.9848C58.8172 24.8958 58.3693 27.1204 58.7336 29.4346H58.7306ZM67.9902 30.4558C69.0592 32.9162 69.3011 35.2961 68.7486 37.5804C67.8499 40.0588 66.6405 41.4502 65.5805 42.785C64.9534 43.5733 64.8131 44.3676 64.9116 45.138C65.0699 46.3592 65.3655 46.5802 66.1687 47.3894C70.17 51.4325 74.1742 55.4666 78.1725 59.5096C78.8025 60.1426 79.2116 60.698 80.0656 61.0265C80.827 61.3221 81.6154 61.3221 82.3947 61.0116C84.3446 60.2322 86.2586 57.4314 84.6611 55.5621C80.3254 50.4919 74.5176 46.9654 74.2817 39.8318C74.3504 37.0429 74.9028 34.3824 76.9423 32.2444C79.2295 29.8496 81.6034 27.5444 83.9325 25.1914C84.673 24.4419 84.7327 24.3972 84.9238 23.3013C85.2493 21.3932 84.67 19.736 82.5231 18.8969C81.8692 18.6401 81.1615 18.6849 80.4807 18.8163C78.5368 19.1926 69.952 28.5268 67.9932 30.4558H67.9902Z" fill="#4E4E4E"/>
<path d="M86.9214 10.3417C86.8707 10.8821 87.217 11.3868 87.7456 11.5182C90.006 12.0765 91.7946 13.8443 92.3739 16.1017C92.5082 16.6272 93.0159 16.9676 93.5563 16.9139C94.2282 16.8452 94.688 16.1942 94.5208 15.5433C93.7355 12.5035 91.3288 10.1207 88.283 9.36824C87.6291 9.20699 86.9841 9.67281 86.9214 10.3447V10.3417Z" fill="#4E4E4E"/>
<path d="M87.3126 6.14037C87.2559 6.73757 87.6859 7.27505 88.2801 7.34373C92.583 7.83344 96.0109 11.2255 96.5424 15.5224C96.617 16.1166 97.1575 16.5406 97.7547 16.4779C98.3728 16.4152 98.8207 15.8538 98.7431 15.2357C98.0802 9.9326 93.852 5.7492 88.5459 5.14006C87.9278 5.06839 87.3694 5.51928 87.3126 6.14037Z" fill="#4E4E4E"/>
<path d="M101.839 15.9464C101.845 15.9464 101.854 15.9464 101.86 15.9464C102.499 15.9435 103.004 15.397 102.95 14.758C102.341 7.34973 96.396 1.46132 88.9787 0.926825C88.3427 0.882035 87.7993 1.38966 87.8023 2.02866C87.8023 2.03463 87.8023 2.04359 87.8023 2.04956C87.8052 2.62586 88.2531 3.09765 88.8294 3.13946C95.1478 3.60229 100.212 8.61579 100.738 14.9282C100.785 15.5015 101.263 15.9464 101.839 15.9435V15.9464Z" fill="#4E4E4E"/>
<path d="M17.9178 114.219L20.7098 108.014H21.8444L24.6453 114.219H23.439L21.0352 108.626H21.4951L19.1003 114.219H17.9119H17.9178ZM19.2018 112.783L19.5124 111.878H22.8627L23.1732 112.783H19.2018ZM28.0135 109.433C28.3927 109.433 28.7302 109.507 29.0288 109.654C29.3274 109.8 29.5633 110.027 29.7335 110.331C29.9037 110.636 29.9903 111.027 29.9903 111.505V114.216H28.8825V111.645C28.8825 111.227 28.7839 110.914 28.5839 110.705C28.3868 110.499 28.1091 110.394 27.7537 110.394C27.494 110.394 27.264 110.448 27.064 110.555C26.8639 110.663 26.7086 110.821 26.5982 111.03C26.4877 111.239 26.4339 111.505 26.4339 111.824V114.219H25.3261V109.486H26.3802V110.764L26.195 110.373C26.3593 110.072 26.6011 109.839 26.9177 109.677C27.2342 109.513 27.5985 109.433 28.0135 109.433ZM31.7012 116.002C31.4713 116.002 31.2414 115.963 31.0115 115.888C30.7816 115.811 30.5904 115.706 30.4352 115.569L30.8771 114.754C30.9876 114.855 31.116 114.933 31.2593 114.992C31.4026 115.052 31.546 115.082 31.6953 115.082C31.8953 115.082 32.0596 115.031 32.182 114.933C32.3074 114.831 32.4209 114.664 32.5284 114.428L32.8031 113.807L32.8927 113.673L34.6843 109.489H35.7473L33.5317 114.604C33.3824 114.96 33.2211 115.24 33.039 115.446C32.8598 115.652 32.6568 115.799 32.4358 115.882C32.2148 115.966 31.97 116.005 31.7042 116.005L31.7012 116.002ZM32.6777 114.389L30.5427 109.486H31.6953L33.4331 113.574L32.6807 114.389H32.6777ZM38.3511 114.282C37.8315 114.282 37.4284 114.147 37.1447 113.879C36.8611 113.61 36.7177 113.213 36.7177 112.687V108.441H37.8255V112.66C37.8255 112.884 37.8823 113.061 37.9987 113.183C38.1152 113.308 38.2764 113.368 38.4825 113.368C38.7303 113.368 38.9363 113.302 39.1036 113.174L39.4141 113.962C39.2827 114.07 39.1245 114.147 38.9363 114.201C38.7482 114.255 38.5511 114.282 38.3511 114.282ZM35.9414 110.409V109.522H39.0976V110.409H35.9414ZM40.3308 114.222V109.489H41.4386V114.222H40.3308ZM40.8892 108.707C40.6831 108.707 40.5129 108.641 40.3786 108.513C40.2442 108.381 40.1785 108.226 40.1785 108.044C40.1785 107.856 40.2442 107.698 40.3786 107.569C40.5129 107.441 40.6831 107.378 40.8892 107.378C41.0952 107.378 41.2654 107.438 41.3998 107.56C41.5342 107.68 41.5999 107.835 41.5999 108.017C41.5999 108.211 41.5342 108.375 41.4058 108.51C41.2774 108.644 41.1042 108.71 40.8922 108.71L40.8892 108.707ZM48.8678 109.433C49.247 109.433 49.5814 109.507 49.8741 109.654C50.1667 109.8 50.3966 110.027 50.5609 110.331C50.7251 110.636 50.8087 111.027 50.8087 111.505V114.216H49.7009V111.645C49.7009 111.227 49.6083 110.914 49.4262 110.705C49.244 110.499 48.9813 110.394 48.6379 110.394C48.396 110.394 48.181 110.448 47.9959 110.555C47.8107 110.663 47.6644 110.818 47.5629 111.024C47.4584 111.23 47.4076 111.493 47.4076 111.812V114.216H46.2998V111.645C46.2998 111.227 46.2073 110.914 46.0251 110.705C45.843 110.499 45.5802 110.394 45.2368 110.394C44.9949 110.394 44.78 110.448 44.5948 110.555C44.4097 110.663 44.2634 110.818 44.1589 111.024C44.0543 111.23 44.0036 111.493 44.0036 111.812V114.216H42.8958V109.483H43.9498V110.743L43.7647 110.37C43.923 110.063 44.1559 109.83 44.4604 109.668C44.765 109.51 45.1114 109.43 45.5026 109.43C45.9445 109.43 46.3327 109.54 46.6611 109.758C46.9896 109.976 47.2076 110.307 47.3121 110.752L46.8761 110.603C47.0314 110.248 47.2852 109.964 47.6376 109.752C47.9929 109.54 48.402 109.433 48.8708 109.433H48.8678ZM54.4606 114.282C53.935 114.282 53.4752 114.177 53.081 113.968C52.6869 113.759 52.3823 113.47 52.1673 113.105C51.9523 112.738 51.8448 112.323 51.8448 111.857C51.8448 111.385 51.9494 110.967 52.1584 110.603C52.3674 110.239 52.657 109.955 53.0273 109.746C53.3976 109.54 53.8186 109.436 54.2904 109.436C54.7502 109.436 55.1623 109.537 55.5236 109.737C55.8819 109.937 56.1686 110.221 56.3746 110.588C56.5806 110.955 56.6852 111.385 56.6852 111.881C56.6852 111.929 56.6852 111.983 56.6822 112.042C56.6792 112.102 56.6762 112.156 56.6702 112.21H52.7257V111.475H56.085L55.649 111.705C55.655 111.433 55.5983 111.194 55.4818 110.985C55.3653 110.779 55.2041 110.615 54.9981 110.499C54.795 110.379 54.5591 110.322 54.2934 110.322C54.0216 110.322 53.7828 110.382 53.5797 110.499C53.3767 110.615 53.2154 110.779 53.1019 110.991C52.9855 111.2 52.9288 111.448 52.9288 111.732V111.908C52.9288 112.192 52.9945 112.442 53.1229 112.66C53.2542 112.878 53.4364 113.049 53.6723 113.165C53.9082 113.282 54.1799 113.341 54.4875 113.341C54.7532 113.341 54.9921 113.299 55.2041 113.216C55.4161 113.132 55.6072 113.004 55.7714 112.825L56.3657 113.508C56.1536 113.756 55.8849 113.947 55.5624 114.082C55.2399 114.216 54.8727 114.282 54.4576 114.282H54.4606ZM58.1035 114.282C57.9034 114.282 57.7303 114.213 57.5899 114.073C57.4496 113.935 57.3779 113.759 57.3779 113.544C57.3779 113.32 57.4496 113.141 57.5899 113.007C57.7303 112.872 57.9034 112.807 58.1035 112.807C58.3036 112.807 58.4768 112.872 58.6171 113.007C58.7574 113.141 58.8291 113.317 58.8291 113.544C58.8291 113.756 58.7574 113.932 58.6171 114.073C58.4768 114.21 58.3036 114.282 58.1035 114.282Z" fill="#4E4E4E"/>
<path d="M61.6268 114.219L64.4187 108.014H65.5534L68.3543 114.219H67.1479L64.7442 108.626H65.2041L62.8093 114.219H61.6208H61.6268ZM62.9108 112.783L63.2213 111.878H66.5716L66.8822 112.783H62.9108ZM71.7225 109.433C72.1017 109.433 72.4391 109.507 72.7378 109.654C73.0364 109.8 73.2722 110.027 73.4424 110.331C73.6127 110.636 73.6992 111.027 73.6992 111.505V114.216H72.5914V111.645C72.5914 111.227 72.4929 110.914 72.2958 110.705C72.0987 110.499 71.821 110.394 71.4657 110.394C71.2059 110.394 70.976 110.448 70.7759 110.555C70.5759 110.663 70.4206 110.821 70.3101 111.03C70.1996 111.239 70.1459 111.505 70.1459 111.824V114.219H69.0381V109.486H70.0921V110.764L69.907 110.373C70.0742 110.072 70.3131 109.839 70.6296 109.678C70.9461 109.513 71.3104 109.433 71.7255 109.433H71.7225ZM75.4102 116.002C75.1803 116.002 74.9474 115.963 74.7175 115.888C74.4875 115.811 74.2964 115.706 74.1412 115.569L74.5831 114.754C74.6966 114.855 74.822 114.933 74.9653 114.993C75.1057 115.052 75.252 115.082 75.3983 115.082C75.5983 115.082 75.7626 115.031 75.885 114.933C76.0104 114.831 76.1239 114.664 76.2314 114.428L76.5061 113.807L76.5957 113.673L78.3873 109.489H79.4503L77.2347 114.604C77.0884 114.96 76.9241 115.24 76.742 115.446C76.5628 115.653 76.3598 115.799 76.1388 115.882C75.9178 115.966 75.673 116.005 75.4072 116.005L75.4102 116.002ZM76.3837 114.389L74.2487 109.486H75.4013L77.1391 113.574L76.3867 114.389H76.3837ZM81.0986 114.222L79.3607 109.489H80.4058L81.8958 113.664H81.4002L82.9588 109.489H83.8905L85.4074 113.664H84.9207L86.4525 109.489H87.4379L85.691 114.222H84.628L83.2455 110.526H83.574L82.1646 114.222H81.1016H81.0986ZM90.8837 109.436C91.2629 109.436 91.6004 109.51 91.899 109.657C92.1976 109.803 92.4334 110.03 92.6036 110.334C92.7738 110.639 92.8604 111.03 92.8604 111.508V114.219H91.7526V111.648C91.7526 111.23 91.6541 110.917 91.454 110.708C91.257 110.502 90.9793 110.397 90.6239 110.397C90.3641 110.397 90.1342 110.451 89.9312 110.558C89.7311 110.666 89.5758 110.824 89.4654 111.033C89.3549 111.242 89.3011 111.508 89.3011 111.827V114.222H88.1933V107.644H89.3011V110.764L89.0622 110.373C89.2295 110.072 89.4683 109.839 89.7849 109.678C90.1014 109.513 90.4657 109.433 90.8807 109.433L90.8837 109.436ZM96.5034 114.285C95.9778 114.285 95.518 114.18 95.1238 113.971C94.7297 113.762 94.4281 113.473 94.2101 113.108C93.9951 112.741 93.8876 112.326 93.8876 111.86C93.8876 111.388 93.9921 110.97 94.2012 110.606C94.4102 110.242 94.6998 109.958 95.0701 109.749C95.4404 109.543 95.8614 109.439 96.3332 109.439C96.793 109.439 97.2051 109.54 97.5664 109.74C97.9277 109.94 98.2114 110.224 98.4174 110.591C98.6234 110.959 98.7279 111.388 98.7279 111.884C98.7279 111.932 98.7279 111.986 98.725 112.045C98.722 112.105 98.716 112.159 98.71 112.213H94.7655V111.478H98.1248L97.6918 111.708C97.6978 111.436 97.641 111.197 97.5246 110.988C97.4051 110.782 97.2469 110.618 97.0409 110.502C96.8378 110.382 96.6019 110.325 96.3362 110.325C96.0644 110.325 95.8256 110.385 95.6225 110.502C95.4195 110.618 95.2582 110.782 95.1447 110.994C95.0313 111.203 94.9716 111.451 94.9716 111.735V111.911C94.9716 112.195 95.0372 112.446 95.1656 112.664C95.297 112.881 95.4792 113.052 95.7151 113.168C95.951 113.285 96.2227 113.344 96.5303 113.344C96.796 113.344 97.0349 113.303 97.2499 113.219C97.4619 113.135 97.653 113.007 97.8172 112.828L98.4114 113.512C98.1994 113.759 97.9307 113.95 97.6082 114.085C97.2857 114.219 96.9184 114.285 96.5034 114.285ZM99.791 114.222V109.489H100.845V110.791L100.723 110.409C100.863 110.09 101.087 109.848 101.391 109.683C101.696 109.516 102.075 109.436 102.529 109.436V110.49C102.481 110.478 102.437 110.472 102.395 110.469C102.353 110.466 102.311 110.466 102.269 110.466C101.851 110.466 101.517 110.588 101.269 110.833C101.021 111.078 100.896 111.442 100.896 111.929V114.225H99.788L99.791 114.222ZM105.65 114.285C105.124 114.285 104.664 114.18 104.27 113.971C103.876 113.762 103.574 113.473 103.356 113.108C103.141 112.741 103.034 112.326 103.034 111.86C103.034 111.388 103.138 110.97 103.347 110.606C103.556 110.242 103.846 109.958 104.216 109.749C104.586 109.543 105.008 109.439 105.479 109.439C105.939 109.439 106.351 109.54 106.713 109.74C107.074 109.94 107.358 110.224 107.564 110.591C107.77 110.959 107.874 111.388 107.874 111.884C107.874 111.932 107.874 111.986 107.871 112.045C107.868 112.105 107.865 112.159 107.856 112.213H103.912V111.478H107.271L106.838 111.708C106.844 111.436 106.787 111.197 106.671 110.988C106.554 110.782 106.393 110.618 106.187 110.502C105.984 110.382 105.748 110.325 105.482 110.325C105.211 110.325 104.972 110.385 104.769 110.502C104.566 110.618 104.404 110.782 104.291 110.994C104.174 111.203 104.118 111.451 104.118 111.735V111.911C104.118 112.195 104.183 112.446 104.312 112.664C104.443 112.881 104.625 113.052 104.861 113.168C105.097 113.285 105.369 113.344 105.676 113.344C105.942 113.344 106.181 113.303 106.396 113.219C106.608 113.135 106.799 113.007 106.963 112.828L107.558 113.512C107.346 113.759 107.077 113.95 106.754 114.085C106.432 114.219 106.065 114.285 105.65 114.285ZM109.292 114.285C109.092 114.285 108.919 114.216 108.779 114.076C108.639 113.939 108.567 113.762 108.567 113.547C108.567 113.323 108.639 113.144 108.779 113.01C108.919 112.876 109.092 112.81 109.292 112.81C109.493 112.81 109.666 112.876 109.806 113.01C109.946 113.144 110.018 113.32 110.018 113.547C110.018 113.759 109.946 113.936 109.806 114.076C109.663 114.213 109.493 114.285 109.292 114.285Z" fill="#4E4E4E"/>
<path d="M20.2259 76.6285C19.0554 76.6285 18.2492 77.1122 17.7654 78.0409L12.9669 86.2673L7.401 76.6285H0.909424L9.50016 90.0177L0.909424 104.052H7.401L12.9669 94.5356L18.5717 104.052H25.105L16.5143 90.0177L25.105 76.6285H20.2259ZM35.2366 87.1153C37.6164 87.1153 38.8257 88.2022 38.9452 90.4208V104.052H44.3498V90.5015C44.3887 88.2829 45.601 87.196 47.9778 87.196C50.3577 87.196 51.567 88.2829 51.6865 90.5015V101.469C51.6865 103.162 52.5733 104.01 54.347 104.13H57.13V91.5884C57.1718 85.4999 54.1469 82.4751 48.0555 82.4751C45.3143 82.4751 43.2152 83.0394 41.6833 84.2099C40.1515 83.0006 38.0553 82.3945 35.3112 82.3945C29.2227 82.3945 26.1561 85.4193 26.1561 91.5077V104.049H31.5996V90.4178C31.6384 88.1992 32.8507 87.1123 35.2276 87.1123L35.2366 87.1153ZM66.4612 100.098C64.7682 100.098 63.8813 99.2923 63.7589 97.5992C63.7589 96.0256 64.8488 95.0193 66.9868 94.6162C68.5604 94.2937 70.0116 93.8488 71.2627 93.3262V95.303C71.2627 98.3278 69.4472 100.101 66.4642 100.101L66.4612 100.098ZM67.7094 86.7899C69.928 86.7899 71.0567 87.396 71.1791 88.6054C71.1791 89.7759 70.0086 90.4597 67.7094 90.7433C62.3047 91.2689 58.5961 92.6394 58.4737 97.7604C58.4737 102.478 62.024 104.858 67.145 104.455C72.911 104.052 76.4614 101.43 76.4614 95.5418V88.2829C76.3389 84.3324 73.3559 82.3945 67.4675 82.3945C62.5466 82.3945 59.7636 84.3294 59.1186 88.2829H64.4815C64.7622 87.2736 65.8133 86.7899 67.7064 86.7899H67.7094ZM77.7603 104.049H83.2038V92.9589C83.2038 89.8535 84.6968 88.2799 87.6798 88.2799H89.4953V82.714H88.7279C81.5913 82.714 77.9215 86.1419 77.7603 93.0366V104.046V104.049ZM99.7074 83.8845V82.714H96.4825V79.3278C96.4825 77.9154 95.312 76.6255 93.9026 76.6255H91.1197V99.9343C91.0779 102.314 92.0483 103.562 94.0639 103.765C96.0794 103.968 97.9755 103.968 99.7104 103.807V99.7342H98.0562C97.0081 99.7342 96.4825 99.2505 96.4825 98.3636V86.548H97.0469C98.5399 86.548 99.7074 85.4193 99.7074 83.8875V83.8845Z" fill="#4E4E4E"/>
<path d="M116.94 89.0891V87.2736H106.211V81.3852H120.526V76.6255H103.509C101.935 76.6255 100.687 77.9961 100.687 79.5697V104.049H106.211V91.9109H113.996C115.569 91.9109 116.94 90.6597 116.94 89.0891ZM121.667 76.6285V80.8238H127.03V79.2502C127.068 77.5153 126.223 76.6285 124.45 76.6285H121.667ZM121.667 82.7169V104.049H127.03V85.2968C127.03 83.562 126.182 82.7169 124.45 82.7169H121.667Z" fill="#4E4E4E"/>
</g>
<defs>
<clipPath id="clip0_145_94">
<rect width="126.126" height="115.077" fill="white" transform="translate(0.909424 0.923096)"/>
</clipPath>
</defs>
</svg>
