<svg width="197" height="97" viewBox="0 0 197 97" fill="none" xmlns="http://www.w3.org/2000/svg">
<g clip-path="url(#clip0_118_51)">
<path fill-rule="evenodd" clip-rule="evenodd" d="M123.216 71.032V69.5909H119.232V65.4105C119.232 63.6673 117.786 62.071 116.043 62.071H112.61V90.8482C112.561 93.7835 113.753 95.3266 116.243 95.5797C118.734 95.8288 121.073 95.8288 123.216 95.6287V90.5992H121.175C119.881 90.5992 119.236 90.0031 119.236 88.909V74.3225H119.93C121.771 74.3225 123.216 72.9263 123.216 71.0361V71.032ZM94.541 95.9267H101.261V82.2342C101.261 78.4008 103.102 76.4617 106.784 76.4617H109.026V69.5909H108.078C99.2685 69.5909 94.737 73.8203 94.5369 82.3322V95.9227L94.541 95.9267ZM80.5505 74.6205C83.2898 74.6205 84.6819 75.3676 84.833 76.8577C84.833 78.3028 83.3878 79.152 80.5505 79.4949C73.8798 80.144 69.2993 81.8341 69.1523 88.1578C69.1523 93.9835 73.5328 96.9188 79.8565 96.4207C86.9763 95.9227 91.3567 92.6894 91.3567 85.4185V76.4576C91.2097 71.5791 87.5233 69.1908 80.2566 69.1908C74.1819 69.1908 70.7485 71.5791 69.9484 76.4576H76.5701C76.9212 75.2124 78.2153 74.6164 80.5546 74.6164L80.5505 74.6205ZM79.0073 91.0482C76.9171 91.0482 75.8189 90.0521 75.672 87.9619C75.672 86.0186 77.0151 84.7735 79.6564 84.2754C81.5956 83.8794 83.3878 83.3283 84.931 82.6833V85.1246C84.931 88.8559 82.6938 91.0482 79.0073 91.0482ZM38.881 75.0165C41.8163 75.0165 43.3105 76.3596 43.4615 79.0989V95.9267H50.1322V79.1969C50.1812 76.4576 51.6754 75.1144 54.6107 75.1144C57.5459 75.1144 59.0401 76.4576 59.1912 79.1969V92.7383C59.1912 94.8286 60.2852 95.8737 62.4775 96.0247H65.9109V80.54C65.9598 73.0242 62.2244 69.2929 54.7086 69.2929C51.3243 69.2929 48.7319 69.991 46.8418 71.4321C44.9516 69.9379 42.3633 69.1949 38.9749 69.1949C31.4591 69.1949 27.6747 72.9263 27.6747 80.4461V95.9308H34.3944V79.103C34.4434 76.3637 35.9376 75.0206 38.8728 75.0206L38.881 75.0165ZM20.608 67.2517C19.2649 67.2517 18.3177 67.8477 17.7217 68.9908L12.6431 77.5557L8.11572 69.5909H0.497882L8.56479 82.4343L0.00390625 95.9267H8.1198L12.8473 87.5618L17.5257 95.9267H25.4906L16.7256 82.4833L26.6867 67.2517H20.6121H20.608Z" fill="#1E1E1E"/>
<path fill-rule="evenodd" clip-rule="evenodd" d="M193.308 62.071H189.87V95.9267H196.492V65.3084C196.492 63.5652 195.051 62.071 193.308 62.071ZM181.954 62.071H178.517V95.9267H185.139V65.3084C185.139 63.5652 183.698 62.071 181.954 62.071ZM163.534 74.6164C166.274 74.6164 167.666 75.3635 167.817 76.8536C167.817 78.2987 166.372 79.1479 163.534 79.4908C156.864 80.1399 152.283 81.8301 152.136 88.1538C152.136 93.9794 156.517 96.9147 162.84 96.4166C169.96 95.9186 174.341 92.6853 174.341 85.4144V76.4535C174.194 71.575 170.507 69.1867 163.241 69.1867C157.166 69.1867 153.733 71.575 152.932 76.4535H159.554C159.901 75.2083 161.199 74.6123 163.539 74.6123L163.534 74.6164ZM161.991 91.0441C159.901 91.0441 158.803 90.048 158.656 87.9578C158.656 86.0146 159.999 84.7694 162.64 84.2714C164.58 83.8754 166.372 83.3242 167.919 82.6792V85.1205C167.919 88.8519 165.678 91.0441 161.995 91.0441H161.991ZM149.246 87.8598H144.269C143.424 87.8598 142.677 88.1579 142.028 88.807C140.934 90.0521 139.591 90.6971 138.044 90.6971C134.357 90.7461 132.516 88.1048 132.516 82.8793C132.516 77.6537 134.259 75.0124 137.742 75.0124C139.832 75.0124 141.228 75.9595 142.024 77.7517H149.242C148.095 72.024 144.314 69.1908 137.942 69.1908C129.83 69.3378 125.796 73.8693 125.796 82.8793C125.996 91.9423 130.079 96.5187 138.044 96.5187C144.167 96.6697 148.05 93.2323 149.246 87.8558V87.8598Z" fill="#1E1E1E"/>
<path fill-rule="evenodd" clip-rule="evenodd" d="M79.0481 0.540527H117.443C121.636 0.540527 125.069 3.97386 125.069 8.17061V46.5619C125.069 50.7546 121.636 54.1879 117.443 54.1879H79.0481C74.8555 54.1879 71.4221 50.7587 71.4221 46.5619V8.17061C71.4221 3.97386 74.8555 0.540527 79.0481 0.540527ZM100.73 21.3242C101.404 22.8797 101.559 24.382 101.208 25.8231C100.64 27.3867 99.8767 28.2685 99.2031 29.1095C98.8071 29.6075 98.7214 30.1097 98.7826 30.5955C98.8806 31.367 99.0684 31.5059 99.5787 32.0162C102.106 34.5677 104.633 37.1151 107.156 39.6667C107.552 40.0667 107.813 40.4178 108.352 40.626C108.834 40.8138 109.328 40.8138 109.822 40.6179C111.054 40.1239 112.259 38.3562 111.25 37.1764C108.511 33.9757 104.845 31.7467 104.698 27.2438C104.743 25.4843 105.09 23.8023 106.38 22.4551C107.821 20.9446 109.324 19.4871 110.793 18.0011C111.263 17.5276 111.295 17.499 111.418 16.8091C111.626 15.6047 111.259 14.5596 109.903 14.0289C109.491 13.8656 109.042 13.8942 108.613 13.9799C107.384 14.2167 101.963 20.1118 100.73 21.3283V21.3242ZM94.8839 20.6792C92.7815 18.5319 90.5974 16.4661 88.4704 14.3473C88.1397 14.0167 87.6335 13.9595 87.0905 13.9758C85.3677 14.0493 84.7758 15.2373 84.8942 16.6907C85.1105 19.4463 92.5365 21.757 91.5812 28.3011C91.3444 30.1831 90.6096 31.5834 89.5686 32.6979C88.1887 34.1798 86.6088 35.4617 85.1922 36.9069C84.8003 37.307 84.6288 38.0949 84.8574 38.9808C85.1391 40.0504 86.1883 40.773 87.3273 40.6587C88.2704 40.5648 88.3724 40.3443 89.0052 39.7279L93.9 34.9841L96.5577 37.9357C94.7206 39.8544 92.9284 41.8181 90.8586 43.4797C87.7764 45.9577 83.2694 44.4472 81.5507 41.1608C80.3872 38.94 80.7791 35.7148 82.6488 33.9553C84.0614 32.6244 85.478 31.2895 86.7844 29.8484C87.854 28.6686 88.1765 26.562 87.1803 25.3291C84.8656 22.4714 80.9383 20.5527 80.8975 16.4947C80.8403 10.7793 87.56 7.9175 91.618 11.8081C93.2387 13.3635 94.79 14.9883 96.3454 16.609C94.9329 17.8174 94.6512 19.2218 94.8798 20.6833L94.8839 20.6792ZM100.305 16.3804H100.309C102.073 14.5719 103.829 12.7552 105.723 11.0896C107.531 9.49741 110.948 9.86891 112.773 11.2243C115.439 13.2002 116.537 16.7274 114.659 19.479C112.896 22.0672 110.352 23.1736 108.813 26.1048C107.621 28.3705 110.173 30.4648 111.663 31.9631C113.316 33.6287 114.97 35.1474 115.251 37.0784C115.57 39.2421 115.251 40.9649 114.088 42.2998C111.687 45.0636 107.613 45.5454 104.902 43.0469C102.947 41.2466 101.118 39.3115 99.2562 37.4131L95.5943 33.347L95.6188 33.3225C93.1081 27.8561 98.403 25.5496 97.4926 23.5614H97.4967C96.3822 19.6341 98.0233 18.7237 100.305 16.3845V16.3804Z" fill="#1E1E1E"/>
</g>
<defs>
<clipPath id="clip0_118_51">
<rect width="196.496" height="95.9849" fill="white" transform="translate(0 0.539062)"/>
</clipPath>
</defs>
</svg>
