<svg width="208" height="113" viewBox="0 0 208 113" fill="none" xmlns="http://www.w3.org/2000/svg">
<g clip-path="url(#clip0_145_115)">
<path fill-rule="evenodd" clip-rule="evenodd" d="M78.0751 0.925049H130.45C136.687 0.925049 141.8 6.03856 141.8 12.2755V63.6043C141.8 69.8413 136.687 74.9548 130.45 74.9548H78.0751C71.8381 74.9548 66.7246 69.8413 66.7246 63.6043V12.2755C66.7246 6.03856 71.8381 0.925049 78.0751 0.925049ZM108.291 28.1584C109.376 30.6764 109.628 33.1169 109.066 35.4606C108.136 37.998 106.916 39.4313 105.812 40.7872C105.173 41.6007 105.018 42.4142 105.134 43.189C105.289 44.448 105.599 44.6611 106.412 45.494C110.519 49.639 114.606 53.7647 118.712 57.9097C119.351 58.5489 119.777 59.13 120.649 59.4593C121.424 59.7692 122.237 59.7692 123.031 59.4399C125.026 58.6458 126.983 55.7791 125.356 53.8615C120.92 48.6705 114.974 45.0678 114.722 37.7656C114.799 34.9183 115.361 32.1872 117.453 29.9985C119.797 27.5386 122.218 25.1755 124.62 22.7737C125.375 21.9989 125.433 21.9602 125.627 20.8368C125.956 18.8804 125.375 17.1953 123.167 16.3237C122.508 16.0525 121.772 16.1106 121.075 16.2462C119.08 16.6336 110.286 26.1827 108.291 28.1584ZM98.8003 27.1124C95.3913 23.6259 91.8467 20.275 88.3989 16.8467C87.8566 16.3043 87.0431 16.2075 86.1521 16.2462C83.3629 16.3624 82.3944 18.2994 82.5881 20.6431C82.9368 25.1174 94.9845 28.8557 93.435 39.4701C93.0476 42.5111 91.866 44.7773 90.1809 46.598C87.9341 48.9998 85.3773 51.0723 83.0917 53.416C82.4525 54.0746 82.1814 55.3336 82.5494 56.7863C82.9949 58.5295 84.6994 59.6917 86.5588 59.498C88.089 59.3431 88.244 58.9944 89.2705 57.9872L97.212 50.2976L101.531 55.0818C98.5485 58.1809 95.6431 61.3768 92.2922 64.0692C87.2949 68.098 79.9926 65.6381 77.2034 60.3115C75.3246 56.7088 75.9444 51.4791 78.9854 48.6318C81.271 46.4818 83.576 44.3124 85.6872 41.9687C87.4305 40.0512 87.9534 36.6422 86.3264 34.6471C82.5687 30.0178 76.1962 26.8994 76.1381 20.3138C76.0413 11.0552 86.9462 6.40658 93.5124 12.721C96.1467 15.239 98.6647 17.8732 101.183 20.5075C98.8971 22.4638 98.4323 24.7494 98.8003 27.1124ZM107.594 20.1395C110.461 17.2147 113.308 14.2705 116.368 11.5588C119.293 8.9827 124.833 9.58315 127.796 11.7719C132.116 14.9872 133.898 20.7012 130.857 25.1561C127.99 29.3399 123.864 31.1413 121.385 35.9061C119.448 39.5863 123.593 42.9759 126.014 45.3971C128.707 48.0895 131.38 50.5687 131.825 53.6872C132.348 57.1931 131.825 59.9822 129.946 62.1516C126.053 66.6259 119.448 67.4201 115.051 63.3719C111.875 60.4471 108.911 57.3093 105.889 54.2295L99.9624 47.644L100.001 47.6052C95.9336 38.7341 104.514 34.9958 103.042 31.7804C101.241 25.4079 103.894 23.9359 107.594 20.1395Z" fill="#4E4E4E"/>
<path d="M20.2573 84.4067C19.0758 84.4067 18.2816 84.891 17.7974 85.8207L12.9744 94.0721L7.39605 84.4067H0.887939L9.50731 97.8491L0.887939 111.931H7.39605L12.9744 102.382L18.5915 111.931H25.1384L16.519 97.8491L25.1384 84.4067H20.2379H20.2573ZM36.605 94.9243C38.9875 94.9243 40.2078 96.009 40.324 98.2365V111.911H45.7474V98.3139C45.7861 96.0865 47.0064 95.0018 49.3888 95.0018C51.7713 95.0018 52.9915 96.0865 53.1077 98.3139V109.316C53.1077 111.02 53.9987 111.873 55.7807 111.989H58.5699V99.3986C58.6086 93.2973 55.5677 90.2563 49.4663 90.2563C46.7159 90.2563 44.6046 90.818 43.0744 91.9995C41.5442 90.7793 39.433 90.1788 36.6825 90.1788C30.5812 90.1788 27.5014 93.2198 27.5014 99.3212V111.911H32.9636V98.2365C33.0023 96.009 34.2226 94.9243 36.605 94.9243ZM69.2231 107.96C67.5186 107.96 66.6276 107.146 66.5114 105.442C66.5114 103.873 67.596 102.846 69.746 102.44C71.315 102.11 72.787 101.665 74.0267 101.142V103.118C74.0267 106.159 72.2059 107.941 69.2037 107.941L69.2231 107.96ZM70.4821 94.6144C72.7095 94.6144 73.833 95.2148 73.9686 96.4351C73.9686 97.6167 72.787 98.2946 70.4821 98.5851C65.0586 99.1081 61.3397 100.483 61.2235 105.616C61.2235 110.342 64.7875 112.744 69.9204 112.337C75.7118 111.931 79.2758 109.296 79.2758 103.389V96.1058C79.1595 92.1351 76.1573 90.1982 70.2496 90.1982C65.3105 90.1982 62.5213 92.1351 61.8821 96.1058H67.2668C67.5573 95.0986 68.6032 94.6144 70.5014 94.6144H70.4821ZM81.8519 111.931H87.3141V100.813C87.3141 97.6941 88.8055 96.1252 91.8077 96.1252H93.6285V90.5468H92.8537C85.687 90.5468 82.0068 93.9946 81.8519 100.909V111.95V111.931ZM105.153 91.709V90.5275H101.919V87.1378C101.919 85.7239 100.737 84.4261 99.3231 84.4261H96.5339V107.805C96.4951 110.187 97.4636 111.446 99.478 111.64C101.492 111.834 103.41 111.834 105.134 111.679V107.592H103.468C102.422 107.592 101.899 107.108 101.899 106.217V94.3626H102.461C103.952 94.3626 105.134 93.2392 105.134 91.6896L105.153 91.709Z" fill="#4E4E4E"/>
<path d="M107.4 87.3702V111.931H112.708V89.7139L118.325 111.931H124.077L129.695 89.7139V111.931H135.002V84.426H126.634L121.249 105.384L115.71 84.426H110.248C108.679 84.426 107.42 85.8012 107.42 87.3895L107.4 87.3702ZM156.676 105.384H152.705C151.969 105.384 151.369 105.635 150.885 106.158C149.839 107.166 148.657 107.689 147.398 107.689C144.764 107.689 143.35 106.023 143.156 102.749H156.986C157.393 94.3819 154.197 90.1981 147.398 90.1981C140.89 90.2368 137.597 93.8783 137.597 101.161C137.597 108.444 140.832 112.202 147.301 112.415C152.57 112.415 155.475 109.916 156.657 105.384H156.676ZM147.321 94.6143C149.626 94.6143 150.962 96.067 151.291 98.8949H143.234C143.64 96.067 145.016 94.6143 147.321 94.6143ZM169.363 95.0211C172.268 95.0211 173.779 97.0355 173.895 101.181C173.895 105.519 172.365 107.689 169.286 107.689C166.206 107.689 164.753 105.5 164.792 101.181C164.947 97.0548 166.458 95.0211 169.363 95.0211ZM176.568 84.426H173.895V93.5296C172.52 91.3022 170.448 90.2175 167.794 90.2175C162.08 90.4112 159.252 94.1494 159.252 101.432C159.252 108.56 162.564 112.163 169.208 112.279C175.89 112.318 179.241 109.122 179.241 102.691V87.1571C179.241 85.7044 178.021 84.4454 176.568 84.4454V84.426ZM181.663 84.426V88.6292H187.047V87.0603C187.086 85.317 186.234 84.426 184.452 84.426H181.663ZM181.663 90.5274V111.931H187.047V93.1229C187.047 91.3796 186.195 90.5274 184.452 90.5274H181.663ZM197.604 107.96C195.899 107.96 195.008 107.146 194.892 105.442C194.892 103.873 195.976 102.846 198.126 102.44C199.695 102.11 201.167 101.665 202.407 101.142V103.117C202.407 106.158 200.586 107.94 197.584 107.94L197.604 107.96ZM198.863 94.6143C201.09 94.6143 202.213 95.2148 202.349 96.435C202.349 97.6166 201.167 98.2945 198.863 98.585C193.439 99.108 189.72 100.483 189.604 105.616C189.604 110.342 193.168 112.744 198.301 112.337C204.092 111.931 207.656 109.296 207.656 103.389V96.1058C207.54 92.135 204.538 90.1981 198.63 90.1981C193.691 90.1981 190.902 92.135 190.263 96.1058H195.647C195.938 95.0985 196.984 94.6143 198.882 94.6143H198.863Z" fill="#4E4E4E"/>
</g>
<defs>
<clipPath id="clip0_145_115">
<rect width="206.807" height="111.493" fill="white" transform="translate(0.868896 0.923096)"/>
</clipPath>
</defs>
</svg>
